<svg width="291" height="62" viewBox="0 0 291 62" fill="none" xmlns="http://www.w3.org/2000/svg">
<g clip-path="url(#clip0_544_657)">
<path fill-rule="evenodd" clip-rule="evenodd" d="M28.5251 6.33008C29.7871 6.33008 30.8691 7.09044 31.3441 8.17731C31.3921 8.28577 31.4971 8.34524 31.6031 8.34524C31.6781 8.34524 31.7541 8.31457 31.8091 8.2495C32.3881 7.55833 33.2511 7.14467 34.1681 7.14467C34.4311 7.14467 34.6991 7.17908 34.9651 7.25014C36.1861 7.5774 37.0361 8.59471 37.2121 9.77021C37.2321 9.91084 37.3581 10.002 37.4881 10.002C37.5401 10.002 37.5941 9.98676 37.6421 9.95348C38.1621 9.58882 38.7831 9.39396 39.4151 9.39396C39.9361 9.39396 40.4641 9.52673 40.9481 9.80612C42.0431 10.4381 42.6001 11.6406 42.4661 12.8213C42.4471 12.9881 42.5861 13.1261 42.7421 13.1261C42.7721 13.1261 42.8031 13.1209 42.8341 13.1097C43.1751 12.9855 43.5341 12.9231 43.8921 12.9231C44.6791 12.9231 45.4651 13.2226 46.0651 13.8233C46.9591 14.7172 47.1861 16.0228 46.7511 17.1284C46.6801 17.3076 46.8201 17.5035 47.0081 17.5035C47.0161 17.5035 47.0241 17.5032 47.0321 17.5024C47.1221 17.4946 47.2121 17.4904 47.3021 17.4904C48.3651 17.4904 49.3991 18.0406 49.9691 19.028C50.6011 20.1227 50.4821 21.4426 49.7751 22.3978C49.6561 22.559 49.7531 22.7973 49.9501 22.832C51.0921 23.0329 52.0721 23.8714 52.3921 25.0656C52.7191 26.2868 52.2631 27.5311 51.3331 28.2709C51.1761 28.3954 51.2081 28.6505 51.3891 28.7354C52.4411 29.225 53.1701 30.2886 53.1701 31.5247C53.1701 32.787 52.4101 33.869 51.3231 34.344C51.1371 34.4256 51.0951 34.6784 51.2511 34.8089C52.1401 35.5539 52.5701 36.7706 52.2501 37.9652C51.9231 39.1863 50.9051 40.0357 49.7301 40.2115C49.5321 40.241 49.4321 40.4778 49.5471 40.642C50.2121 41.5916 50.3121 42.8774 49.6941 43.9482C49.1241 44.9352 48.0911 45.4854 47.0271 45.4854C46.9111 45.4854 46.7951 45.4786 46.6791 45.4655C46.6691 45.4644 46.6581 45.4637 46.6481 45.4637C46.4641 45.4637 46.3251 45.6552 46.3901 45.8339C46.7881 46.9234 46.5511 48.1913 45.6771 49.0654C45.0771 49.666 44.2901 49.9656 43.5041 49.9656C43.1191 49.9656 42.7351 49.8938 42.3721 49.7509C42.3401 49.7382 42.3071 49.7322 42.2741 49.7322C42.1211 49.7322 41.9831 49.8669 41.9981 50.0322C42.0991 51.1871 41.5431 52.3507 40.4721 52.9689C39.9881 53.2483 39.4601 53.3811 38.9391 53.3811C38.2821 53.3811 37.6351 53.1697 37.1021 52.7755C37.0541 52.7396 36.9981 52.7232 36.9441 52.7232C36.8171 52.7232 36.6921 52.8122 36.6681 52.9502C36.4671 54.0924 35.6291 55.0723 34.4341 55.3921C34.1681 55.4635 33.9001 55.4976 33.6371 55.4976C32.6941 55.4976 31.8081 55.06 31.2291 54.3329C31.1751 54.2648 31.0961 54.2323 31.0171 54.2323C30.9151 54.2323 30.8131 54.2869 30.7651 54.3894C30.2751 55.4407 29.2111 56.17 27.9751 56.17C26.7131 56.17 25.6311 55.4101 25.1561 54.3232C25.1091 54.2147 25.0031 54.1553 24.8971 54.1553C24.8221 54.1553 24.7461 54.1855 24.6911 54.2506C24.1131 54.9418 23.2491 55.3554 22.3321 55.3554C22.0691 55.3554 21.8011 55.3214 21.5351 55.25C20.3141 54.9227 19.4641 53.9054 19.2891 52.7303C19.2681 52.5893 19.1421 52.498 19.0131 52.498C18.9601 52.498 18.9061 52.5134 18.8581 52.547C18.3381 52.9117 17.7171 53.1065 17.0851 53.1065C16.5641 53.1065 16.0361 52.9738 15.5521 52.694C14.4571 52.0619 13.9001 50.8595 14.0351 49.6787C14.0541 49.5119 13.9151 49.3743 13.7581 49.3743C13.7281 49.3743 13.6971 49.3792 13.6661 49.3904C13.3251 49.5149 12.9661 49.577 12.6081 49.577C11.8211 49.577 11.0351 49.2774 10.4351 48.6771C9.54107 47.7829 9.31407 46.4772 9.74907 45.3717C9.82007 45.1929 9.68008 44.9965 9.49208 44.9965C9.48408 44.9965 9.47608 44.9969 9.46808 44.9977C9.37808 45.0055 9.28807 45.0096 9.19807 45.0096C8.13507 45.0096 7.10108 44.4595 6.53108 43.4721C5.89908 42.3773 6.01808 41.0575 6.72508 40.1023C6.84408 39.9411 6.74708 39.7028 6.55008 39.668C5.40808 39.4672 4.42808 38.6287 4.10808 37.4345C3.78108 36.2133 4.23708 34.969 5.16708 34.2296C5.32408 34.1047 5.29307 33.8496 5.11107 33.7651C4.05907 33.2755 3.33008 32.2118 3.33008 30.9753C3.33008 29.7134 4.09008 28.631 5.17708 28.1561C5.36308 28.0745 5.40507 27.8217 5.24907 27.6915C4.36007 26.9465 3.93008 25.7295 4.25008 24.5349C4.57708 23.3138 5.59508 22.4644 6.77008 22.2886C6.96808 22.2591 7.06808 22.0223 6.95308 21.8581C6.28808 20.9085 6.18808 19.6227 6.80608 18.5523C7.37608 17.5649 8.40908 17.0151 9.47308 17.0151C9.58908 17.0151 9.70508 17.0214 9.82108 17.0349C9.83108 17.036 9.84208 17.0364 9.85208 17.0364C10.0361 17.0364 10.1751 16.8449 10.1101 16.6665C9.71308 15.5766 9.94907 14.3088 10.8231 13.4347C11.4241 12.834 12.2101 12.5348 12.9961 12.5348C13.3811 12.5348 13.7651 12.6063 14.1281 12.7495C14.1611 12.7622 14.1941 12.7678 14.2261 12.7678C14.3791 12.7678 14.5171 12.6332 14.5021 12.4683C14.4011 11.3129 14.9571 10.1494 16.0281 9.53122C16.5121 9.25184 17.0401 9.11907 17.5611 9.11907C18.2191 9.11907 18.8651 9.33038 19.3981 9.72496C19.4461 9.76049 19.5021 9.77695 19.5561 9.77695C19.6841 9.77695 19.8081 9.68831 19.8321 9.54992C20.0331 8.4077 20.8711 7.42817 22.0661 7.10802C22.3321 7.03659 22.6001 7.00255 22.8631 7.00255C23.8061 7.00255 24.6921 7.44014 25.2711 8.16721C25.3251 8.23566 25.4041 8.2682 25.4831 8.2682C25.5851 8.2682 25.6881 8.21322 25.7351 8.11074C26.2251 7.0594 27.2891 6.33008 28.5251 6.33008Z" fill="black"/>
<path fill-rule="evenodd" clip-rule="evenodd" d="M39.9462 43.5833C37.1162 43.5833 37.3382 39.5868 39.9462 39.5868C42.5552 39.5868 42.7772 43.5833 39.9462 43.5833ZM16.5552 43.5833C13.7242 43.5833 13.9462 39.5868 16.5552 39.5868C19.1642 39.5868 19.3862 43.5833 16.5552 43.5833ZM48.4992 28.8178H47.5402C45.8202 28.8178 44.3432 27.7898 43.6822 26.3164C43.0212 27.7898 41.5432 28.8178 39.8242 28.8178C38.1042 28.8178 36.6272 27.7898 35.9662 26.3164C35.3052 27.7898 33.8282 28.8178 32.1082 28.8178C30.3892 28.8178 28.9122 27.7898 28.2512 26.3164C27.5902 27.7898 26.1122 28.8178 24.3932 28.8178C22.6732 28.8178 21.1962 27.7898 20.5352 26.3164C19.8742 27.7898 18.3972 28.8178 16.6772 28.8178C14.9572 28.8178 13.4812 27.7898 12.8202 26.3164C12.1582 27.7898 10.6812 28.8178 8.96117 28.8178H8.01317C6.57517 30.3654 7.48717 31.6729 11.0402 31.6729V39.6205C11.0402 47.0897 19.6402 50.8244 28.2412 50.8244C36.8422 50.8244 45.4432 47.0897 45.4432 39.6205V31.6729C48.9982 31.6729 49.9262 30.3654 48.4992 28.8178Z" fill="white"/>
<path fill-rule="evenodd" clip-rule="evenodd" d="M28.526 3.25C27.266 3.25 26.061 3.6447 25.06 4.33879C24.364 4.06791 23.616 3.92459 22.846 3.92459C22.315 3.92459 21.785 3.99475 21.269 4.13281C20.051 4.45923 18.987 5.15407 18.199 6.08566C17.976 6.06052 17.752 6.04777 17.527 6.04777C16.464 6.04777 15.413 6.32991 14.489 6.86342C13.397 7.49374 12.55 8.43958 12.03 9.54263C10.753 9.73473 9.576 10.3264 8.646 11.2561C7.753 12.1487 7.179 13.2832 6.963 14.485C5.795 14.9993 4.79501 15.875 4.13901 17.0115C3.50801 18.1036 3.248 19.3466 3.349 20.5622C2.357 21.3565 1.61799 22.4577 1.27499 23.7367C0.948994 24.9553 1.019 26.2234 1.431 27.3715C0.679 28.3954 0.25 29.6508 0.25 30.9744C0.25 32.2358 0.645003 33.4424 1.341 34.4445C0.880003 35.6282 0.790004 36.9515 1.132 38.2309C1.459 39.4491 2.15401 40.512 3.08501 41.2999C2.94501 42.5628 3.20101 43.8643 3.86301 45.0113C4.49201 46.1008 5.43701 46.951 6.54401 47.4721C6.73601 48.7275 7.32 49.9184 8.256 50.8544C9.148 51.7459 10.267 52.3267 11.484 52.5424C11.995 53.7032 12.866 54.6997 14.011 55.3608C14.936 55.8947 15.986 56.1768 17.05 56.1768C17.223 56.1768 17.395 56.1693 17.566 56.1551C18.36 57.1448 19.46 57.8824 20.737 58.2246C21.252 58.3627 21.783 58.4328 22.314 58.4328C23.026 58.4328 23.724 58.3087 24.378 58.073C25.4 58.8223 26.653 59.25 27.974 59.25C29.234 59.25 30.439 58.8553 31.44 58.1612C32.136 58.4325 32.884 58.5754 33.654 58.5754C34.185 58.5754 34.715 58.5056 35.231 58.3672C36.449 58.0408 37.513 57.3459 38.3 56.4143C38.524 56.4395 38.748 56.4522 38.973 56.4522C40.036 56.4522 41.087 56.1701 42.011 55.6366C43.103 55.0063 43.95 54.0604 44.47 52.9574C45.747 52.7653 46.924 52.1736 47.854 51.2439C48.747 50.3513 49.32 49.2168 49.537 48.015C50.705 47.501 51.705 46.6253 52.361 45.4889C52.992 44.3967 53.252 43.1537 53.151 41.9381C54.143 41.1439 54.882 40.0427 55.225 38.7633C55.551 37.5447 55.481 36.2766 55.069 35.1289C55.821 34.1046 56.25 32.8496 56.25 31.5256C56.25 30.2646 55.854 29.0576 55.159 28.0558C55.62 26.8721 55.71 25.5485 55.367 24.2691C55.041 23.0509 54.346 21.988 53.415 21.2001C53.555 19.9372 53.299 18.6357 52.637 17.4887C52.007 16.3992 51.063 15.5494 49.956 15.0279C49.764 13.7725 49.18 12.582 48.244 11.6459C47.352 10.7541 46.233 10.1733 45.016 9.95796C44.505 8.79714 43.634 7.80026 42.489 7.13919C41.565 6.60567 40.514 6.32353 39.45 6.32353C39.277 6.32353 39.105 6.33066 38.934 6.34492C38.14 5.35555 37.04 4.61756 35.763 4.27539C35.248 4.13732 34.717 4.06716 34.187 4.06716C33.474 4.06716 32.776 4.19134 32.122 4.42734C31.1 3.67771 29.847 3.25 28.526 3.25ZM28.526 6.25149C29.791 6.25149 30.877 7.01425 31.354 8.10454C31.401 8.21335 31.507 8.273 31.613 8.273C31.689 8.273 31.765 8.24224 31.82 8.17695C32.401 7.48361 33.267 7.06865 34.186 7.06865C34.451 7.06865 34.719 7.10317 34.986 7.17445C36.211 7.50274 37.063 8.52325 37.24 9.70246C37.261 9.84353 37.386 9.93508 37.517 9.93508C37.569 9.93508 37.623 9.9197 37.672 9.8863C38.193 9.5205 38.816 9.32502 39.45 9.32502C39.973 9.32502 40.502 9.45822 40.988 9.73848C42.086 10.3725 42.645 11.5788 42.51 12.7632C42.491 12.9306 42.631 13.069 42.788 13.069C42.818 13.069 42.849 13.0638 42.88 13.0525C43.222 12.9279 43.582 12.8653 43.941 12.8653C44.731 12.8653 45.519 13.1658 46.121 13.7684C47.018 14.6651 47.246 15.9748 46.809 17.0839C46.738 17.2636 46.879 17.4602 47.067 17.4602C47.075 17.4602 47.083 17.4598 47.091 17.4591C47.181 17.4512 47.271 17.4471 47.362 17.4471C48.428 17.4471 49.465 17.999 50.037 18.9895C50.671 20.0876 50.552 21.4117 49.843 22.3699C49.724 22.5316 49.82 22.7706 50.019 22.8055C51.164 23.007 52.147 23.8481 52.468 25.0461C52.796 26.2711 52.339 27.5193 51.406 28.2614C51.248 28.3864 51.28 28.6423 51.462 28.7274C52.517 29.2186 53.249 30.2856 53.249 31.5256C53.249 32.7918 52.486 33.8772 51.396 34.3537C51.209 34.4355 51.167 34.6891 51.323 34.8201C52.216 35.5675 52.647 36.7879 52.326 37.9863C51.997 39.2113 50.977 40.0633 49.798 40.2397C49.599 40.2693 49.499 40.5068 49.614 40.6715C50.282 41.6241 50.382 42.914 49.762 43.9882C49.19 44.9783 48.153 45.5302 47.086 45.5302C46.97 45.5302 46.853 45.5234 46.737 45.5103C46.727 45.5092 46.716 45.5084 46.706 45.5084C46.521 45.5084 46.382 45.7005 46.447 45.8798C46.846 46.9728 46.609 48.2446 45.732 49.1215C45.129 49.724 44.341 50.0245 43.552 50.0245C43.166 50.0245 42.78 49.9525 42.416 49.8092C42.384 49.7964 42.351 49.7904 42.319 49.7904C42.165 49.7904 42.026 49.9255 42.041 50.0913C42.143 51.2499 41.585 52.4171 40.511 53.0373C40.025 53.3176 39.495 53.4507 38.973 53.4507C38.313 53.4507 37.665 53.2388 37.13 52.8433C37.081 52.8073 37.026 52.7908 36.971 52.7908C36.843 52.7908 36.719 52.8801 36.695 53.0185C36.493 54.1643 35.652 55.1473 34.454 55.4681C34.186 55.5398 33.918 55.5739 33.654 55.5739C32.708 55.5739 31.819 55.135 31.239 54.4056C31.184 54.3373 31.105 54.3047 31.026 54.3047C30.923 54.3047 30.821 54.3594 30.773 54.4622C30.281 55.5169 29.214 56.2485 27.974 56.2485C26.708 56.2485 25.623 55.4861 25.146 54.3958C25.099 54.287 24.993 54.2274 24.887 54.2274C24.811 54.2274 24.735 54.2578 24.68 54.323C24.099 55.0164 23.233 55.4314 22.314 55.4314C22.049 55.4314 21.781 55.3972 21.514 55.3255C20.289 54.9973 19.437 53.9768 19.26 52.7979C19.239 52.6565 19.114 52.5649 18.983 52.5649C18.931 52.5649 18.877 52.5803 18.828 52.6141C18.307 52.9799 17.684 53.1754 17.05 53.1754C16.527 53.1754 15.998 53.0422 15.512 52.7615C14.414 52.1275 13.855 50.9212 13.99 49.7368C14.009 49.5694 13.869 49.4314 13.712 49.4314C13.682 49.4314 13.651 49.4362 13.62 49.4475C13.278 49.5724 12.918 49.6347 12.559 49.6347C11.769 49.6347 10.981 49.3342 10.379 48.732C9.482 47.8349 9.25399 46.5252 9.69099 45.4161C9.76199 45.2368 9.621 45.0398 9.433 45.0398C9.425 45.0398 9.417 45.0402 9.409 45.0409C9.319 45.0488 9.229 45.0529 9.138 45.0529C8.072 45.0529 7.035 44.501 6.463 43.5105C5.829 42.4124 5.948 41.0883 6.657 40.1301C6.776 39.9684 6.68 39.7294 6.481 39.6945C5.336 39.493 4.353 38.6519 4.032 37.4539C3.704 36.2289 4.16099 34.9807 5.09399 34.2389C5.25199 34.1136 5.21999 33.8577 5.03799 33.7729C3.98299 33.2818 3.25101 32.2148 3.25101 30.9744C3.25101 29.7085 4.014 28.6228 5.105 28.1463C5.291 28.0645 5.333 27.8109 5.177 27.6803C4.284 26.9329 3.853 25.7121 4.174 24.5137C4.503 23.2887 5.523 22.4367 6.702 22.2603C6.901 22.2307 7.001 21.9932 6.886 21.8285C6.218 20.8759 6.11801 19.586 6.73801 18.5122C7.31001 17.5217 8.347 16.9702 9.414 16.9702C9.53 16.9702 9.647 16.9766 9.763 16.9901C9.773 16.9912 9.78401 16.9916 9.79401 16.9916C9.97901 16.9916 10.118 16.7995 10.053 16.6205C9.65399 15.5272 9.89101 14.2554 10.768 13.3785C11.371 12.776 12.159 12.4758 12.948 12.4758C13.334 12.4758 13.72 12.5475 14.084 12.6912C14.116 12.704 14.149 12.7096 14.181 12.7096C14.335 12.7096 14.474 12.5745 14.459 12.4091C14.357 11.2501 14.915 10.0829 15.989 9.46272C16.475 9.18245 17.005 9.04926 17.527 9.04926C18.187 9.04926 18.836 9.26124 19.37 9.65706C19.419 9.69271 19.474 9.70922 19.529 9.70922C19.657 9.70922 19.781 9.6203 19.805 9.48148C20.007 8.33566 20.848 7.35304 22.046 7.03188C22.314 6.96022 22.582 6.92608 22.846 6.92608C23.792 6.92608 24.681 7.36505 25.261 8.09441C25.316 8.16307 25.395 8.19571 25.474 8.19571C25.577 8.19571 25.679 8.14056 25.727 8.03776C26.219 6.98311 27.286 6.25149 28.526 6.25149Z" fill="white"/>
<path fill-rule="evenodd" clip-rule="evenodd" d="M101.875 45.0742C102.303 45.5184 102.517 46.0894 102.517 46.7874C102.517 47.4854 102.235 48.0564 101.67 48.5006C101.105 48.9448 100.378 49.1668 99.4879 49.1668H98.5639C96.8859 49.1668 95.3549 48.7623 93.9679 47.9533C92.5819 47.1443 91.4949 46.0418 90.7079 44.6459C89.9209 43.2499 89.5269 41.6795 89.5269 39.9346V28.1802H87.1649C86.4459 28.1802 85.8639 27.9898 85.4189 27.6091C84.9739 27.2284 84.752 26.7525 84.752 26.1814C84.752 25.5469 84.9739 25.0393 85.4189 24.6586C85.8639 24.2779 86.4459 24.0875 87.1649 24.0875H89.5269V17.2347C89.5269 16.5368 89.7669 15.9657 90.2459 15.5215C90.7249 15.0774 91.3409 14.8553 92.0939 14.8553C92.8469 14.8553 93.4629 15.0774 93.9429 15.5215C94.4219 15.9657 94.6609 16.5368 94.6609 17.2347V24.0875H99.0259C99.7449 24.0875 100.326 24.2779 100.771 24.6586C101.216 25.0393 101.439 25.5469 101.439 26.1814C101.439 26.7525 101.216 27.2284 100.771 27.6091C100.326 27.9898 99.7449 28.1802 99.0259 28.1802H94.6609V39.9346C94.6609 41.2036 95.0379 42.2664 95.7909 43.1231C96.5439 43.9797 97.4679 44.4079 98.5639 44.4079H100.309C100.925 44.4079 101.447 44.63 101.875 45.0742ZM128.318 24.6824C130.457 25.8404 132.151 27.4267 133.401 29.4413C134.65 31.4559 135.275 33.7005 135.275 36.1751V46.7874C135.275 47.4854 135.027 48.0644 134.53 48.5244C134.034 48.9844 133.409 49.2144 132.656 49.2144C131.903 49.2144 131.278 48.9844 130.782 48.5244C130.286 48.0644 130.038 47.4854 130.038 46.7874V45.0266C128.84 46.3908 127.385 47.4536 125.673 48.2151C123.962 48.9765 122.113 49.3572 120.128 49.3572C117.664 49.3572 115.43 48.7861 113.428 47.644C111.425 46.5019 109.851 44.9235 108.704 42.9089C107.557 40.8943 106.984 38.6497 106.984 36.1751C106.984 33.7005 107.6 31.4559 108.832 29.4413C110.065 27.4267 111.768 25.8404 113.941 24.6824C116.115 23.5244 118.519 22.9454 121.155 22.9454C123.791 22.9454 126.178 23.5244 128.318 24.6824ZM125.802 43.9083C127.188 43.131 128.275 42.0682 129.062 40.7198C129.849 39.3715 130.243 37.8566 130.243 36.1751C130.243 34.4936 129.849 32.9708 129.062 31.6066C128.275 30.2424 127.188 29.1716 125.802 28.3943C124.415 27.617 122.867 27.2284 121.155 27.2284C119.444 27.2284 117.895 27.617 116.508 28.3943C115.122 29.1716 114.027 30.2424 113.222 31.6066C112.418 32.9708 112.016 34.4936 112.016 36.1751C112.016 37.8566 112.418 39.3715 113.222 40.7198C114.027 42.0682 115.122 43.131 116.508 43.9083C117.895 44.6856 119.444 45.0742 121.155 45.0742C122.867 45.0742 124.415 44.6856 125.802 43.9083ZM146.211 48.3578C144.157 47.6916 142.548 46.8191 141.385 45.7404C140.94 45.328 140.717 44.8363 140.717 44.2652C140.717 43.5038 141.06 42.8851 141.744 42.4092C142.394 41.9651 142.993 41.743 143.541 41.743C144.226 41.743 144.876 42.0285 145.492 42.5996C146.143 43.2658 147.118 43.8448 148.419 44.3366C149.72 44.8283 151.106 45.0742 152.578 45.0742C154.529 45.0742 156.043 44.7728 157.122 44.17C158.2 43.5672 158.739 42.7582 158.739 41.743C158.739 40.7595 158.208 39.9425 157.147 39.2922C156.086 38.6418 154.289 38.0945 151.756 37.6503C145.184 36.4765 141.898 33.9702 141.898 30.1313C141.898 28.5767 142.394 27.2601 143.387 26.1814C144.38 25.1028 145.68 24.2938 147.289 23.7544C148.898 23.2151 150.61 22.9454 152.424 22.9454C154.649 22.9454 156.642 23.2785 158.405 23.9448C160.168 24.611 161.563 25.5311 162.59 26.7049C163.035 27.2125 163.257 27.7201 163.257 28.2278C163.257 28.7671 162.966 29.2588 162.384 29.703C162.008 29.9568 161.529 30.0837 160.947 30.0837C160.057 30.0837 159.252 29.7823 158.534 29.1795C157.678 28.4498 156.771 27.9343 155.812 27.6329C154.854 27.3315 153.69 27.1808 152.321 27.1808C150.746 27.1808 149.454 27.4267 148.445 27.9184C147.435 28.4102 146.93 29.1002 146.93 29.9885C146.93 30.6231 147.101 31.1545 147.443 31.5828C147.786 32.0111 148.436 32.4076 149.394 32.7725C150.353 33.1373 151.739 33.4943 153.553 33.8432C157.284 34.5412 159.929 35.5088 161.486 36.7462C163.043 37.9835 163.822 39.5856 163.822 41.5526C163.822 43.012 163.394 44.3366 162.539 45.5263C161.683 46.716 160.425 47.6519 158.765 48.334C157.105 49.0161 155.111 49.3572 152.783 49.3572C150.455 49.3572 148.265 49.0241 146.211 48.3578ZM191.702 47.1681C191.702 47.8661 191.394 48.453 190.778 48.9289C190.264 49.3096 189.717 49.5 189.135 49.5C188.382 49.5 187.766 49.2144 187.286 48.6434L177.531 37.46L174.964 39.5539V46.835C174.964 47.533 174.733 48.0961 174.271 48.5244C173.809 48.9527 173.201 49.1669 172.448 49.1669C171.695 49.1669 171.087 48.9527 170.625 48.5244C170.163 48.0961 169.932 47.533 169.932 46.835V14.3319C169.932 13.6339 170.163 13.0708 170.625 12.6424C171.087 12.2141 171.695 12 172.448 12C173.201 12 173.809 12.2141 174.271 12.6424C174.733 13.0708 174.964 13.6339 174.964 14.3319V33.7005L187.44 23.3737C187.885 22.9613 188.416 22.7551 189.032 22.7551C189.751 22.7551 190.333 23.0089 190.778 23.5165C191.223 23.9289 191.445 24.4207 191.445 24.9917C191.445 25.658 191.172 26.1973 190.624 26.6098L181.176 34.4143L191.137 45.7405C191.514 46.1212 191.702 46.5971 191.702 47.1681ZM215.962 24.6824C218.102 25.8404 219.796 27.4267 221.045 29.4413C222.295 31.4559 222.919 33.7005 222.919 36.1751V46.7874C222.919 47.4854 222.671 48.0644 222.175 48.5244C221.679 48.9844 221.054 49.2144 220.301 49.2144C219.548 49.2144 218.923 48.9844 218.427 48.5244C217.93 48.0644 217.682 47.4854 217.682 46.7874V45.0266C216.484 46.3908 215.029 47.4536 213.318 48.2151C211.607 48.9765 209.758 49.3572 207.773 49.3572C205.308 49.3572 203.075 48.7861 201.072 47.644C199.07 46.5019 197.495 44.9235 196.349 42.9089C195.202 40.8943 194.629 38.6497 194.629 36.1751C194.629 33.7005 195.245 31.4559 196.477 29.4413C197.709 27.4267 199.412 25.8404 201.586 24.6824C203.759 23.5244 206.164 22.9454 208.8 22.9454C211.435 22.9454 213.823 23.5244 215.962 24.6824ZM213.446 43.9083C214.833 43.131 215.919 42.0682 216.707 40.7198C217.494 39.3715 217.888 37.8566 217.888 36.1751C217.888 34.4936 217.494 32.9708 216.707 31.6066C215.919 30.2424 214.833 29.1716 213.446 28.3943C212.06 27.617 210.511 27.2284 208.8 27.2284C207.088 27.2284 205.539 27.617 204.153 28.3943C202.767 29.1716 201.671 30.2424 200.867 31.6066C200.063 32.9708 199.66 34.4936 199.66 36.1751C199.66 37.8566 200.063 39.3715 200.867 40.7198C201.671 42.0682 202.767 43.131 204.153 43.9083C205.539 44.6856 207.088 45.0742 208.8 45.0742C210.511 45.0742 212.06 44.6856 213.446 43.9083ZM256.344 12.6662C256.824 13.1104 257.063 13.6973 257.063 14.427V36.1275C257.063 38.6022 256.439 40.8467 255.189 42.8613C253.94 44.8759 252.246 46.4622 250.106 47.6202C247.967 48.7782 245.579 49.3572 242.944 49.3572C240.308 49.3572 237.903 48.7782 235.73 47.6202C233.556 46.4622 231.853 44.8759 230.621 42.8613C229.389 40.8467 228.773 38.6022 228.773 36.1275C228.773 33.6529 229.346 31.4083 230.493 29.3937C231.639 27.3791 233.214 25.8008 235.216 24.6586C237.219 23.5165 239.452 22.9454 241.917 22.9454C243.902 22.9454 245.75 23.3261 247.462 24.0876C249.173 24.849 250.628 25.9118 251.826 27.276V14.427C251.826 13.6973 252.074 13.1104 252.571 12.6662C253.067 12.2221 253.692 12 254.445 12C255.232 12 255.865 12.2221 256.344 12.6662ZM247.59 43.9083C248.977 43.131 250.063 42.0603 250.851 40.696C251.638 39.3318 252.032 37.809 252.032 36.1275C252.032 34.446 251.638 32.9311 250.851 31.5828C250.063 30.2344 248.977 29.1716 247.59 28.3943C246.204 27.617 244.655 27.2284 242.944 27.2284C241.232 27.2284 239.683 27.617 238.297 28.3943C236.911 29.1716 235.815 30.2344 235.011 31.5828C234.207 32.9311 233.804 34.446 233.804 36.1275C233.804 37.809 234.207 39.3318 235.011 40.696C235.815 42.0603 236.911 43.131 238.297 43.9083C239.683 44.6856 241.232 45.0742 242.944 45.0742C244.655 45.0742 246.204 44.6856 247.59 43.9083ZM290.334 37.2458C289.889 37.6424 289.325 37.8407 288.64 37.8407H269.129C269.506 40.0615 270.593 41.854 272.39 43.2182C274.187 44.5825 276.386 45.2646 278.987 45.2646C280.014 45.2646 281.084 45.0901 282.196 44.7411C283.309 44.3921 284.224 43.9638 284.943 43.4562C285.422 43.1072 285.987 42.9327 286.638 42.9327C287.288 42.9327 287.801 43.0913 288.178 43.4086C288.794 43.8845 289.102 44.4238 289.102 45.0266C289.102 45.5977 288.828 46.0736 288.281 46.4543C287.117 47.3109 285.671 48.0088 283.942 48.5482C282.213 49.0875 280.562 49.3572 278.987 49.3572C276.18 49.3572 273.665 48.7941 271.44 47.6678C269.215 46.5415 267.478 44.979 266.228 42.9803C264.979 40.9815 264.354 38.7132 264.354 36.1751C264.354 33.637 264.945 31.3607 266.126 29.3461C267.306 27.3315 268.949 25.7611 271.055 24.6348C273.16 23.5085 275.547 22.9454 278.217 22.9454C280.853 22.9454 283.129 23.4847 285.046 24.5634C286.963 25.6421 288.435 27.1491 289.462 29.0844C290.488 31.0196 291.002 33.2404 291.002 35.7468C291.002 36.3496 290.779 36.8493 290.334 37.2458ZM272.133 28.9416C270.575 30.2107 269.591 31.908 269.181 34.0336H286.278C285.97 31.908 285.114 30.2107 283.711 28.9416C282.308 27.6726 280.476 27.0381 278.217 27.0381C275.718 27.0381 273.69 27.6726 272.133 28.9416Z" fill="white"/>
</g>
<defs>
<clipPath id="clip0_544_657">
<rect width="291" height="62" fill="white"/>
</clipPath>
</defs>
</svg>
