<svg width="20" height="20" viewBox="0 0 20 20" fill="none" xmlns="http://www.w3.org/2000/svg">
<path d="M11.4444 16.5667V12.3778C11.4444 12.2629 11.4901 12.1526 11.5714 12.0714C11.6526 11.9901 11.7629 11.9444 11.8778 11.9444H16.0667C16.1816 11.9444 16.2918 11.9901 16.3731 12.0714C16.4543 12.1526 16.5 12.2629 16.5 12.3778V16.5667C16.5 16.6816 16.4543 16.7918 16.3731 16.8731C16.2918 16.9543 16.1816 17 16.0667 17H11.8778C11.7629 17 11.6526 16.9543 11.5714 16.8731C11.4901 16.7918 11.4444 16.6816 11.4444 16.5667ZM3.5 16.5667V12.3778C3.5 12.2629 3.54565 12.1526 3.62692 12.0714C3.70819 11.9901 3.81841 11.9444 3.93333 11.9444H8.12222C8.23715 11.9444 8.34737 11.9901 8.42864 12.0714C8.5099 12.1526 8.55556 12.2629 8.55556 12.3778V16.5667C8.55556 16.6816 8.5099 16.7918 8.42864 16.8731C8.34737 16.9543 8.23715 17 8.12222 17H3.93333C3.81841 17 3.70819 16.9543 3.62692 16.8731C3.54565 16.7918 3.5 16.6816 3.5 16.5667ZM11.4444 8.62222V4.43333C11.4444 4.31841 11.4901 4.20819 11.5714 4.12692C11.6526 4.04565 11.7629 4 11.8778 4H16.0667C16.1816 4 16.2918 4.04565 16.3731 4.12692C16.4543 4.20819 16.5 4.31841 16.5 4.43333V8.62222C16.5 8.73715 16.4543 8.84737 16.3731 8.92864C16.2918 9.0099 16.1816 9.05556 16.0667 9.05556H11.8778C11.7629 9.05556 11.6526 9.0099 11.5714 8.92864C11.4901 8.84737 11.4444 8.73715 11.4444 8.62222ZM3.5 8.62222V4.43333C3.5 4.31841 3.54565 4.20819 3.62692 4.12692C3.70819 4.04565 3.81841 4 3.93333 4H8.12222C8.23715 4 8.34737 4.04565 8.42864 4.12692C8.5099 4.20819 8.55556 4.31841 8.55556 4.43333V8.62222C8.55556 8.73715 8.5099 8.84737 8.42864 8.92864C8.34737 9.0099 8.23715 9.05556 8.12222 9.05556H3.93333C3.81841 9.05556 3.70819 9.0099 3.62692 8.92864C3.54565 8.84737 3.5 8.73715 3.5 8.62222Z" stroke="#0F0F0F" stroke-width="1.5"/>
</svg>
