<svg width="56" height="56" viewBox="0 0 56 56" fill="none" xmlns="http://www.w3.org/2000/svg">
<rect width="56" height="56" rx="12" fill="#1CAF61"/>
<path d="M22.8891 33.3498C22.9596 33.3495 22.9596 33.3495 23.0314 33.3492C23.1887 33.3486 23.346 33.3483 23.5033 33.3481C23.6161 33.3478 23.7289 33.3474 23.8418 33.347C24.2123 33.3458 24.5828 33.3452 24.9533 33.3446C25.081 33.3444 25.2088 33.3441 25.3365 33.3439C25.9369 33.3428 26.5372 33.342 27.1375 33.3415C27.8295 33.341 28.5215 33.3394 29.2134 33.3371C29.7489 33.3354 30.2843 33.3346 30.8198 33.3344C31.1393 33.3342 31.4588 33.3337 31.7783 33.3323C32.0792 33.3309 32.3801 33.3307 32.681 33.3313C32.791 33.3313 32.901 33.331 33.0109 33.3302C33.9017 33.3241 34.6305 33.393 35.3028 34.0349C35.7422 34.4947 35.8867 35.0345 35.8915 35.6583C35.8919 35.6985 35.8923 35.7387 35.8927 35.7801C35.8938 35.9126 35.8945 36.0451 35.895 36.1775C35.8953 36.2231 35.8955 36.2687 35.8958 36.3156C35.8969 36.5572 35.8978 36.7987 35.8983 37.0402C35.8989 37.2878 35.9009 37.5354 35.9032 37.783C35.9047 37.9749 35.9052 38.1669 35.9054 38.3589C35.9056 38.45 35.9063 38.5412 35.9074 38.6323C35.9167 39.4752 35.8024 40.173 35.2048 40.7989C34.726 41.2565 34.1688 41.3862 33.5224 41.386C33.4755 41.3862 33.4285 41.3864 33.3801 41.3866C33.2228 41.3873 33.0656 41.3875 32.9083 41.3877C32.7954 41.3881 32.6826 41.3884 32.5698 41.3888C32.1993 41.39 31.8288 41.3906 31.4582 41.3912C31.3305 41.3914 31.2028 41.3917 31.075 41.3919C30.4747 41.393 29.8743 41.3938 29.274 41.3943C28.582 41.3949 27.8901 41.3964 27.1981 41.3987C26.6627 41.4004 26.1272 41.4013 25.5917 41.4015C25.2722 41.4016 24.9527 41.4021 24.6332 41.4035C24.3323 41.4049 24.0314 41.4051 23.7305 41.4045C23.6206 41.4045 23.5106 41.4049 23.4006 41.4056C22.5099 41.4117 21.7811 41.3428 21.1088 40.7009C20.6694 40.2411 20.5249 39.7014 20.52 39.0775C20.5196 39.0373 20.5193 38.9971 20.5189 38.9557C20.5177 38.8232 20.5171 38.6908 20.5165 38.5583C20.5163 38.5127 20.516 38.4671 20.5158 38.4202C20.5146 38.1787 20.5138 37.9371 20.5132 37.6956C20.5126 37.448 20.5106 37.2004 20.5084 36.9528C20.5068 36.7609 20.5064 36.5689 20.5062 36.377C20.5059 36.2858 20.5052 36.1947 20.5042 36.1035C20.4949 35.2606 20.6092 34.5628 21.2068 33.9369C21.6856 33.4793 22.2427 33.3497 22.8891 33.3498Z" fill="white"/>
<path d="M22.8891 24.185C22.9596 24.1847 22.9596 24.1847 23.0314 24.1844C23.1887 24.1838 23.346 24.1835 23.5033 24.1833C23.6161 24.183 23.7289 24.1826 23.8418 24.1822C24.2123 24.181 24.5828 24.1804 24.9533 24.1798C25.081 24.1796 25.2088 24.1793 25.3365 24.1791C25.9369 24.178 26.5372 24.1772 27.1375 24.1767C27.8295 24.1762 28.5215 24.1747 29.2134 24.1723C29.7489 24.1706 30.2843 24.1698 30.8198 24.1696C31.1393 24.1694 31.4588 24.1689 31.7783 24.1675C32.0792 24.1661 32.3801 24.1659 32.681 24.1665C32.791 24.1665 32.901 24.1662 33.0109 24.1654C33.9017 24.1593 34.6305 24.2282 35.3028 24.8701C35.7422 25.3299 35.8867 25.8697 35.8915 26.4935C35.8919 26.5337 35.8923 26.5739 35.8927 26.6153C35.8938 26.7478 35.8945 26.8803 35.895 27.0127C35.8953 27.0583 35.8955 27.1039 35.8958 27.1508C35.8969 27.3924 35.8978 27.6339 35.8983 27.8754C35.8989 28.123 35.9009 28.3706 35.9032 28.6182C35.9047 28.8101 35.9052 29.0021 35.9054 29.1941C35.9056 29.2852 35.9063 29.3764 35.9074 29.4675C35.9167 30.3104 35.8024 31.0082 35.2048 31.6341C34.726 32.0917 34.1688 32.2214 33.5224 32.2212C33.4755 32.2214 33.4285 32.2216 33.3801 32.2218C33.2228 32.2225 33.0656 32.2227 32.9083 32.2229C32.7954 32.2233 32.6826 32.2236 32.5698 32.2241C32.1993 32.2253 31.8288 32.2258 31.4582 32.2264C31.3305 32.2267 31.2028 32.2269 31.075 32.2271C30.4747 32.2282 29.8743 32.229 29.274 32.2295C28.582 32.2301 27.8901 32.2316 27.1981 32.2339C26.6627 32.2356 26.1272 32.2365 25.5917 32.2367C25.2722 32.2368 24.9527 32.2373 24.6332 32.2387C24.3323 32.2401 24.0314 32.2403 23.7305 32.2397C23.6206 32.2397 23.5106 32.2401 23.4006 32.2409C22.5099 32.2469 21.7811 32.178 21.1088 31.5361C20.6694 31.0763 20.5249 30.5366 20.52 29.9127C20.5196 29.8725 20.5193 29.8323 20.5189 29.7909C20.5177 29.6584 20.5171 29.526 20.5165 29.3935C20.5163 29.3479 20.516 29.3023 20.5158 29.2554C20.5146 29.0139 20.5138 28.7723 20.5132 28.5308C20.5126 28.2832 20.5106 28.0356 20.5084 27.7881C20.5068 27.5961 20.5064 27.4041 20.5062 27.2122C20.5059 27.121 20.5052 27.0299 20.5042 26.9387C20.4949 26.0958 20.6092 25.398 21.2068 24.7721C21.6856 24.3145 22.2427 24.1849 22.8891 24.185Z" fill="white"/>
<path d="M22.8891 15.02C22.9596 15.0197 22.9596 15.0197 23.0314 15.0194C23.1887 15.0187 23.346 15.0185 23.5033 15.0183C23.6161 15.0179 23.7289 15.0175 23.8418 15.0171C24.2123 15.0159 24.5828 15.0153 24.9533 15.0148C25.081 15.0145 25.2088 15.0143 25.3365 15.0141C25.9369 15.013 26.5372 15.0122 27.1375 15.0117C27.8295 15.0111 28.5215 15.0096 29.2134 15.0073C29.7489 15.0056 30.2843 15.0047 30.8198 15.0045C31.1393 15.0044 31.4588 15.0039 31.7783 15.0024C32.0792 15.0011 32.3801 15.0009 32.681 15.0015C32.791 15.0015 32.901 15.0011 33.0109 15.0003C33.9017 14.9943 34.6305 15.0632 35.3028 15.7051C35.7422 16.1649 35.8867 16.7046 35.8915 17.3285C35.8919 17.3687 35.8923 17.4089 35.8927 17.4503C35.8938 17.5828 35.8945 17.7152 35.895 17.8477C35.8953 17.8933 35.8955 17.9389 35.8958 17.9858C35.8969 18.2273 35.8978 18.4689 35.8983 18.7104C35.8989 18.958 35.9009 19.2056 35.9032 19.4531C35.9047 19.6451 35.9052 19.8371 35.9054 20.029C35.9056 20.1202 35.9063 20.2113 35.9074 20.3025C35.9167 21.1454 35.8024 21.8432 35.2048 22.4691C34.726 22.9267 34.1688 23.0563 33.5224 23.0562C33.4755 23.0564 33.4285 23.0566 33.3801 23.0568C33.2228 23.0574 33.0656 23.0577 32.9083 23.0579C32.7954 23.0582 32.6826 23.0586 32.5698 23.059C32.1993 23.0602 31.8288 23.0608 31.4582 23.0614C31.3305 23.0616 31.2028 23.0618 31.075 23.0621C30.4747 23.0632 29.8743 23.064 29.274 23.0645C28.582 23.065 27.8901 23.0665 27.1981 23.0689C26.6627 23.0706 26.1272 23.0714 25.5917 23.0716C25.2722 23.0718 24.9527 23.0723 24.6332 23.0737C24.3323 23.075 24.0314 23.0753 23.7305 23.0747C23.6206 23.0747 23.5106 23.075 23.4006 23.0758C22.5099 23.0819 21.7811 23.013 21.1088 22.3711C20.6694 21.9113 20.5249 21.3715 20.52 20.7477C20.5196 20.7075 20.5193 20.6673 20.5189 20.6259C20.5177 20.4934 20.5171 20.3609 20.5165 20.2284C20.5163 20.1829 20.516 20.1373 20.5158 20.0903C20.5146 19.8488 20.5138 19.6073 20.5132 19.3658C20.5126 19.1182 20.5106 18.8706 20.5084 18.623C20.5068 18.4311 20.5064 18.2391 20.5062 18.0471C20.5059 17.956 20.5052 17.8648 20.5042 17.7737C20.4949 16.9308 20.6092 16.233 21.2068 15.607C21.6856 15.1495 22.2427 15.0198 22.8891 15.02Z" fill="white"/>
<path d="M37.8039 18.093C37.9069 18.0917 37.9069 18.0917 38.0121 18.0903C38.9347 18.0943 39.7187 18.4109 40.3922 19.0417C41.2654 19.9666 41.417 21.0369 41.4108 22.2602C41.4109 22.3697 41.4111 22.4792 41.4114 22.5887C41.4118 22.8167 41.4113 23.0447 41.4102 23.2727C41.4089 23.5623 41.4096 23.8519 41.411 24.1415C41.4118 24.3672 41.4116 24.5928 41.411 24.8185C41.4108 24.9252 41.411 25.0319 41.4116 25.1386C41.4161 26.2871 41.2391 27.2708 40.4186 28.1335C40.3768 28.1754 40.335 28.2172 40.292 28.2604C40.2596 28.2934 40.2273 28.3264 40.194 28.3604C39.5361 28.9782 38.6837 29.1497 37.8146 29.1446C37.7436 29.1458 37.6725 29.1469 37.5993 29.1481C36.96 29.1478 36.96 29.1478 36.6833 28.8904C36.4755 28.6717 36.4364 28.4962 36.4255 28.2031C36.4364 27.91 36.4755 27.7345 36.6833 27.5157C36.9627 27.2907 37.1589 27.254 37.5031 27.2508C37.59 27.2476 37.6768 27.2442 37.7636 27.2405C37.8253 27.238 37.8253 27.238 37.8883 27.2354C38.3552 27.2101 38.7497 27.0657 39.0754 26.7218C39.3748 26.3479 39.4501 25.9758 39.4485 25.5006C39.4488 25.4556 39.4491 25.4105 39.4494 25.3641C39.4502 25.2163 39.4501 25.0685 39.45 24.9206C39.4502 24.8171 39.4505 24.7136 39.4508 24.6101C39.4512 24.3935 39.4512 24.177 39.4509 23.9604C39.4505 23.6839 39.4515 23.4074 39.4528 23.1309C39.4537 22.9172 39.4537 22.7036 39.4535 22.4899C39.4536 22.388 39.4539 22.2861 39.4544 22.1842C39.4624 21.2132 39.4624 21.2132 38.9761 20.3972C38.6287 20.1014 38.2125 20.0166 37.7663 20.0019C37.725 20.0005 37.6837 19.9991 37.6412 19.9977C37.5563 19.9953 37.4714 19.9935 37.3866 19.9923C37.0177 19.9782 36.8041 19.8527 36.5473 19.5823C36.4099 19.2865 36.411 19.0152 36.4542 18.6945C36.7389 18.0811 37.1971 18.0854 37.8039 18.093Z" fill="white"/>
<path d="M18.5899 27.2651C18.6614 27.2637 18.733 27.2623 18.8067 27.2608C19.4535 27.2588 19.4535 27.2588 19.7283 27.5157C19.9362 27.7345 19.9752 27.9099 19.9861 28.203C19.9752 28.4962 19.9362 28.6716 19.7283 28.8904C19.4489 29.1154 19.2527 29.1522 18.9085 29.1553C18.8218 29.1584 18.735 29.1618 18.6483 29.1654C18.6071 29.1671 18.566 29.1688 18.5236 29.1705C18.0409 29.1977 17.6419 29.3489 17.3082 29.7031C16.899 30.2365 16.9535 30.859 16.956 31.4967C16.9559 31.6 16.9558 31.7034 16.9555 31.8067C16.9553 32.0226 16.9557 32.2385 16.9565 32.4544C16.9574 32.73 16.9569 33.0055 16.9558 33.2811C16.9552 33.4943 16.9554 33.7075 16.9559 33.9207C16.956 34.0223 16.9558 34.1238 16.9554 34.2254C16.9497 35.1945 16.9497 35.1945 17.4355 36.0089C17.7829 36.3048 18.1991 36.3895 18.6454 36.4043C18.6866 36.4056 18.7279 36.407 18.7705 36.4084C18.8553 36.4109 18.9402 36.4127 19.0251 36.4138C19.3939 36.428 19.6075 36.5534 19.8644 36.8238C20.0017 37.1197 20.0006 37.3909 19.9575 37.7117C19.834 37.9776 19.6593 38.1737 19.3847 38.2845C19.1278 38.3204 18.874 38.3198 18.6149 38.3167C18.5429 38.3161 18.4709 38.3155 18.3967 38.3149C17.4422 38.2931 16.6985 37.9885 15.9943 37.3358C15.1293 36.424 14.9948 35.3475 15.0009 34.1459C15.0007 34.0364 15.0005 33.9269 15.0002 33.8174C14.9999 33.5894 15.0004 33.3614 15.0014 33.1334C15.0027 32.8438 15.002 32.5542 15.0006 32.2646C14.9998 32.0389 15.0001 31.8133 15.0007 31.5876C15.0008 31.4809 15.0006 31.3742 15.0001 31.2676C14.9955 30.1192 15.1722 29.1344 15.9935 28.2724C16.0351 28.2306 16.0767 28.1888 16.1196 28.1458C16.1507 28.1134 16.1817 28.0811 16.2136 28.0478C16.8725 27.4188 17.7167 27.266 18.5899 27.2651Z" fill="white"/>
<path d="M15.9657 16.2671C16.0175 16.2655 16.0692 16.2639 16.1226 16.2622C16.5538 16.3296 16.8446 16.6444 17.1391 16.9415C17.1801 16.9823 17.221 17.0232 17.2633 17.0652C17.3493 17.1512 17.4352 17.2374 17.5209 17.3237C17.6517 17.4555 17.7834 17.5863 17.9153 17.717C17.9991 17.801 18.0828 17.885 18.1665 17.969C18.2057 18.0079 18.245 18.0467 18.2853 18.0867C18.5575 18.363 18.7779 18.6251 18.7832 19.0309C18.785 19.0757 18.7868 19.1204 18.7886 19.1665C18.6956 19.5983 18.3535 19.9224 18.0493 20.2224C18.0097 20.262 17.9701 20.3017 17.9293 20.3425C17.8461 20.4255 17.7627 20.5084 17.6792 20.591C17.5515 20.7173 17.4247 20.8443 17.2979 20.9714C17.2167 21.0524 17.1354 21.1332 17.054 21.2141C17.0163 21.2519 16.9786 21.2896 16.9398 21.3285C16.6511 21.6128 16.4313 21.8121 16.0087 21.8126C15.7128 21.8046 15.541 21.765 15.3177 21.5584C15.2522 21.4982 15.2522 21.4982 15.1853 21.4367C15.0474 21.2018 15.0097 20.9704 15.0313 20.6992C15.1388 20.4022 15.2537 20.2197 15.4831 19.996C15.5637 19.9165 15.5637 19.9165 15.6459 19.8354C15.7023 19.7809 15.7588 19.7263 15.8153 19.6718C15.8726 19.6157 15.9297 19.5596 15.9869 19.5034C16.1261 19.3668 16.2658 19.2309 16.4061 19.0954C16.3189 18.8874 16.1959 18.7603 16.0337 18.6053C15.9575 18.5313 15.9575 18.5313 15.8798 18.4557C15.7726 18.3525 15.6652 18.2496 15.5576 18.1469C15.5068 18.0973 15.456 18.0478 15.4036 17.9967C15.357 17.952 15.3103 17.9073 15.2622 17.8612C15.0708 17.63 15.0082 17.3907 15.0313 17.0941C15.0696 16.7884 15.1963 16.5977 15.4323 16.4032C15.6117 16.2913 15.7555 16.2701 15.9657 16.2671Z" fill="white"/>
<path d="M38.9172 34.6184C39.2309 34.8 39.4735 35.0417 39.729 35.2964C39.7728 35.3398 39.8165 35.3831 39.8616 35.4278C39.9536 35.5192 40.0454 35.6108 40.1371 35.7025C40.2774 35.8426 40.4186 35.9816 40.5598 36.1207C40.6493 36.2099 40.7387 36.2991 40.8281 36.3883C40.8703 36.4297 40.9125 36.471 40.9559 36.5137C41.2101 36.7701 41.3599 36.9681 41.3931 37.3388C41.3747 37.6124 41.334 37.7859 41.145 37.9895C41.1087 38.0289 41.0725 38.0682 41.0352 38.1088C40.9979 38.1478 40.9605 38.1869 40.9221 38.2271C40.8711 38.2806 40.8711 38.2806 40.8191 38.3351C40.7145 38.4431 40.6088 38.5499 40.5025 38.6563C40.4642 38.6948 40.4259 38.7333 40.3865 38.7729C40.3063 38.8534 40.2261 38.9338 40.1457 39.0141C40.0229 39.137 39.9005 39.2605 39.7781 39.3839C39.6998 39.4624 39.6215 39.5409 39.5431 39.6193C39.5067 39.6561 39.4703 39.6929 39.4328 39.7309C39.3814 39.782 39.3814 39.782 39.329 39.8341C39.2992 39.864 39.2694 39.8939 39.2386 39.9247C38.9798 40.1438 38.7292 40.1451 38.4008 40.1391C38.1481 40.107 37.9985 40.018 37.8289 39.831C37.6531 39.5872 37.6346 39.3638 37.623 39.0725C37.7279 38.5854 38.1333 38.2451 38.4769 37.9121C38.5248 37.865 38.5727 37.8179 38.622 37.7693C38.7391 37.6542 38.8566 37.5395 38.9745 37.4252C38.8905 37.2296 38.7823 37.107 38.6293 36.9602C38.5839 36.916 38.5385 36.8718 38.4918 36.8262C38.3963 36.7342 38.3007 36.6423 38.2049 36.5505C37.6343 35.9934 37.6343 35.9934 37.6284 35.5421C37.6387 35.232 37.7366 35.0197 37.9435 34.7903C38.2237 34.5768 38.5768 34.5577 38.9172 34.6184Z" fill="white"/>
</svg>
