<svg width="56" height="56" viewBox="0 0 56 56" fill="none" xmlns="http://www.w3.org/2000/svg">
<rect width="56" height="56" rx="12" fill="#1CAF61"/>
<path d="M18 15C24.6 15 31.2 15 38 15C38 15.5027 38 16.0055 38 16.5234C37.4923 16.5234 36.9846 16.5234 36.4615 16.5234C36.4615 16.691 36.4615 16.8586 36.4615 17.0312C36.3217 19.3264 35.5914 21.5917 34.1026 23.3789C34.0684 23.4205 34.0684 23.4205 34.0336 23.4628C33.5238 24.0804 32.9619 24.6574 32.3497 25.1762C32.2548 25.2592 32.1656 25.346 32.0769 25.4355C31.9543 25.5591 31.8282 25.6749 31.6955 25.7878C31.082 26.3171 30.4727 26.9516 30.3912 27.7895C30.3532 28.6018 30.673 29.1418 31.2051 29.7361C31.4911 30.0428 31.7848 30.3301 32.1042 30.6025C32.2016 30.6883 32.2933 30.7771 32.3846 30.8691C32.5021 30.9875 32.6223 31.0981 32.75 31.2056C33.249 31.6335 33.6974 32.1054 34.1026 32.6211C34.1441 32.6722 34.1857 32.7232 34.2286 32.7758C35.7334 34.6397 36.4615 37.1113 36.4615 39.4766C36.9692 39.4766 37.4769 39.4766 38 39.4766C38 39.9793 38 40.482 38 41C31.4 41 24.8 41 18 41C18 40.4973 18 39.9945 18 39.4766C18.5077 39.4766 19.0154 39.4766 19.5385 39.4766C19.5385 39.309 19.5385 39.1414 19.5385 38.9688C19.6783 36.6736 20.4086 34.4083 21.8974 32.6211C21.9202 32.5934 21.943 32.5657 21.9664 32.5372C22.4762 31.9196 23.0381 31.3426 23.6503 30.8238C23.7452 30.7408 23.8344 30.654 23.9231 30.5645C24.0457 30.4409 24.1718 30.3251 24.3045 30.2122C24.918 29.6829 25.5273 29.0484 25.6088 28.2105C25.6468 27.3982 25.327 26.8582 24.7949 26.2639C24.5089 25.9572 24.2152 25.6699 23.8958 25.3975C23.7984 25.3117 23.7067 25.2229 23.6154 25.1309C23.4979 25.0125 23.3777 24.9019 23.25 24.7944C22.751 24.3665 22.3026 23.8946 21.8974 23.3789C21.8351 23.3023 21.8351 23.3023 21.7714 23.2242C20.2666 21.3603 19.5385 18.8887 19.5385 16.5234C19.0308 16.5234 18.5231 16.5234 18 16.5234C18 16.0207 18 15.518 18 15ZM21.1282 16.5234C21.1604 17.3297 21.1604 17.3297 21.266 18.1199C21.2747 18.1676 21.2834 18.2154 21.2923 18.2646C21.4104 18.8825 21.5943 19.4822 21.7949 20.0781C25.8903 20.0781 29.9856 20.0781 34.2051 20.0781C34.4057 19.4491 34.5916 18.8433 34.7179 18.1992C34.7345 18.116 34.7345 18.116 34.7514 18.031C34.8406 17.5258 34.8455 17.0446 34.8718 16.5234C30.3364 16.5234 25.801 16.5234 21.1282 16.5234ZM27.1795 28.6094C27.1688 28.6524 27.1582 28.6955 27.1472 28.7399C26.7865 30.1 25.8584 31.0357 24.8062 31.9352C24.7036 32.0241 24.6075 32.1177 24.5128 32.2148C24.385 32.3436 24.2552 32.464 24.1154 32.5798C23.2219 33.3468 22.1665 34.608 21.8974 35.7695C22.3182 35.6405 22.7218 35.4742 23.1285 35.3077C23.259 35.2543 23.3895 35.2011 23.52 35.148C23.991 34.9561 24.4612 34.7626 24.9311 34.568C25.0712 34.5101 25.2113 34.4522 25.3514 34.3943C25.4836 34.3396 25.6157 34.2846 25.7477 34.2295C25.8307 34.1952 25.9138 34.1608 25.9968 34.1265C26.0325 34.1115 26.0681 34.0965 26.1049 34.081C26.4755 33.9285 26.8463 33.8144 27.2308 33.6875C27.2308 32.0117 27.2308 30.3359 27.2308 28.6094C27.2138 28.6094 27.1969 28.6094 27.1795 28.6094ZM28.7692 28.6094C28.7692 30.2852 28.7692 31.9609 28.7692 33.6875C29.0231 33.7713 29.2769 33.8551 29.5385 33.9414C29.6936 34.0007 29.8467 34.0605 29.9996 34.1247C30.0395 34.1412 30.0794 34.1576 30.1205 34.1746C30.2055 34.2097 30.2903 34.2449 30.3752 34.2803C30.5098 34.3364 30.6447 34.3922 30.7795 34.4478C30.9694 34.5263 31.1593 34.6049 31.3491 34.6836C31.7867 34.8651 32.2246 35.0462 32.6626 35.2267C32.7989 35.2829 32.935 35.3394 33.0711 35.3959C33.1549 35.4304 33.2387 35.465 33.3225 35.4996C33.36 35.5152 33.3974 35.5308 33.436 35.5469C33.6555 35.637 33.8729 35.7092 34.1026 35.7695C33.7753 34.8038 33.1777 33.9406 32.476 33.2017C32.3783 33.0985 32.2866 32.9933 32.1955 32.8845C31.9333 32.586 31.6304 32.3254 31.3369 32.0578C31.0571 31.8024 30.7793 31.5448 30.5029 31.2859C30.4446 31.2314 30.3862 31.177 30.3277 31.1229C29.5877 30.4372 29.0143 29.6074 28.8205 28.6094C28.8036 28.6094 28.7867 28.6094 28.7692 28.6094Z" fill="white"/>
</svg>
