<svg width="56" height="56" viewBox="0 0 56 56" fill="none" xmlns="http://www.w3.org/2000/svg">
<rect width="56" height="56" rx="12" fill="#1CAF61"/>
<path d="M27.9795 14.0017C28.9791 13.9732 29.9147 14.3098 30.6735 14.9593C31.2525 15.5072 31.6382 16.1284 31.8393 16.9008C31.8506 16.9433 31.8618 16.9857 31.8734 17.0294C31.9096 17.2744 31.9055 17.5177 31.9044 17.7649C31.9046 17.8159 31.9048 17.8669 31.9051 17.9194C31.9049 17.994 31.9049 17.994 31.9048 18.0702C31.9048 18.115 31.9047 18.1598 31.9046 18.206C31.8958 18.3717 31.869 18.531 31.8393 18.6941C31.8849 18.7182 31.9305 18.7423 31.9775 18.7671C32.7567 19.1794 33.5351 19.5923 34.3014 20.0282C34.3553 20.0588 34.4092 20.0893 34.4648 20.1208C34.6926 20.2501 34.9199 20.3802 35.1461 20.5122C35.214 20.551 35.282 20.5897 35.3499 20.6284C35.405 20.6605 35.4601 20.6927 35.5169 20.7258C35.6535 20.7911 35.6535 20.7911 35.7799 20.7396C35.8915 20.6589 35.986 20.5733 36.0839 20.4765C36.7315 19.8989 37.5902 19.6429 38.4448 19.6486C38.5024 19.6489 38.5601 19.6492 38.6195 19.6495C39.6696 19.674 40.4678 20.1055 41.2106 20.8345C41.2476 20.87 41.2846 20.9056 41.3227 20.9423C41.9858 21.6335 42.2748 22.6313 42.2605 23.5712C42.2028 24.6176 41.7749 25.5339 41.0176 26.2557C40.088 27.0531 39.0444 27.2711 37.8555 27.1977C36.8986 27.0793 36.0263 26.5118 35.4367 25.766C34.8265 24.9047 34.5369 23.9164 34.7003 22.8621C34.7259 22.7444 34.757 22.628 34.7895 22.5121C34.744 22.4996 34.6986 22.4872 34.6517 22.4743C34.3728 22.3704 34.1279 22.2241 33.8712 22.0746C33.2143 21.6971 32.5473 21.3409 31.8771 20.9878C31.819 20.9571 31.819 20.9571 31.7597 20.9258C31.654 20.8701 31.5482 20.8145 31.4425 20.759C31.3263 20.6963 31.2118 20.6305 31.0997 20.5609C30.9785 20.4758 30.9785 20.4758 30.8496 20.4944C30.7222 20.5536 30.6502 20.6218 30.5522 20.7224C29.8382 21.3672 28.8588 21.6418 27.9124 21.6064C27.0291 21.5476 26.2085 21.2144 25.5917 20.5687C25.4808 20.4716 25.4808 20.4716 25.3403 20.503C25.1869 20.5452 25.0676 20.5989 24.929 20.6763C24.8796 20.7036 24.8303 20.7308 24.7794 20.7589C24.7265 20.7886 24.6737 20.8183 24.6192 20.8489C24.5048 20.9123 24.3904 20.9757 24.2759 21.039C24.1869 21.0884 24.1869 21.0884 24.0961 21.1389C23.798 21.3036 23.4981 21.4647 23.1983 21.6263C22.752 21.8671 22.3076 22.1108 21.8688 22.3652C21.6126 22.5121 21.6126 22.5121 21.4846 22.5121C21.5036 22.5693 21.5227 22.6266 21.5424 22.6856C21.7596 23.5798 21.5558 24.5609 21.1228 25.3579C20.5839 26.2235 19.7718 26.8362 18.7946 27.1326C17.7737 27.3561 16.7288 27.2034 15.8236 26.6839C14.9833 26.1174 14.3499 25.3038 14.111 24.3069C13.923 23.2436 14.0646 22.2064 14.6694 21.29C15.3103 20.4299 16.1419 19.8676 17.2038 19.6775C18.4843 19.5817 19.4512 19.835 20.4422 20.6749C20.4807 20.7085 20.5193 20.7421 20.559 20.7766C21.0428 20.546 21.5111 20.2942 21.9763 20.0282C22.7861 19.5654 23.6102 19.1299 24.4348 18.6941C24.4255 18.6423 24.4162 18.5904 24.4066 18.537C24.2463 17.5104 24.4098 16.5266 24.9938 15.6587C25.0921 15.5279 25.1946 15.404 25.3025 15.2811C25.3362 15.2419 25.3699 15.2028 25.4046 15.1625C26.0681 14.4446 27.013 14.0514 27.9795 14.0017Z" fill="white"/>
<path d="M27.9833 23.3691C28.1213 23.369 28.2592 23.3679 28.3972 23.3668C29.4037 23.3629 30.3407 23.4627 31.1022 24.1933C31.5333 24.6737 31.9031 25.2787 31.9047 25.9425C31.905 25.9921 31.9053 26.0417 31.9055 26.0928C31.9055 26.147 31.9055 26.2012 31.9055 26.2571C31.9057 26.3149 31.9059 26.3727 31.9061 26.4323C31.9068 26.6266 31.907 26.821 31.9072 27.0153C31.9076 27.1544 31.908 27.2935 31.9084 27.4326C31.9095 27.8505 31.9101 28.2684 31.9106 28.6863C31.9109 28.8833 31.9112 29.0803 31.9115 29.2773C31.9125 29.9326 31.9133 30.5878 31.9137 31.243C31.9138 31.413 31.9139 31.583 31.9141 31.753C31.9141 31.7952 31.9141 31.8375 31.9141 31.881C31.9146 32.5647 31.9161 33.2484 31.918 33.9321C31.9199 34.6347 31.9209 35.3373 31.9211 36.0399C31.9212 36.4341 31.9217 36.8283 31.9232 37.2225C31.9246 37.5936 31.9248 37.9647 31.9242 38.3358C31.9242 38.4717 31.9245 38.6076 31.9253 38.7435C31.931 39.7711 31.8589 40.5779 31.1472 41.3831C30.3323 42.1707 29.3777 42.2591 28.3017 42.2564C28.1486 42.2562 27.9956 42.2576 27.8426 42.2591C26.8413 42.2629 25.9414 42.1388 25.1776 41.4267C24.5949 40.8032 24.3681 40.1377 24.3683 39.3008C24.368 39.2435 24.3678 39.1861 24.3676 39.127C24.367 38.9346 24.3668 38.7422 24.3665 38.5498C24.3662 38.4119 24.3658 38.274 24.3654 38.1361C24.3643 37.7222 24.3637 37.3083 24.3631 36.8943C24.3629 36.6991 24.3626 36.5039 24.3623 36.3087C24.3613 35.6593 24.3605 35.01 24.36 34.3606C24.3599 34.1922 24.3598 34.0238 24.3597 33.8554C24.3597 33.8135 24.3596 33.7717 24.3596 33.7286C24.3591 33.0513 24.3577 32.374 24.3558 31.6967C24.3539 31.0004 24.3528 30.3042 24.3526 29.6079C24.3525 29.2173 24.352 28.8268 24.3505 28.4362C24.3492 28.0685 24.349 27.7009 24.3495 27.3332C24.3496 27.1986 24.3492 27.064 24.3484 26.9294C24.3433 26.005 24.366 25.2383 24.9553 24.4789C24.9982 24.4193 25.0412 24.3596 25.0854 24.2981C25.8911 23.4558 26.8843 23.369 27.9833 23.3691Z" fill="white"/>
<path d="M17.6484 29.0186C17.8436 29.0198 18.0387 29.0186 18.2339 29.0171C19.2304 29.0158 20.0399 29.1325 20.8013 29.8369C21.4728 30.552 21.627 31.3587 21.6237 32.3099C21.624 32.3908 21.6244 32.4718 21.6249 32.5527C21.6259 32.7705 21.6258 32.9883 21.6255 33.206C21.6253 33.3887 21.6257 33.5714 21.626 33.7541C21.6268 34.1856 21.6267 34.617 21.6261 35.0484C21.6254 35.4915 21.6262 35.9347 21.6278 36.3778C21.6291 36.7602 21.6295 37.1425 21.6291 37.5248C21.6289 37.7524 21.6291 37.9799 21.6301 38.2074C21.631 38.4215 21.6307 38.6356 21.6296 38.8497C21.6293 38.9645 21.6301 39.0792 21.631 39.1939C21.6239 40.0688 21.3536 40.7944 20.7615 41.439C19.9684 42.1963 19.0465 42.2589 18.005 42.2563C17.8519 42.2561 17.6989 42.2575 17.5459 42.2589C16.4732 42.263 15.5937 42.1008 14.7871 41.3364C14.2782 40.7837 14.0163 40.0412 14.0141 39.2955C14.0138 39.229 14.0134 39.1626 14.0131 39.0941C14.013 39.0219 14.013 38.9498 14.0129 38.8755C14.0126 38.7981 14.0124 38.7207 14.012 38.6433C14.0113 38.4337 14.0109 38.224 14.0107 38.0143C14.0105 37.883 14.0102 37.7517 14.01 37.6203C14.0092 37.2083 14.0086 36.7964 14.0084 36.3844C14.0082 35.9108 14.0071 35.4372 14.0055 34.9635C14.0042 34.5962 14.0036 34.2289 14.0036 33.8617C14.0035 33.6429 14.0032 33.4241 14.0021 33.2053C14.0012 32.9991 14.001 32.7928 14.0015 32.5865C14.0016 32.4762 14.0008 32.3658 14 32.2554C14.0045 31.3123 14.2176 30.5011 14.8755 29.8046C15.6927 29.0541 16.5951 29.0106 17.6484 29.0186Z" fill="white"/>
<path d="M37.2675 29.0385C37.323 29.0378 37.3784 29.037 37.4356 29.0363C37.4953 29.0358 37.555 29.0354 37.6165 29.035C37.6786 29.0345 37.7407 29.034 37.8047 29.0336C37.9363 29.0328 38.0679 29.0321 38.1996 29.0317C38.3331 29.031 38.4667 29.0298 38.6003 29.0281C39.6738 29.0143 40.5528 29.0515 41.3965 29.7985C42.1376 30.5638 42.2702 31.4694 42.2668 32.4944C42.2671 32.6072 42.2671 32.6072 42.2674 32.7222C42.2679 32.9262 42.2677 33.1302 42.2673 33.3342C42.2671 33.5491 42.2673 33.7639 42.2675 33.9788C42.2677 34.3394 42.2674 34.7 42.2669 35.0605C42.2663 35.4758 42.2665 35.891 42.2671 36.3062C42.2676 36.6645 42.2677 37.0228 42.2674 37.3811C42.2672 37.5943 42.2672 37.8075 42.2676 38.0207C42.268 38.2587 42.2674 38.4966 42.2668 38.7345C42.267 38.804 42.2672 38.8734 42.2675 38.9449C42.2625 39.9401 42.0529 40.7501 41.3441 41.4792C40.6952 42.0744 39.9274 42.2466 39.0654 42.2478C39.016 42.248 38.9666 42.2481 38.9157 42.2483C38.8116 42.2486 38.7075 42.2488 38.6034 42.2488C38.4458 42.2489 38.2881 42.2499 38.1305 42.251C37.145 42.2543 37.145 42.2543 36.6984 42.1223C36.6441 42.1066 36.5897 42.0909 36.5337 42.0747C36.171 41.9333 35.8915 41.7416 35.5993 41.486C35.5457 41.4426 35.5457 41.4426 35.4911 41.3983C35.0266 40.9887 34.7646 40.3539 34.6738 39.7506C34.6573 39.4811 34.6573 39.2122 34.6579 38.9422C34.6576 38.8617 34.6573 38.7811 34.657 38.7006C34.6562 38.4832 34.6562 38.2658 34.6563 38.0484C34.6564 37.8662 34.6561 37.6841 34.6558 37.502C34.6552 37.072 34.6551 36.642 34.6555 36.212C34.6558 35.7698 34.6551 35.3276 34.6539 34.8854C34.6529 34.5045 34.6525 34.1235 34.6527 33.7426C34.6528 33.5156 34.6527 33.2887 34.6519 33.0617C34.6511 32.8481 34.6513 32.6346 34.652 32.421C34.6522 32.3062 34.6516 32.1915 34.6509 32.0767C34.656 31.1907 34.9048 30.4635 35.5191 29.8157C35.9875 29.3726 36.6134 29.0462 37.2675 29.0385Z" fill="white"/>
</svg>
