<svg width="56" height="56" viewBox="0 0 56 56" fill="none" xmlns="http://www.w3.org/2000/svg">
<rect width="56" height="56" rx="12" fill="#1CAF61"/>
<path d="M38.5175 15.0021C38.5804 15.0017 38.6432 15.0013 38.708 15.0009C38.8894 15 39.0707 15.0002 39.252 15.0009C39.3064 15.0006 39.3608 15.0003 39.4169 15C39.9047 15.0045 40.282 15.0941 40.6424 15.4328C40.8898 15.7148 40.9925 16.0353 40.9953 16.4058C40.9958 16.4573 40.9963 16.5088 40.9968 16.5619C40.9971 16.6454 40.9971 16.6454 40.9975 16.7306C40.9979 16.7887 40.9982 16.8469 40.9986 16.9067C40.9995 17.0958 40.9998 17.2848 40.9999 17.4738C40.9999 17.5381 41 17.6023 41 17.6684C40.9992 18.6234 40.9766 19.5571 40.8333 20.5027C40.8245 20.5628 40.8157 20.623 40.8067 20.6849C40.2369 24.4965 38.6898 27.8631 36.0408 30.6668C35.9611 30.752 35.8825 30.8382 35.8041 30.9246C35.5591 31.1945 35.3147 31.4566 35.0344 31.6908C34.9319 31.7795 34.8386 31.8739 34.7443 31.9712C34.5016 32.2166 34.2355 32.4285 33.966 32.6435C33.9071 32.6916 33.8484 32.7397 33.7896 32.7878C32.7441 33.6407 31.6162 34.3596 30.4298 35C30.1686 34.7814 29.9238 34.5527 29.6835 34.3114C29.6275 34.2555 29.6275 34.2555 29.5704 34.1984C29.446 34.0742 29.3218 33.9498 29.1976 33.8254C29.1082 33.736 29.0188 33.6466 28.9294 33.5573C28.7372 33.3652 28.5452 33.1731 28.3532 32.9809C28.0756 32.7031 27.7979 32.4253 27.5202 32.1476C27.0695 31.697 26.6189 31.2463 26.1684 30.7955C25.731 30.3578 25.2935 29.9201 24.8559 29.4825C24.8289 29.4555 24.8019 29.4284 24.774 29.4006C24.6386 29.2652 24.5031 29.1297 24.3677 28.9942C23.2449 27.8714 22.1224 26.7485 21 25.6254C21.0643 25.4954 21.1288 25.3655 21.1933 25.2356C21.2113 25.1992 21.2293 25.1628 21.2479 25.1253C21.4085 24.8026 21.5884 24.4953 21.7815 24.191C21.8146 24.1386 21.8477 24.0861 21.8818 24.0321C22.1432 23.6222 22.4212 23.2297 22.722 22.8479C22.7933 22.7572 22.8635 22.6659 22.9336 22.5744C23.383 21.9908 23.8555 21.4239 24.3844 20.9105C24.4793 20.8156 24.5654 20.7176 24.6515 20.6147C24.887 20.3406 25.1581 20.1036 25.4259 19.8617C25.5044 19.7905 25.5824 19.7186 25.6602 19.6466C25.9589 19.3714 26.2643 19.111 26.5861 18.8634C26.615 18.8411 26.6438 18.8188 26.6735 18.7958C29.2873 16.7812 32.2448 15.6511 35.5034 15.175C35.5593 15.1666 35.6152 15.1581 35.6728 15.1494C36.6184 15.0122 37.5637 15.0054 38.5175 15.0021ZM29.7844 20.8074C29.1576 21.6062 28.8288 22.5584 28.8923 23.5763C29.0317 24.6741 29.5111 25.5707 30.3561 26.2978C30.9486 26.7525 31.6799 27.0642 32.4285 27.111C32.4687 27.1137 32.5088 27.1164 32.5502 27.1192C33.6356 27.1563 34.6483 26.7367 35.4406 26.0038C36.1856 25.2055 36.5652 24.2268 36.5525 23.1377C36.5193 22.2143 36.1754 21.3939 35.5547 20.7076C35.5226 20.6713 35.4905 20.6351 35.4574 20.5977C34.7977 19.8939 33.8338 19.4902 32.8781 19.4575C31.6709 19.4413 30.5867 19.8956 29.7844 20.8074Z" fill="white"/>
<path d="M20.8573 27C20.9937 27.0613 21.0933 27.1251 21.1992 27.2293C21.2272 27.2567 21.2553 27.2842 21.2842 27.3124C21.3298 27.3576 21.3298 27.3576 21.3763 27.4037C21.4252 27.4517 21.4252 27.4517 21.4751 27.5007C21.5846 27.6082 21.6937 27.716 21.8029 27.8239C21.8812 27.9009 21.9595 27.9779 22.0379 28.0549C22.2508 28.2643 22.4634 28.474 22.6759 28.6837C22.898 28.9028 23.1204 29.1217 23.3427 29.3406C23.7399 29.7318 24.1368 30.1232 24.5336 30.5146C24.8937 30.8699 25.254 31.2249 25.6145 31.5797C26.033 31.9915 26.4513 32.4035 26.8694 32.8158C27.0908 33.0341 27.3122 33.2523 27.5338 33.4703C27.742 33.6752 27.95 33.8803 28.1578 34.0856C28.2343 34.1611 28.3109 34.2366 28.3876 34.3119C28.4918 34.4144 28.5957 34.5171 28.6995 34.6199C28.7303 34.65 28.7611 34.6801 28.7929 34.7112C29 34.9172 29 34.9172 29 35.0236C26.2958 36.1432 26.2958 36.1432 25.3551 35.7961C25.0076 35.6354 24.7626 35.4193 24.4944 35.1519C24.4484 35.107 24.4024 35.0621 24.3564 35.0172C24.2325 34.8963 24.1095 34.7746 23.9866 34.6528C23.8572 34.5247 23.7273 34.3972 23.5975 34.2696C23.3796 34.0554 23.1623 33.8407 22.9452 33.6256C22.695 33.3779 22.444 33.1309 22.1926 32.8845C21.9758 32.6719 21.7595 32.459 21.5436 32.2456C21.415 32.1185 21.2863 31.9917 21.1572 31.8652C21.0357 31.7462 20.9149 31.6266 20.7945 31.5066C20.7296 31.4423 20.6642 31.3785 20.5988 31.3148C20.2696 30.9848 19.9983 30.633 20 30.1521C20.0213 29.1373 20.3785 27.894 20.8573 27Z" fill="white"/>
<path d="M33.9974 34C34.0095 34.4806 33.9779 34.9563 33.94 35.435C33.9299 35.565 33.9209 35.695 33.9119 35.8251C33.8432 36.738 33.6549 37.3765 32.9417 37.9951C32.7393 38.1607 32.5245 38.3021 32.3037 38.4426C32.2327 38.4884 32.2327 38.4884 32.1603 38.5352C32.0074 38.6339 31.8541 38.7321 31.7008 38.8303C31.5409 38.9332 31.3811 39.0363 31.2213 39.1394C31.1139 39.2087 31.0064 39.278 30.8989 39.3472C30.5615 39.5647 30.2256 39.7843 29.8912 40.0062C29.8501 40.0335 29.809 40.0607 29.7666 40.0888C29.6118 40.1915 29.457 40.2941 29.3027 40.3974C29.199 40.4667 29.0951 40.5357 28.9912 40.6046C28.9336 40.643 28.876 40.6815 28.8167 40.7211C28.3701 40.9888 27.9796 41.0315 27.459 40.9822C27.1102 40.8917 26.7866 40.7027 26.581 40.4048C26.3348 39.9638 26.2775 39.4977 26.2026 39.0068C26.1888 38.9209 26.1749 38.8349 26.1608 38.749C26.0977 38.3569 26.0426 37.9658 26 37.5711C26.2433 37.4847 26.4884 37.4241 26.7396 37.3658C29.2948 36.7676 31.6616 35.6266 33.7842 34.111C33.9433 34 33.9433 34 33.9974 34Z" fill="white"/>
<path d="M22 22.0013C21.8197 22.2571 21.6372 22.5107 21.4462 22.7602C20.0918 24.5377 19.0372 26.5371 18.5752 28.6534C18.5659 28.6939 18.5566 28.7344 18.5471 28.7761C18.5395 28.8117 18.5319 28.8472 18.524 28.8839C18.5122 28.9108 18.5004 28.9377 18.4883 28.9654C18.2756 29.0285 18.0962 28.9916 17.8797 28.9619C17.8352 28.956 17.7908 28.95 17.745 28.9439C17.6507 28.9312 17.5564 28.9184 17.4622 28.9053C17.3198 28.8858 17.1773 28.8671 17.0348 28.8485C15.6603 28.664 15.6603 28.664 15.2293 28.163C15.0655 27.9079 15.0123 27.6833 15.0064 27.3902C15.0043 27.3323 15.0022 27.2744 15 27.2148C15.0366 26.7696 15.4228 26.3658 15.6948 26.0104C15.7796 25.8987 15.8641 25.7869 15.9486 25.6751C15.9717 25.6445 15.9949 25.614 16.0187 25.5825C16.2303 25.3023 16.4386 25.0203 16.6465 24.738C16.6807 24.6917 16.7148 24.6453 16.75 24.5976C16.888 24.4104 17.0259 24.2232 17.1636 24.0358C17.261 23.9032 17.3586 23.7708 17.4563 23.6384C17.4851 23.599 17.5139 23.5597 17.5436 23.5191C17.9602 22.9555 18.4055 22.3632 19.18 22.1908C19.4803 22.1443 19.7809 22.1188 20.0845 22.0961C20.1398 22.0918 20.1952 22.0875 20.2522 22.0831C20.4346 22.0692 20.617 22.0559 20.7995 22.0428C20.8574 22.0386 20.9154 22.0345 20.9751 22.0302C21.3175 22.0071 21.6566 21.9959 22 22.0013Z" fill="white"/>
<path d="M33.9936 21.4821C34.5172 21.9019 34.8245 22.3872 34.9815 23.0444C35.0478 23.7781 34.9476 24.4459 34.4885 25.0447C34.0024 25.6056 33.4116 25.9293 32.6683 25.9981C31.9841 26.0241 31.2641 25.7875 30.7578 25.3205C30.2432 24.7684 29.9901 24.1107 30.0003 23.3592C30.0587 22.6066 30.3952 22.0291 30.9404 21.5191C31.8268 20.8392 33.091 20.8275 33.9936 21.4821Z" fill="white"/>
<path d="M20.6831 35.1234C20.8784 35.2875 20.9403 35.407 20.9965 35.6565C21.0177 35.9036 20.9429 36.0843 20.7916 36.2747C20.5699 36.5274 20.3378 36.7678 20.1006 37.0058C20.0389 37.0679 20.0389 37.0679 19.976 37.1313C19.8643 37.2438 19.7525 37.3561 19.6406 37.4684C19.5706 37.5387 19.5006 37.609 19.4306 37.6794C19.1862 37.9251 18.9416 38.1708 18.6969 38.4163C18.4693 38.6447 18.2419 38.8733 18.0147 39.1021C17.8189 39.2992 17.623 39.496 17.427 39.6927C17.3101 39.8099 17.1934 39.9272 17.0768 40.0447C16.947 40.1755 16.8168 40.306 16.6866 40.4363C16.6291 40.4945 16.6291 40.4945 16.5704 40.5538C16.5348 40.5893 16.4992 40.6249 16.4625 40.6615C16.4318 40.6923 16.4011 40.7231 16.3695 40.7549C16.1179 40.9757 15.9274 41.0076 15.6005 40.9987C15.4141 40.9759 15.312 40.9194 15.1763 40.7902C15.0522 40.6145 15.0104 40.4871 15.0062 40.272C15.0041 40.2252 15.0021 40.1785 15 40.1303C15.085 39.7319 15.4742 39.4231 15.7516 39.1462C15.7941 39.1033 15.8366 39.0605 15.8804 39.0164C15.996 38.8999 16.1119 38.7838 16.2279 38.6677C16.3497 38.5458 16.4712 38.4236 16.5928 38.3014C16.7967 38.0966 17.0009 37.892 17.2051 37.6874C17.441 37.4513 17.6765 37.2148 17.9119 36.9781C18.1145 36.7743 18.3173 36.5708 18.5202 36.3674C18.6412 36.2461 18.7621 36.1248 18.8829 36.0033C19.0174 35.868 19.1523 35.7331 19.2872 35.5983C19.3468 35.5381 19.3468 35.5381 19.4077 35.4767C19.4446 35.44 19.4815 35.4032 19.5195 35.3654C19.5513 35.3335 19.5831 35.3016 19.6158 35.2688C19.9473 34.9773 20.2874 34.9136 20.6831 35.1234Z" fill="white"/>
<path d="M23.5125 37.0427C23.7317 37.1564 23.8586 37.2655 23.9607 37.4914C24.0321 37.739 24.0007 37.951 23.9109 38.1894C23.8277 38.2996 23.7537 38.3859 23.6559 38.4802C23.63 38.5063 23.604 38.5325 23.5773 38.5595C23.4922 38.645 23.4061 38.7293 23.3199 38.8137C23.2602 38.8732 23.2005 38.9328 23.1409 38.9924C23.0162 39.1168 22.891 39.2407 22.7654 39.3642C22.6045 39.5225 22.4445 39.6816 22.2848 39.841C22.1617 39.9638 22.0383 40.0863 21.9149 40.2087C21.8558 40.2673 21.7967 40.326 21.7377 40.3846C21.6553 40.4665 21.5725 40.548 21.4896 40.6295C21.4653 40.6537 21.441 40.6778 21.416 40.7028C21.2129 40.901 21.0645 40.9956 20.7797 41C20.5402 40.9944 20.4072 40.9463 20.2257 40.7819C20.0176 40.5572 20.0034 40.3663 20 40.073C20.0551 39.7842 20.2704 39.5777 20.4713 39.3748C20.4951 39.3506 20.5188 39.3265 20.5433 39.3017C20.6211 39.2228 20.6993 39.1444 20.7775 39.0659C20.8323 39.0108 20.887 38.9557 20.9417 38.9006C21.0561 38.7855 21.1707 38.6706 21.2854 38.5558C21.4319 38.4091 21.5777 38.2618 21.7234 38.1142C21.8361 38.0003 21.9492 37.8869 22.0624 37.7736C22.1164 37.7194 22.1702 37.6652 22.2238 37.6107C22.2989 37.5345 22.3747 37.4589 22.4507 37.3834C22.4935 37.3404 22.5364 37.2973 22.5806 37.253C22.8717 37.0146 23.1487 36.9451 23.5125 37.0427Z" fill="white"/>
<path d="M18.7377 32.1694C18.8991 32.3412 18.9896 32.5062 19 32.7469C18.9733 33.1369 18.7692 33.3746 18.4999 33.6463C18.464 33.6827 18.464 33.6827 18.4274 33.7198C18.3491 33.7991 18.2705 33.878 18.1918 33.9569C18.1369 34.0122 18.0821 34.0676 18.0272 34.1229C17.9126 34.2385 17.7978 34.3539 17.6828 34.4692C17.5356 34.6169 17.3889 34.765 17.2423 34.9132C17.1292 35.0274 17.0159 35.1414 16.9026 35.2553C16.8484 35.3099 16.7942 35.3645 16.7402 35.4191C16.6646 35.4954 16.5888 35.5714 16.5129 35.6473C16.4483 35.7122 16.4483 35.7122 16.3825 35.7784C16.1478 35.9892 15.9622 36.0055 15.6549 35.9989C15.3983 35.9689 15.2727 35.8381 15.1057 35.6522C14.9991 35.4291 14.975 35.2271 15.0251 34.9837C15.1549 34.7685 15.3015 34.5919 15.4767 34.4128C15.5012 34.3876 15.5258 34.3624 15.5511 34.3364C15.6316 34.2539 15.7125 34.1717 15.7935 34.0896C15.8213 34.0613 15.8491 34.0331 15.8777 34.0039C16.0246 33.8545 16.1718 33.7053 16.3193 33.5564C16.471 33.403 16.6218 33.2488 16.7724 33.0943C16.8889 32.9751 17.0061 32.8566 17.1234 32.7383C17.1793 32.6817 17.2349 32.6248 17.2903 32.5678C17.368 32.4879 17.4465 32.409 17.5253 32.3302C17.5697 32.2852 17.614 32.2401 17.6598 32.1937C18.0109 31.9294 18.3738 31.9495 18.7377 32.1694Z" fill="white"/>
</svg>
