<svg width="56" height="56" viewBox="0 0 56 56" fill="none" xmlns="http://www.w3.org/2000/svg">
<rect width="56" height="56" rx="12" fill="#1CAF61"/>
<path d="M31.8124 14.2499C31.8596 14.2755 31.9069 14.301 31.9555 14.3273C32.1406 14.436 32.2856 14.5298 32.4228 14.697C32.6237 14.8631 32.7628 14.8308 33.0195 14.8164C34.0558 14.7859 34.9966 15.0652 35.7773 15.7656C36.3864 16.3417 36.829 17.111 36.8898 17.957C36.9029 18.6059 36.8077 19.1691 36.4999 19.7499C36.5589 19.7629 36.6179 19.7759 36.6786 19.7893C37.7508 20.0406 38.5211 20.567 39.1249 21.4999C39.5177 22.2865 39.636 23.1212 39.4484 23.988C39.3895 24.1633 39.325 24.331 39.2499 24.4999C39.2081 24.604 39.1663 24.7082 39.1249 24.8124C39.1964 24.8387 39.1964 24.8387 39.2692 24.8654C40.1295 25.1995 40.8117 25.7563 41.2148 26.6015C41.2701 26.7335 41.3238 26.8663 41.3749 26.9999C41.3916 27.0421 41.4083 27.0842 41.4255 27.1276C41.6756 27.9091 41.4979 28.7933 41.1557 29.5097C40.705 30.3399 40.0332 30.9089 39.1249 31.1874C39.1468 31.2432 39.1686 31.299 39.1911 31.3564C39.2195 31.4295 39.248 31.5027 39.2773 31.5781C39.3056 31.6506 39.3338 31.7231 39.363 31.7978C39.6197 32.4948 39.6049 33.4006 39.3285 34.0876C38.8648 35.0453 38.223 35.6999 37.2148 36.0764C36.979 36.1516 36.7429 36.2029 36.4999 36.2499C36.5218 36.3012 36.5436 36.3524 36.5661 36.4052C36.5945 36.4726 36.623 36.5399 36.6523 36.6093C36.6806 36.676 36.7088 36.7427 36.738 36.8115C37.0226 37.5319 36.9218 38.3625 36.6249 39.0624C36.2029 39.9411 35.495 40.5883 34.602 40.9633C34.1034 41.1295 33.5936 41.2105 33.0678 41.1752C32.733 41.1479 32.733 41.1479 32.4326 41.2736C32.3515 41.3499 32.272 41.4277 32.194 41.507C31.5776 42.0594 30.738 42.0401 29.9629 42.0111C29.6374 41.9869 29.3522 41.896 29.0624 41.7499C28.9872 41.7208 28.9872 41.7208 28.9105 41.6912C28.7208 41.6036 28.5863 41.5225 28.4374 41.3749C28.345 41.073 28.3583 40.7729 28.3665 40.4603C28.3667 40.3667 28.3666 40.273 28.3662 40.1794C28.366 39.9257 28.3697 39.6722 28.3741 39.4186C28.378 39.1534 28.3783 38.8881 28.3791 38.6228C28.381 38.1208 28.3861 37.6188 28.3924 37.1168C28.3994 36.5452 28.4028 35.9735 28.406 35.4019C28.4125 34.2262 28.4235 33.0506 28.4374 31.8749C28.5008 31.8726 28.5641 31.8703 28.6293 31.8679C28.7138 31.8638 28.7983 31.8596 28.8827 31.8554C28.9243 31.854 28.9659 31.8526 29.0087 31.8511C29.3719 31.8316 29.6245 31.7339 29.8984 31.496C30.0866 31.1557 30.04 30.8093 29.9351 30.4432C29.8489 30.1655 29.7528 29.8914 29.6562 29.6171C29.623 29.5206 29.5899 29.4241 29.5568 29.3276C29.4764 29.093 29.3947 28.8589 29.3124 28.6249C29.3461 28.5965 29.3798 28.568 29.4145 28.5387C29.9774 28.0563 30.318 27.5578 30.3947 26.8061C30.4202 26.1181 30.2568 25.5259 29.8066 24.9975C29.4605 24.6415 29.1085 24.4504 28.6389 24.2914C28.4999 24.1874 28.4999 24.1874 28.4611 23.9861C28.4223 23.5936 28.424 23.1988 28.4204 22.8047C28.4194 22.716 28.4184 22.6272 28.4174 22.5385C28.4084 21.7327 28.4036 20.9268 28.3999 20.121C28.3971 19.5259 28.3923 18.9309 28.3848 18.3358C28.3797 17.9166 28.377 17.4973 28.3761 17.078C28.3755 16.8278 28.3737 16.5778 28.3694 16.3277C28.3654 16.0925 28.3644 15.8576 28.3656 15.6225C28.3655 15.5364 28.3644 15.4502 28.3621 15.3641C28.3556 15.1061 28.3587 14.8718 28.4374 14.6249C28.6237 14.44 28.8205 14.3459 29.0624 14.2499C29.1201 14.2237 29.1778 14.1975 29.2372 14.1704C29.9892 13.8408 31.09 13.8583 31.8124 14.2499ZM29.6393 17.4938C29.2169 17.8911 29.0194 18.3396 28.9916 18.925C29.0168 19.4484 29.2101 19.8946 29.5546 20.289C29.7401 20.4537 29.7401 20.4537 29.9765 20.4765C30.1873 20.4508 30.1873 20.4508 30.3437 20.3398C30.455 20.1879 30.455 20.1879 30.4413 19.9804C30.3822 19.7753 30.3429 19.6923 30.2187 19.5312C30.052 19.3132 29.9999 19.1558 29.9999 18.8749C30.0556 18.5675 30.1406 18.3625 30.3554 18.1328C30.5525 18.0063 30.7257 17.9283 30.9479 17.8608C31.0857 17.8026 31.1589 17.7435 31.2499 17.6249C31.2423 17.4101 31.2301 17.2514 31.1093 17.0703C30.589 16.7357 30.0392 17.1523 29.6393 17.4938ZM32.6249 22.1367C32.5204 22.3262 32.5365 22.4764 32.5624 22.6874C32.6581 22.8343 32.6581 22.8343 32.8124 22.9374C33.0148 22.9607 33.0148 22.9607 33.2343 22.9414C33.7028 22.9292 33.9934 22.9574 34.3593 23.2734C34.5491 23.5252 34.6135 23.8356 34.694 24.1357C34.737 24.3187 34.737 24.3187 34.8749 24.4374C35.1071 24.4632 35.2571 24.4672 35.4648 24.3554C35.6261 24.078 35.61 23.812 35.5624 23.4999C35.3742 22.9474 35.0228 22.4852 34.517 22.1916C33.9314 21.9169 33.2091 21.7898 32.6249 22.1367ZM34.7748 31.6369C34.6645 31.7795 34.6259 31.9135 34.5742 32.0859C34.4398 32.474 34.2918 32.6351 33.9216 32.8205C33.6446 32.9083 33.3731 32.8704 33.0859 32.8549C32.8323 32.879 32.7364 32.9419 32.5624 33.1249C32.5104 33.3437 32.5104 33.3437 32.5624 33.5624C32.7753 33.7871 32.9628 33.8602 33.2641 33.8876C33.9045 33.9002 34.4463 33.7325 34.9374 33.3124C35.2781 32.9493 35.5597 32.5609 35.5898 32.0507C35.5801 31.8158 35.5801 31.8158 35.4648 31.6562C35.2447 31.5208 34.9944 31.4736 34.7748 31.6369ZM29.3124 35.6874C29.0131 36.1794 28.9461 36.6623 29.0764 37.218C29.2569 37.8012 29.6262 38.2298 30.1598 38.5263C30.4755 38.6666 30.722 38.7361 31.0624 38.6249C31.1979 38.5312 31.1979 38.5312 31.2499 38.3749C31.246 38.1496 31.2432 37.9999 31.0898 37.8281C30.8201 37.6898 30.5369 37.5956 30.2499 37.4999C30.1011 37.2518 30.0538 37.0288 30.0546 36.7421C30.0548 36.6813 30.0549 36.6205 30.0551 36.5578C30.0618 36.3899 30.0824 36.232 30.1093 36.0664C30.137 35.8487 30.137 35.8487 30.0195 35.6562C29.7312 35.4692 29.5854 35.4554 29.3124 35.6874Z" fill="white"/>
<path d="M26.9374 14.25C26.9834 14.2693 27.0293 14.2887 27.0767 14.3086C27.2506 14.3981 27.3687 14.479 27.4999 14.625C27.5832 14.9294 27.5712 15.2323 27.5638 15.5454C27.5636 15.6396 27.5637 15.7339 27.564 15.8282C27.5642 16.0835 27.5609 16.3387 27.557 16.594C27.5534 16.861 27.5531 17.128 27.5525 17.395C27.5507 17.9003 27.5461 18.4056 27.5404 18.911C27.5342 19.4864 27.5311 20.0618 27.5282 20.6372C27.5224 21.8207 27.5125 23.0041 27.4999 24.1875C27.4493 24.2078 27.3986 24.2281 27.3464 24.249C27.2796 24.2762 27.2127 24.3035 27.1437 24.3315C27.0776 24.3583 27.0115 24.385 26.9434 24.4126C26.3185 24.695 25.9256 25.1724 25.6791 25.8074C25.4808 26.4837 25.5472 27.1232 25.8373 27.762C26.0098 28.0643 26.244 28.4033 26.5624 28.5625C26.5248 29.1155 26.3201 29.6125 26.1343 30.1306C25.894 30.7919 25.894 30.7919 26.0351 31.457C26.3454 31.7992 26.6345 31.8203 27.0785 31.8484C27.1969 31.8561 27.1969 31.8561 27.3176 31.8639C27.3778 31.8676 27.4379 31.8712 27.4999 31.875C27.5131 33.1072 27.523 34.3393 27.5291 35.5715C27.532 36.1436 27.5359 36.7157 27.5424 37.2879C27.548 37.7865 27.5516 38.2852 27.5529 38.7839C27.5536 39.048 27.5553 39.3119 27.5594 39.576C27.5632 39.8246 27.5644 40.0731 27.5636 40.3218C27.5637 40.4129 27.5648 40.5041 27.567 40.5952C27.5825 41.2838 27.5825 41.2838 27.3766 41.5113C27.2334 41.6087 27.0964 41.6822 26.9374 41.75C26.8508 41.7952 26.8508 41.7952 26.7624 41.8413C26.0216 42.1109 25.0923 42.1266 24.3556 41.8342C24.0064 41.6593 23.6527 41.4653 23.3749 41.1875C23.2429 41.1684 23.2429 41.1684 23.0905 41.1704C23.033 41.1693 22.9755 41.1682 22.9163 41.1671C22.855 41.1661 22.7936 41.1651 22.7304 41.1641C21.7089 41.1307 20.7881 40.8549 20.0312 40.1328C19.3547 39.4081 19.1018 38.541 19.1066 37.5654C19.1283 37.1101 19.2466 36.63 19.4999 36.25C19.4402 36.2363 19.3805 36.2226 19.319 36.2085C18.2966 35.9627 17.4949 35.4943 16.904 34.5962C16.4195 33.7564 16.3218 32.8716 16.5595 31.9365C16.6438 31.6962 16.7566 31.4751 16.8749 31.25C16.7775 31.2056 16.7775 31.2056 16.6782 31.1604C15.6633 30.6851 15.0124 30.0798 14.6078 29.012C14.3612 28.268 14.4101 27.3268 14.7499 26.625C15.2177 25.6936 15.9145 25.1318 16.8749 24.75C16.8538 24.7114 16.8327 24.6728 16.811 24.6331C16.3961 23.8454 16.3142 23.0513 16.5605 22.1858C16.8709 21.291 17.4563 20.5363 18.3051 20.0935C18.7019 19.9154 19.065 19.8231 19.4999 19.8125C19.4683 19.7443 19.4683 19.7443 19.436 19.6748C19.0597 18.8267 18.9419 18.0316 19.2617 17.1445C19.6749 16.1584 20.3901 15.4776 21.3632 15.0469C21.8856 14.8513 22.407 14.8046 22.9609 14.8281C23.3201 14.8343 23.3201 14.8343 23.6093 14.6445C23.6572 14.5934 23.6572 14.5934 23.706 14.5413C24.4762 13.7905 26.0251 13.8086 26.9374 14.25ZM24.8906 17.4102C24.7304 17.5555 24.7304 17.5555 24.7148 17.7812C24.7345 17.9963 24.7345 17.9963 24.8398 18.1406C24.9936 18.2456 25.1011 18.2848 25.2773 18.3359C25.5831 18.4276 25.699 18.5486 25.8749 18.8125C26.0002 19.1882 25.9587 19.5142 25.8124 19.875C25.824 20.0681 25.8455 20.201 25.9452 20.3672C26.1409 20.4846 26.2776 20.472 26.4999 20.4375C26.7877 20.169 26.9192 19.9148 26.9511 19.5168C26.9704 18.8823 26.8463 18.434 26.4389 17.9424C26.1195 17.6144 25.7613 17.4005 25.3124 17.3125C25.0657 17.2919 25.0657 17.2919 24.8906 17.4102ZM20.7402 23.0271C20.5341 23.314 20.3604 23.6496 20.3837 24.0115C20.4307 24.1936 20.4919 24.3045 20.6249 24.4375C20.8566 24.4632 21.0035 24.4752 21.2031 24.3477C21.3074 24.1949 21.3496 24.0848 21.4023 23.9102C21.5067 23.5681 21.6753 23.396 21.9809 23.21C22.2914 23.0822 22.5727 23.127 22.9025 23.1489C23.1341 23.1436 23.1341 23.1436 23.31 22.9824C23.4595 22.8177 23.4595 22.8177 23.4413 22.5859C23.3924 22.3756 23.3924 22.3756 23.2617 22.2578C22.3653 21.7968 21.3312 22.3371 20.7402 23.0271ZM20.4374 31.75C20.3081 32.1218 20.3873 32.472 20.5319 32.8264C20.8309 33.3843 21.2921 33.7918 21.895 33.9836C22.3878 34.1064 22.8502 34.1037 23.3124 33.875C23.459 33.6947 23.459 33.6947 23.4296 33.4687C23.395 33.2528 23.395 33.2528 23.2709 33.1426C23.0795 33.0376 22.9511 33.0502 22.7343 33.0625C22.3263 33.0703 22.0269 33.0477 21.7033 32.7871C21.4524 32.532 21.3963 32.2997 21.342 31.9529C21.3187 31.8008 21.3187 31.8008 21.207 31.6484C20.9241 31.4803 20.643 31.4865 20.4374 31.75ZM25.6327 35.6367C25.5403 35.7856 25.5083 35.8865 25.4999 36.0625C25.5884 36.2441 25.6966 36.3862 25.8242 36.543C25.9798 36.8274 25.9857 37.0575 25.9374 37.375C25.8682 37.603 25.7732 37.7559 25.5727 37.8882C25.4462 37.9526 25.3187 38.0086 25.1874 38.0625C24.921 38.1686 24.921 38.1686 24.7499 38.375C24.7261 38.594 24.7248 38.7102 24.8437 38.8984C25.0654 39.0426 25.2477 39.049 25.4999 39C26.0571 38.8081 26.5071 38.4447 26.7773 37.918C27.0021 37.4208 27.0267 36.8671 26.8359 36.3516C26.6957 36.0446 26.4976 35.7176 26.1874 35.5625C25.8962 35.5342 25.8962 35.5342 25.6327 35.6367Z" fill="white"/>
<path d="M29.047 25.4142C29.3713 25.7565 29.5197 26.1229 29.5391 26.5939C29.519 27.0448 29.4028 27.4242 29.0665 27.7381C28.8832 27.8773 28.6942 27.9962 28.4962 28.1134C28.3499 28.2478 28.3499 28.2478 28.377 28.4757C28.4409 28.947 28.6255 29.3943 28.7852 29.84C28.834 29.9775 28.8827 30.1151 28.9311 30.2527C28.9611 30.3379 28.9913 30.423 29.0219 30.5079C29.1251 30.7988 29.1251 30.7988 29.1251 30.9376C28.3826 30.9376 27.6401 30.9376 26.8751 30.9376C26.9223 30.6074 26.9757 30.3594 27.0826 30.0511C27.1112 29.9666 27.1398 29.882 27.1683 29.7973C27.213 29.6661 27.258 29.535 27.3037 29.4041C27.3481 29.2763 27.3912 29.1482 27.4342 29.0199C27.4733 28.9062 27.4733 28.9062 27.5133 28.7903C27.5721 28.5187 27.5483 28.3344 27.5001 28.0626C27.4575 28.0497 27.415 28.0368 27.3712 28.0235C26.932 27.818 26.67 27.5138 26.5001 27.0626C26.3737 26.622 26.4321 26.2224 26.6251 25.8126C26.853 25.461 27.1515 25.2119 27.5575 25.0887C28.1359 24.9726 28.5534 25.1225 29.047 25.4142Z" fill="white"/>
</svg>
