<svg width="20" height="20" viewBox="0 0 20 20" fill="none" xmlns="http://www.w3.org/2000/svg">
<path d="M11.25 17.5H13.75M17.5 11.25V13.75M17.5 16.25V17C17.5 17.1326 17.4473 17.2598 17.3536 17.3536C17.2598 17.4473 17.1326 17.5 17 17.5H16.25M8.75 17.5H8C7.86739 17.5 7.74021 17.4473 7.64645 17.3536C7.55268 17.2598 7.5 17.1326 7.5 17V16.25M16.25 7.5H17C17.1326 7.5 17.2598 7.55268 17.3536 7.64645C17.4473 7.74021 17.5 7.86739 17.5 8V8.75M12.5 3V12C12.5 12.1326 12.4473 12.2598 12.3536 12.3536C12.2598 12.4473 12.1326 12.5 12 12.5H3C2.86739 12.5 2.74021 12.4473 2.64645 12.3536C2.55268 12.2598 2.5 12.1326 2.5 12V3C2.5 2.86739 2.55268 2.74021 2.64645 2.64645C2.74021 2.55268 2.86739 2.5 3 2.5H12C12.1326 2.5 12.2598 2.55268 12.3536 2.64645C12.4473 2.74021 12.5 2.86739 12.5 3Z" stroke="white" stroke-width="1.5" stroke-linecap="round" stroke-linejoin="round"/>
<path d="M13.75 7.5H8C7.86739 7.5 7.74021 7.55268 7.64645 7.64645C7.55268 7.74021 7.5 7.86739 7.5 8V13.75" stroke="white" stroke-width="1.5" stroke-linecap="round" stroke-linejoin="round"/>
</svg>
