<svg width="20" height="20" viewBox="0 0 20 20" fill="none" xmlns="http://www.w3.org/2000/svg">
<path d="M5.62085 3.3335H14.4275C14.4275 3.3335 13.6942 14.381 10.0242 14.381C8.23252 14.381 7.14002 11.7443 6.49168 9.04766C5.81335 6.2235 5.62085 3.3335 5.62085 3.3335Z" stroke="#0F0F0F" stroke-width="1.5" stroke-linecap="round" stroke-linejoin="round"/>
<path d="M14.4276 3.33353C14.4276 3.33353 15.1951 2.51436 15.8334 2.5002C17.0834 2.47186 17.3142 3.33353 17.3142 3.33353C17.5592 3.84186 17.7551 5.16186 16.5809 6.38103C15.4059 7.6002 14.0917 8.66686 13.5567 9.0477M5.62091 3.33353C5.62091 3.33353 4.82091 2.5052 4.16674 2.5002C2.91674 2.4902 2.68591 3.33353 2.68591 3.33353C2.44091 3.84186 2.24508 5.16186 3.41924 6.38103C4.369 7.35219 5.39659 8.24406 6.49174 9.0477M7.08924 16.6669C7.08924 15.1427 10.0242 14.381 10.0242 14.381C10.0242 14.381 12.9601 15.1427 12.9601 16.6669H7.08924Z" stroke="#0F0F0F" stroke-width="1.5" stroke-linecap="round" stroke-linejoin="round"/>
</svg>
