<svg width="20" height="20" viewBox="0 0 20 20" fill="none" xmlns="http://www.w3.org/2000/svg">
<path d="M9.40233 2.87775C9.59433 2.48863 9.69041 2.29407 9.82074 2.23191C9.93416 2.17782 10.066 2.17782 10.1794 2.23191C10.3098 2.29407 10.4058 2.48863 10.5979 2.87775L12.4202 6.56938C12.4768 6.68426 12.5052 6.7417 12.5466 6.7863C12.5833 6.82578 12.6273 6.85777 12.6762 6.8805C12.7314 6.90617 12.7947 6.91543 12.9215 6.93396L16.9976 7.52974C17.4268 7.59247 17.6414 7.62384 17.7407 7.72868C17.8272 7.81989 17.8677 7.94523 17.8513 8.06979C17.8324 8.21297 17.6771 8.36432 17.3663 8.66698L14.4179 11.5386C14.3261 11.6281 14.2801 11.673 14.2504 11.7262C14.2242 11.7733 14.2073 11.8251 14.2008 11.8787C14.1935 11.9392 14.2043 12.0025 14.226 12.1289L14.9217 16.1851C14.9951 16.6129 15.0317 16.8268 14.9628 16.9537C14.9028 17.0641 14.7962 17.1416 14.6727 17.1646C14.5306 17.1909 14.3385 17.0898 13.9543 16.8878L10.3104 14.9715C10.1968 14.9118 10.1401 14.882 10.0802 14.8702C10.0273 14.8598 9.97283 14.8598 9.91991 14.8702C9.86008 14.882 9.80333 14.9118 9.68983 14.9715L6.04585 16.8878C5.66168 17.0898 5.46959 17.1909 5.32755 17.1646C5.20398 17.1416 5.09735 17.0641 5.03736 16.9537C4.96841 16.8268 5.0051 16.6129 5.07847 16.1851L5.77415 12.1289C5.79584 12.0025 5.80669 11.9392 5.79935 11.8787C5.79285 11.8251 5.776 11.7733 5.74975 11.7262C5.7201 11.673 5.67414 11.6281 5.58224 11.5386L2.63388 8.66698C2.32313 8.36432 2.16775 8.21297 2.14885 8.06979C2.1324 7.94523 2.17304 7.81989 2.25945 7.72868C2.35878 7.62384 2.57339 7.59247 3.00261 7.52974L7.07867 6.93396C7.20543 6.91543 7.26881 6.90617 7.32401 6.8805C7.37288 6.85777 7.41688 6.82578 7.45357 6.7863C7.495 6.7417 7.52335 6.68426 7.58005 6.56938L9.40233 2.87775Z" fill="#F8D700"/>
</svg>
