<svg width="56" height="56" viewBox="0 0 56 56" fill="none" xmlns="http://www.w3.org/2000/svg">
<rect width="56" height="56" rx="12" fill="#1CAF61"/>
<path d="M27.9783 20.6031C28.0935 20.6037 28.0935 20.6037 28.2111 20.6042C30.1712 20.6306 31.8868 21.4719 33.2678 22.8602C34.7733 24.4519 35.2155 26.4576 35.1727 28.5916C35.1083 30.3904 34.1382 32.0788 32.8693 33.2965C31.6496 34.4218 30.0129 35.0883 28.368 35.1771C28.2896 35.1821 28.2896 35.1821 28.2097 35.1872C26.2575 35.2511 24.4259 34.4893 22.9979 33.173C22.1049 32.3223 21.5061 31.2898 21.1114 30.1209C21.0965 30.0771 21.0816 30.0332 21.0662 29.9881C20.4691 28.1152 20.7818 26.0777 21.6531 24.3598C22.6435 22.565 24.2398 21.3988 26.1573 20.8008C26.7658 20.654 27.3533 20.6001 27.9783 20.6031ZM29.128 25.7631C29.0719 25.8199 29.0157 25.8766 28.9579 25.9351C28.8978 25.9964 28.8378 26.0577 28.7777 26.1191C28.7154 26.1823 28.653 26.2455 28.5906 26.3087C28.4273 26.4741 28.2644 26.64 28.1016 26.8059C27.935 26.9755 27.7681 27.1447 27.6012 27.314C27.2745 27.6455 26.9481 27.9773 26.622 28.3095C26.552 28.2489 26.4819 28.1883 26.4119 28.1277C26.3729 28.0939 26.3339 28.0602 26.2937 28.0254C26.1457 27.8968 25.9995 27.7661 25.8536 27.6351C25.6199 27.4524 25.4266 27.3997 25.1272 27.407C24.85 27.4518 24.6151 27.6538 24.4396 27.8685C24.3838 28.0376 24.3634 28.1537 24.3578 28.3292C24.3554 28.3757 24.3531 28.4223 24.3507 28.4702C24.4312 28.9382 24.8907 29.2907 25.211 29.6129C25.3047 29.7073 25.3974 29.8025 25.4901 29.8978C25.5503 29.9587 25.6104 30.0195 25.6706 30.0803C25.7246 30.135 25.7785 30.1896 25.834 30.246C26.0385 30.4234 26.2431 30.5613 26.5144 30.5957C27.2403 30.5179 27.7221 29.8638 28.2114 29.3688C28.2857 29.2939 28.36 29.2191 28.4344 29.1443C28.5894 28.9882 28.7441 28.8318 28.8987 28.6753C29.0963 28.4752 29.2947 28.2758 29.4933 28.0766C29.6467 27.9226 29.7996 27.7681 29.9524 27.6135C30.0254 27.5398 30.0985 27.4663 30.1718 27.3929C30.2741 27.2902 30.3759 27.187 30.4775 27.0836C30.5354 27.0251 30.5933 26.9667 30.6529 26.9064C30.9168 26.5974 31.0236 26.3284 31.0089 25.9266C30.9639 25.6445 30.8106 25.4764 30.605 25.2931C29.9816 25.0466 29.5715 25.3125 29.128 25.7631Z" fill="white"/>
<path d="M31.4857 12.3417C31.6456 12.6194 31.7128 12.8674 31.6728 13.1884C31.5349 13.5935 31.3023 13.8336 30.9752 14.0941C30.6944 14.3022 30.6944 14.3022 30.488 14.5745C30.5249 14.5769 30.5619 14.5793 30.5999 14.5818C31.0195 14.6158 31.4061 14.7022 31.8092 14.8226C31.8738 14.8419 31.9384 14.8611 32.0049 14.881C33.4625 15.3321 34.8262 16.036 36.0377 16.9687C36.1199 17.0317 36.1199 17.0317 36.2038 17.0959C36.6267 17.429 37.0205 17.7936 37.4095 18.1658C37.4676 18.221 37.5256 18.2763 37.5854 18.3332C38.0312 18.7695 38.4103 19.2397 38.7814 19.7409C38.808 19.7763 38.8346 19.8116 38.862 19.848C40.2154 21.6495 41.0273 23.81 41.3379 26.0415C41.3488 26.119 41.3597 26.1964 41.3709 26.2763C41.405 26.5564 41.4125 26.8341 41.4152 27.116C41.4158 27.1696 41.4164 27.2232 41.417 27.2784C41.428 28.4829 41.4198 29.65 41.1509 30.8299C41.1362 30.8946 41.1214 30.9594 41.1063 31.0261C40.2884 34.4866 38.1512 37.5144 35.1686 39.4104C35.0023 39.5137 34.8346 39.6144 34.6659 39.7137C34.6244 39.7381 34.5828 39.7625 34.5401 39.7877C32.2133 41.1369 29.661 41.4983 27.0204 41.4951C26.8654 41.4954 26.7105 41.4957 26.5556 41.4961C26.1823 41.4968 25.8091 41.497 25.4358 41.4969C25.1325 41.4967 24.8291 41.4969 24.5258 41.4971C24.4606 41.4972 24.4606 41.4972 24.394 41.4972C24.3057 41.4973 24.2173 41.4974 24.129 41.4975C23.3051 41.4981 22.4812 41.498 21.6573 41.4976C20.9043 41.4973 20.1512 41.498 19.3982 41.4992C18.6224 41.5004 17.8466 41.501 17.0709 41.5007C16.6363 41.5006 16.2018 41.5007 15.7672 41.5016C15.3595 41.5025 14.9519 41.5023 14.5442 41.5015C14.3947 41.5013 14.2451 41.5015 14.0956 41.502C13.8915 41.5027 13.6875 41.5022 13.4835 41.5014C13.4243 41.5018 13.3651 41.5023 13.3042 41.5028C12.8637 41.4992 12.5638 41.432 12.2256 41.1273C11.994 40.859 11.999 40.6374 12.0003 40.2888C12.0491 39.9723 12.222 39.7813 12.4672 39.5876C12.6399 39.5295 12.7421 39.5167 12.9201 39.5164C12.9746 39.5162 13.0292 39.516 13.0854 39.5157C13.1753 39.5158 13.1753 39.5158 13.2671 39.5159C13.3627 39.5157 13.3627 39.5157 13.4601 39.5154C13.6747 39.5149 13.8892 39.5148 14.1037 39.5147C14.2571 39.5144 14.4106 39.5141 14.564 39.5137C14.8952 39.513 15.2265 39.5125 15.5577 39.5121C16.0828 39.5114 16.6079 39.5101 17.133 39.5087C17.313 39.5083 17.4929 39.5078 17.6728 39.5073C17.7178 39.5072 17.7628 39.5071 17.8091 39.507C18.3215 39.5057 18.8338 39.5045 19.3462 39.5033C19.4165 39.5032 19.4165 39.5032 19.4881 39.503C20.2435 39.5014 20.9988 39.5002 21.7542 39.4992C22.5317 39.498 23.3092 39.4962 24.0867 39.4938C24.5649 39.4923 25.0431 39.4915 25.5213 39.4913C25.89 39.4912 26.2587 39.49 26.6275 39.4886C26.7771 39.4881 26.9268 39.488 27.0764 39.4882C29.9609 39.4917 32.6562 38.8684 34.9776 37.0674C35.0298 37.0277 35.082 36.988 35.1357 36.9471C37.4211 35.1394 38.945 32.4183 39.3596 29.5191C39.5124 28.2127 39.5284 26.7565 39.2178 25.4744C39.2058 25.4213 39.1937 25.3682 39.1813 25.3135C38.9759 24.4214 38.6712 23.5918 38.2825 22.7652C38.2519 22.6998 38.2519 22.6998 38.2207 22.6331C36.96 19.9898 34.5685 17.9612 31.8599 16.9687C31.1269 16.6973 31.1269 16.6973 30.3633 16.5907C30.4009 16.6318 30.4386 16.6729 30.4773 16.7152C31.2109 17.5258 31.2109 17.5258 31.2558 17.9886C31.2289 18.3201 31.1396 18.5902 30.8929 18.8207C30.6515 18.9812 30.4241 19.0141 30.1392 19.0184C29.714 18.9235 29.4565 18.6559 29.1941 18.3273C29.1623 18.2886 29.1305 18.2499 29.0977 18.21C29.0319 18.1299 28.9662 18.0496 28.9008 17.969C28.7808 17.8218 28.6584 17.6766 28.5359 17.5315C27.0503 15.7706 27.0503 15.7706 27.0429 15.3109C27.0405 15.2216 27.0405 15.2216 27.038 15.1305C27.0813 14.7539 27.32 14.5509 27.5885 14.3067C27.6216 14.2765 27.6548 14.2463 27.689 14.2152C27.952 13.9774 28.2232 13.7508 28.4982 13.5273C28.6684 13.3868 28.8348 13.2429 29.0006 13.0973C29.3133 12.8232 29.6287 12.553 29.9541 12.2945C30.0106 12.2494 30.0671 12.2043 30.1253 12.1579C30.6051 11.8748 31.0832 11.9943 31.4857 12.3417Z" fill="white"/>
<path d="M24.2759 15.1534C24.5178 15.3222 24.6583 15.4897 24.7514 15.7717C24.7743 16.1255 24.7648 16.3499 24.5643 16.6538C24.315 16.8872 24.1129 17.0155 23.7888 17.1302C22.7525 17.5243 21.7854 18.0661 20.9275 18.7728C20.8299 18.8533 20.7307 18.9319 20.6315 19.0103C19.994 19.5207 19.4481 20.0986 18.9523 20.7491C18.9275 20.7816 18.9028 20.814 18.8773 20.8475C17.5349 22.6267 16.5916 24.9335 16.5679 27.1914C16.5673 27.2398 16.5667 27.2881 16.566 27.3379C16.5334 30.5787 17.4646 33.493 19.7005 35.8704C19.7304 35.9022 19.7602 35.9341 19.7909 35.9669C20.3224 36.5309 20.8795 37.0361 21.5325 37.4551C21.5864 37.4936 21.6404 37.532 21.6959 37.5716C21.6959 37.6131 21.6959 37.6547 21.6959 37.6976C21.27 37.7104 20.844 37.7192 20.4179 37.7253C20.2731 37.7278 20.1283 37.7312 19.9836 37.7356C19.7749 37.7417 19.5663 37.7446 19.3576 37.7468C19.2933 37.7494 19.2291 37.752 19.1629 37.7547C18.8073 37.7549 18.6176 37.7154 18.3603 37.4582C18.2858 37.3714 18.2129 37.2831 18.1417 37.1935C18.0669 37.1091 17.9919 37.0249 17.9166 36.941C16.4132 35.1751 15.344 33.106 14.8368 30.83C14.8236 30.7712 14.8104 30.7123 14.7968 30.6517C14.4101 28.8343 14.4232 26.7807 14.8368 24.9705C14.8485 24.9173 14.8601 24.8641 14.8722 24.8093C15.4259 22.3349 16.6639 20.1754 18.3911 18.3549C18.4469 18.2952 18.5026 18.2355 18.5601 18.174C18.9901 17.7249 19.4551 17.341 19.95 16.9688C20.0032 16.9287 20.0564 16.8885 20.1112 16.8472C23.0397 14.714 23.0397 14.714 24.2759 15.1534Z" fill="white"/>
<path d="M41.0314 37.0973C41.3511 37.2874 41.5981 37.5567 41.8573 37.8215C41.9116 37.8763 41.9659 37.9311 42.0218 37.9876C42.1361 38.1032 42.2501 38.2191 42.3639 38.3351C42.5381 38.5125 42.713 38.6891 42.8881 38.8656C42.9992 38.9782 43.1103 39.0909 43.2213 39.2036C43.2735 39.2564 43.3258 39.3091 43.3796 39.3634C43.4281 39.413 43.4766 39.4626 43.5266 39.5137C43.5692 39.557 43.6117 39.6004 43.6556 39.645C43.8807 39.9048 43.9852 40.1114 43.992 40.4581C43.996 40.5503 43.996 40.5503 44 40.6444C43.8905 41.1615 43.3896 41.5689 43.034 41.9321C42.9819 41.9855 42.9298 42.0388 42.8761 42.0938C42.7663 42.2059 42.6564 42.3178 42.5464 42.4295C42.3788 42.6 42.2126 42.7718 42.0464 42.9437C41.9392 43.0529 41.8319 43.162 41.7245 43.2709C41.6754 43.3221 41.6263 43.3733 41.5757 43.4261C41.2371 43.7654 40.9138 43.9944 40.4231 44.0002C40.0202 43.8961 39.8247 43.7208 39.592 43.3682C39.5366 43.0047 39.5234 42.6545 39.744 42.3483C39.9986 42.0729 40.2636 41.8075 40.5273 41.541C37.9655 41.5098 37.9655 41.5098 35.3518 41.478C35.3518 41.4364 35.3518 41.3948 35.3518 41.352C35.439 41.2861 35.439 41.2861 35.5623 41.2146C35.6306 41.1742 35.6306 41.1742 35.7003 41.1329C35.7499 41.1038 35.7995 41.0748 35.8507 41.0448C36.2544 40.8023 36.6413 40.5476 37.0159 40.2612C37.0554 40.231 37.0949 40.2009 37.1356 40.1698C37.3601 39.9975 37.3601 39.9975 37.5669 39.8046C37.8211 39.548 38.0099 39.4806 38.3667 39.4724C38.4231 39.473 38.4795 39.4735 38.5376 39.4741C38.5965 39.4733 38.6554 39.4724 38.716 39.4715C38.9028 39.4692 39.0895 39.4694 39.2763 39.4697C39.4035 39.4686 39.5307 39.4672 39.6579 39.4658C39.9685 39.4625 40.2791 39.4615 40.5897 39.4618C40.5334 39.4063 40.477 39.3509 40.419 39.2937C40.3446 39.2198 40.2704 39.1459 40.1961 39.072C40.159 39.0355 40.1219 38.9991 40.0837 38.9616C39.6167 38.4951 39.6167 38.4951 39.565 38.1449C39.5641 37.4812 39.5641 37.4812 39.8414 37.1936C40.2009 36.9342 40.6366 36.907 41.0314 37.0973Z" fill="white"/>
</svg>
