<svg width="24" height="24" viewBox="0 0 24 24" fill="none" xmlns="http://www.w3.org/2000/svg">
<path d="M13.75 4.2291V7.74006C13.75 8.2161 13.75 8.45413 13.8454 8.63595C13.9293 8.79589 14.0631 8.92592 14.2277 9.00742C14.4149 9.10006 14.6599 9.10006 15.15 9.10006H18.7642M9.8125 12.5L14.1875 16.75M14.1875 12.5L9.8125 16.75M13.75 4H9.2C7.72986 4 6.99479 4 6.43328 4.27793C5.93935 4.52241 5.53778 4.91251 5.28611 5.39233C5 5.9378 5 6.65186 5 8.08V16.92C5 18.3482 5 19.0622 5.28611 19.6077C5.53778 20.0875 5.93935 20.4776 6.43328 20.7221C6.99479 21 7.72986 21 9.2 21H14.8C16.2702 21 17.0052 21 17.5667 20.7221C18.0607 20.4776 18.4622 20.0875 18.7139 19.6077C19 19.0622 19 18.3482 19 16.92V9.1L13.75 4Z" stroke="#0F0F0F" stroke-width="1.5" stroke-linecap="round" stroke-linejoin="round"/>
</svg>
