<svg width="55" height="36" viewBox="0 0 55 36" fill="none" xmlns="http://www.w3.org/2000/svg">
<rect width="55" height="36" rx="18" fill="black"/>
<path d="M21.4503 25L16.5003 11.986H18.3903L21.5583 20.302C21.8463 21.04 22.0983 21.778 22.3683 22.75C22.6743 21.724 22.9803 20.86 23.1963 20.284L26.3463 11.986H28.1823L23.2863 25H21.4503ZM29.047 15.496C29.047 13.264 30.847 11.752 33.529 11.752C36.013 11.752 37.615 13.138 37.759 15.388H35.977C35.887 14.092 34.969 13.336 33.511 13.336C31.873 13.336 30.811 14.164 30.811 15.442C30.811 16.486 31.405 17.116 32.629 17.404L34.771 17.908C36.895 18.394 37.975 19.546 37.975 21.382C37.975 23.722 36.157 25.216 33.385 25.216C30.739 25.216 28.975 23.83 28.867 21.598H30.667C30.703 22.84 31.747 23.632 33.385 23.632C35.113 23.632 36.211 22.822 36.211 21.526C36.211 20.5 35.653 19.852 34.411 19.564L32.269 19.078C30.145 18.592 29.047 17.368 29.047 15.496Z" fill="white"/>
</svg>
