<svg width="20" height="20" viewBox="0 0 20 20" fill="none" xmlns="http://www.w3.org/2000/svg">
<path d="M1.91943 10.0873C1.91943 7.22911 1.91943 5.79941 2.77034 4.84486C2.9061 4.69274 3.0564 4.55153 3.21883 4.42365C4.23216 3.62305 5.75095 3.62305 8.78852 3.62305H11.2128C14.2491 3.62305 15.7679 3.62305 16.7825 4.42305C16.9443 4.55153 17.094 4.69274 17.2303 4.84547C18.0813 5.79941 18.0813 7.22911 18.0813 10.0879C18.0813 12.9461 18.0813 14.3752 17.2303 15.3297C17.0934 15.4831 16.9433 15.6242 16.7819 15.7515C15.7679 16.5515 14.2497 16.5515 11.2122 16.5515H8.78792C5.75095 16.5515 4.23216 16.5515 3.21822 15.7515C3.05677 15.6242 2.90671 15.4831 2.76974 15.3297C1.91943 14.3752 1.91943 12.9461 1.91943 10.0873Z" stroke="#0F0F0F" stroke-width="1.5" stroke-linecap="round" stroke-linejoin="round"/>
<path d="M8.38379 13.3193H9.59591M12.0202 13.3193H14.8486" stroke="#0F0F0F" stroke-width="1.5" stroke-miterlimit="10" stroke-linecap="round" stroke-linejoin="round"/>
<path d="M1.91943 7.66357H18.0813" stroke="#0F0F0F" stroke-width="1.5" stroke-linejoin="round"/>
</svg>
