<svg width="24" height="24" viewBox="0 0 24 24" fill="none" xmlns="http://www.w3.org/2000/svg">
<path d="M9.36842 11.1111L12.0526 13.7778L21 4.88889M15.6316 4H8.29474C6.79144 4 6.03979 4 5.46561 4.29065C4.96054 4.54631 4.54991 4.95426 4.29256 5.45603C4 6.02645 4 6.77319 4 8.26667V15.7333C4 17.2268 4 17.9735 4.29256 18.544C4.54991 19.0458 4.96054 19.4537 5.46561 19.7093C6.03979 20 6.79144 20 8.29474 20H15.8105C17.3139 20 18.0654 20 18.6397 19.7093C19.1448 19.4537 19.5554 19.0458 19.8127 18.544C20.1053 17.9735 20.1053 17.2268 20.1053 15.7333V12" stroke="#0F0F0F" stroke-width="1.5" stroke-linecap="round" stroke-linejoin="round"/>
</svg>
