<svg width="56" height="56" viewBox="0 0 56 56" fill="none" xmlns="http://www.w3.org/2000/svg">
<rect width="56" height="56" rx="12" fill="#1CAF61"/>
<g clip-path="url(#clip0_204_223)">
<path d="M13.1669 11.9906C13.217 11.9904 13.2671 11.9902 13.3187 11.99C13.4874 11.9893 13.6561 11.989 13.8249 11.9888C13.9455 11.9884 14.0661 11.988 14.1867 11.9875C14.5151 11.9865 14.8435 11.9858 15.1719 11.9853C15.377 11.985 15.5821 11.9846 15.7872 11.9842C16.4287 11.983 17.0702 11.9821 17.7117 11.9816C18.4526 11.981 19.1934 11.9793 19.9343 11.9768C20.5066 11.9749 21.079 11.974 21.6513 11.9738C21.9933 11.9736 22.3353 11.9731 22.6772 11.9715C22.999 11.9701 23.3208 11.9698 23.6426 11.9704C23.7607 11.9705 23.8787 11.9701 23.9967 11.9692C24.1581 11.9681 24.3194 11.9685 24.4807 11.9694C24.5505 11.9683 24.5505 11.9683 24.6217 11.9673C24.9682 11.9715 25.1589 12.0579 25.4374 12.2498C25.6931 12.5728 25.7579 12.8095 25.757 13.213C25.757 13.2806 25.757 13.3481 25.757 13.4177C25.7567 13.4903 25.7563 13.5628 25.756 13.6375C25.7559 13.7494 25.7559 13.7494 25.7557 13.8635C25.7554 14.1016 25.7546 14.3398 25.7538 14.578C25.7535 14.7394 25.7532 14.9009 25.7529 15.0623C25.7523 15.4582 25.7512 15.854 25.7499 16.2498C25.7918 16.2497 25.8337 16.2495 25.8769 16.2493C26.9011 16.2452 27.9253 16.2421 28.9495 16.2401C29.4448 16.2392 29.9402 16.2379 30.4355 16.2357C30.8676 16.2338 31.2998 16.2326 31.732 16.2322C31.9604 16.232 32.1888 16.2314 32.4172 16.23C34.3264 16.219 36.0055 16.4505 37.4999 17.7498C37.5512 17.7921 37.6025 17.8344 37.6554 17.878C38.6692 18.7404 39.3008 19.9087 39.6249 21.1873C39.6479 21.2747 39.6479 21.2747 39.6713 21.3639C39.8759 22.3241 39.8273 23.4331 39.5624 24.3748C39.5419 24.4507 39.5213 24.5266 39.5001 24.6048C39.2364 25.4827 38.7877 26.2467 38.1874 26.9373C38.1393 26.9979 38.0912 27.0585 38.0416 27.1209C37.8721 27.3243 37.6813 27.4865 37.4726 27.6483C37.4154 27.6927 37.4154 27.6927 37.3571 27.7379C36.184 28.6288 34.6744 29.2555 33.1789 29.0889C32.5208 29.0314 31.9668 29.0564 31.4458 29.4881C31.0351 29.8478 30.6677 30.2528 30.3033 30.6583C30.0945 30.8887 29.8799 31.1135 29.666 31.3392C29.5 31.5145 29.3349 31.6905 29.1726 31.8692C29.1427 31.9018 29.1128 31.9344 29.082 31.968C29.0017 32.0555 28.9219 32.1436 28.8421 32.2317C28.5935 32.4617 28.3441 32.5891 28.0038 32.5897C27.9295 32.5915 27.9295 32.5915 27.8537 32.5934C27.328 32.4953 27.0256 32.0879 26.6899 31.7072C26.4975 31.4912 26.2989 31.2809 26.1017 31.0695C25.9303 30.885 25.7613 30.6991 25.5963 30.5088C24.7541 29.5158 24.7541 29.5158 23.573 29.0842C22.2474 29.0086 20.9149 29.3079 19.89 30.1815C19.0661 30.9509 18.5574 31.909 18.485 33.0462C18.4529 34.2311 18.7692 35.2821 19.5546 36.1873C20.345 36.9994 21.3932 37.4856 22.5311 37.5248C22.675 37.5264 22.819 37.527 22.963 37.5269C23.0424 37.5275 23.1217 37.5281 23.2035 37.5288C23.4183 37.5305 23.6331 37.5311 23.848 37.5315C24.0735 37.5321 24.299 37.5337 24.5246 37.5352C24.9504 37.5379 25.3763 37.5397 25.8021 37.5412C26.2875 37.5429 26.7728 37.5456 27.2582 37.5485C28.2554 37.5542 29.2527 37.5587 30.2499 37.5623C30.2493 37.5018 30.2493 37.5018 30.2486 37.44C30.2445 37.0182 30.2417 36.5964 30.2396 36.1746C30.2387 36.0173 30.2374 35.8601 30.2358 35.7028C30.2335 35.4763 30.2324 35.2498 30.2316 35.0233C30.2306 34.9534 30.2297 34.8835 30.2287 34.8115C30.2286 34.3701 30.2497 33.9747 30.5448 33.6212C30.5816 33.5927 30.6183 33.5643 30.6561 33.535C30.6929 33.5054 30.7296 33.4759 30.7675 33.4454C31.0124 33.2845 31.263 33.3029 31.5443 33.3027C31.5938 33.3025 31.6434 33.3022 31.6945 33.3019C31.8612 33.3011 32.0278 33.3007 32.1945 33.3003C32.3138 33.2998 32.4331 33.2993 32.5524 33.2987C32.9446 33.2971 33.3369 33.2961 33.7291 33.2953C33.8642 33.2949 33.9992 33.2946 34.1342 33.2942C34.6958 33.2929 35.2574 33.2917 35.819 33.291C36.624 33.29 37.4289 33.2879 38.2338 33.2844C38.7998 33.282 39.3657 33.2807 39.9316 33.2804C40.2697 33.2802 40.6077 33.2794 40.9457 33.2774C41.2638 33.2755 41.5819 33.2751 41.9 33.2759C42.0166 33.2759 42.1332 33.2754 42.2498 33.2743C43.337 33.2646 43.337 33.2646 43.6633 33.5351C43.7062 33.5795 43.7062 33.5795 43.7499 33.6248C43.8262 33.6997 43.8262 33.6997 43.9041 33.7762C44.0588 34.1374 44.0347 34.5036 44.0322 34.8913C44.0326 34.9825 44.033 35.0737 44.0336 35.1649C44.0347 35.4119 44.0343 35.659 44.0335 35.906C44.0328 36.1648 44.0334 36.4236 44.0338 36.6825C44.0343 37.1171 44.0337 37.5517 44.0325 37.9863C44.0311 38.4883 44.0316 38.9904 44.0329 39.4925C44.0341 39.924 44.0342 40.3555 44.0336 40.7869C44.0332 41.0445 44.0331 41.302 44.034 41.5595C44.0347 41.8017 44.0342 42.0438 44.0327 42.2859C44.0324 42.3747 44.0325 42.4634 44.0331 42.5521C44.0378 43.3831 44.0378 43.3831 43.7499 43.6873C43.4333 43.9662 43.2459 44.0092 42.8333 44.0095C42.7833 44.0097 42.7332 44.01 42.6817 44.0103C42.5131 44.0111 42.3445 44.0115 42.1759 44.0119C42.0554 44.0124 41.9349 44.0129 41.8144 44.0135C41.4177 44.0151 41.0211 44.016 40.6244 44.0169C40.4879 44.0173 40.3515 44.0176 40.215 44.0179C39.6473 44.0193 39.0797 44.0205 38.512 44.0212C37.6981 44.0222 36.8843 44.0243 36.0704 44.0278C35.4984 44.0302 34.9264 44.0315 34.3543 44.0318C34.0126 44.032 33.6709 44.0328 33.3292 44.0348C33.0075 44.0367 32.6859 44.0371 32.3642 44.0363C32.2463 44.0363 32.1284 44.0368 32.0105 44.0379C31.8492 44.0394 31.688 44.0388 31.5266 44.0378C31.4802 44.0387 31.4339 44.0396 31.3861 44.0405C31.0268 44.0351 30.7789 43.9119 30.4999 43.6873C30.2819 43.399 30.242 43.1415 30.2428 42.7867C30.2428 42.7191 30.2428 42.6515 30.2428 42.582C30.2431 42.5094 30.2435 42.4369 30.2438 42.3622C30.2439 42.2503 30.2439 42.2503 30.2441 42.1362C30.2444 41.8981 30.2452 41.6599 30.246 41.4217C30.2463 41.2603 30.2466 41.0988 30.2468 40.9373C30.2475 40.5415 30.2486 40.1457 30.2499 39.7498C30.2076 39.75 30.1653 39.7502 30.1217 39.7504C29.0887 39.7545 28.0556 39.7576 27.0226 39.7596C26.523 39.7605 26.0234 39.7618 25.5238 39.764C25.088 39.7659 24.6521 39.7671 24.2163 39.7675C23.9858 39.7677 23.7554 39.7683 23.525 39.7697C23.2667 39.7712 23.0084 39.7712 22.7501 39.7711C22.6377 39.7721 22.6377 39.7721 22.523 39.7732C21.7995 39.7706 21.0881 39.6447 20.4061 39.3983C20.3624 39.3826 20.3186 39.3668 20.2735 39.3506C19.5125 39.0629 18.8533 38.6033 18.2499 38.0623C18.2066 38.0242 18.1632 37.986 18.1185 37.9466C16.9796 36.8803 16.2893 35.2838 16.235 33.7332C16.2006 31.8909 16.6994 30.3334 17.9374 28.9373C17.9757 28.8938 18.0141 28.8502 18.0536 28.8053C19.0087 27.7869 20.4269 27.088 21.8124 26.9373C21.9705 26.9462 22.1285 26.9588 22.2861 26.9744C23.1589 27.0369 23.9586 27.0627 24.6569 26.4739C25.0326 26.1341 25.3699 25.757 25.7016 25.3749C25.8751 25.1774 26.0547 24.9857 26.234 24.7935C26.4356 24.5776 26.6365 24.3614 26.8321 24.14C26.8617 24.1068 26.8914 24.0735 26.9219 24.0393C27.0014 23.95 27.0802 23.8602 27.1591 23.7704C27.4028 23.5391 27.6545 23.4105 27.9921 23.4061C28.0653 23.4032 28.0653 23.4032 28.14 23.4002C28.6845 23.5175 29.0387 23.9682 29.3962 24.3616C29.5588 24.5393 29.7251 24.7134 29.8909 24.8882C30.1002 25.109 30.3082 25.3307 30.5118 25.5569C31.2994 26.4911 31.2994 26.4911 32.3706 26.9726C32.7561 26.9895 33.1214 26.942 33.4999 26.8748C33.5911 26.8652 33.6825 26.8565 33.774 26.8493C34.8768 26.7577 35.8276 26.1664 36.5607 25.3651C37.284 24.4876 37.5964 23.3815 37.5138 22.2568C37.3994 21.1739 36.8924 20.1952 36.0758 19.4703C35.1641 18.7508 34.1864 18.4714 33.0368 18.4728C32.9574 18.4722 32.8781 18.4715 32.7963 18.4709C32.5815 18.4692 32.3667 18.4686 32.1518 18.4682C31.9263 18.4676 31.7007 18.466 31.4752 18.4645C31.0494 18.4617 30.6235 18.46 30.1976 18.4585C29.7123 18.4568 29.227 18.4541 28.7416 18.4512C27.7444 18.4455 26.7471 18.441 25.7499 18.4373C25.7505 18.4979 25.7505 18.4979 25.7512 18.5597C25.7553 18.9815 25.7581 19.4033 25.7602 19.8251C25.7611 19.9824 25.7624 20.1396 25.764 20.2969C25.7663 20.5234 25.7674 20.7499 25.7682 20.9764C25.7697 21.0812 25.7697 21.0812 25.7711 21.1882C25.7712 21.6295 25.7501 22.025 25.455 22.3785C25.4182 22.4069 25.3815 22.4354 25.3436 22.4647C25.3069 22.4943 25.2702 22.5238 25.2323 22.5543C24.9879 22.7148 24.7385 22.6966 24.4579 22.6965C24.3839 22.6969 24.3839 22.6969 24.3084 22.6972C24.1426 22.6979 23.9768 22.6982 23.811 22.6984C23.6923 22.6988 23.5737 22.6992 23.455 22.6997C23.1321 22.7007 22.8093 22.7014 22.4865 22.7019C22.2848 22.7022 22.0831 22.7026 21.8814 22.703C21.2503 22.7042 20.6193 22.7051 19.9882 22.7056C19.2598 22.7062 18.5313 22.7079 17.8029 22.7104C17.2399 22.7123 16.6769 22.7132 16.1138 22.7134C15.7776 22.7136 15.4413 22.7141 15.105 22.7157C14.7886 22.7171 14.4721 22.7174 14.1556 22.7168C14.0396 22.7167 13.9236 22.7171 13.8077 22.718C13.6489 22.7191 13.4903 22.7187 13.3316 22.7178C13.2632 22.7189 13.2632 22.7189 13.1934 22.7199C12.8558 22.7157 12.5951 22.6231 12.3124 22.4373C12.0564 22.1617 11.9922 22.0047 11.9907 21.6338C11.99 21.5168 11.99 21.5168 11.9893 21.3975C11.9892 21.3106 11.989 21.2237 11.9888 21.1367C11.9884 21.0456 11.988 20.9544 11.9876 20.8633C11.9865 20.6152 11.9858 20.3671 11.9853 20.1191C11.985 19.9641 11.9846 19.8091 11.9842 19.6541C11.983 19.1693 11.9822 18.6845 11.9816 18.1997C11.981 17.64 11.9794 17.0803 11.9769 16.5205C11.975 16.088 11.974 15.6555 11.9738 15.2229C11.9737 14.9645 11.9731 14.7062 11.9716 14.4478C11.9701 14.2046 11.9698 13.9615 11.9705 13.7183C11.9705 13.6292 11.9701 13.5401 11.9693 13.4509C11.9617 12.616 11.9617 12.616 12.2499 12.3123C12.5667 12.0333 12.7541 11.9905 13.1669 11.9906Z" fill="white"/>
</g>
<defs>
<clipPath id="clip0_204_223">
<rect width="32" height="32" fill="white" transform="translate(12 12)"/>
</clipPath>
</defs>
</svg>
