<svg width="56" height="56" viewBox="0 0 56 56" fill="none" xmlns="http://www.w3.org/2000/svg">
<rect width="56" height="56" rx="12" fill="#1CAF61"/>
<path d="M27.1487 26.9789C27.2144 26.9785 27.2801 26.9781 27.3478 26.9777C27.4861 26.977 27.6244 26.9767 27.7627 26.9768C27.9706 26.9765 28.1784 26.9742 28.3863 26.9718C29.5913 26.9654 30.6096 27.1438 31.6875 27.6874C31.7543 27.7209 31.8212 27.7543 31.8901 27.7887C32.3929 28.061 32.7823 28.4137 33.1875 28.8124C33.2406 28.8646 33.2938 28.9168 33.3486 28.9706C34.4528 30.0962 34.9148 31.4664 35.125 32.9999C35.14 33.1041 35.1551 33.2083 35.1703 33.3125C35.2021 33.5316 35.2332 33.7508 35.2639 33.97C35.3052 34.2635 35.3485 34.5567 35.3924 34.8499C35.4279 35.0872 35.463 35.3245 35.498 35.5619C35.5147 35.6756 35.5316 35.7892 35.5487 35.9029C35.7996 37.5843 35.7996 37.5843 35.5 37.9999C34.335 39.2461 32.0424 39.488 30.4375 39.6249C30.3752 39.6304 30.3129 39.6359 30.2487 39.6415C29.5112 39.6988 28.7745 39.6999 28.0351 39.6991C27.9683 39.6991 27.9015 39.6991 27.8327 39.699C26.883 39.6976 25.9427 39.6891 25 39.5624C24.9373 39.5544 24.8745 39.5463 24.8099 39.538C23.3673 39.3474 21.5078 39.0723 20.4648 37.953C20.0973 37.3777 20.3606 36.5015 20.4541 35.8642C20.4689 35.7609 20.4837 35.6576 20.4985 35.5544C20.5295 35.3387 20.5609 35.1232 20.5925 34.9076C20.6325 34.6341 20.6717 34.3605 20.7105 34.0868C20.7409 33.8736 20.7718 33.6605 20.8029 33.4475C20.8175 33.3467 20.8319 33.246 20.8462 33.1452C21.0811 31.4926 21.5733 30.1014 22.75 28.8749C22.7911 28.8305 22.8323 28.7861 22.8747 28.7404C23.9719 27.5903 25.578 26.9825 27.1487 26.9789Z" fill="white"/>
<path d="M31.25 17.4375C32.1862 18.2442 32.9184 19.4242 33.0137 20.6809C33.074 22.2909 32.7672 23.5767 31.6875 24.8125C30.7161 25.8343 29.3962 26.3619 28 26.3984C26.6036 26.3619 25.3572 25.8316 24.3532 24.8577C23.2776 23.7193 22.9562 22.418 22.9809 20.9004C23.0198 19.7959 23.5059 18.7484 24.25 17.9375C24.2915 17.8903 24.3329 17.8431 24.3757 17.7944C26.158 15.8771 29.2597 15.8331 31.25 17.4375Z" fill="white"/>
<path d="M39.8555 27.9484C40.0603 28.1 40.2503 28.265 40.4375 28.4375C40.4768 28.4718 40.5161 28.5062 40.5566 28.5415C41.6095 29.513 41.9767 30.8853 42.2344 32.2422C42.2553 32.3515 42.2553 32.3515 42.2766 32.4629C42.4648 33.4927 42.4648 33.4927 42.2151 33.9373C41.4941 34.9397 40.0895 35.3525 38.9297 35.5547C38.7658 35.5808 38.6021 35.6034 38.4375 35.625C38.3467 35.6372 38.3467 35.6372 38.2542 35.6497C37.7547 35.7053 37.2517 35.6932 36.75 35.6875C36.716 35.4779 36.6822 35.2683 36.6484 35.0586C36.6374 34.9907 36.6264 34.9229 36.6151 34.8529C36.5519 34.4603 36.4911 34.0675 36.4339 33.6739C36.4029 33.4606 36.3713 33.2474 36.3397 33.0342C36.3244 32.9297 36.3094 32.8251 36.2946 32.7205C36.1664 31.8124 35.9875 30.9071 35.5781 30.0781C35.557 30.0345 35.5359 29.9909 35.5141 29.946C35.1743 29.265 34.7087 28.6827 34.2114 28.1111C34.0931 27.9731 33.9815 27.8346 33.875 27.6875C35.7621 26.6506 38.0774 26.7113 39.8555 27.9484Z" fill="white"/>
<path d="M22.125 27.6876C22.0907 27.7274 22.0907 27.7274 22.0558 27.7681C21.9537 27.8869 21.8518 28.006 21.75 28.1251C21.7196 28.1607 21.6892 28.1963 21.6578 28.233C20.2579 29.8863 19.8436 31.6576 19.5508 33.7657C19.5176 34.0017 19.4843 34.2376 19.4508 34.4734C19.4301 34.6192 19.4097 34.765 19.3894 34.9108C19.3802 34.9764 19.371 35.042 19.3616 35.1095C19.3536 35.167 19.3456 35.2245 19.3373 35.2838C19.3152 35.4212 19.2863 35.5533 19.25 35.6876C17.4285 35.7323 15.3682 35.4695 13.979 34.1747C13.7553 33.9336 13.6249 33.7244 13.6251 33.3874C13.7764 31.6412 14.1263 30.0271 15.3125 28.6876C15.3471 28.6478 15.3817 28.608 15.4173 28.567C17.0981 26.7569 20.0362 26.4744 22.125 27.6876Z" fill="white"/>
<path d="M38.7554 19.5565C39.6072 20.1686 40.1307 20.9877 40.3359 22.0079C40.4974 23.0082 40.2734 24.0272 39.6917 24.8605C39.368 25.2821 39.0108 25.5915 38.5625 25.8749C38.523 25.9004 38.4835 25.9259 38.4429 25.9523C37.5881 26.4399 36.5431 26.4833 35.6134 26.2395C34.8527 26.0205 34.126 25.5476 33.6875 24.8749C33.6928 24.605 33.8323 24.3851 33.9531 24.1483C34.3848 23.2657 34.5748 22.306 34.5742 21.328C34.5743 21.2669 34.5744 21.2059 34.5745 21.143C34.572 20.7749 34.5511 20.4281 34.4587 20.0699C34.4318 19.902 34.4478 19.7866 34.5 19.6249C35.5518 18.5871 37.6363 18.8597 38.7554 19.5565Z" fill="white"/>
<path d="M19.3008 18.9724C19.391 18.9731 19.391 18.9731 19.4831 18.9738C20.1873 18.9901 20.9402 19.1707 21.5 19.6248C21.5772 19.8426 21.5606 19.9947 21.5039 20.2146C21.2214 21.6643 21.5224 23.1873 22.2148 24.4763C22.3233 24.7107 22.3287 24.7624 22.25 24.9998C21.6396 25.8149 20.7254 26.2173 19.75 26.3748C18.767 26.4851 17.7756 26.1717 16.9922 25.5818C16.1426 24.8709 15.7259 23.9378 15.6008 22.8525C15.5659 21.8826 15.8904 20.9593 16.5273 20.2302C16.6212 20.1315 16.7162 20.0337 16.8125 19.9373C16.8478 19.9012 16.8831 19.8652 16.9194 19.8281C17.5578 19.2286 18.4427 18.9629 19.3008 18.9724Z" fill="white"/>
</svg>
