<svg width="20" height="20" viewBox="0 0 20 20" fill="none" xmlns="http://www.w3.org/2000/svg">
<path d="M10.126 3.23849C10.1592 3.16724 10.212 3.10694 10.2782 3.06469C10.3445 3.02245 10.4214 3 10.5 3C10.5786 3 10.6555 3.02245 10.7218 3.06469C10.788 3.10694 10.8408 3.16724 10.874 3.23849L12.843 7.45764C12.884 7.54546 12.9545 7.61604 13.0424 7.65702L17.2615 9.626C17.3328 9.65915 17.3931 9.71196 17.4353 9.77822C17.4776 9.84447 17.5 9.92142 17.5 10C17.5 10.0786 17.4776 10.1555 17.4353 10.2218C17.3931 10.288 17.3328 10.3408 17.2615 10.374L13.0424 12.343C12.9545 12.384 12.884 12.4545 12.843 12.5424L10.874 16.7615C10.8408 16.8328 10.788 16.8931 10.7218 16.9353C10.6555 16.9776 10.5786 17 10.5 17C10.4214 17 10.3445 16.9776 10.2782 16.9353C10.212 16.8931 10.1592 16.8328 10.126 16.7615L8.15702 12.5424C8.11604 12.4545 8.04546 12.384 7.95764 12.343L3.73849 10.374C3.66724 10.3408 3.60694 10.288 3.56469 10.2218C3.52245 10.1555 3.5 10.0786 3.5 10C3.5 9.92142 3.52245 9.84447 3.56469 9.77822C3.60694 9.71196 3.66724 9.65915 3.73849 9.626L7.95764 7.65702C8.04546 7.61604 8.11604 7.54546 8.15702 7.45764L10.126 3.23849Z" stroke="#0F0F0F" stroke-width="1.5" stroke-linecap="round" stroke-linejoin="round"/>
</svg>
