<svg width="1247" height="215" viewBox="0 0 1247 215" fill="none" xmlns="http://www.w3.org/2000/svg">
<g clip-path="url(#clip0_69_4308)">
<path fill-rule="evenodd" clip-rule="evenodd" d="M137.349 62.8025C128.511 56.897 118.12 53.7449 107.49 53.7449V0C128.749 0 149.531 6.30417 167.208 18.1153C184.885 29.9264 198.662 46.714 206.798 66.355C214.933 85.9961 217.062 107.609 212.914 128.46C208.767 149.311 198.529 168.464 183.496 183.496C168.464 198.529 149.311 208.767 128.46 212.914C107.609 217.062 85.9962 214.933 66.3551 206.797C46.7141 198.662 29.9264 184.885 18.1153 167.208C6.30417 149.531 0 128.749 0 107.49H53.7449C53.7449 118.119 56.8971 128.51 62.8026 137.349C68.7081 146.187 77.1019 153.076 86.9227 157.144C96.743 161.212 107.55 162.276 117.975 160.202C128.4 158.128 137.977 153.01 145.493 145.493C153.01 137.977 158.128 128.4 160.202 117.975C162.276 107.549 161.212 96.743 157.144 86.9227C153.076 77.1019 146.187 68.708 137.349 62.8025Z" fill="#1CAF61"/>
<path fill-rule="evenodd" clip-rule="evenodd" d="M53.7449 2.32783e-05C53.7449 7.05791 52.3548 14.0467 49.6538 20.5673C46.9529 27.0879 42.9941 33.0127 38.0034 38.0034C33.0127 42.9941 27.0879 46.9529 20.5673 49.6538C14.0466 52.3547 7.05786 53.7449 2.34924e-06 53.7449L0 107.49C14.1158 107.49 28.0933 104.71 41.1346 99.3077C54.1759 93.9058 66.0256 85.9881 76.0066 76.0066C85.9881 66.0256 93.9058 54.1759 99.3077 41.1346C104.71 28.0933 107.49 14.1157 107.49 0L53.7449 2.32783e-05Z" fill="#1CAF61"/>
</g>
<path d="M1124.78 55.4699V29.6279H1246.54V55.4699H1199.68V189.717H1171.64V55.4699H1124.78Z" fill="white"/>
<path d="M1004.81 189.717H977.213V29.6279H1005.03L1080.14 143.07V29.6279H1107.74V189.717H1080.14L1004.81 76.2749V189.717Z" fill="white"/>
<path d="M951.202 189.717H851.776V29.6279H951.202V55.4699H879.808V96.6419H943.756V121.389H879.808V163.875H951.202V189.717Z" fill="white"/>
<path d="M748.299 53.28C716.544 53.28 698.367 76.275 698.367 110.877C698.367 146.574 718.953 166.065 748.518 166.065C776.331 166.065 793.194 150.735 793.194 125.112V124.455H744.795V99.708H819.255V189.717H795.603L793.851 171.321C785.091 183.585 766.914 192.126 745.233 192.126C700.338 192.126 669.021 159.495 669.021 110.22C669.021 61.602 700.776 27 748.956 27C785.529 27 813.78 48.243 818.379 80.874H788.814C783.777 62.04 767.571 53.28 748.299 53.28Z" fill="white"/>
<path d="M581.314 109.782L528.097 29.6279H561.385L580.876 58.3169C587.446 68.1719 592.921 77.3699 598.834 88.3199L636.064 29.6279H668.695L616.354 109.563L668.914 189.717H635.845L617.887 163.218C610.879 152.487 605.185 142.851 598.834 131.244L559.852 189.717H527.002L581.314 109.782Z" fill="white"/>
<path d="M515.007 189.717H415.581V29.6279H515.007V55.4699H443.613V96.6419H507.561V121.389H443.613V163.875H515.007V189.717Z" fill="white"/>
<path d="M281.594 189.717H254V29.6279H281.813L356.93 143.07V29.6279H384.524V189.717H356.93L281.594 76.2749V189.717Z" fill="white"/>
<defs>
<clipPath id="clip0_69_4308">
<rect width="214.98" height="214.98" fill="white"/>
</clipPath>
</defs>
</svg>
