<?xml version="1.0" encoding="UTF-8"?>
<svg xmlns="http://www.w3.org/2000/svg" width="145" height="62" viewBox="0 0 145 62" fill="none">
  <path d="M118.79 21.4541C113.027 21.4541 108.498 26.4132 108.629 31.8963C108.198 31.3349 107.656 30.8484 106.945 30.4367C105.354 29.5197 103.408 29.1829 101.667 28.9209C99.7025 28.6215 98.1679 28.3595 98.1679 27.3676C98.1679 25.8893 99.8335 25.5711 100.975 25.5711C101.929 25.5711 104.194 25.9267 104.194 27.1805H109.097C109.097 26.2074 108.91 24.6167 107.038 23.2132C105.522 22.1091 103.464 21.529 100.956 21.529C97.0264 21.529 93.7328 23.6997 93.003 26.5817C91.8427 23.7746 89.4099 21.5102 84.5069 21.5102C81.4005 21.5102 79.4542 23.6249 79.4542 23.6436V22.0155H73.7278V28.191C72.474 24.4109 69.2553 21.4541 64.9137 21.4541C59.1499 21.4541 54.6024 26.4132 54.7334 31.8963C54.303 31.3349 53.7416 30.8484 53.0492 30.4367C51.4585 29.5197 49.5123 29.1829 47.7719 28.9209C45.807 28.6215 44.2725 28.3595 44.2725 27.3676C44.2725 25.8893 45.938 25.5711 47.0795 25.5711C48.0339 25.5711 50.2796 25.9267 50.2796 27.1805H55.1264C55.1264 26.2074 54.9393 24.6167 53.0679 23.2132C51.5521 22.1091 49.4936 21.529 46.9859 21.529C42.5134 21.529 38.8642 24.336 38.8642 27.8168C38.8642 29.5197 39.7812 30.8858 41.1098 31.6531C42.5134 32.5326 44.1789 32.9443 45.7134 33.1315C47.3415 33.356 50.3731 33.7864 50.3731 35.6017C50.3731 37.0426 48.2772 37.5853 47.1918 37.5853C45.5637 37.5853 43.9169 36.6683 43.9169 34.9841H38.5273C38.5273 36.2379 38.8642 37.6976 40.6607 39.5315C41.3905 40.2614 42.3637 40.7854 43.3929 41.1596C44.5344 41.6088 45.8257 41.8333 47.1918 41.8333C48.3333 41.8333 49.4374 41.6462 50.4854 41.3281C51.4772 41.0286 52.4129 40.5982 53.1802 39.9994C53.9849 39.438 54.6211 38.783 55.0703 38.0532C55.4258 37.4356 55.6504 36.8181 55.7252 36.1631C57.3908 39.5128 60.8341 41.7772 64.8014 41.7772C68.4506 41.7772 70.9956 39.9245 73.1103 37.4917L68.9746 34.928C67.7956 36.2192 66.3546 36.9116 64.8014 36.9116C62.5932 36.9116 60.6657 35.5455 59.8984 33.5806H73.6904V41.1035H79.4168V31.5969C79.5478 29.0893 81.3256 27.1056 83.7584 27.1056C87.1643 27.1056 88.2122 28.6963 88.2122 31.7092V41.1035H93.9386V38.7081C94.2193 38.9701 94.3878 39.2508 94.6685 39.5315C95.3983 40.2614 96.3527 40.7854 97.382 41.1596C98.5235 41.6088 99.8147 41.8146 101.181 41.8146C102.322 41.8146 103.426 41.6275 104.474 41.3094C105.466 41.0099 106.383 40.5608 107.169 39.9807C107.974 39.4193 108.61 38.7643 109.059 38.0345C109.415 37.4169 109.639 36.7993 109.714 36.1444C111.38 39.4941 114.823 41.7585 118.79 41.7585C122.44 41.7585 124.985 39.9058 127.099 37.473L122.964 34.928C121.785 36.2192 120.344 36.9116 118.79 36.9116C116.564 36.9116 114.655 35.5455 113.887 33.5806H128.016C128.971 27.5922 125.097 21.4541 118.79 21.4541ZM59.8984 29.9501C59.8984 28.0039 62.144 26.301 64.8388 26.301C67.0096 26.301 69.3114 27.8542 69.3114 29.9501H59.8984ZM101.143 37.5666C99.5153 37.5666 97.8498 36.6496 97.8498 34.9654H93.9012V31.7092C93.9012 31.3537 93.8825 30.9981 93.8451 30.6238C94.1819 31.0168 94.5936 31.3724 95.0428 31.6344C96.4463 32.5139 98.0931 32.9256 99.6463 33.1127C101.274 33.3373 104.287 33.7677 104.287 35.583C104.325 37.0239 102.21 37.5666 101.143 37.5666ZM113.831 29.9501C113.831 28.0039 116.077 26.301 118.772 26.301C120.943 26.301 123.244 27.8542 123.244 29.9501H113.831Z" fill="#0C070B"></path>
  <path d="M18.392 38.128L22.0412 33.8987C21.2927 32.6636 21.0681 31.0917 21.6482 29.632C22.4155 27.6484 24.343 26.4881 26.4577 26.6191C27.0004 26.6565 27.5243 26.7875 28.0109 26.9934L31.6788 22.7454C30.6121 22.0717 29.4144 21.5851 28.198 21.3418C29.508 19.7512 34.2238 14.3055 34.2238 14.3055L30.0507 10.5627C30.0507 10.5627 23.7629 18.0295 21.6482 20.6307C20.3944 22.184 19.1219 23.7372 17.8681 25.2904C16.2587 27.2741 15.6037 30.1747 15.9218 32.7198C16.2025 34.797 17.1008 36.6497 18.392 38.128Z" fill="black"></path>
  <path d="M35.5153 27.1805C35.0849 26.1326 34.4299 25.1595 33.6253 24.3361L29.9948 28.5466C30.7246 29.5198 31.0989 30.7736 30.9118 32.0461C30.5562 34.5725 28.0486 36.6497 25.4474 36.1631C24.8672 36.0883 24.3433 35.9011 23.8567 35.6391L20.2637 39.7936C22.6029 41.4217 25.5784 42.1141 28.5351 41.403C34.6919 39.9059 38.1166 32.9818 35.5153 27.1805Z" fill="#0C070B"></path>
</svg>
