<?xml version="1.0" encoding="UTF-8"?>
<svg xmlns="http://www.w3.org/2000/svg" width="105" height="40" viewBox="0 0 105 40" fill="none">
  <path d="M60.8555 8.12591L65.3867 9.90541L60.8555 11.5887V13.9934L68.6165 10.8673V8.94352L60.8555 5.81738V8.12591Z" fill="black"></path>
  <path d="M19.2544 17.0723C17.0852 17.0723 15.4944 18.0342 15.3498 20.0541H17.76V20.006C17.8082 19.3327 18.4349 18.8518 19.1098 18.8999C20.0257 18.8999 20.4595 19.4289 20.4595 20.3427V20.7755H19.3508C16.9887 20.7755 15.0605 21.4969 15.0605 23.7574V23.8536C15.0605 25.6812 16.4103 26.4988 18.0493 26.4988C19.0616 26.5469 19.9774 26.0659 20.5559 25.2964V26.3545H23.0144V20.2946C22.9662 17.9861 21.3754 17.0723 19.2544 17.0723ZM18.7241 24.7193C17.8564 24.7193 17.4708 24.2864 17.4708 23.6612V23.565C17.4708 22.7474 18.0975 22.4107 19.3508 22.4107H20.3631V23.2764C20.4113 24.2383 19.5918 24.7193 18.7241 24.7193Z" fill="black"></path>
  <path d="M28.7988 24.6231C27.5936 24.6231 26.967 23.8055 26.967 21.9779V21.6893C26.967 19.9098 27.69 19.0441 28.7988 19.0441C29.6664 19.0441 30.1485 19.6213 30.2931 20.487H32.7034C32.5105 18.1303 30.7752 17.0723 28.7506 17.0723C26.3403 17.0723 24.4121 18.7075 24.4121 21.7855V21.8817C24.4121 24.9597 26.2439 26.4988 28.7506 26.4988C31.209 26.4988 32.6069 25.0078 32.7998 22.9879H30.4859C30.2931 23.9979 29.6664 24.6231 28.7988 24.6231Z" fill="black"></path>
  <path d="M38.1991 24.6231C36.994 24.6231 36.3674 23.8055 36.3674 21.9779V21.6893C36.3674 19.9098 37.0904 19.0441 38.1991 19.0441C39.0668 19.0441 39.5489 19.6213 39.6935 20.487H42.1037C41.9109 18.1303 40.1755 17.0723 38.1509 17.0723C35.7407 17.0723 33.8125 18.7075 33.8125 21.7855V21.8817C33.8125 24.9597 35.6443 26.4988 38.1509 26.4988C40.6094 26.4988 42.0073 25.0078 42.152 22.9879H39.8863C39.7417 23.9979 39.0668 24.6231 38.1991 24.6231Z" fill="black"></path>
  <path d="M47.695 24.6712C46.5863 24.6712 45.9114 24.046 45.815 22.4107H51.696V21.3527C51.696 18.3708 49.816 17.0723 47.5504 17.0723C45.0919 17.0723 43.2119 18.7556 43.2119 21.7855V21.9779C43.2119 25.0078 44.9955 26.5469 47.5986 26.5469C49.9606 26.5469 51.4068 25.2483 51.6478 23.5169H49.2857C49.1893 24.2383 48.4663 24.7674 47.695 24.6712ZM47.5504 18.8037C48.5627 18.8037 49.1893 19.3808 49.2375 20.7274H45.8632C46.056 19.2846 46.7791 18.8518 47.5504 18.8037Z" fill="black"></path>
  <path d="M58.5414 17.0721C57.3845 17.024 56.324 17.6012 55.7938 18.6111V17.2645H53.2871V26.3062H55.7938V20.7754C55.7938 20.6792 55.7938 20.6311 55.7938 20.5349C55.842 19.7173 56.565 19.044 57.3845 19.0921C58.3004 19.0921 58.7343 19.573 58.7343 20.6311V26.3062H61.2891V20.2464C61.2891 18.034 60.1804 17.0721 58.5414 17.0721Z" fill="black"></path>
  <path d="M66.0128 23.4199V19.1395H67.7482V17.2638H66.0128V14.5225L63.5062 15.5805V17.2638H62.3975V19.1395H63.458V23.7085C63.458 25.5361 64.3739 26.4499 66.3503 26.4499C66.8323 26.4499 67.3144 26.4018 67.7964 26.2575V24.2856C67.5072 24.3818 67.218 24.4299 66.9287 24.4299C66.3503 24.4299 66.0128 24.0932 66.0128 23.4199Z" fill="black"></path>
  <path d="M74.7382 22.8907C74.7382 22.9869 74.7382 23.035 74.7382 23.1312C74.69 23.9488 73.9669 24.6221 73.1474 24.574C72.2315 24.574 71.8459 24.0931 71.8459 23.035V17.2637H69.291V23.3717C69.291 25.4878 70.4961 26.4978 72.1351 26.4978C73.2438 26.5459 74.2561 25.9688 74.7864 24.9588V26.3054H77.3412V17.2637H74.7864L74.7382 22.8907Z" fill="black"></path>
  <path d="M81.6795 18.8999V17.2165H79.1729V26.2583H81.6795V21.5931C81.6795 20.1022 82.6918 19.5732 84.4272 19.5732V17.0723C83.1739 17.0723 82.0651 17.7937 81.6795 18.8999Z" fill="black"></path>
  <path d="M93.6823 21.3046C93.6823 18.3227 91.8023 17.0723 89.5367 17.0723C87.0782 17.0723 85.1982 18.7556 85.1982 21.7855V21.9779C85.1982 25.0078 86.9818 26.5469 89.5849 26.5469C91.9469 26.5469 93.3449 25.2483 93.6341 23.5169H91.2721C91.0792 24.2864 90.3562 24.7674 89.5849 24.7193C88.4762 24.7193 87.8013 24.094 87.7049 22.4588H93.5859V21.3046H93.6823ZM87.8013 20.7274C87.9941 19.2365 88.7172 18.8037 89.5367 18.8037C90.549 18.8037 91.1756 19.3808 91.2239 20.7274H87.8013Z" fill="black"></path>
</svg>
