<?xml version="1.0" encoding="UTF-8"?>
<svg xmlns="http://www.w3.org/2000/svg" width="32" height="32" viewBox="0 0 32 32" fill="none">
  <rect width="32" height="32" rx="16" fill="#DEBFFF"></rect>
  <g clip-path="url(#clip0_461_480)">
    <mask id="path-2-outside-1_461_480" maskUnits="userSpaceOnUse" x="10" y="18" width="12" height="7" fill="black">
      <rect fill="white" x="10" y="18" width="12" height="7"></rect>
      <path d="M21 23.5C21 22.9091 20.8707 22.3239 20.6194 21.7779C20.3681 21.232 19.9998 20.7359 19.5355 20.318C19.0712 19.9002 18.52 19.5687 17.9134 19.3425C17.3068 19.1164 16.6566 19 16 19C15.3434 19 14.6932 19.1164 14.0866 19.3425C13.48 19.5687 12.9288 19.9002 12.4645 20.318C12.0002 20.7359 11.6319 21.232 11.3806 21.7779C11.1293 22.3239 11 22.9091 11 23.5L16 23.5H21Z"></path>
    </mask>
    <path d="M21 23.5C21 22.9091 20.8707 22.3239 20.6194 21.7779C20.3681 21.232 19.9998 20.7359 19.5355 20.318C19.0712 19.9002 18.52 19.5687 17.9134 19.3425C17.3068 19.1164 16.6566 19 16 19C15.3434 19 14.6932 19.1164 14.0866 19.3425C13.48 19.5687 12.9288 19.9002 12.4645 20.318C12.0002 20.7359 11.6319 21.232 11.3806 21.7779C11.1293 22.3239 11 22.9091 11 23.5L16 23.5H21Z" fill="#FFCFC2"></path>
    <path d="M21 23.5C21 22.9091 20.8707 22.3239 20.6194 21.7779C20.3681 21.232 19.9998 20.7359 19.5355 20.318C19.0712 19.9002 18.52 19.5687 17.9134 19.3425C17.3068 19.1164 16.6566 19 16 19C15.3434 19 14.6932 19.1164 14.0866 19.3425C13.48 19.5687 12.9288 19.9002 12.4645 20.318C12.0002 20.7359 11.6319 21.232 11.3806 21.7779C11.1293 22.3239 11 22.9091 11 23.5L16 23.5H21Z" stroke="black" stroke-width="2" mask="url(#path-2-outside-1_461_480)"></path>
    <path d="M19.4639 8.35648L20.3175 7.50293L19.1104 7.50293H13.0029L11.7958 7.50293L12.6494 8.35648L15.7031 11.4102L16.0566 11.7637L16.4102 11.4102L19.4639 8.35648Z" fill="#FFCFC2" stroke="black"></path>
    <rect x="11.5" y="11.5" width="9" height="3" rx="1.5" fill="#FFCFC2" stroke="black"></rect>
    <rect x="9.5" y="14.5" width="13" height="4" rx="2" fill="#FFCFC2" stroke="black"></rect>
  </g>
  <defs>
    <clipPath id="clip0_461_480">
      <rect width="18" height="18" fill="white" transform="translate(7 7)"></rect>
    </clipPath>
  </defs>
</svg>
