<svg width="21" height="33" viewBox="0 0 21 33" fill="none" xmlns="http://www.w3.org/2000/svg">
<path d="M9.47127 25.8742L8.16624 25.1347L8.16624 25.1347L9.47127 25.8742ZM9.47127 8.12577L10.7763 7.38625L9.47127 8.12577ZM6.39988 0.554281C5.60143 0.333435 4.77513 0.801672 4.55428 1.60012L0.955372 14.6116C0.734525 15.41 1.20276 16.2363 2.00121 16.4572C2.79966 16.678 3.62596 16.2098 3.84681 15.4113L7.04584 3.84559L18.6116 7.04463C19.41 7.26547 20.2363 6.79723 20.4572 5.99879C20.678 5.20034 20.2098 4.37404 19.4113 4.15319L6.39988 0.554281ZM7.30503 32.7395L10.7763 26.6137L8.16624 25.1347L4.69497 31.2605L7.30503 32.7395ZM10.7763 7.38625L7.30503 1.26048L4.69497 2.73952L8.16624 8.86529L10.7763 7.38625ZM10.7763 26.6137C14.1557 20.6501 14.1557 13.3499 10.7763 7.38625L8.16624 8.86529C11.0257 13.9115 11.0258 20.0885 8.16624 25.1347L10.7763 26.6137Z" fill="black"/>
</svg>
