<svg width="1892" height="126" viewBox="0 0 1892 126" fill="none" xmlns="http://www.w3.org/2000/svg">
<g clip-path="url(#clip0_796_16358)">
<rect width="1892" height="126" fill="#E9D4FF"/>
<path d="M1142.22 50.709C1175.67 50.709 1202.79 77.8269 1202.79 111.278L1202.79 172.857L1081.65 172.857L1081.65 111.278C1081.65 77.8269 1108.77 50.709 1142.22 50.709Z" fill="#EE46D3"/>
<path d="M1263.36 50.709C1296.81 50.709 1323.93 77.8269 1323.93 111.278L1323.93 172.857L1202.79 172.857L1202.79 111.278C1202.79 77.8269 1229.91 50.709 1263.36 50.709Z" fill="#EE46D3"/>
<rect x="988.044" y="50.709" width="122.148" height="93.6074" rx="46.8037" transform="rotate(90 988.044 50.709)" fill="#F2FFA2"/>
<rect x="1081.65" y="50.709" width="122.148" height="93.6074" rx="46.8037" transform="rotate(90 1081.65 50.709)" fill="#F2FFA2"/>
<rect x="894.437" y="50.709" width="122.148" height="94.9839" rx="47.492" transform="rotate(90 894.437 50.709)" fill="#F2FFA2"/>
<rect x="1323.93" y="49.3203" width="221.629" height="123.536" fill="#899FFF"/>
<rect x="1345.96" y="70.1406" width="177.579" height="18.0446" fill="#F2FFA2"/>
<rect x="1345.96" y="102.066" width="177.579" height="18.0446" fill="#F2FFA2"/>
<rect x="716.858" y="50.709" width="82.5947" height="122.148" fill="#899FFF"/>
<rect x="681.067" y="50.709" width="27.5316" height="122.148" fill="#899FFF"/>
<rect x="645.276" y="50.709" width="27.5316" height="122.148" fill="#899FFF"/>
<path d="M628.611 49V173.178H504.434L628.611 49Z" fill="#EE46D3"/>
<path d="M555.818 49V173.178H433.067L555.818 49Z" fill="#EE46D3"/>
<path d="M406.661 173.178C373.159 173.178 346 146.019 346 112.516L346 50.4274L467.323 50.4274L467.323 112.516C467.323 146.019 440.164 173.178 406.661 173.178Z" fill="#F2FFA2"/>
</g>
<defs>
<clipPath id="clip0_796_16358">
<rect width="1892" height="126" fill="white"/>
</clipPath>
</defs>
</svg>
