<svg width="1200" height="77" viewBox="0 0 1200 77" fill="none" xmlns="http://www.w3.org/2000/svg">
<path d="M796.221 1.70898C829.672 1.70898 856.79 28.8269 856.79 62.2785L856.79 123.857L735.651 123.857L735.651 62.2784C735.651 28.8269 762.769 1.70898 796.221 1.70898Z" fill="#EE46D3"/>
<path d="M917.36 1.70898C950.811 1.70898 977.929 28.8269 977.929 62.2785L977.929 123.857L856.79 123.857L856.79 62.2784C856.79 28.8269 883.908 1.70898 917.36 1.70898Z" fill="#EE46D3"/>
<rect x="642.044" y="1.70898" width="122.148" height="93.6074" rx="46.8037" transform="rotate(90 642.044 1.70898)" fill="#F2FFA2"/>
<rect x="735.651" y="1.70898" width="122.148" height="93.6074" rx="46.8037" transform="rotate(90 735.651 1.70898)" fill="#F2FFA2"/>
<rect x="548.437" y="1.70898" width="122.148" height="94.9839" rx="47.492" transform="rotate(90 548.437 1.70898)" fill="#F2FFA2"/>
<rect x="977.93" y="0.320312" width="221.629" height="123.536" fill="#899FFF"/>
<rect x="999.955" y="21.1406" width="177.579" height="18.0446" fill="#F2FFA2"/>
<rect x="999.955" y="53.0664" width="177.579" height="18.0446" fill="#F2FFA2"/>
<rect x="370.858" y="1.70898" width="82.5947" height="122.148" fill="#899FFF"/>
<rect x="335.067" y="1.70898" width="27.5316" height="122.148" fill="#899FFF"/>
<rect x="299.276" y="1.70898" width="27.5316" height="122.148" fill="#899FFF"/>
<path d="M282.611 0V124.178H158.434L282.611 0Z" fill="#EE46D3"/>
<path d="M209.818 0V124.178H87.0674L209.818 0Z" fill="#EE46D3"/>
<path d="M60.6615 124.178C27.1591 124.178 3.53206e-06 97.0187 7.88908e-06 63.5163L8.07471e-06 62.0889C1.24317e-05 28.5865 27.1591 1.42742 60.6615 1.42742C94.1639 1.42743 121.323 28.5865 121.323 62.0889L121.323 63.5162C121.323 97.0186 94.1639 124.178 60.6615 124.178Z" fill="#F2FFA2"/>
</svg>
