<svg width="32" height="32" viewBox="0 0 32 32" fill="none" xmlns="http://www.w3.org/2000/svg">
<rect width="32" height="32" rx="16" fill="#AAF9E1"/>
<path d="M22.5 19V24" stroke="black"/>
<path d="M25 21.5L20 21.5" stroke="black"/>
<path d="M10.5 7V12" stroke="black"/>
<path d="M13 9.5L8 9.5" stroke="black"/>
<mask id="path-6-inside-1_39450_82940" fill="white">
<path fill-rule="evenodd" clip-rule="evenodd" d="M19.665 7.57784C19.4396 6.80828 18.3494 6.80828 18.124 7.57785L17.588 9.40801C17.2804 10.4583 16.459 11.2796 15.4088 11.5872L13.5758 12.1241C12.8063 12.3495 12.8063 13.4396 13.5758 13.665L15.4085 14.2018C16.4588 14.5094 17.2801 15.3307 17.5877 16.381L18.124 18.2121C18.3494 18.9817 19.4396 18.9817 19.665 18.2121L20.2016 16.38C20.5092 15.3298 21.3305 14.5084 22.3808 14.2008L24.2101 13.665C24.9797 13.4396 24.9797 12.3495 24.2101 12.1241L22.3805 11.5882C21.3302 11.2806 20.5089 10.4593 20.2013 9.40898L19.665 7.57784Z"/>
</mask>
<path fill-rule="evenodd" clip-rule="evenodd" d="M19.665 7.57784C19.4396 6.80828 18.3494 6.80828 18.124 7.57785L17.588 9.40801C17.2804 10.4583 16.459 11.2796 15.4088 11.5872L13.5758 12.1241C12.8063 12.3495 12.8063 13.4396 13.5758 13.665L15.4085 14.2018C16.4588 14.5094 17.2801 15.3307 17.5877 16.381L18.124 18.2121C18.3494 18.9817 19.4396 18.9817 19.665 18.2121L20.2016 16.38C20.5092 15.3298 21.3305 14.5084 22.3808 14.2008L24.2101 13.665C24.9797 13.4396 24.9797 12.3495 24.2101 12.1241L22.3805 11.5882C21.3302 11.2806 20.5089 10.4593 20.2013 9.40898L19.665 7.57784Z" fill="#FFCAF6"/>
<path d="M18.124 7.57785L18.8945 7.80351V7.80351L18.124 7.57785ZM19.665 7.57784L20.4354 7.35218V7.35218L19.665 7.57784ZM13.5758 12.1241L13.3502 11.3536H13.3502L13.5758 12.1241ZM13.5758 13.665L13.8015 12.8946H13.8015L13.5758 13.665ZM18.124 18.2121L18.8945 17.9865V17.9865L18.124 18.2121ZM19.665 18.2121L18.8945 17.9865V17.9865L19.665 18.2121ZM24.2101 13.665L23.9845 12.8946H23.9845L24.2101 13.665ZM24.2101 12.1241L23.9845 12.8946H23.9845L24.2101 12.1241ZM22.3805 11.5882L22.1549 12.3587L22.3805 11.5882ZM20.2013 9.40898L20.9718 9.18332L20.2013 9.40898ZM15.4085 14.2018L15.1828 14.9723L15.4085 14.2018ZM17.5877 16.381L16.8172 16.6067L17.5877 16.381ZM18.8945 7.80351V7.80351L20.4354 7.35218C19.9846 5.81304 17.8044 5.81306 17.3536 7.35218L18.8945 7.80351ZM18.3585 9.63368L18.8945 7.80351L17.3536 7.35218L16.8175 9.18235L18.3585 9.63368ZM13.8015 12.8946L15.6344 12.3577L15.1831 10.8168L13.3502 11.3536L13.8015 12.8946ZM13.8015 12.8946H13.8015L13.3502 11.3536C11.811 11.8044 11.811 13.9847 13.3502 14.4355L13.8015 12.8946ZM15.6341 13.4313L13.8015 12.8946L13.3502 14.4355L15.1828 14.9723L15.6341 13.4313ZM18.8945 17.9865L18.3582 16.1554L16.8172 16.6067L17.3536 18.4378L18.8945 17.9865ZM18.8945 17.9865V17.9865L17.3536 18.4378C17.8044 19.9769 19.9846 19.9769 20.4354 18.4378L18.8945 17.9865ZM19.4311 16.1544L18.8945 17.9865L20.4354 18.4378L20.972 16.6057L19.4311 16.1544ZM23.9845 12.8946L22.1551 13.4304L22.6065 14.9713L24.4358 14.4355L23.9845 12.8946ZM23.9845 12.8946H23.9845L24.4358 14.4355C25.9749 13.9847 25.9749 11.8044 24.4358 11.3536L23.9845 12.8946ZM22.1549 12.3587L23.9845 12.8946L24.4358 11.3536L22.6062 10.8177L22.1549 12.3587ZM18.8945 7.80351L19.4308 9.63465L20.9718 9.18332L20.4354 7.35218L18.8945 7.80351ZM22.6062 10.8177C21.8185 10.587 21.2025 9.97103 20.9718 9.18332L19.4308 9.63465C19.8154 10.9475 20.842 11.9741 22.1549 12.3587L22.6062 10.8177ZM20.972 16.6057C21.2028 15.818 21.8188 15.202 22.6065 14.9713L22.1551 13.4304C20.8423 13.8149 19.8156 14.8415 19.4311 16.1544L20.972 16.6057ZM15.1828 14.9723C15.9705 15.203 16.5865 15.819 16.8172 16.6067L18.3582 16.1554C17.9736 14.8425 16.947 13.8159 15.6341 13.4313L15.1828 14.9723ZM16.8175 9.18235C16.5868 9.97006 15.9708 10.586 15.1831 10.8168L15.6344 12.3577C16.9473 11.9732 17.9739 10.9465 18.3585 9.63368L16.8175 9.18235Z" fill="black" mask="url(#path-6-inside-1_39450_82940)"/>
<mask id="path-8-inside-2_39450_82940" fill="white">
<path fill-rule="evenodd" clip-rule="evenodd" d="M13.1298 17.6052C12.9044 16.8356 11.8143 16.8356 11.5889 17.6052C11.3047 18.5754 10.546 19.3341 9.57583 19.6182C8.80627 19.8436 8.80627 20.9338 9.57583 21.1592C10.544 21.4427 11.3053 22.2011 11.5889 23.1693C11.8143 23.9389 12.9044 23.9389 13.1298 23.1693C13.4136 22.2005 14.1711 21.4429 15.1399 21.1592C15.9095 20.9338 15.9095 19.8436 15.1399 19.6182C14.1717 19.3346 13.4134 18.5734 13.1298 17.6052Z"/>
</mask>
<path fill-rule="evenodd" clip-rule="evenodd" d="M13.1298 17.6052C12.9044 16.8356 11.8143 16.8356 11.5889 17.6052C11.3047 18.5754 10.546 19.3341 9.57583 19.6182C8.80627 19.8436 8.80627 20.9338 9.57583 21.1592C10.544 21.4427 11.3053 22.2011 11.5889 23.1693C11.8143 23.9389 12.9044 23.9389 13.1298 23.1693C13.4136 22.2005 14.1711 21.4429 15.1399 21.1592C15.9095 20.9338 15.9095 19.8436 15.1399 19.6182C14.1717 19.3346 13.4134 18.5734 13.1298 17.6052Z" fill="#FFCAF6"/>
<path d="M12.3593 17.8309L12.3593 17.8309L13.9003 17.3795C13.4495 15.8404 11.2692 15.8404 10.8184 17.3795L12.3593 17.8309ZM9.8015 20.3887L9.8015 20.3887L9.35016 18.8478C7.81103 19.2986 7.81104 21.4788 9.35017 21.9296L9.8015 20.3887ZM12.3593 22.9436L12.3593 22.9436L10.8184 23.395C11.2692 24.9341 13.4495 24.9341 13.9003 23.395L12.3593 22.9436ZM14.9143 20.3887L14.9143 20.3887L15.3656 21.9296C16.9047 21.4788 16.9047 19.2986 15.3656 18.8478L14.9143 20.3887ZM15.3656 18.8478C14.6612 18.6414 14.1073 18.0864 13.9003 17.3795L12.3593 17.8309C12.7195 19.0604 13.6823 20.0279 14.9143 20.3887L15.3656 18.8478ZM13.9003 23.395C14.1071 22.6887 14.6594 22.1365 15.3656 21.9296L14.9143 20.3887C13.6829 20.7494 12.72 21.7123 12.3593 22.9436L13.9003 23.395ZM9.35017 21.9296C10.057 22.1367 10.6121 22.6906 10.8184 23.395L12.3593 22.9436C11.9985 21.7116 11.031 20.7488 9.8015 20.3887L9.35017 21.9296ZM10.8184 17.3795C10.6111 18.0871 10.0578 18.6405 9.35016 18.8478L9.8015 20.3887C11.0343 20.0276 11.9983 19.0636 12.3593 17.8309L10.8184 17.3795Z" fill="black" mask="url(#path-8-inside-2_39450_82940)"/>
</svg>
