<?xml version="1.0" encoding="UTF-8"?>
<svg xmlns="http://www.w3.org/2000/svg" width="105" height="40" viewBox="0 0 105 40" fill="none">
  <rect width="105" height="40" fill="white"></rect>
  <g clip-path="url(#clip0_202_48)">
    <path d="M26 14.3312C26.0427 14.305 26.0361 14.2559 26.046 14.2166C26.2135 13.673 26.7326 13.3456 27.314 13.4209C27.8462 13.4896 28.2732 13.9677 28.2765 14.5211C28.2831 15.3201 28.2831 16.1191 28.2765 16.9213C28.2732 17.5239 27.8429 17.9888 27.2319 18.0543C26.6866 18.1133 26.1577 17.7269 26.0263 17.1702C26.023 17.144 26.0296 17.1145 26 17.0982C26 16.1748 26 15.2546 26 14.3312Z" fill="black"></path>
    <path d="M78.366 17.098C78.32 17.1341 78.3298 17.1897 78.3167 17.2356C78.1689 17.7497 77.6531 18.1066 77.1374 18.0509C76.5559 17.9887 76.1059 17.5434 76.096 16.9834C76.0829 16.1452 76.0829 15.3069 76.096 14.4686C76.1059 13.9414 76.5527 13.4764 77.0684 13.4175C77.6498 13.352 78.1623 13.6794 78.3167 14.2197C78.3298 14.2656 78.3233 14.3212 78.366 14.3573C78.366 15.2709 78.366 16.1845 78.366 17.098Z" fill="black"></path>
    <path d="M78.3659 33.3596C78.1951 33.3662 78.1951 33.3662 78.1951 33.2024C78.1951 32.9568 78.1951 32.708 78.1951 32.4558C78.1458 32.4689 78.1458 32.5082 78.1359 32.5344C78.044 32.7833 77.9487 33.0289 77.86 33.2777C77.837 33.34 77.8074 33.3629 77.7384 33.3662C77.6662 33.3662 77.653 33.3269 77.6333 33.2777C77.5479 33.0387 77.4592 32.7964 77.3705 32.5574C77.3574 32.5213 77.341 32.4886 77.3015 32.4591C77.3015 32.7309 77.2983 33.0027 77.3015 33.2712C77.3015 33.3465 77.2785 33.3694 77.203 33.3662C77.1471 33.3629 77.1274 33.3465 77.1307 33.2908C77.134 32.9437 77.1307 32.5966 77.1307 32.2495C77.1307 32.2103 77.1274 32.1611 77.1866 32.171C77.2654 32.1873 77.3738 32.112 77.4198 32.243C77.5118 32.505 77.6103 32.7636 77.7056 33.0256C77.7187 33.0584 77.7286 33.0911 77.745 33.1304C77.8009 33.078 77.8074 33.006 77.8304 32.9437C77.906 32.7374 77.9848 32.5279 78.0505 32.3183C78.0834 32.207 78.1326 32.1448 78.2575 32.1677C78.2903 32.1742 78.3265 32.1644 78.3593 32.1611C78.3659 32.5574 78.3659 32.9568 78.3659 33.3596Z" fill="black"></path>
    <path d="M68.8625 24.125C70.4163 24.1577 71.7402 24.7177 72.7125 25.9882C73.4418 26.9444 73.7342 28.0381 73.6323 29.2333C73.5239 30.5398 72.9688 31.627 71.9504 32.4587C71.0635 33.1856 70.032 33.5164 68.8888 33.5196C67.5715 33.5262 66.4119 33.1201 65.456 32.2033C64.6282 31.4108 64.1716 30.4285 64.0665 29.2922C63.9515 28.0315 64.2603 26.8854 65.0552 25.89C65.8108 24.9436 66.8061 24.4001 67.9953 24.2003C68.1168 24.1807 68.2351 24.161 68.3567 24.1512C68.5176 24.1381 68.6786 24.1348 68.8625 24.125ZM68.8527 26.4401C67.5091 26.4368 66.4744 27.4748 66.4744 28.824C66.4744 30.1665 67.5058 31.2111 68.8363 31.2144C70.1667 31.2176 71.2146 30.1763 71.2179 28.8403C71.2212 27.4879 70.1897 26.4434 68.8527 26.4401Z" fill="black"></path>
    <path d="M46.2124 32.2361C46.2124 31.9218 46.2157 31.6107 46.2091 31.2964C46.2091 31.2047 46.2288 31.1916 46.3175 31.2145C47.0304 31.4077 47.7531 31.5387 48.4955 31.5256C48.824 31.519 49.1492 31.4863 49.4613 31.3749C49.5992 31.3258 49.7241 31.2603 49.8325 31.1588C50.115 30.9001 50.1183 30.4875 49.8423 30.2059C49.6584 30.0193 49.4218 29.9145 49.1787 29.8294C48.7615 29.682 48.3312 29.5707 47.9239 29.3873C47.4278 29.1646 46.9811 28.8765 46.6526 28.4377C46.2551 27.9072 46.1434 27.3047 46.2025 26.6596C46.3241 25.3695 47.211 24.5377 48.456 24.2463C49.136 24.0891 49.8226 24.1022 50.5124 24.1808C50.9099 24.2266 51.3041 24.2954 51.6983 24.3805C51.787 24.4002 51.8232 24.4329 51.8199 24.5344C51.8133 25.0944 51.8133 25.6576 51.8199 26.2176C51.8199 26.342 51.787 26.3453 51.6819 26.3158C51.0939 26.1717 50.4993 26.0571 49.885 26.0735C49.6189 26.08 49.3561 26.116 49.1065 26.2176C49.0375 26.2438 48.9718 26.2765 48.9094 26.3158C48.5316 26.5548 48.4955 26.9969 48.8305 27.2949C49.0309 27.4717 49.2806 27.5568 49.527 27.6387C49.9606 27.7828 50.4073 27.8908 50.8212 28.0873C51.5144 28.418 52.0564 28.8994 52.3159 29.6427C52.8021 31.0246 52.1287 32.5047 50.7457 33.117C50.0164 33.4379 49.251 33.5329 48.4593 33.5165C47.7465 33.5001 47.0435 33.4183 46.3405 33.3004C46.242 33.284 46.2058 33.2513 46.2091 33.1432C46.2157 32.8452 46.2124 32.5407 46.2124 32.2361Z" fill="black"></path>
    <path d="M37.6518 30.7693C37.6518 31.5683 37.6518 32.3444 37.6518 33.1237C37.6518 33.1892 37.6223 33.2122 37.5664 33.2285C36.4627 33.5396 35.3491 33.6411 34.2223 33.3595C32.4484 32.9109 31.0884 31.5716 30.7895 29.7019C30.5793 28.3855 30.7961 27.1543 31.5812 26.0573C32.3072 25.0422 33.3189 24.4561 34.5377 24.2268C35.5626 24.0336 36.5678 24.1351 37.5632 24.4299C37.619 24.4462 37.6551 24.4593 37.6551 24.5281C37.6518 25.3009 37.6518 26.0769 37.6518 26.8497C37.6518 26.8563 37.6453 26.8628 37.6387 26.8792C37.2839 26.6926 36.9094 26.555 36.512 26.483C35.8747 26.3684 35.2472 26.3618 34.6362 26.6172C33.6869 27.0135 33.1514 27.9303 33.2138 28.9651C33.2631 29.8034 33.631 30.4648 34.3636 30.8971C34.8957 31.2147 35.4838 31.2835 36.0915 31.2278C36.6368 31.1819 37.1492 31.0313 37.6518 30.7693Z" fill="black"></path>
    <path d="M61.6093 26.8789C61.2775 26.7086 60.9523 26.5809 60.6041 26.5089C59.8847 26.3583 59.1719 26.3353 58.4952 26.6661C57.6739 27.0688 57.2436 27.7499 57.1844 28.6537C57.1319 29.4658 57.3914 30.16 58.0287 30.6905C58.4656 31.0539 58.9846 31.2209 59.5496 31.2406C60.2362 31.2668 60.8932 31.1293 61.5075 30.8215C61.6028 30.7756 61.6225 30.792 61.6192 30.8935C61.6159 31.627 61.6159 32.3638 61.6192 33.0973C61.6192 33.1758 61.5962 33.2086 61.5173 33.2315C60.6534 33.4804 59.7763 33.5884 58.8795 33.4836C56.9808 33.2643 55.3317 32.0592 54.8521 30.1273C54.4448 28.4834 54.7141 26.9641 55.8606 25.6673C56.5964 24.8323 57.5491 24.3706 58.643 24.1971C59.6121 24.0432 60.5614 24.1447 61.5009 24.4165C61.5633 24.4361 61.6192 24.4427 61.6192 24.5376C61.6159 25.294 61.6159 26.0505 61.6159 26.8069C61.6192 26.8265 61.6159 26.8429 61.6093 26.8789Z" fill="black"></path>
    <path d="M40.8022 13.1554C40.8022 15.143 40.8022 17.1306 40.8022 19.1183C40.8022 19.6651 40.5164 20.0875 40.0467 20.2513C39.3109 20.5067 38.5619 19.9893 38.5225 19.2034C38.5225 19.1674 38.5225 19.1347 38.5225 19.0986C38.5225 15.1365 38.5225 11.1743 38.5225 7.21209C38.5225 6.65869 38.8017 6.24282 39.2813 6.066C39.9941 5.80731 40.7661 6.31814 40.7957 7.07455C40.8055 7.33652 40.799 7.59521 40.799 7.85717C40.8022 9.62541 40.8022 11.3904 40.8022 13.1554Z" fill="black"></path>
    <path d="M63.5671 13.146C63.5671 11.1583 63.5671 9.17067 63.5671 7.18303C63.5671 6.60344 63.9219 6.145 64.454 6.03367C65.157 5.88304 65.8074 6.38405 65.8436 7.09789C65.8436 7.12736 65.8469 7.16011 65.8469 7.18958C65.8469 11.1681 65.8469 15.15 65.8469 19.1285C65.8469 19.7212 65.4986 20.1698 64.9435 20.2975C64.2733 20.4514 63.5901 19.9373 63.5736 19.253C63.5605 18.6668 63.5671 18.0774 63.5671 17.4913C63.5671 16.0406 63.5671 14.5933 63.5671 13.146Z" fill="black"></path>
    <path d="M43.1049 28.8276C43.1049 30.288 43.1049 31.7517 43.1082 33.2122C43.1082 33.3235 43.0918 33.3661 42.9637 33.3661C42.287 33.3595 41.6103 33.3595 40.9336 33.3661C40.835 33.3661 40.812 33.3431 40.812 33.2449C40.8153 30.3011 40.8153 27.3573 40.812 24.4102C40.812 24.3087 40.8416 24.2891 40.9368 24.2891C41.6168 24.2923 42.2968 24.2923 42.9801 24.2891C43.0852 24.2891 43.1082 24.3153 43.1082 24.42C43.1049 25.887 43.1049 27.3573 43.1049 28.8276Z" fill="black"></path>
    <path d="M47.0666 14.1739C47.0666 15.0711 47.0666 15.9651 47.0666 16.8623C47.0666 17.4517 46.7316 17.8905 46.1928 18.0248C45.5326 18.1885 44.8624 17.7202 44.7967 17.0457C44.7902 16.9769 44.7869 16.9082 44.7869 16.8361C44.7869 15.0548 44.7869 13.2702 44.7869 11.4888C44.7869 10.8732 45.1416 10.418 45.7132 10.3002C46.3538 10.1659 47.0009 10.6407 47.0601 11.2923C47.0896 11.6132 47.0699 11.9341 47.0699 12.2583C47.0666 12.8936 47.0666 13.5321 47.0666 14.1739Z" fill="black"></path>
    <path d="M57.3058 14.1607C57.3058 13.2602 57.3026 12.3597 57.3058 11.4592C57.3058 10.8861 57.6475 10.4375 58.1665 10.3131C58.9089 10.133 59.5856 10.6733 59.5856 11.4592C59.5889 12.9556 59.5856 14.4521 59.5856 15.9453C59.5856 16.2629 59.5889 16.5805 59.5856 16.8982C59.5758 17.4516 59.2407 17.8838 58.7217 18.0181C58.0351 18.1949 57.342 17.6971 57.3124 16.9898C57.2993 16.6657 57.3058 16.3382 57.3058 16.0108C57.3058 15.3952 57.3058 14.7795 57.3058 14.1607Z" fill="black"></path>
    <path d="M34.5409 14.1607C34.5409 15.0776 34.5442 15.9945 34.5409 16.9113C34.5376 17.4975 34.127 17.9657 33.5652 18.0411C32.8721 18.1327 32.2742 17.6252 32.2644 16.9244C32.2578 16.5413 32.2644 16.1582 32.2644 15.7751C32.2644 14.331 32.2644 12.8869 32.2644 11.4462C32.2644 10.8666 32.6356 10.4114 33.1908 10.2968C33.8576 10.1593 34.5278 10.6734 34.5376 11.3545C34.5475 12.291 34.5376 13.2275 34.5409 14.1607C34.5376 14.1607 34.5376 14.1607 34.5409 14.1607Z" fill="black"></path>
    <path d="M69.8283 14.1636C69.8283 13.2435 69.8217 12.32 69.8316 11.3999C69.8349 10.9415 70.0583 10.6009 70.4689 10.3979C70.8729 10.1981 71.277 10.2374 71.6416 10.4994C71.9636 10.7319 72.1081 11.0593 72.1081 11.4556C72.1081 13.0339 72.1081 14.6122 72.1048 16.1905C72.1048 16.4983 72.1344 16.8094 72.0851 17.114C71.9898 17.6772 71.4675 18.093 70.9124 18.0537C70.3014 18.0112 69.8349 17.5396 69.8316 16.9404C69.825 16.017 69.8283 15.0903 69.8283 14.1636Z" fill="black"></path>
    <path d="M51.035 15.7164C51.035 15.3463 51.035 14.9763 51.035 14.6096C51.0383 13.9481 51.4489 13.47 52.1059 13.4111C52.6972 13.3554 53.213 13.7877 53.3049 14.3574C53.3411 14.5703 53.3247 14.7831 53.3247 14.996C53.3279 15.6214 53.3279 16.2468 53.3247 16.8723C53.3214 17.4224 52.9994 17.871 52.51 18.0151C51.7643 18.2345 51.0449 17.6942 51.0317 16.905C51.0317 16.5055 51.035 16.1093 51.035 15.7164Z" fill="black"></path>
    <path d="M76.4803 32.8349C76.4803 32.6875 76.477 32.5402 76.4803 32.3928C76.4803 32.3306 76.4639 32.3077 76.4015 32.311C76.3161 32.3142 76.2274 32.311 76.1387 32.3142C76.0894 32.3142 76.0664 32.3012 76.0664 32.2488C76.0664 32.1964 76.0795 32.1669 76.1387 32.1702C76.4179 32.1734 76.6971 32.1734 76.9763 32.1702C77.0322 32.1702 77.0519 32.1865 77.0519 32.2455C77.0519 32.3044 77.0256 32.3208 76.9731 32.3175C76.9041 32.3142 76.8318 32.3241 76.7628 32.3142C76.6544 32.3012 76.6347 32.347 76.638 32.4452C76.6446 32.7203 76.638 32.9921 76.6413 33.2671C76.6413 33.3326 76.6347 33.3686 76.5526 33.3686C76.4705 33.3686 76.4737 33.3261 76.4737 33.2704C76.4803 33.1231 76.4803 32.979 76.4803 32.8349Z" fill="black"></path>
  </g>
  <defs>
    <clipPath id="clip0_202_48">
      <rect width="52.366" height="27.5257" fill="white" transform="translate(26 6)"></rect>
    </clipPath>
  </defs>
</svg>
