<?xml version="1.0" encoding="UTF-8"?>
<svg xmlns="http://www.w3.org/2000/svg" width="122" height="26" viewBox="0 0 122 26" fill="none">
  <path d="M8.505 17.7955C7.62109 18.1296 6.62582 18.2966 5.50528 18.2966C1.83741 18.2966 0 16.5219 0 12.9723C0 9.61068 1.83741 7.93335 5.50528 7.93335C6.62582 7.93335 7.62805 8.10039 8.505 8.43446V10.1466C7.62109 9.7638 6.66758 9.57589 5.64448 9.57589C3.18763 9.57589 1.96269 10.7103 1.96269 12.9723C1.96269 15.4292 3.18763 16.6541 5.64448 16.6541C6.66758 16.6541 7.62109 16.4662 8.505 16.0834V17.7955Z" fill="black"></path>
  <path d="M9.49219 13.1258C9.49219 9.65977 11.2043 7.92676 14.6216 7.92676C17.9902 7.92676 19.6745 9.65977 19.6745 13.1258C19.6745 16.571 17.9902 18.297 14.6216 18.297C11.3505 18.297 9.64531 16.571 9.49219 13.1258ZM14.6216 16.6475C16.6818 16.6475 17.7118 15.4574 17.7118 13.084C17.7118 10.7455 16.6818 9.57625 14.6216 9.57625C12.5128 9.57625 11.4549 10.7455 11.4549 13.084C11.4549 15.4643 12.5128 16.6475 14.6216 16.6475Z" fill="black"></path>
  <path d="M21.166 18.2205V8.00342H23.1287L26.5947 15.7567L29.9912 8.00342H31.8843V18.2275H30.1304V11.1006L27.3603 18.2205H25.7456L22.9129 11.1006V18.2205H21.166Z" fill="black"></path>
  <path d="M34.0273 18.2205V8.00342H35.997L39.463 15.7567L42.8595 8.00342H44.7525V18.2275H42.9986V11.1006L40.2286 18.2205H38.6139L35.7812 11.1006V18.2205H34.0273Z" fill="black"></path>
  <path d="M56.3204 8.0033L51.8383 18.2274H49.799L45.5117 8.0033H47.7667L50.9265 15.8262L54.0863 7.99634H56.3204V8.0033Z" fill="black"></path>
  <path d="M54.2324 18.2204L58.5684 7.99634H60.6077L65.0411 18.2204H63.0019L61.7143 15.4295H58.5128L59.167 13.787H61.2202L59.5498 9.94511L56.1812 18.2135H54.2324V18.2204Z" fill="black"></path>
  <path d="M65.2988 14.2047V8.00342H67.1919V14.2047C67.1919 15.8333 68.0271 16.6476 69.6905 16.6476C71.3609 16.6476 72.1891 15.8333 72.1891 14.2047V8.00342H74.0822V14.2047C74.0822 16.933 72.6137 18.2901 69.6836 18.2901C66.7534 18.2901 65.2988 16.933 65.2988 14.2047Z" fill="black"></path>
  <path d="M77.895 8.00342V16.578H82.6695V18.2205H76.002V8.00342H77.895Z" fill="black"></path>
  <path d="M89.3783 8.00342V9.64595H86.4482V18.2205H84.5551V9.64595H81.625V8.00342H89.3783Z" fill="black"></path>
  <path d="M91.2586 8.33777C91.377 8.33777 91.4605 8.35865 91.5162 8.40737C91.5718 8.45609 91.5997 8.52569 91.5997 8.61617C91.5997 8.70665 91.5718 8.76929 91.5231 8.81105C91.4744 8.8528 91.4118 8.87368 91.3422 8.88064L91.6206 9.31216H91.4605L91.196 8.89456H91.0359V9.31216H90.8828V8.33081H91.2586V8.33777ZM91.196 8.76929H91.2934C91.3213 8.76929 91.3491 8.76232 91.377 8.7484C91.3978 8.73448 91.4187 8.72057 91.4326 8.69969C91.4466 8.67881 91.4535 8.65097 91.4535 8.60921C91.4535 8.57441 91.4466 8.55353 91.4326 8.53265C91.4187 8.51177 91.4048 8.49785 91.3839 8.49089C91.3631 8.48393 91.3422 8.47001 91.3143 8.47001C91.2865 8.46305 91.2656 8.46305 91.2378 8.46305H91.0359V8.77625H91.196V8.76929Z" fill="black"></path>
  <path d="M91.1887 7.98926C90.7294 7.98926 90.3535 8.36509 90.3535 8.82445C90.3535 9.2838 90.7294 9.65963 91.1887 9.65963C91.6481 9.65963 92.0239 9.2838 92.0239 8.82445C92.0239 8.36509 91.6481 7.98926 91.1887 7.98926ZM91.1887 9.54132C90.792 9.54132 90.4718 9.22116 90.4718 8.82445C90.4718 8.42773 90.792 8.10758 91.1887 8.10758C91.5854 8.10758 91.9056 8.42773 91.9056 8.82445C91.9056 9.22116 91.5854 9.54132 91.1887 9.54132Z" fill="black"></path>
  <path d="M110.434 0L98.9844 6.60216V19.312L110.434 25.9239L121.883 19.312V6.60216L110.434 0ZM119.906 18.1777L110.434 23.6456L100.962 18.1777V7.74614L110.434 2.27828L119.906 7.74614V18.1777Z" fill="black"></path>
  <path d="M109.757 21.0057C109.757 21.1027 109.65 21.1609 109.563 21.1124L102.903 17.2635C102.787 17.1957 102.709 17.0697 102.709 16.9339V9.48832C102.709 9.39138 102.816 9.33321 102.903 9.38168L109.563 13.2305C109.68 13.2984 109.757 13.4244 109.757 13.5601V21.0057Z" fill="black"></path>
  <path d="M117.123 8.36356L110.744 12.0476C110.589 12.1348 110.395 12.1348 110.24 12.0476L103.86 8.36356C103.773 8.31508 103.773 8.18905 103.86 8.14058L110.24 4.45655C110.395 4.3693 110.589 4.3693 110.744 4.45655L117.123 8.14058C117.2 8.19874 117.2 8.31508 117.123 8.36356Z" fill="black"></path>
  <path d="M117.124 17.7781L111.336 21.1131C111.249 21.1615 111.143 21.1034 111.143 21.0064V14.3267C111.143 14.2298 111.249 14.1716 111.336 14.2201L117.124 17.5551C117.202 17.6035 117.202 17.7199 117.124 17.7781Z" fill="black"></path>
</svg>
