<!DOCTYPE svg PUBLIC "-//W3C//DTD SVG 1.1//EN" "http://www.w3.org/Graphics/SVG/1.1/DTD/svg11.dtd">
<svg width="19" height="21" viewBox="0 0 19 21" fill="none" xmlns="http://www.w3.org/2000/svg">
<path d="M4.35952 10.5001C4.35952 12.2749 5.13027 13.8273 6.39931 14.9484C7.08398 15.6676 7.08251 16.7683 6.39489 17.4858C5.60762 18.2135 4.38936 18.2107 3.60536 17.4776C1.6845 15.6812 0.499943 13.2154 0.499943 10.5001C0.499943 7.78542 1.68415 5.31792 3.53603 3.51969C4.32311 2.78671 5.54538 2.78771 6.33128 3.52267C7.09868 4.24034 7.09914 5.32874 6.33266 6.04685C5.11338 7.16947 4.35952 8.724 4.35952 10.5001Z" stroke="white"/>
<path d="M10.4999 4.36255C8.7466 4.36255 7.17602 5.11217 6.05155 6.38545C5.33245 7.07047 4.2305 7.06977 3.51256 6.39727C2.78652 5.60931 2.78987 4.3913 3.52261 3.6073C5.31901 1.68523 7.78478 0.5 10.4999 0.5C13.2145 0.5 15.682 1.68489 17.4803 3.53794C18.2134 4.32565 18.2124 5.549 17.4773 6.33553C16.7596 7.10339 15.6714 7.10384 14.9533 6.33689C13.8301 5.11627 12.2584 4.36255 10.4999 4.36255Z" stroke="white"/>
<path d="M10.4999 16.6374C12.2533 16.6374 13.8239 15.8878 14.9483 14.6146C15.6674 13.9295 16.7694 13.9302 17.4873 14.6027C18.2134 15.3907 18.21 16.6087 17.4773 17.3927C15.6809 19.3148 13.2151 20.5 10.4999 20.5C7.78536 20.5 5.31787 19.3151 3.51961 17.4621C2.78651 16.6744 2.78751 15.451 3.52261 14.6645C4.24026 13.8966 5.32851 13.8962 6.0466 14.6631C7.16978 15.8837 8.7415 16.6374 10.4999 16.6374Z" stroke="white"/>
</svg>
