<?xml version="1.0" encoding="UTF-8"?>
<svg xmlns="http://www.w3.org/2000/svg" width="106" height="42" viewBox="0 0 106 42" fill="none">
  <path d="M21.07 15.6674L16.2792 18.7254L21.07 21.7834L16.2792 24.8414L11.4883 21.7579L16.2792 18.6999L11.4883 15.6674L16.2792 12.6094L21.07 15.6674ZM16.2537 25.8098L21.0446 22.7518L25.8354 25.8098L21.0446 28.8678L16.2537 25.8098ZM21.07 21.7579L25.8609 18.6999L21.07 15.6674L25.8354 12.6094L30.6263 15.6674L25.8354 18.7254L30.6263 21.7834L25.8354 24.8414L21.07 21.7579Z" fill="black"></path>
  <path d="M34.373 15.669H38.2465C40.7184 15.669 42.7571 17.0961 42.7571 20.3579V21.046C42.7571 24.3333 40.8458 25.8114 38.323 25.8114H34.373V15.669ZM36.5391 17.5038V23.9511H38.1956C39.5971 23.9511 40.54 23.0337 40.54 20.995V20.4599C40.54 18.4212 39.5462 17.5038 38.1191 17.5038H36.5391ZM43.9038 17.6057H45.6367L45.917 19.517C46.2483 18.2173 47.0893 17.5293 48.6183 17.5293H49.1534V19.7208H48.2615C46.5031 19.7208 46.0699 20.3324 46.0699 22.0653V25.8369H43.9293V17.6057H43.9038ZM49.5866 21.8869V21.6576C49.5866 18.9054 51.345 17.4019 53.7404 17.4019C56.1868 17.4019 57.8942 18.9054 57.8942 21.6576V21.8869C57.8942 24.5882 56.2378 26.0407 53.7404 26.0407C51.0902 26.0152 49.5866 24.5882 49.5866 21.8869ZM55.7027 21.8615V21.6576C55.7027 20.1286 54.9382 19.2112 53.7149 19.2112C52.5172 19.2112 51.7272 20.0521 51.7272 21.6576V21.8615C51.7272 23.3395 52.4917 24.1804 53.7149 24.1804C54.9382 24.155 55.7027 23.3395 55.7027 21.8615ZM59.0155 17.6057H60.7993L61.0032 19.1602C61.4364 18.1154 62.3538 17.4019 63.7044 17.4019C65.7941 17.4019 67.1702 18.9054 67.1702 21.6831V21.9124C67.1702 24.6137 65.6412 26.0407 63.7044 26.0407C62.4048 26.0407 61.5129 25.4546 61.0797 24.5117V28.6655H58.99L59.0155 17.6057ZM65.0041 21.8615V21.6831C65.0041 20.0521 64.1631 19.2367 63.0419 19.2367C61.8442 19.2367 61.0542 20.1541 61.0542 21.6831V21.836C61.0542 23.2885 61.8187 24.2059 63.0164 24.2059C64.2396 24.1804 65.0041 23.3905 65.0041 21.8615ZM70.3301 24.3079L70.1517 25.8114H68.3169V14.8535H70.4066V19.0583C70.8653 17.988 71.7827 17.4019 73.0823 17.4019C75.0446 17.4273 76.4971 18.778 76.4971 21.5047V21.7595C76.4971 24.4862 75.121 26.0407 73.0314 26.0407C71.6553 26.0152 70.7633 25.3782 70.3301 24.3079ZM74.3055 21.7595V21.5557C74.3055 20.0521 73.4901 19.2112 72.3433 19.2112C71.1711 19.2112 70.3556 20.1541 70.3556 21.5811V21.7595C70.3556 23.2885 71.1456 24.1804 72.3178 24.1804C73.5665 24.1804 74.3055 23.3905 74.3055 21.7595ZM77.4145 21.8869V21.6576C77.4145 18.9054 79.1729 17.4019 81.5683 17.4019C84.0147 17.4019 85.7221 18.9054 85.7221 21.6576V21.8869C85.7221 24.5882 84.0402 26.0407 81.5683 26.0407C78.918 26.0152 77.4145 24.5882 77.4145 21.8869ZM83.556 21.8615V21.6576C83.556 20.1286 82.7915 19.2112 81.5683 19.2112C80.3706 19.2112 79.5806 20.0521 79.5806 21.6576V21.8615C79.5806 23.3395 80.3451 24.1804 81.5683 24.1804C82.7915 24.155 83.556 23.3395 83.556 21.8615ZM88.5253 21.5557L85.6457 17.6057H88.1175L89.774 20.0776L91.4559 17.6057H93.9023L90.9717 21.5302L94.0552 25.8114H91.6343L89.7485 23.0847L87.9137 25.8114H85.3908L88.5253 21.5557Z" fill="black"></path>
</svg>
