<svg width="19" height="27" viewBox="0 0 19 27" fill="none" xmlns="http://www.w3.org/2000/svg">
<path d="M1.4375 5.3141C1.4375 3.10408 3.22908 1.3125 5.4391 1.3125H9.4407V9.3157H5.4391C3.22908 9.3157 1.4375 7.52413 1.4375 5.3141Z" stroke="white" stroke-width="1.375"/>
<path d="M1.4375 13.3527C1.4375 11.1427 3.22908 9.35107 5.4391 9.35107H9.4407V17.3543H5.4391C3.22908 17.3543 1.4375 15.5627 1.4375 13.3527Z" stroke="white" stroke-width="1.375"/>
<path d="M1.4375 22.0609C1.4375 19.8509 3.22908 18.0593 5.4391 18.0593H9.4407V22.2717C9.4407 24.3653 7.74348 26.0625 5.64985 26.0625H5.4391C3.22908 26.0625 1.4375 24.271 1.4375 22.0609Z" stroke="white" stroke-width="1.375"/>
<path d="M9.47604 1.3125H13.4776C15.6877 1.3125 17.4792 3.10408 17.4792 5.3141C17.4792 7.52413 15.6877 9.3157 13.4776 9.3157H9.47604V1.3125Z" stroke="white" stroke-width="1.375"/>
<path d="M9.47604 13.3527C9.47604 11.1427 11.2676 9.35107 13.4776 9.35107C15.6877 9.35107 17.4792 11.1427 17.4792 13.3527C17.4792 15.5627 15.6877 17.3543 13.4776 17.3543C11.2676 17.3543 9.47604 15.5627 9.47604 13.3527Z" stroke="white" stroke-width="1.375"/>
<path d="M12.8078 9.66819L10.4632 11.0079C10.3516 11.3429 9.72638 13.4195 9.45843 13.6874C9.19048 13.9554 9.57008 10.8963 9.79337 9.33325L12.8078 9.66819Z" fill="white"/>
</svg>
