<?xml version="1.0" encoding="UTF-8"?>
<svg xmlns="http://www.w3.org/2000/svg" width="32" height="32" viewBox="0 0 32 32" fill="none">
  <circle cx="16" cy="16" r="16" fill="#B1FF9D"></circle>
  <g clip-path="url(#clip0_658_2769)">
    <path d="M27.25 10.375H9.625C8.17525 10.375 7 11.5503 7 13V13C7 14.4497 8.17525 15.625 9.625 15.625H22.375C23.8247 15.625 25 16.8003 25 18.25V18.25C25 19.6997 23.8247 20.875 22.375 20.875H4.75" stroke="black"></path>
    <path d="M27.25 10.375H9.625C8.17525 10.375 7 11.5503 7 13V13C7 14.4497 8.17525 15.625 9.625 15.625H22.375C23.8247 15.625 25 16.8003 25 18.25V18.25C25 19.6997 23.8247 20.875 22.375 20.875H4.75" stroke="black"></path>
    <path d="M21.25 7L16.75 25" stroke="black"></path>
    <path d="M15.25 7L10.75 25" stroke="black"></path>
  </g>
  <defs>
    <clipPath id="clip0_658_2769">
      <rect width="24" height="24" fill="white" transform="translate(4 4)"></rect>
    </clipPath>
  </defs>
</svg>
