<svg width="21" height="21" viewBox="0 0 70 72" fill="none" xmlns="http://www.w3.org/2000/svg">
	<g clip-path="url(#clip0_8294_39556)">
		<path d="M37.4428 0.0380859C37.4729 0.0533564 37.5027 0.0808431 37.5336 0.0819884C37.8683 0.0976406 38.2042 0.0972588 38.5378 0.125509C38.9874 0.163303 39.4359 0.217895 39.884 0.27325C40.3622 0.332423 40.842 0.387778 41.3168 0.469475C41.9012 0.569878 42.4809 0.695859 43.0626 0.810387C43.1943 0.836347 43.1607 0.91079 43.121 0.991723C42.8905 1.46587 42.6607 1.94002 42.4313 2.41454C41.9237 3.46515 41.4157 4.51575 40.9088 5.56674C40.5848 6.23902 40.263 6.91244 39.939 7.58511C39.4355 8.63075 38.9309 9.67601 38.4275 10.7216C38.1092 11.3829 37.7912 12.0441 37.4733 12.7057C37.0199 13.6498 36.5653 14.5935 36.1161 15.5395C36.0672 15.6422 36.0138 15.6811 35.8943 15.6864C35.2393 15.7158 34.5825 15.7353 33.9309 15.8021C32.3657 15.9625 30.8309 16.2801 29.3554 16.8344C28.6947 17.0825 28.0527 17.3815 27.4065 17.667C26.4584 18.0858 25.5596 18.5981 24.713 19.1925C24.0523 19.6564 23.405 20.1454 22.7909 20.6688C22.2035 21.1697 21.6351 21.7007 21.1161 22.2707C20.5424 22.9009 20.0149 23.5759 19.5023 24.2581C18.7512 25.2583 18.1386 26.3463 17.6115 27.479C17.1103 28.5563 16.6859 29.665 16.4054 30.8225C16.2409 31.5012 16.0821 32.1823 15.9554 32.8687C15.8703 33.3303 15.8214 33.8014 15.7981 34.2705C15.755 35.1493 15.7119 36.0301 15.7267 36.9093C15.7378 37.5537 15.8103 38.2015 15.913 38.8387C16.0477 39.6759 16.1924 40.5173 16.4183 41.3331C16.6527 42.1791 16.9745 43.0022 17.2863 43.8249C17.4634 44.2921 17.6817 44.746 17.9073 45.1927C18.4649 46.296 19.1115 47.347 19.8615 48.33C20.1928 48.7644 20.5531 49.1787 20.9214 49.5829C21.3183 50.0189 21.7237 50.4503 22.1546 50.8523C22.8893 51.5383 23.6718 52.1694 24.4974 52.7454C25.4141 53.3853 26.3767 53.9468 27.3901 54.4183C28.4336 54.9043 29.5058 55.3166 30.6256 55.5907C31.2916 55.7537 31.9599 55.9114 32.6332 56.0412C33.063 56.124 33.5042 56.1435 33.939 56.2046C34.9019 56.3397 35.8706 56.334 36.8378 56.3107C37.4019 56.2973 37.9683 56.2439 38.5264 56.1607C39.2977 56.0458 40.068 55.9114 40.8283 55.7392C41.8344 55.5113 42.8035 55.1593 43.7516 54.7516C45.0745 54.1828 46.3256 53.4849 47.5027 52.6576C48.0966 52.24 48.6706 51.7941 49.2542 51.3612C49.2786 51.3432 49.3046 51.3276 49.3554 51.2936C51.9886 55.8625 54.6157 60.4215 57.2695 65.0259C56.3256 65.6539 55.4046 66.3163 54.4355 66.8981C53.4374 67.4978 52.4111 68.0582 51.3626 68.5641C50.3733 69.0413 49.3493 69.4524 48.3214 69.8426C47.0077 70.3419 45.6596 70.7397 44.2867 71.0444C43.5435 71.2093 42.7966 71.3593 42.047 71.4914C41.3695 71.6109 40.6882 71.7109 40.0054 71.7945C39.5061 71.8556 39.0023 71.8777 38.5 71.9136C38.2611 71.9308 38.021 71.9392 37.7821 71.9556C37.7573 71.9572 37.7344 71.9839 37.7107 71.9991H34.1611C34.1374 71.9843 34.1141 71.9575 34.0897 71.9556C33.6748 71.9274 33.2592 71.9068 32.8447 71.8751C32.4126 71.8419 31.979 71.8128 31.5496 71.7563C30.9859 71.6823 30.4229 71.5952 29.8638 71.4925C29.1153 71.3547 28.3664 71.2135 27.6248 71.044C26.2122 70.7206 24.8214 70.3167 23.4714 69.7865C22.5294 69.4165 21.5939 69.0271 20.6699 68.6141C20.0748 68.348 19.4954 68.0422 18.9271 67.7219C18.1099 67.2607 17.2958 66.7912 16.5046 66.2872C15.3145 65.5291 14.1802 64.6915 13.1073 63.7737C12.5046 63.258 11.8878 62.7548 11.3191 62.2036C10.5867 61.4935 9.88667 60.7483 9.18972 60.0027C8.78628 59.5709 8.41071 59.1128 8.03132 58.6589C7.26758 57.7442 6.57674 56.7757 5.9172 55.7839C5.18476 54.6817 4.52522 53.5376 3.91987 52.3622C3.613 51.7666 3.32941 51.1573 3.0672 50.5408C2.73018 49.7479 2.40499 48.9481 2.11071 48.1384C1.61758 46.782 1.21377 45.3977 0.913002 43.9852C0.796208 43.4358 0.681704 42.8857 0.583231 42.3329C0.493154 41.8282 0.420635 41.3201 0.350788 40.812C0.280941 40.3031 0.210712 39.7935 0.165292 39.2823C0.12178 38.7921 0.110712 38.2993 0.082849 37.8079C0.0809406 37.777 0.0538414 37.7476 0.0385742 37.7171C0.0385742 36.5974 0.0385742 35.4773 0.0385742 34.3576C0.0534597 34.3339 0.080559 34.3106 0.0820857 34.2862C0.0981162 34.0342 0.106131 33.7819 0.12407 33.5299C0.159567 33.0279 0.184376 32.524 0.242773 32.0246C0.314147 31.4161 0.403078 30.8087 0.507277 30.2048C0.638956 29.442 0.770635 28.6777 0.942773 27.9238C1.26147 26.5296 1.64468 25.1507 2.15689 23.8149C2.57522 22.7242 3.02789 21.645 3.50957 20.581C4.05002 19.3868 4.70041 18.2473 5.39659 17.1371C5.82216 16.4587 6.26453 15.7891 6.73361 15.1405C7.26606 14.4045 7.82369 13.686 8.39468 12.9794C8.86109 12.4022 9.33438 11.8249 9.85537 11.2981C10.7107 10.4334 11.5958 9.59775 12.4905 8.77353C13.0027 8.30167 13.5386 7.84967 14.0993 7.43698C14.9504 6.81013 15.8161 6.20008 16.7054 5.62935C17.5 5.11932 18.3225 4.64937 19.155 4.20309C20.4474 3.51058 21.7863 2.9177 23.1588 2.39698C24.3451 1.94689 25.5504 1.55711 26.7764 1.23796C27.6813 1.00241 28.6 0.819168 29.5153 0.624852C29.9 0.543155 30.2905 0.485509 30.6802 0.430536C31.1145 0.369454 31.5508 0.321734 31.9867 0.272869C32.4603 0.219804 32.934 0.163685 33.4092 0.125509C33.7554 0.0976405 34.1038 0.0980223 34.4512 0.0819884C34.4821 0.0804613 34.5115 0.0533564 34.5416 0.0380859C35.5084 0.0380859 36.4756 0.0380859 37.4424 0.0380859H37.4428Z" fill="white"/>
		<path d="M69.9999 46.3842C69.882 46.564 69.756 46.7388 69.6472 46.9244C69.0102 48.0097 68.3747 49.0962 67.7438 50.1854C67.1159 51.2688 66.4968 52.3572 65.869 53.4406C65.3007 54.421 64.7232 55.396 64.1545 56.3764C63.4384 57.6114 62.7289 58.8498 62.0136 60.0856C61.6717 60.6761 61.3236 61.2629 60.9774 61.8508C60.9724 61.8592 60.9583 61.8627 60.9293 61.8794C60.7827 61.6271 60.6354 61.3748 60.49 61.1217C60.0407 60.3398 59.5907 59.5583 59.1438 58.775C58.7621 58.1057 58.3877 57.4327 58.0045 56.7642C57.5342 55.9438 57.0564 55.128 56.5865 54.3076C56.1541 53.5521 55.7308 52.7916 55.2984 52.0361C54.8785 51.3024 54.4491 50.5744 54.0293 49.8406C53.5968 49.0851 53.1713 48.3258 52.7415 47.5688C52.5373 47.2092 52.332 46.8503 52.1213 46.4945C52.0984 46.4559 52.04 46.4292 51.993 46.4174C51.9388 46.404 51.8793 46.4143 51.822 46.4143C46.0274 46.4143 40.2327 46.4143 34.4377 46.4143C34.3552 46.4143 34.2732 46.4143 34.1621 46.4143C34.3732 46.0456 34.572 45.6951 34.7736 45.3462C35.1308 44.7281 35.4896 44.1112 35.8472 43.4935C36.2079 42.8705 36.569 42.2474 36.9281 41.6232C37.2438 41.075 37.5556 40.5249 37.8717 39.9771C38.2312 39.3533 38.5938 38.7314 38.9545 38.108C39.3056 37.5006 39.6568 36.8936 40.0056 36.2851C40.3579 35.6716 40.706 35.0554 41.0591 34.4423C41.4774 33.7151 41.8988 32.9897 42.319 32.2632C42.6045 31.77 42.8884 31.2756 43.1778 30.7851C43.2007 30.7461 43.2587 30.7206 43.3056 30.7049C43.3457 30.6915 43.3938 30.7018 43.4384 30.7018C49.227 30.7018 55.0152 30.7026 60.8037 30.6973C60.9739 30.6973 61.061 30.753 61.1419 30.8935C61.785 32.0117 62.4365 33.1249 63.082 34.2415C63.7587 35.4124 64.4297 36.5867 65.1075 37.7572C65.7758 38.9112 66.4522 40.0607 67.1205 41.2144C67.6197 42.076 68.1102 42.9422 68.6083 43.8042C69.0591 44.5849 69.5144 45.3626 69.9686 46.1414C69.9732 46.1494 69.99 46.1505 70.001 46.1547V46.3838L69.9999 46.3842Z" fill="white"/>
		<path d="M51.937 21.1764H62.5759V25.9355H46.1053C46.1053 25.4201 46.1049 24.899 46.1057 24.3779C46.1057 24.3019 46.1133 24.2259 46.1149 24.15C46.142 22.5874 46.4256 21.0768 47.0111 19.6234C47.3458 18.7923 47.7733 18.0132 48.3141 17.3039C48.8546 16.5953 49.4843 15.9704 50.1843 15.4103C51.0458 14.7209 51.9931 14.175 52.9549 13.6481C53.8836 13.1396 54.8133 12.6326 55.7401 12.1207C56.1477 11.8955 56.5427 11.6477 56.8599 11.3007C57.5851 10.5078 57.8076 9.32316 57.1424 8.39816C56.7794 7.89309 56.2622 7.60753 55.6569 7.47315C55.1851 7.36855 54.7088 7.34297 54.2286 7.35977C53.3973 7.38878 52.6328 7.63884 51.9153 8.05228C51.4347 8.32906 51.0061 8.67455 50.6553 9.09716C50.3569 9.45678 50.1049 9.85687 49.8473 10.2486C49.6832 10.4982 49.5462 10.7655 49.3866 11.0426C49.3378 11.0063 49.2954 10.9819 49.2618 10.9487C49.0759 10.7658 48.8943 10.5788 48.7076 10.3963C48.2584 9.95727 47.8038 9.52359 47.358 9.08113C47.1111 8.83604 46.8805 8.57377 46.6359 8.32601C46.4851 8.1733 46.3236 8.03091 46.1618 7.88927C46.0538 7.7946 46.0492 7.69992 46.1099 7.57356C46.4504 6.86081 46.8805 6.21182 47.4149 5.62696C48.253 4.71035 49.2477 4.00753 50.3546 3.46505C51.1141 3.09245 51.9214 2.85538 52.7599 2.70993C53.503 2.5809 54.2492 2.57135 54.9912 2.61258C56.4878 2.69542 57.9267 3.02946 59.2454 3.7781C59.9893 4.20032 60.6694 4.71112 61.2336 5.35553C61.9717 6.19922 62.4404 7.1792 62.5847 8.29776C62.6435 8.75243 62.7023 9.21284 62.6946 9.66942C62.6702 11.1835 62.2462 12.5758 61.3 13.7753C60.8275 14.3742 60.2805 14.9133 59.6328 15.3221C58.8767 15.7997 58.103 16.251 57.3225 16.6877C56.4252 17.1893 55.5069 17.6528 54.608 18.1518C54.032 18.4713 53.4958 18.8481 52.9985 19.289C52.4714 19.7563 52.1252 20.3121 51.9599 20.989C51.9454 21.0478 51.945 21.11 51.9374 21.1753L51.937 21.1764Z" fill="white"/>
	</g>
</svg>
