<?xml version="1.0" encoding="UTF-8"?>
<svg xmlns="http://www.w3.org/2000/svg" width="32" height="32" viewBox="0 0 32 32" fill="none">
  <rect width="32" height="32" fill="#AFBEFF"></rect>
  <path d="M14.1344 15.1713H24.9444L25.1087 15.3356L24.9772 27.5256H24.7472L20.0815 22.9256H19.8844C18.2415 25.2256 16.8615 27.3942 16.1715 27.3942C10.093 27.3285 5.82153 22.2356 5.82153 15.9928C5.82153 5.90561 15.3172 4.36133 16.8615 4.36133C20.9358 4.36133 23.8601 6.36561 25.0101 8.53418L19.4572 13.627L19.293 13.5942C18.7015 10.1442 15.9415 6.03704 13.2801 6.03704C11.8672 6.03704 10.783 7.28561 10.783 9.84847C10.783 15.6313 14.4958 22.9585 18.6687 22.9585C18.8001 22.9585 18.8987 22.9585 18.9972 22.9256V16.6828L14.1344 15.3685V15.1713Z" fill="black"></path>
</svg>
