<?xml version="1.0" encoding="UTF-8"?>
<svg xmlns="http://www.w3.org/2000/svg" width="32" height="32" viewBox="0 0 32 32" fill="none">
  <circle cx="16" cy="16" r="16" fill="#C5F4FF"></circle>
  <circle cx="16" cy="16" r="11.5" stroke="black"></circle>
  <mask id="path-3-inside-1_658_2777" fill="white">
    <path fill-rule="evenodd" clip-rule="evenodd" d="M19.2145 8.5H12.7859V12.7863H8.5V19.2148H12.7859V23.5H19.2145V19.2148H23.5V12.7863H19.2145V8.5Z"></path>
  </mask>
  <path d="M12.7859 8.5V7.5H11.7859V8.5H12.7859ZM19.2145 8.5H20.2145V7.5H19.2145V8.5ZM12.7859 12.7863V13.7863H13.7859V12.7863H12.7859ZM8.5 12.7863V11.7863H7.5V12.7863H8.5ZM8.5 19.2148H7.5V20.2148H8.5V19.2148ZM12.7859 19.2148H13.7859V18.2148H12.7859V19.2148ZM12.7859 23.5H11.7859V24.5H12.7859V23.5ZM19.2145 23.5V24.5H20.2145V23.5H19.2145ZM19.2145 19.2148V18.2148H18.2145V19.2148H19.2145ZM23.5 19.2148V20.2148H24.5V19.2148H23.5ZM23.5 12.7863H24.5V11.7863H23.5V12.7863ZM19.2145 12.7863H18.2145V13.7863H19.2145V12.7863ZM12.7859 9.5H19.2145V7.5H12.7859V9.5ZM13.7859 12.7863V8.5H11.7859V12.7863H13.7859ZM8.5 13.7863H12.7859V11.7863H8.5V13.7863ZM9.5 19.2148V12.7863H7.5V19.2148H9.5ZM12.7859 18.2148H8.5V20.2148H12.7859V18.2148ZM13.7859 23.5V19.2148H11.7859V23.5H13.7859ZM19.2145 22.5H12.7859V24.5H19.2145V22.5ZM18.2145 19.2148V23.5H20.2145V19.2148H18.2145ZM23.5 18.2148H19.2145V20.2148H23.5V18.2148ZM22.5 12.7863V19.2148H24.5V12.7863H22.5ZM19.2145 13.7863H23.5V11.7863H19.2145V13.7863ZM18.2145 8.5V12.7863H20.2145V8.5H18.2145Z" fill="black" mask="url(#path-3-inside-1_658_2777)"></path>
</svg>
