<svg width="32" height="32" viewBox="0 0 32 32" fill="none" xmlns="http://www.w3.org/2000/svg">
<g clip-path="url(#clip0_39450_83170)">
<rect width="32" height="32" transform="matrix(-1 0 0 1 32 0)" fill="#D4B2F7"/>
<rect width="23.8857" height="7.54286" rx="3.77143" transform="matrix(-1 -9.13804e-08 -8.36366e-08 1 30.2858 20)" fill="#FFF4F1"/>
<rect width="23.8857" height="7.54286" rx="3.77143" transform="matrix(-1 -9.13804e-08 -8.36366e-08 1 35.9429 27)" fill="#FFF4F1"/>
<rect width="22.6286" height="7.54286" rx="3.77143" transform="matrix(-1 -9.13804e-08 -8.36366e-08 1 24.6285 13)" fill="#FFF4F1"/>
<circle cx="15.9999" cy="15.9999" r="15.9999" transform="matrix(-4.37114e-08 1 1 4.37114e-08 6 -13)" fill="url(#paint0_linear_39450_83170)"/>
<circle cx="14.7692" cy="14.7692" r="14.7692" transform="matrix(-4.37114e-08 1 1 4.37114e-08 8.46167 -11.7693)" fill="url(#paint1_linear_39450_83170)"/>
<circle cx="13.5384" cy="13.5384" r="13.5384" transform="matrix(-4.37114e-08 1 1 4.37114e-08 10.923 -10.5384)" fill="url(#paint2_linear_39450_83170)"/>
<circle cx="12.3076" cy="12.3076" r="12.3076" transform="matrix(-4.37114e-08 1 1 4.37114e-08 13.3846 -9.30774)" fill="url(#paint3_linear_39450_83170)"/>
<circle cx="11.0769" cy="11.0769" r="11.0769" transform="matrix(-4.37114e-08 1 1 4.37114e-08 15.8462 -8.0769)" fill="url(#paint4_linear_39450_83170)"/>
<circle cx="9.84612" cy="9.84612" r="9.84612" transform="matrix(-4.37114e-08 1 1 4.37114e-08 18.3076 -6.84613)" fill="url(#paint5_linear_39450_83170)"/>
<circle cx="8.61535" cy="8.61535" r="8.61535" transform="matrix(-4.37114e-08 1 1 4.37114e-08 20.7693 -5.61542)" fill="url(#paint6_linear_39450_83170)"/>
<circle cx="7.38459" cy="7.38459" r="7.38459" transform="matrix(-4.37114e-08 1 1 4.37114e-08 23.2308 -4.38477)" fill="url(#paint7_linear_39450_83170)"/>
<circle cx="6.15382" cy="6.15382" r="6.15382" transform="matrix(-4.37114e-08 1 1 4.37114e-08 25.6923 -3.15399)" fill="url(#paint8_linear_39450_83170)"/>
<circle cx="4.92306" cy="4.92306" r="4.92306" transform="matrix(-4.37114e-08 1 1 4.37114e-08 28.1538 -1.92316)" fill="url(#paint9_linear_39450_83170)"/>
<circle cx="3.69229" cy="3.69229" r="3.69229" transform="matrix(-4.37114e-08 1 1 4.37114e-08 30.6154 -0.692383)" fill="url(#paint10_linear_39450_83170)"/>
<rect x="2" y="2" width="12" height="12" rx="6" fill="black"/>
<path fill-rule="evenodd" clip-rule="evenodd" d="M10.4772 9.02707L11.2243 6H10.7262H10.1138H9.73022L10.4772 9.02707Z" fill="white"/>
<path fill-rule="evenodd" clip-rule="evenodd" d="M7.7381 6H7.24011L8.3506 10.4999H8.84859H9.46109H9.95907L8.84859 6H8.3506H7.7381Z" fill="white"/>
<path fill-rule="evenodd" clip-rule="evenodd" d="M6.35851 6.00012H5.24802L5.24804 6.00021H4.75L5.86049 10.5001H6.97098L6.97096 10.5H7.46899L6.35851 6.00012Z" fill="white"/>
</g>
<defs>
<linearGradient id="paint0_linear_39450_83170" x1="15.9999" y1="0" x2="15.9999" y2="31.9999" gradientUnits="userSpaceOnUse">
<stop stop-color="#DFC6FF" stop-opacity="0.5"/>
<stop offset="0.5" stop-color="#5551FF"/>
</linearGradient>
<linearGradient id="paint1_linear_39450_83170" x1="14.7692" y1="0" x2="14.7692" y2="29.5383" gradientUnits="userSpaceOnUse">
<stop stop-color="#DFC6FF" stop-opacity="0.5"/>
<stop offset="0.5" stop-color="#5551FF"/>
</linearGradient>
<linearGradient id="paint2_linear_39450_83170" x1="13.5384" y1="0" x2="13.5384" y2="27.0768" gradientUnits="userSpaceOnUse">
<stop stop-color="#DFC6FF" stop-opacity="0.5"/>
<stop offset="0.5" stop-color="#5551FF"/>
</linearGradient>
<linearGradient id="paint3_linear_39450_83170" x1="12.3076" y1="0" x2="12.3076" y2="24.6153" gradientUnits="userSpaceOnUse">
<stop stop-color="#DFC6FF" stop-opacity="0.5"/>
<stop offset="0.5" stop-color="#5551FF"/>
</linearGradient>
<linearGradient id="paint4_linear_39450_83170" x1="11.0769" y1="0" x2="11.0769" y2="22.1538" gradientUnits="userSpaceOnUse">
<stop stop-color="#DFC6FF" stop-opacity="0.5"/>
<stop offset="0.5" stop-color="#5551FF"/>
</linearGradient>
<linearGradient id="paint5_linear_39450_83170" x1="9.84612" y1="0" x2="9.84612" y2="19.6922" gradientUnits="userSpaceOnUse">
<stop stop-color="#DFC6FF" stop-opacity="0.5"/>
<stop offset="0.5" stop-color="#5551FF"/>
</linearGradient>
<linearGradient id="paint6_linear_39450_83170" x1="8.61535" y1="0" x2="8.61535" y2="17.2307" gradientUnits="userSpaceOnUse">
<stop stop-color="#DFC6FF" stop-opacity="0.5"/>
<stop offset="0.5" stop-color="#5551FF"/>
</linearGradient>
<linearGradient id="paint7_linear_39450_83170" x1="7.38459" y1="0" x2="7.38459" y2="14.7692" gradientUnits="userSpaceOnUse">
<stop stop-color="#DFC6FF" stop-opacity="0.5"/>
<stop offset="0.5" stop-color="#5551FF"/>
</linearGradient>
<linearGradient id="paint8_linear_39450_83170" x1="6.15382" y1="0" x2="6.15382" y2="12.3076" gradientUnits="userSpaceOnUse">
<stop stop-color="#DFC6FF" stop-opacity="0.5"/>
<stop offset="0.5" stop-color="#5551FF"/>
</linearGradient>
<linearGradient id="paint9_linear_39450_83170" x1="4.92306" y1="0" x2="4.92306" y2="9.84612" gradientUnits="userSpaceOnUse">
<stop stop-color="#DFC6FF" stop-opacity="0.5"/>
<stop offset="0.5" stop-color="#5551FF"/>
</linearGradient>
<linearGradient id="paint10_linear_39450_83170" x1="3.69229" y1="0" x2="3.69229" y2="7.38459" gradientUnits="userSpaceOnUse">
<stop stop-color="#DFC6FF" stop-opacity="0.5"/>
<stop offset="0.5" stop-color="#5551FF"/>
</linearGradient>
<clipPath id="clip0_39450_83170">
<rect width="32" height="32" fill="white" transform="matrix(-1 0 0 1 32 0)"/>
</clipPath>
</defs>
</svg>
