<svg width="32" height="32" viewBox="0 0 32 32" fill="none" xmlns="http://www.w3.org/2000/svg">
<g clip-path="url(#clip0_28315_35799)">
<path d="M33.0004 10.2764H28.4058C27.9708 10.2764 27.6182 10.629 27.6182 11.064V20.7783C27.6182 21.2133 27.9708 21.5659 28.4058 21.5659H33.0004" stroke="black"/>
<path d="M-1.00333 10.2764H3.59126C4.02627 10.2764 4.37891 10.629 4.37891 11.064V20.7783C4.37891 21.2133 4.02627 21.5659 3.59126 21.5659H-1.00333" stroke="black"/>
<path d="M27.7521 12.2445H24.7352C24.5633 12.2445 24.3961 12.1882 24.2592 12.0843L20.8744 9.51658C20.7375 9.41268 20.5703 9.35645 20.3984 9.35645H15.2811C15.1107 9.35645 14.9448 9.41172 14.8085 9.51397L10.4735 12.7652C10.0973 13.0474 10.0505 13.5943 10.3734 13.9362L11.5428 15.1743C11.8064 15.4534 12.2329 15.5018 12.5523 15.2889L14.9689 13.6778C15.2978 13.4586 15.7382 13.5171 15.9985 13.8145L16.2272 14.0759C16.3768 14.2468 16.5928 14.3449 16.82 14.3449H19.4819" stroke="black"/>
<path d="M27.88 19.3344H25.8713C25.7255 19.3344 25.5826 19.3748 25.4585 19.4512L22.4251 21.3179C22.301 21.3943 22.1581 21.4348 22.0123 21.4348H20.7912M4.64453 11.8518L8.80682 9.70757C8.91837 9.6501 9.04204 9.62012 9.16753 9.62012H11.6352C11.785 9.62012 11.9317 9.66283 12.0581 9.74326L13.3086 10.539" stroke="black"/>
<path d="M4.37891 19.9887L8.48776 23.5105C8.77078 23.7531 9.18512 23.7641 9.48058 23.5368L10.0389 23.1073C10.3902 22.8371 10.4495 22.3303 10.17 21.9863L8.9735 20.5137L12.1132 23.4292C12.4154 23.7098 12.8829 23.7098 13.1851 23.4292L13.9432 22.7253C14.2486 22.4417 14.2802 21.9692 14.0152 21.6474L12.6492 19.9887L15.6913 23.0307C15.9767 23.3162 16.4316 23.3396 16.7449 23.0851L17.6161 22.3772C17.9786 22.0827 18.0067 21.5392 17.6764 21.209L15.4059 18.9385L18.6945 22.1136C18.9879 22.3969 19.4492 22.4093 19.7574 22.1422L20.5909 21.4198C20.918 21.1363 20.955 20.642 20.6738 20.3129L15.0121 13.6875" stroke="black"/>
</g>
<defs>
<clipPath id="clip0_28315_35799">
<rect width="32" height="32" fill="white"/>
</clipPath>
</defs>
</svg>
