<?xml version="1.0" encoding="UTF-8"?>
<svg xmlns="http://www.w3.org/2000/svg" width="106" height="42" viewBox="0 0 106 42" fill="none">
  <g clip-path="url(#clip0_8912_147411)">
    <path d="M27.8829 14.3867V19.5362H23.134V14.3867H20.8809V26.6794H23.1346V21.6969H27.8823V26.6794H30.1367V14.3867H27.8829ZM37.3504 22.7062C37.3504 23.1989 37.1539 23.6714 36.8042 24.0198C36.4544 24.3682 35.9801 24.5639 35.4855 24.5639C34.9909 24.5639 34.5166 24.3682 34.1668 24.0198C33.8171 23.6714 33.6206 23.1989 33.6206 22.7062V17.4406H31.4828V22.7062C31.4828 23.7627 31.9041 24.7759 32.654 25.5229C33.4039 26.27 34.421 26.6897 35.4815 26.6897C36.5421 26.6897 37.5592 26.27 38.3091 25.5229C39.059 24.7759 39.4803 23.7627 39.4803 22.7062V17.4406H37.3504V22.7062ZM53.1911 17.9832C53.1911 16.9035 53.9078 16.5614 54.6928 16.5614C55.3259 16.5614 56.1615 17.0414 56.7086 17.6235L58.1084 15.9793C57.4094 15.0375 55.9919 14.3867 54.8312 14.3867C52.5116 14.3867 50.8343 15.7399 50.8343 17.9832C50.8343 22.1453 55.9407 20.8244 55.9407 23.154C55.9407 23.8722 55.2405 24.5065 54.439 24.5065C53.1746 24.5065 52.7647 23.891 52.1841 23.2397L50.63 24.8492C51.6242 26.0644 52.8501 26.6818 54.3182 26.6818C56.522 26.6818 58.2944 25.3122 58.2944 23.171C58.2944 18.5507 53.1874 19.9865 53.1874 17.9832M84.7822 24.7155C83.519 24.7155 83.1598 24.1711 83.1598 23.3375V19.6462H85.1238V17.776H83.1598V15.3085L80.992 16.2776V23.7962C80.992 25.7193 82.3241 26.6885 84.1503 26.6885C84.437 26.6933 84.7236 26.6702 85.0054 26.6204L85.5342 24.6809C85.2958 24.6973 85.0219 24.7137 84.7822 24.7137M45.4882 17.502C44.4293 17.502 43.6901 17.8082 42.9752 18.5063V14.4602H40.8344V21.96C40.8344 24.7672 42.8715 26.6909 45.1613 26.6909C47.701 26.6909 49.9352 24.7332 49.9352 22.0973C49.9352 19.4943 47.8791 17.5038 45.4882 17.5038M45.4748 24.5442C45.1557 24.5442 44.8397 24.4816 44.545 24.36C44.2502 24.2383 43.9823 24.06 43.7567 23.8353C43.5311 23.6105 43.3521 23.3437 43.23 23.05C43.1079 22.7564 43.0451 22.4416 43.0451 22.1238C43.0451 21.8059 43.1079 21.4912 43.23 21.1975C43.3521 20.9039 43.5311 20.637 43.7567 20.4123C43.9823 20.1875 44.2502 20.0092 44.545 19.8876C44.8397 19.7659 45.1557 19.7033 45.4748 19.7033C46.1192 19.7033 46.7372 19.9583 47.1928 20.4123C47.6485 20.8662 47.9044 21.4818 47.9044 22.1238C47.9044 22.7657 47.6485 23.3814 47.1928 23.8353C46.7372 24.2892 46.1192 24.5442 45.4748 24.5442ZM68.739 21.9855C68.739 19.3448 66.5097 17.392 63.965 17.392C61.6759 17.392 59.6381 19.3151 59.6381 22.1229V29.6269H61.779V25.5753C62.4926 26.2723 63.2331 26.5797 64.2907 26.5797C66.6817 26.5797 68.7384 24.5892 68.7384 21.9855M66.7116 21.9588C66.7116 22.6007 66.4556 23.2164 65.9999 23.6703C65.5443 24.1242 64.9263 24.3792 64.2819 24.3792C63.6375 24.3792 63.0195 24.1242 62.5638 23.6703C62.1082 23.2164 61.8522 22.6007 61.8522 21.9588C61.8522 21.3169 62.1082 20.7012 62.5638 20.2473C63.0195 19.7934 63.6375 19.5384 64.2819 19.5384C64.9263 19.5384 65.5443 19.7934 65.9999 20.2473C66.4556 20.7012 66.7116 21.3169 66.7116 21.9588Z" fill="black"></path>
    <path d="M75.6568 17.2887V15.1457C75.9411 15.0133 76.1818 14.8033 76.3509 14.5399C76.52 14.2766 76.6105 13.9708 76.6119 13.6582V13.609C76.6119 12.6976 75.8703 11.9587 74.9554 11.9587H74.9059C74.4666 11.9587 74.0452 12.1326 73.7346 12.4421C73.4239 12.7516 73.2494 13.1713 73.2494 13.609V13.6582C73.2508 13.9708 73.3413 14.2766 73.5104 14.5399C73.6795 14.8033 73.9202 15.0133 74.2045 15.1457V17.2887C73.3875 17.4134 72.618 17.7508 71.974 18.267L66.074 13.6892C66.1161 13.5379 66.1381 13.3824 66.1405 13.2262C66.1413 12.8584 66.0325 12.4987 65.8279 12.1925C65.6234 11.8863 65.3323 11.6475 64.9915 11.5061C64.6506 11.3647 64.2754 11.3273 63.9131 11.3984C63.5509 11.4695 63.218 11.6461 62.9565 11.9057C62.695 12.1653 62.5167 12.4964 62.4441 12.857C62.3716 13.2176 62.408 13.5916 62.5487 13.9316C62.6895 14.2716 62.9284 14.5623 63.235 14.7671C63.5417 14.9718 63.9025 15.0814 64.2717 15.0819C64.5947 15.0804 64.9116 14.9945 65.1909 14.8328L71.0005 19.3364C70.4786 20.1218 70.2063 21.0457 70.2192 21.9875C70.232 22.9294 70.5294 23.8455 71.0725 24.6166L69.3055 26.3774C69.1627 26.3319 69.0138 26.3078 68.8639 26.3057C68.5609 26.306 68.2647 26.3957 68.0128 26.5636C67.7609 26.7314 67.5647 26.9699 67.4488 27.2489C67.3329 27.5278 67.3027 27.8348 67.3619 28.1308C67.421 28.4269 67.567 28.6989 67.7813 28.9124C67.9956 29.1258 68.2686 29.2712 68.5658 29.3302C68.863 29.3891 69.1711 29.359 69.4511 29.2436C69.7312 29.1282 69.9706 28.9326 70.1391 28.6817C70.3076 28.4308 70.3977 28.1358 70.3979 27.8339C70.3959 27.6845 70.3717 27.5362 70.3259 27.394L72.074 25.6519C72.644 26.0891 73.307 26.3905 74.012 26.533C74.717 26.6756 75.4454 26.6554 76.1415 26.4742C76.8375 26.293 77.4826 25.9554 78.0274 25.4874C78.5723 25.0195 79.0024 24.4334 79.2847 23.7743C79.5671 23.1152 79.6943 22.4004 79.6565 21.6847C79.6188 20.969 79.4171 20.2715 79.0669 19.6455C78.7167 19.0194 78.2273 18.4816 77.6362 18.0731C77.0451 17.6646 76.368 17.3963 75.6568 17.2887ZM74.9322 24.337C74.6091 24.3459 74.2875 24.2902 73.9865 24.1731C73.6854 24.0561 73.4109 23.8801 73.1793 23.6556C72.9476 23.4311 72.7635 23.1626 72.6378 22.866C72.512 22.5694 72.4473 22.2507 72.4473 21.9288C72.4473 21.6068 72.512 21.2881 72.6378 20.9915C72.7635 20.6949 72.9476 20.4265 73.1793 20.202C73.4109 19.9774 73.6854 19.8015 73.9865 19.6844C74.2875 19.5674 74.6091 19.5116 74.9322 19.5205C75.5583 19.5423 76.1515 19.8054 76.5868 20.2543C77.0222 20.7032 77.2656 21.3028 77.2659 21.927C77.2663 22.5511 77.0234 23.1511 76.5885 23.6004C76.1537 24.0497 75.5607 24.3134 74.9346 24.3358" fill="black"></path>
  </g>
  <defs>
    <clipPath id="clip0_8912_147411">
      <rect width="64.6534" height="18.836" fill="white" transform="translate(20.877 11.3652)"></rect>
    </clipPath>
  </defs>
</svg>
