<svg width="21" height="21" viewBox="0 0 21 21" fill="none" xmlns="http://www.w3.org/2000/svg">
<path d="M11.6374 20.5473C11.6374 20.4022 11.6374 20.2926 11.6374 20.1831C11.6374 17.7989 11.64 15.4148 11.6374 13.0306C11.6374 12.2868 11.8655 11.6322 12.4089 11.1101C13.0599 10.486 13.8391 10.3179 14.7003 10.5344C15.5128 10.7407 15.9332 11.3367 16.1049 12.0984C16.2177 12.5951 16.2689 13.1147 16.2715 13.6241C16.2894 15.802 16.2792 17.9798 16.2792 20.1602C16.2792 20.2773 16.2792 20.3971 16.2792 20.5473C16.415 20.5473 16.5176 20.5473 16.6175 20.5473C17.8786 20.5473 19.1396 20.5473 20.4007 20.5473C20.7672 20.5473 20.7698 20.5473 20.7698 20.178C20.7698 17.7938 20.7851 15.4097 20.7595 13.0255C20.7518 12.32 20.68 11.6067 20.5416 10.9139C20.27 9.56901 19.6266 8.43042 18.4271 7.66627C17.4557 7.0473 16.3766 6.87155 15.2437 6.93268C14.1313 6.99381 13.1522 7.3657 12.3653 8.16806C12.1141 8.42532 11.8911 8.70806 11.6246 9.01627C11.6246 8.39985 11.6246 7.82419 11.6246 7.23834C11.5169 7.2307 11.4349 7.22051 11.3529 7.22051C10.0534 7.22051 8.75646 7.2256 7.45697 7.21287C7.19809 7.21032 7.14171 7.29947 7.14683 7.53891C7.1699 8.56797 7.1904 9.59448 7.18784 10.6235C7.18015 13.6521 7.16221 16.6833 7.14939 19.7119C7.14939 19.9717 7.06481 20.3385 7.19809 20.4658C7.34932 20.6059 7.70559 20.5448 7.97215 20.5448C9.17938 20.5524 10.384 20.5473 11.6374 20.5473ZM4.73238 20.5321C4.74007 20.4404 4.74776 20.3843 4.74776 20.3283C4.74776 16.0465 4.74776 11.7672 4.75289 7.48542C4.75289 7.274 4.68625 7.21542 4.47864 7.21542C3.18939 7.22306 1.90271 7.22815 0.613467 7.21287C0.328962 7.21032 0.252068 7.28419 0.252068 7.56947C0.26232 11.7851 0.259758 16.0006 0.259758 20.2162C0.259758 20.3156 0.267447 20.4149 0.275136 20.5295C1.76943 20.5321 3.24065 20.5321 4.73238 20.5321ZM2.48197 5.47569C2.70496 5.45022 2.93308 5.44258 3.15094 5.39418C4.08904 5.18531 4.75032 4.65295 4.96819 3.69776C5.18862 2.73238 4.91693 1.89436 4.10186 1.29577C3.46364 0.827092 2.72547 0.753224 1.95397 0.878035C0.575019 1.10219 -0.273369 2.39106 0.0803396 3.73597C0.359719 4.80833 1.2645 5.45532 2.48197 5.47569Z" fill="white"/>
</svg>
