<?xml version="1.0" encoding="UTF-8"?>
<svg xmlns="http://www.w3.org/2000/svg" width="105" height="42" viewBox="0 0 105 42" fill="none">
  <path d="M53.5209 22.654C53.5209 26.5151 56.7397 29.3393 60.8289 29.3393C64.9179 29.3393 68.1403 26.5151 68.1403 22.654V13.7834H64.1808V22.1968C64.1808 24.2809 62.7277 25.6843 60.8182 25.6843C58.9088 25.6843 57.4557 24.2879 57.4557 22.1968V13.7834H53.4964L53.5209 22.654ZM78.7195 17.3337H83.4435V29.0464H87.4025V17.3337H92.1275V13.7764H78.7186L78.7195 17.3337ZM76.1605 13.7764H72.201V29.046H76.1605V13.7764ZM37.5254 17.3337H42.2499V29.0464H46.2093V17.3337H50.9302V13.7764H37.5254V17.3337ZM16.7533 13.7764H12.7939V29.046H16.7533V13.7764ZM35.4404 20.1545C35.4404 16.2934 32.2217 13.4727 28.129 13.4727C24.0363 13.4727 20.8177 16.2934 20.8177 20.1545V29.046H24.777V20.6327C24.777 18.5485 26.2302 17.1452 28.1396 17.1452C30.0491 17.1452 31.5023 18.5415 31.5023 20.6327V29.046H35.4616L35.4371 20.1545H35.4404Z" fill="black"></path>
</svg>
