<svg width="471" height="354" viewBox="0 0 471 354" fill="none" xmlns="http://www.w3.org/2000/svg">
<path d="M460.061 0.939342C459.475 0.353557 458.525 0.353557 457.939 0.939342L448.393 10.4853C447.808 11.0711 447.808 12.0208 448.393 12.6066C448.979 13.1924 449.929 13.1924 450.515 12.6066L459 4.12132L467.485 12.6066C468.071 13.1924 469.021 13.1924 469.607 12.6066C470.192 12.0208 470.192 11.0711 469.607 10.4853L460.061 0.939342ZM438.162 282.569L437.823 284.03L438.162 282.569ZM205.154 313.071L204.842 314.539L205.154 313.071ZM2.00009 290.871L3.50009 290.871L2.00009 290.871ZM22.5357 274.242L22.2237 275.709L22.5357 274.242ZM3.49999 354L3.50009 290.871L0.500085 290.871L0.499994 354L3.49999 354ZM22.2237 275.709L204.842 314.539L205.466 311.604L22.8476 272.775L22.2237 275.709ZM227.189 296.443L227.189 254.718L224.189 254.718L224.189 296.443L227.189 296.443ZM246.189 239.618L437.823 284.03L438.501 281.108L246.866 236.696L246.189 239.618ZM460.5 266.008L460.5 2.00001L457.5 2.00001L457.5 266.008L460.5 266.008ZM437.823 284.03C449.42 286.718 460.5 277.912 460.5 266.008L457.5 266.008C457.5 275.982 448.217 283.36 438.501 281.108L437.823 284.03ZM227.189 254.718C227.189 244.744 236.473 237.366 246.189 239.618L246.866 236.696C235.269 234.008 224.189 242.814 224.189 254.718L227.189 254.718ZM204.842 314.539C216.351 316.986 227.189 308.209 227.189 296.443L224.189 296.443C224.189 306.301 215.108 313.654 205.466 311.604L204.842 314.539ZM3.50009 290.871C3.5001 281.013 12.5814 273.659 22.2237 275.709L22.8476 272.775C11.339 270.328 0.500102 279.105 0.500085 290.871L3.50009 290.871Z" fill="black"/>
</svg>
