<svg width="3150" height="22" viewBox="0 0 3150 22" fill="none" xmlns="http://www.w3.org/2000/svg">
<g clip-path="url(#clip0_4_1509)">
<rect y="0.00012207" width="1234.26" height="22" rx="11" fill="#E9D4FF"/>
<path d="M731.65 7.39612C764.694 7.39612 791.481 34.1836 791.481 67.2276L791.481 128.056L671.818 128.056L671.819 67.2276C671.819 34.1836 698.606 7.39612 731.65 7.39612V7.39612Z" fill="#EE46D3"/>
<path d="M851.313 7.39612C884.357 7.39612 911.145 34.1836 911.145 67.2276L911.145 128.056L791.482 128.056L791.482 67.2276C791.482 34.1836 818.269 7.39612 851.313 7.39612V7.39612Z" fill="#EE46D3"/>
<rect x="579.352" y="7.39624" width="120.66" height="92.4668" rx="46.2334" transform="rotate(90 579.352 7.39624)" fill="#F2FFA2"/>
<rect x="671.818" y="7.39624" width="120.66" height="92.4668" rx="46.2334" transform="rotate(90 671.818 7.39624)" fill="#F2FFA2"/>
<rect x="486.885" y="7.39624" width="120.66" height="93.8266" rx="46.9133" transform="rotate(90 486.885 7.39624)" fill="#F2FFA2"/>
<rect x="911.145" y="6.02502" width="218.929" height="122.031" fill="#899FFF"/>
<rect x="311.47" y="7.39612" width="81.5884" height="120.66" fill="#899FFF"/>
<rect x="276.114" y="7.39612" width="27.1961" height="120.66" fill="#899FFF"/>
<rect x="240.76" y="7.39612" width="27.1961" height="120.66" fill="#899FFF"/>
<path d="M224.298 5.70788L224.298 128.372L101.634 128.372L224.298 5.70788Z" fill="#EE46D3"/>
<path d="M152.391 5.70788L152.391 128.372L31.1367 128.372L152.391 5.70788Z" fill="#EE46D3"/>
<path d="M5.05321 128.372C-28.041 128.372 -54.8691 101.544 -54.8691 68.4501L-54.8691 7.11778L64.9756 7.11779L64.9756 68.4501C64.9756 101.544 38.1474 128.372 5.05321 128.372V128.372Z" fill="#F2FFA2"/>
</g>
<g clip-path="url(#clip1_4_1509)">
<rect x="1159.22" y="0.00012207" width="1234.26" height="22" rx="11" fill="#E9D4FF"/>
<path d="M1907.44 7.39612C1940.48 7.39612 1967.27 34.1836 1967.27 67.2276L1967.27 128.056L1847.6 128.056L1847.6 67.2276C1847.6 34.1836 1874.39 7.39612 1907.44 7.39612V7.39612Z" fill="#EE46D3"/>
<path d="M2027.1 7.39624C2060.14 7.39624 2086.93 34.1837 2086.93 67.2277L2086.93 128.056L1967.27 128.056L1967.27 67.2277C1967.27 34.1837 1994.05 7.39624 2027.1 7.39624V7.39624Z" fill="#EE46D3"/>
<rect x="1755.14" y="7.39612" width="120.66" height="92.4668" rx="46.2334" transform="rotate(90 1755.14 7.39612)" fill="#F2FFA2"/>
<rect x="1847.6" y="7.39624" width="120.66" height="92.4668" rx="46.2334" transform="rotate(90 1847.6 7.39624)" fill="#F2FFA2"/>
<rect x="1662.67" y="7.39624" width="120.66" height="93.8266" rx="46.9133" transform="rotate(90 1662.67 7.39624)" fill="#F2FFA2"/>
<rect x="2086.93" y="6.02502" width="218.929" height="122.031" fill="#899FFF"/>
<rect x="1487.25" y="7.39612" width="81.5884" height="120.66" fill="#899FFF"/>
<rect x="1451.9" y="7.39612" width="27.1961" height="120.66" fill="#899FFF"/>
<rect x="1416.54" y="7.39612" width="27.1961" height="120.66" fill="#899FFF"/>
<path d="M1400.08 5.70788L1400.08 128.372L1277.42 128.372L1400.08 5.70788Z" fill="#EE46D3"/>
<path d="M1328.18 5.70788L1328.18 128.372L1206.92 128.372L1328.18 5.70788Z" fill="#EE46D3"/>
<path d="M1180.84 128.372C1147.74 128.372 1120.92 101.544 1120.92 68.4501L1120.92 7.11778L1240.76 7.11779L1240.76 68.4501C1240.76 101.544 1213.93 128.372 1180.84 128.372V128.372Z" fill="#F2FFA2"/>
</g>
<g clip-path="url(#clip2_4_1509)">
<rect x="756.516" y="0.00012207" width="1234.26" height="22" rx="11" fill="#E9D4FF"/>
<path d="M1498.97 7.39612C1532.02 7.39612 1558.8 34.1836 1558.8 67.2276L1558.8 128.056L1439.14 128.056L1439.14 67.2276C1439.14 34.1836 1465.93 7.39612 1498.97 7.39612V7.39612Z" fill="#EE46D3"/>
<path d="M1618.64 7.39612C1651.68 7.39612 1678.47 34.1836 1678.47 67.2276L1678.47 128.056L1558.8 128.056L1558.8 67.2276C1558.8 34.1836 1585.59 7.39612 1618.64 7.39612V7.39612Z" fill="#EE46D3"/>
<rect x="1346.67" y="7.39624" width="120.66" height="92.4668" rx="46.2334" transform="rotate(90 1346.67 7.39624)" fill="#F2FFA2"/>
<rect x="1439.14" y="7.39624" width="120.66" height="92.4668" rx="46.2334" transform="rotate(90 1439.14 7.39624)" fill="#F2FFA2"/>
<rect x="1254.21" y="7.39624" width="120.66" height="93.8266" rx="46.9133" transform="rotate(90 1254.21 7.39624)" fill="#F2FFA2"/>
<rect x="1678.47" y="6.02502" width="218.929" height="122.031" fill="#899FFF"/>
<rect x="1078.79" y="7.39612" width="81.5884" height="120.66" fill="#899FFF"/>
<rect x="1043.44" y="7.39612" width="27.1961" height="120.66" fill="#899FFF"/>
<rect x="1008.08" y="7.39612" width="27.1961" height="120.66" fill="#899FFF"/>
<path d="M991.621 5.70788L991.621 128.372L868.956 128.372L991.621 5.70788Z" fill="#EE46D3"/>
<path d="M919.714 5.70788L919.714 128.372L798.459 128.372L919.714 5.70788Z" fill="#EE46D3"/>
<path d="M772.375 98.3724C739.281 98.3724 712.453 71.5443 712.453 38.4501L712.453 -22.8822L832.298 -22.8822L832.298 38.4501C832.298 71.5443 805.47 98.3724 772.375 98.3724V98.3724Z" fill="#F2FFA2"/>
</g>
<g clip-path="url(#clip3_4_1509)">
<rect x="1915.74" y="0.00012207" width="1234.26" height="22" rx="11" fill="#E9D4FF"/>
<path d="M2674.76 7.39612C2707.8 7.39612 2734.59 34.1836 2734.59 67.2276L2734.59 128.056L2614.93 128.056L2614.93 67.2276C2614.93 34.1836 2641.71 7.39612 2674.76 7.39612V7.39612Z" fill="#EE46D3"/>
<path d="M2794.42 7.39612C2827.46 7.39612 2854.25 34.1836 2854.25 67.2276L2854.25 128.056L2734.59 128.056L2734.59 67.2276C2734.59 34.1836 2761.38 7.39612 2794.42 7.39612V7.39612Z" fill="#EE46D3"/>
<rect x="2522.46" y="7.39624" width="120.66" height="92.4668" rx="46.2334" transform="rotate(90 2522.46 7.39624)" fill="#F2FFA2"/>
<rect x="2614.93" y="7.39624" width="120.66" height="92.4668" rx="46.2334" transform="rotate(90 2614.93 7.39624)" fill="#F2FFA2"/>
<rect x="2429.99" y="7.39624" width="120.66" height="93.8266" rx="46.9133" transform="rotate(90 2429.99 7.39624)" fill="#F2FFA2"/>
<rect x="2854.25" y="6.02502" width="218.929" height="122.031" fill="#899FFF"/>
<rect x="2254.58" y="7.39612" width="81.5884" height="120.66" fill="#899FFF"/>
<rect x="2219.22" y="7.39612" width="27.1961" height="120.66" fill="#899FFF"/>
<rect x="2183.87" y="7.39612" width="27.1961" height="120.66" fill="#899FFF"/>
<path d="M2167.41 5.70788L2167.41 128.372L2044.74 128.372L2167.41 5.70788Z" fill="#EE46D3"/>
<path d="M2095.5 5.70788L2095.5 128.372L1974.24 128.372L2095.5 5.70788Z" fill="#EE46D3"/>
<path d="M1948.16 128.372C1915.07 128.372 1888.24 101.544 1888.24 68.4501L1888.24 7.11778L2008.08 7.11779L2008.08 68.4501C2008.08 101.544 1981.25 128.372 1948.16 128.372V128.372Z" fill="#F2FFA2"/>
</g>
<defs>
<clipPath id="clip0_4_1509">
<rect y="0.00012207" width="1234.26" height="22" rx="11" fill="white"/>
</clipPath>
<clipPath id="clip1_4_1509">
<rect x="1159.22" y="0.00012207" width="1234.26" height="22" rx="11" fill="white"/>
</clipPath>
<clipPath id="clip2_4_1509">
<rect x="756.516" y="0.00012207" width="1234.26" height="22" rx="11" fill="white"/>
</clipPath>
<clipPath id="clip3_4_1509">
<rect x="1915.74" y="0.00012207" width="1234.26" height="22" rx="11" fill="white"/>
</clipPath>
</defs>
</svg>
