<?xml version="1.0" encoding="UTF-8"?>
<svg xmlns="http://www.w3.org/2000/svg" width="92" height="42" viewBox="0 0 92 42" fill="none">
  <g clip-path="url(#clip0_123_86)">
    <mask id="mask0_123_86" style="mask-type:luminance" maskUnits="userSpaceOnUse" x="0" y="-8" width="92" height="57">
      <path d="M91.2 -7.00195H0V48.198H91.2V-7.00195Z" fill="white"></path>
    </mask>
    <g mask="url(#mask0_123_86)">
      <mask id="mask1_123_86" style="mask-type:luminance" maskUnits="userSpaceOnUse" x="0" y="11" width="90" height="19">
        <path d="M89.7562 11.7617H0.242188V29.0244H89.7562V11.7617Z" fill="white"></path>
      </mask>
      <g mask="url(#mask1_123_86)">
        <path d="M0.242188 11.7617C5.44882 11.763 10.6542 11.7642 15.8608 11.7668C16.4097 11.7668 16.9598 11.7668 17.5538 11.7668V29.0244H0.242188V11.7617ZM11.4111 18.8868C11.3434 18.8304 11.3045 18.8029 11.2707 18.7716C10.3058 17.8818 8.77828 18.0673 8.05402 19.16C7.46128 20.056 7.48132 21.4256 8.1004 22.3053C8.84848 23.3679 10.3284 23.5183 11.2719 22.6274C11.3083 22.5923 11.3572 22.571 11.4386 22.5183V23.1098H12.6617V18.3104H11.4411C11.4311 18.5009 11.4224 18.6738 11.4123 18.8868H11.4111ZM3.96515 23.1073C3.96515 22.977 3.96515 22.8692 3.96515 22.7614C3.96765 21.9419 3.95387 21.1236 3.97768 20.3054C3.99648 19.6675 4.41877 19.2753 5.02903 19.2716C5.63428 19.2678 6.0202 19.6337 6.07912 20.2703C6.0904 20.3893 6.09292 20.5096 6.09292 20.6286C6.09418 21.378 6.08914 22.1274 6.09916 22.8755C6.09916 22.9594 6.17938 23.1123 6.22822 23.1148C6.59416 23.1348 6.96004 23.1261 7.32718 23.1261C7.32718 22.0146 7.37104 20.9457 7.31344 19.8818C7.2658 19.0122 6.68314 18.4056 5.88114 18.2502C5.17439 18.1124 4.5328 18.2502 3.98144 18.8154C3.9664 18.6111 3.95638 18.4595 3.9451 18.3017H2.73084V23.1086H3.9639L3.96515 23.1073ZM15.0726 16.3982C13.8446 16.2767 12.9298 16.7841 12.9699 18.2052C13.0138 19.7315 12.98 21.2589 12.98 22.7865C12.98 22.8918 12.9887 22.997 12.9937 23.1073H14.2481V19.3079H15.0563V18.2866H14.2055C14.2544 18.0473 14.2305 17.7816 14.3508 17.6625C14.525 17.4921 14.8044 17.4308 15.0714 17.3067V16.3957L15.0726 16.3982Z" fill="black"></path>
        <path d="M75.1908 16.15C74.9076 16.4809 74.6484 16.7841 74.3778 17.1012C74.3436 17.056 74.3178 17.0285 74.301 16.9959C73.8276 16.0598 72.8514 15.6501 71.8812 15.9796C70.9728 16.2891 70.4088 17.2728 70.5882 18.254C70.7364 19.0635 71.202 19.6224 71.997 19.8429C72.8088 20.0685 73.5204 19.8517 74.0796 19.2039C75.0858 18.0385 76.0746 16.8593 77.0982 15.7102C78.0282 14.6651 79.6872 14.427 80.7936 15.1538C81.0306 15.3092 81.2298 15.521 81.4788 15.734V14.9546H82.677V20.8705H81.495V20.0033C80.6232 21.0785 79.5594 21.2602 78.3876 20.9306C77.1834 20.5923 76.5654 19.7051 76.2972 18.4883C76.2144 18.5647 76.1484 18.6149 76.0956 18.6763C75.7272 19.0974 75.3576 19.5171 74.994 19.9432C74.0694 21.0271 72.5496 21.3667 71.2584 20.7765C70.0032 20.2026 69.2412 18.8091 69.4602 17.4909C69.7074 16.0047 70.776 14.9583 72.2334 14.8054C73.464 14.6764 74.4318 15.1526 75.1932 16.1475L75.1908 16.15ZM79.4802 19.9281C80.6094 19.947 81.489 19.061 81.504 17.8906C81.5178 16.8129 80.643 15.9107 79.5666 15.8932C78.4086 15.8743 77.499 16.7227 77.4852 17.8342C77.469 19.0159 78.3198 19.9081 79.4802 19.9281Z" fill="black"></path>
        <path d="M47.5693 14.9524H48.6909V15.6103C49.236 14.9875 49.8588 14.7144 50.6144 14.7607C51.3876 14.8071 51.9451 15.1905 52.3462 15.8847C52.6344 15.4499 52.9652 15.1153 53.4276 14.9299C54.6619 14.4337 56.4864 14.9449 56.5603 16.8471C56.6104 18.1428 56.5942 19.4423 56.6055 20.7393C56.6055 20.7768 56.5917 20.8144 56.5804 20.8721H55.3774V20.5413C55.3774 19.5526 55.3812 18.5638 55.3737 17.5752C55.3724 17.3471 55.3536 17.1153 55.3035 16.8935C55.1706 16.3071 54.7446 15.9273 54.217 15.8935C53.509 15.8484 53.0128 16.1379 52.8048 16.7556C52.7233 16.9975 52.6858 17.2632 52.682 17.5176C52.6682 18.5062 52.677 19.4949 52.677 20.4836V20.8658H51.474C51.469 20.7831 51.459 20.6967 51.459 20.6102C51.4615 19.5513 51.4627 18.4924 51.469 17.4348C51.4728 16.6704 51.1194 16.1116 50.5129 15.9399C49.9076 15.7682 49.2748 16.0075 49.0167 16.5739C48.8713 16.891 48.7748 17.2581 48.7648 17.6052C48.7335 18.6817 48.7535 19.7606 48.7535 20.8645H47.5693V14.9524Z" fill="black"></path>
        <path d="M46.8006 20.8787H45.6214V20.0165C44.9848 20.8122 44.2254 21.1243 43.3044 21.0729C42.4887 21.0278 41.7869 20.7483 41.2243 20.1444C40.1028 18.9426 40.114 16.8575 41.2669 15.6645C41.8583 15.053 42.5977 14.7723 43.4497 14.7585C44.2455 14.746 44.5825 14.8876 45.6139 15.7523V14.954H46.7993V20.8799L46.8006 20.8787ZM43.6177 19.9301C44.7367 19.9476 45.6126 19.0704 45.6301 17.9151C45.6465 16.8224 44.7906 15.9164 43.7217 15.8951C42.5375 15.8713 41.6328 16.7084 41.6202 17.8399C41.6077 19.0278 42.4523 19.9125 43.6189 19.9313L43.6177 19.9301Z" fill="black"></path>
        <path d="M63.2356 19.0294C62.7604 20.5343 61.0096 21.4003 59.4347 20.9516C57.7856 20.4817 56.8182 18.7938 57.2405 17.1234C57.6616 15.4593 59.3657 14.4455 61.0822 14.8352C62.6086 15.1823 63.7042 16.7989 63.4006 18.3038H58.3996C58.4184 18.8301 58.6264 19.2199 58.9835 19.5331C59.887 20.3263 61.2064 20.1647 61.9072 19.1897C61.957 19.1196 62.0524 19.0394 62.1298 19.0369C62.4874 19.0206 62.8468 19.0294 63.2338 19.0294H63.2356ZM62.194 17.3364C61.9948 16.2901 61.0822 15.6723 59.9973 15.8139C59.1502 15.9254 58.4096 16.6535 58.4597 17.3364H62.194Z" fill="black"></path>
        <path d="M32.1841 18.3703H27.1792C27.3321 18.7137 27.4135 19.0282 27.5902 19.2738C28.3446 20.3189 29.956 20.2914 30.7079 19.2475C30.7706 19.1611 30.9034 19.0858 31.0087 19.0783C31.337 19.057 31.6678 19.0708 32.0011 19.0708C31.7781 20.3139 30.0501 21.3013 28.5977 21.0282C26.8647 20.7024 25.7707 19.1084 26.0878 17.3679C26.3898 15.7063 28.0513 14.5822 29.738 14.8993C31.3708 15.2063 32.4873 16.7639 32.1828 18.3716L32.1841 18.3703ZM27.302 17.3766H30.9974C30.8169 16.3967 30.01 15.8228 28.9411 15.8942C28.0977 15.9506 27.3471 16.6248 27.302 17.3766Z" fill="black"></path>
        <path d="M31.876 15.0157C32.2682 15.0157 32.5965 15.0006 32.9223 15.0269C33.0013 15.0332 33.1003 15.161 33.1391 15.2537C33.5376 16.2211 33.9261 17.1935 34.3183 18.1634C34.3408 18.2186 34.3672 18.2712 34.4135 18.3752C35.0563 17.181 35.6817 16.0219 36.3408 14.7988C36.9724 16.0256 37.5726 17.1898 38.2017 18.4103C38.4748 17.7223 38.7242 17.0958 38.9723 16.468C39.1377 16.0507 39.3094 15.6371 39.466 15.2161C39.5236 15.0595 39.6101 15.0031 39.7768 15.0106C40.0738 15.0232 40.372 15.0144 40.7241 15.0144C39.9447 16.9955 39.1828 18.9341 38.3896 20.9528C37.6828 19.5606 37.0187 18.2499 36.3295 16.8915C35.629 18.2486 34.9511 19.5631 34.2306 20.9578C33.4323 18.9428 32.668 17.0118 31.8772 15.0157H31.876Z" fill="black"></path>
        <path d="M88.9191 20.8746H87.7383C87.7383 20.733 87.7383 20.6064 87.7383 20.4811C87.7323 19.4435 87.7647 18.4035 87.7083 17.3684C87.6531 16.3421 87.0993 15.8547 86.1681 15.8922C85.2111 15.9311 84.6483 16.525 84.6393 17.5263C84.6309 18.5638 84.6381 19.6027 84.6369 20.6403C84.6369 20.7079 84.6297 20.7768 84.6243 20.8671H83.4453V14.9524H84.5721V15.609C84.7911 15.4236 84.9615 15.2431 85.1649 15.1128C86.6871 14.1379 88.7019 14.9775 88.8903 16.7607C89.0319 18.109 88.9179 19.4849 88.9179 20.8746H88.9191Z" fill="black"></path>
        <path d="M25.5325 20.9028H24.4084C24.3996 20.7825 24.3871 20.6685 24.3846 20.5544C24.3721 19.4868 24.3821 18.4179 24.342 17.3502C24.3207 16.7688 24.0851 16.2626 23.4748 16.0746C22.837 15.8791 22.2217 15.9355 21.7205 16.4355C21.4524 16.7024 21.3433 17.0495 21.3383 17.4167C21.3246 18.4455 21.327 19.4742 21.3233 20.5031C21.3233 20.6221 21.3233 20.7411 21.3233 20.889H20.1592V15.032H21.2431C21.2556 15.2375 21.2682 15.4468 21.2844 15.7125C21.8258 15.022 22.5225 14.8253 23.3095 14.8591C24.5688 14.913 25.4146 15.5834 25.5099 16.834C25.6114 18.1723 25.5325 19.5231 25.5325 20.9028Z" fill="black"></path>
        <path d="M65.1433 20.8764H63.9805V14.9618H65.0941V15.5457C65.3773 15.3315 65.6131 15.0947 65.8963 14.9555C66.1693 14.8215 66.4927 14.7876 66.8275 14.7012V15.9305C66.7921 15.9443 66.7747 15.9568 66.7573 15.9568C65.5705 15.9956 65.1769 16.6447 65.1643 17.6961C65.1535 18.6835 65.1619 19.671 65.1607 20.6584C65.1607 20.7261 65.1493 20.7938 65.1433 20.8777V20.8764Z" fill="black"></path>
        <path d="M34.2839 26.5416C33.8203 26.6444 33.5321 26.5103 33.289 26.098C32.8328 25.3248 32.3053 24.593 31.8078 23.8449C31.7552 23.7672 31.6976 23.6921 31.5797 23.6319C31.5797 24.1169 31.5797 24.6018 31.5797 25.0868C31.5797 25.5717 31.5797 26.0429 31.5797 26.5416H30.9219V22.4866C31.5008 22.3676 31.5547 22.3913 31.8567 22.8512C32.4168 23.6996 32.9807 24.5454 33.591 25.4639V22.4741H34.2839V26.5428V26.5416Z" fill="black"></path>
        <path d="M55.5987 24.8429H54.0724V24.3228H56.2879C56.4859 25.3103 55.8067 26.309 54.7829 26.5471C53.6589 26.809 52.5424 26.1574 52.2566 25.071C51.9584 23.9406 52.5499 22.8304 53.6326 22.492C54.6964 22.1587 55.8505 22.6562 56.1914 23.6286C55.9458 23.6286 55.7114 23.6361 55.4784 23.6236C55.4233 23.6211 55.3568 23.5647 55.3192 23.5146C54.9709 23.0434 54.4872 22.9419 53.9546 23.0572C53.407 23.1763 53.0737 23.5359 52.9371 24.081C52.6765 25.1248 53.3218 25.9932 54.3581 25.9845C55.0072 25.9794 55.4696 25.5735 55.5987 24.8429Z" fill="black"></path>
        <path d="M47.0245 26.5462H46.3604V22.4773C46.7676 22.3871 47.0546 22.4397 47.2952 22.837C47.8202 23.7066 48.4092 24.5374 49.0357 25.3732V22.4623H49.6923C49.6923 23.8194 49.6923 25.1703 49.6923 26.5224C49.1334 26.6389 49.0833 26.6214 48.7876 26.1753C48.3014 25.4434 47.8164 24.7104 47.3315 23.9773C47.25 23.8545 47.1674 23.7317 47.0258 23.6214V26.5462H47.0245Z" fill="black"></path>
        <path d="M36.9873 26.5061V22.3984C37.7091 22.4535 38.4284 22.4285 39.1088 22.5776C40.0737 22.7907 40.5587 23.6114 40.5085 24.7041C40.4659 25.6264 39.8531 26.3682 38.9121 26.4898C38.2868 26.5713 37.6414 26.5048 36.9873 26.5048V26.5061ZM37.6502 23.0024V23.3733C37.6502 23.9911 37.6502 24.6102 37.6502 25.2279C37.6502 25.7835 37.9292 26.0428 38.4873 26.0061C39.1627 25.9622 39.6427 25.6076 39.7541 24.9848C39.8131 24.6615 39.7955 24.3069 39.7328 23.9823C39.6338 23.4786 39.2867 23.1515 38.7805 23.0638C38.4234 23.0011 38.0512 23.0212 37.649 23.0024H37.6502Z" fill="black"></path>
        <path d="M27.5467 22.459H28.2146C28.2221 22.5555 28.2347 22.6419 28.2347 22.7284C28.2359 23.5066 28.2385 24.2848 28.2347 25.0629C28.2296 26.0103 27.5868 26.6143 26.5919 26.6105C25.6307 26.6068 25.0142 26.0103 25.0105 25.0742C25.0067 24.2961 25.0105 23.5179 25.0105 22.7397C25.0105 22.652 25.0192 22.5655 25.0255 22.4628H25.6646C25.6721 22.5693 25.6871 22.6745 25.6871 22.7785C25.6896 23.5668 25.6821 24.3549 25.6909 25.1431C25.6959 25.6268 25.9966 25.9539 26.4678 26.0166C26.944 26.0805 27.3738 25.8461 27.5003 25.4376C27.538 25.3173 27.5442 25.1832 27.5442 25.0554C27.548 24.3073 27.5467 23.5592 27.5467 22.8111C27.5467 22.7034 27.5467 22.5969 27.5467 22.4602V22.459Z" fill="black"></path>
        <path d="M68.7902 20.8725H67.625V16.8613H68.7902V20.8725Z" fill="black"></path>
        <path d="M20.1689 22.4602H22.5787V23.0053H20.872V24.202H22.1777V24.7547H20.8607V26.5441H20.1689V22.459V22.4602Z" fill="black"></path>
        <path d="M43.6218 26.5565H42.999V22.4727H43.6218V26.5565Z" fill="black"></path>
        <path d="M68.7853 16.0442H67.6201V14.7949H68.7853V16.0442Z" fill="black"></path>
        <path d="M89.3392 14.2695C89.4142 14.0666 89.4556 13.9337 89.5156 13.8097C89.536 13.7696 89.605 13.7382 89.6548 13.7345C89.686 13.732 89.7503 13.7859 89.7515 13.8159C89.7605 14.0453 89.7562 14.2746 89.7562 14.5039C89.7202 14.5077 89.6848 14.5127 89.6488 14.5164C89.626 14.4062 89.602 14.2959 89.5708 14.143C89.4934 14.2871 89.4305 14.4049 89.3315 14.5916C89.2439 14.3924 89.185 14.2558 89.125 14.1204C89.107 14.123 89.0896 14.1242 89.0722 14.1267V14.5365C88.9342 14.4249 88.8532 13.826 88.9516 13.7696C89.0008 13.742 89.1389 13.7896 89.1761 13.8435C89.2451 13.945 89.2703 14.0766 89.3417 14.2708L89.3392 14.2695Z" fill="black"></path>
        <path d="M88.2012 13.75H88.8054C88.3638 13.8791 88.7262 14.3189 88.5042 14.5407C88.284 14.3177 88.6374 13.8941 88.2024 13.75H88.2012Z" fill="black"></path>
        <path d="M11.41 18.8874C11.4212 18.6744 11.4301 18.5014 11.4388 18.311H12.6593V23.1103H11.4363V22.5189C11.3561 22.5715 11.3072 22.5928 11.2696 22.6279C10.3273 23.5189 8.84743 23.3685 8.09803 22.3059C7.47901 21.4262 7.45897 20.0565 8.05171 19.1606C8.77597 18.0666 10.3035 17.8824 11.2684 18.7721C11.3022 18.8034 11.3411 18.8323 11.4088 18.8874H11.41ZM11.425 20.6869C11.4213 19.9463 10.9589 19.3786 10.311 19.3159C9.59677 19.2471 9.05419 19.6781 8.91883 20.4199C8.78227 21.1693 9.21583 21.9187 9.87247 22.0678C10.7283 22.262 11.4313 21.6379 11.425 20.6869Z" fill="white"></path>
        <path d="M3.96645 23.1108H2.7334V18.3039H3.94765C3.95893 18.4617 3.97021 18.6134 3.984 18.8177C4.53411 18.2538 5.17695 18.1146 5.88369 18.2525C6.68568 18.4091 7.26834 19.0144 7.31598 19.884C7.37364 20.9479 7.32978 22.0168 7.32978 23.1283C6.96264 23.1283 6.59544 23.1383 6.23082 23.117C6.18192 23.1145 6.10296 22.9616 6.10176 22.8777C6.09168 22.1283 6.09672 21.3803 6.09546 20.6309C6.09546 20.5118 6.09294 20.3915 6.08166 20.2725C6.02406 19.6372 5.63683 19.27 5.03158 19.2738C4.42132 19.2776 3.99903 19.6698 3.98023 20.3076C3.95643 21.1259 3.97021 21.9454 3.96771 22.7637C3.96771 22.8714 3.96771 22.9792 3.96771 23.1095L3.96645 23.1108Z" fill="white"></path>
        <path d="M15.0715 16.398V17.309C14.8047 17.4318 14.5252 17.4944 14.351 17.6648C14.2295 17.7827 14.2545 18.0495 14.2057 18.2889H15.0565V19.3101H14.2483V23.1096H12.9939C12.9889 22.9993 12.9801 22.8941 12.9801 22.7888C12.9801 21.2612 13.014 19.7337 12.9701 18.2075C12.9288 16.7852 13.8435 16.2777 15.0728 16.4005L15.0715 16.398Z" fill="white"></path>
        <path d="M11.4239 20.6867C11.429 21.6378 10.7272 22.2618 9.87138 22.0676C9.21474 21.9185 8.78118 21.1691 8.91774 20.4198C9.0531 19.6779 9.59694 19.2469 10.31 19.3158C10.9578 19.3785 11.4202 19.9461 11.4239 20.6867Z" fill="black"></path>
      </g>
    </g>
  </g>
  <defs>
    <clipPath id="clip0_123_86">
      <rect width="91.2" height="55.2" fill="white" transform="translate(0 -7)"></rect>
    </clipPath>
  </defs>
</svg>
