<svg width="25" height="22" viewBox="0 0 25 22" fill="none" xmlns="http://www.w3.org/2000/svg">
<path d="M22.7811 12V1.4697C22.7811 0.934148 22.3469 0.5 21.8114 0.5H6.7811C6.24555 0.5 5.8114 0.934148 5.8114 1.4697V5" stroke="white"/>
<path d="M22.5454 6.21729H11.6364" stroke="white"/>
<path d="M17 15L17 1" stroke="white"/>
<path d="M11 15L11 1" stroke="white"/>
<path d="M22.5454 11.7656H11.6364" stroke="white"/>
<path d="M4.60608 15.7574V19.6362C4.60608 20.1718 5.04023 20.6059 5.57578 20.6059H23.0303C23.5659 20.6059 24 20.1718 24 19.6362V12.3635C24 11.8279 23.5659 11.3938 23.0303 11.3938H22.7879" stroke="white"/>
<path d="M14.0605 16L23.7575 11.6364" stroke="white"/>
<path d="M23.7574 20.3635L11 14.5002" stroke="white"/>
<mask id="path-9-inside-1" fill="white">
<rect y="4.84839" width="11.6364" height="11.1515" rx="0.969696"/>
</mask>
<rect y="4.84839" width="11.6364" height="11.1515" rx="0.969696" stroke="white" stroke-width="2" mask="url(#path-9-inside-1)"/>
<path d="M8.74663 10.3243C8.72685 11.4798 8.39871 12.4008 7.50038 13.0355C6.09413 14.0299 3.39856 13.6546 2.96976 11.0585C2.80627 10.0694 2.95871 9.13619 3.6022 8.34666C4.39929 7.36979 5.46925 7.13648 6.64278 7.43146C7.79012 7.71946 8.41732 8.54099 8.66692 9.66797C8.72103 9.91175 8.72801 10.166 8.74663 10.3243ZM7.4806 10.4604C7.49049 9.98564 7.36365 9.47539 7.14954 9.12572C6.55143 8.14943 5.22664 8.1023 4.57267 9.03437C4.04496 9.78608 4.04962 11.0888 4.58315 11.837C5.18533 12.6812 6.38387 12.7149 7.0262 11.9016C7.35842 11.4803 7.4678 10.984 7.4806 10.4604Z" fill="white"/>
</svg>
