<svg width="92" height="42" viewBox="0 0 92 42" fill="none" xmlns="http://www.w3.org/2000/svg">
<path d="M8.52523 13.1385C9.082 12.3078 9.63678 11.4751 10.1989 10.6471C10.3066 10.4887 10.276 10.3436 10.2062 10.1932C9.97204 9.68997 9.82104 9.16348 9.70929 8.61901C9.58822 8.02994 9.59288 7.44088 9.60884 6.84849C9.62281 6.34529 9.75718 5.87137 9.95342 5.40678C10.157 4.92621 10.4523 4.52485 10.8574 4.20136C10.896 4.17074 10.9386 4.14412 10.9805 4.1175C11.1042 4.03962 11.1927 4.05826 11.2353 4.19471C11.367 4.62203 11.522 5.04535 11.6051 5.48266C11.7322 6.14893 11.7681 6.83118 11.6171 7.49746C11.508 7.97936 11.3291 8.44595 11.1754 8.9172C11.1348 9.04233 11.0683 9.15948 11.0244 9.28395C11.0064 9.33454 11.0151 9.39444 11.0111 9.45035C11.0264 9.45701 11.0417 9.46433 11.0577 9.47099C11.1528 9.36382 11.2499 9.25799 11.3417 9.14817C11.8439 8.54512 12.3442 7.94009 12.847 7.33771C12.9395 7.22722 12.9681 7.12671 12.9156 6.97762C12.5949 6.07372 12.573 5.13521 12.6062 4.18872C12.6242 3.67287 12.7579 3.18498 12.9029 2.69709C13.0799 2.1007 13.6972 1.25738 14.2413 0.890625C14.2939 0.985807 14.3664 1.07367 14.395 1.17417C14.6058 1.92232 14.6803 2.68644 14.6258 3.46054C14.5759 4.17673 14.4183 4.8703 14.1322 5.53058C14.0797 5.65172 14.0085 5.76488 13.9533 5.88469C13.9273 5.9406 13.9187 6.00383 13.8927 6.09635C13.9539 6.07239 13.9832 6.06973 13.9992 6.05309C14.3697 5.67302 14.7548 5.30561 15.1027 4.90624C15.3595 4.61204 15.5597 4.26992 15.7992 3.96041C16.2782 3.34006 16.8243 2.78362 17.4622 2.32568C17.8687 2.03414 18.321 1.84111 18.8139 1.7253C19.4246 1.58153 20.0232 1.6188 20.6219 1.76124C20.7297 1.7872 20.8275 1.85509 20.9293 1.90302C20.7962 2.30172 20.5341 2.58327 20.3046 2.88545C19.8397 3.49848 19.2855 4.01699 18.6569 4.45829C18.2159 4.7678 17.7283 4.97147 17.1955 5.03936C16.5542 5.12057 15.9083 5.16982 15.2664 5.24836C15.144 5.26301 15.0003 5.31825 14.9165 5.40345C14.383 5.94858 13.8635 6.50703 13.3413 7.06281C13.3187 7.08678 13.3087 7.12338 13.2927 7.15467C13.304 7.16998 13.3153 7.18462 13.326 7.19993C13.4311 7.14468 13.5389 7.09476 13.6406 7.03419C14.6557 6.43714 15.756 6.22282 16.9221 6.28272C17.4649 6.31068 17.9811 6.43714 18.472 6.66811C18.5964 6.72668 18.6263 6.82386 18.5212 6.91039C18.2066 7.16998 17.8946 7.43622 17.558 7.66585C17.1063 7.97337 16.5908 8.1604 16.0606 8.2649C15.4367 8.38804 14.7988 8.45793 14.1602 8.37539C13.7777 8.32547 13.3985 8.24693 13.0193 8.17305C12.9069 8.15108 12.7998 8.1005 12.6894 8.06389C12.5743 8.02595 12.4832 8.06256 12.412 8.15641C11.8765 8.85863 11.3404 9.56018 10.8055 10.2624C10.8009 10.2684 10.8069 10.2824 10.8109 10.3323C10.9865 10.2265 11.1468 10.1279 11.3091 10.0328C11.7781 9.75786 12.273 9.55485 12.8058 9.42772C13.306 9.30858 13.8083 9.25333 14.3185 9.26465C14.8599 9.27663 15.3602 9.44103 15.8291 9.70861C15.9283 9.76518 15.895 9.83507 15.8458 9.88499C15.6522 10.0807 15.4653 10.2877 15.2484 10.4554C14.848 10.7649 14.393 10.9666 13.9054 11.117C13.1484 11.35 12.3794 11.374 11.6045 11.3127C11.2093 11.2814 10.8215 11.1783 10.457 11.0079C10.3705 10.9679 10.294 10.9566 10.2301 11.0605C9.85297 11.6761 9.46516 12.2858 9.09265 12.9042C8.93366 13.1678 8.79996 13.4473 8.66093 13.7229C8.62967 13.7855 8.62368 13.8607 8.60638 13.9299C8.62235 13.9386 8.63765 13.9472 8.65361 13.9559C8.79264 13.8287 8.93167 13.7009 9.0707 13.5745C9.51439 13.1698 9.99799 12.8217 10.5548 12.5934C10.9718 12.4223 11.3923 12.2379 11.8293 12.1421C12.4313 12.0103 13.0486 11.989 13.6499 12.1947C13.7803 12.2393 13.91 12.2865 14.0418 12.3264C14.1788 12.3684 14.1934 12.4516 14.1096 12.5488C13.7637 12.9501 13.4291 13.3628 13.0599 13.7415C12.6994 14.1123 12.2623 14.3972 11.7794 14.5789C11.4049 14.7193 11.0078 14.8038 10.6153 14.8884C10.1696 14.9836 9.71528 15.0215 9.26094 14.9596C8.96027 14.919 8.66093 14.8624 8.36359 14.8005C8.23055 14.7732 8.15937 14.8291 8.11813 14.9376C7.88996 15.5353 7.66512 16.1337 7.43829 16.7321C7.37975 16.8865 7.31855 17.0403 7.26268 17.196C7.24937 17.234 7.25403 17.2786 7.24671 17.3631C7.54738 17.0609 7.80615 16.776 8.09085 16.5204C8.5831 16.0785 9.1432 15.743 9.75519 15.4848C10.3665 15.2272 10.9918 15.0641 11.6563 15.1247C11.957 15.152 12.255 15.2198 12.5524 15.2811C12.6861 15.3084 12.7047 15.4375 12.6042 15.5899C12.4912 15.7603 12.3734 15.9267 12.2563 16.0938C11.9304 16.5577 11.5519 16.9731 11.0976 17.3145C10.6286 17.6673 10.1071 17.9056 9.53767 18.052C9.02014 18.1858 8.49862 18.2823 7.9638 18.2677C7.69373 18.2603 7.42366 18.2184 7.15558 18.1798C7.02121 18.1605 6.94271 18.2024 6.9028 18.3282C6.84626 18.5073 6.77641 18.683 6.73318 18.8647C6.62807 19.3054 6.52696 19.7473 6.44049 20.1919C6.36 20.6046 6.2968 21.0206 6.2356 21.436C6.21764 21.5591 6.23294 21.6876 6.23294 21.8134C6.24957 21.8174 6.2662 21.8214 6.28283 21.8247C6.46709 21.5524 6.64869 21.2782 6.83628 21.008C7.30658 20.3311 7.7802 19.6628 8.41281 19.1157C9.33545 18.3176 10.3851 18.1292 11.5459 18.3762C11.7368 18.4168 11.7428 18.4307 11.6503 18.6071C11.2991 19.2794 10.904 19.9224 10.3805 20.4782C9.88357 21.006 9.31748 21.4306 8.64763 21.7268C7.93852 22.0403 7.19616 22.1422 6.4345 22.1681C6.207 22.1761 6.18704 22.1854 6.17773 22.4118C6.14181 23.3429 6.14846 24.2735 6.28483 25.198C6.2968 25.2805 6.33206 25.3597 6.37064 25.4882C6.53428 25.21 6.67397 24.9823 6.80435 24.7494C7.117 24.1883 7.48153 23.6644 7.88863 23.1672C8.21724 22.7652 8.58111 22.4038 9.03078 22.1455C9.25828 22.015 9.50906 21.9086 9.76251 21.844C10.2148 21.7282 10.6812 21.7062 11.1488 21.7315C11.2865 21.7388 11.3344 21.8021 11.2805 21.9245C11.1381 22.2467 11.0071 22.5762 10.8375 22.8843C10.5335 23.4368 10.1756 23.954 9.74055 24.4152C9.33478 24.8459 8.87513 25.21 8.33897 25.4556C7.80814 25.6985 7.24139 25.831 6.65468 25.8576C6.39592 25.8689 6.37929 25.8769 6.43716 26.1258C6.56954 26.7016 6.70524 27.2767 6.8569 27.8478C6.91611 28.0714 7.01988 28.2837 7.10369 28.5014C7.12365 28.5007 7.14294 28.5001 7.1629 28.4994C7.26334 28.3323 7.37044 28.1686 7.4629 27.9969C7.71834 27.521 7.9465 27.0297 8.22522 26.5678C8.53853 26.048 8.88444 25.5448 9.38534 25.1767C9.80242 24.8698 10.2681 24.6768 10.7796 24.6003C11.0477 24.5597 11.3171 24.5251 11.5872 24.4971C11.7402 24.4818 11.7834 24.5357 11.7355 24.6828C11.3211 25.9561 10.7004 27.0996 9.62813 27.945C9.25163 28.2418 8.81925 28.4362 8.34629 28.5354C8.01103 28.6059 7.67843 28.6884 7.34383 28.7617C7.23274 28.7863 7.21345 28.8389 7.25536 28.94C7.59993 29.7667 8.02101 30.5535 8.4933 31.3129C8.51725 31.3509 8.57978 31.3848 8.62301 31.3835C8.65561 31.3828 8.70284 31.3269 8.71481 31.287C8.85251 30.8157 8.99287 30.3445 9.11726 29.8692C9.3554 28.9627 9.78512 28.1759 10.5361 27.5948C10.9552 27.2707 11.4435 27.1216 11.9736 27.1169C12.1193 27.1156 12.1393 27.1615 12.09 27.306C11.973 27.6448 11.8625 27.9856 11.7521 28.327C11.5772 28.8688 11.365 29.3927 11.0676 29.8825C10.8122 30.3039 10.5215 30.6933 10.1077 30.9635C9.83701 31.1405 9.53767 31.273 9.24831 31.4201C9.13056 31.48 9.00218 31.5186 8.88444 31.5785C8.77269 31.6358 8.72213 31.7017 8.82457 31.8361C9.30684 32.4684 9.77714 33.1101 10.2548 33.7457C10.2993 33.8056 10.3658 33.8489 10.447 33.9221C10.4683 33.8249 10.4916 33.7584 10.4969 33.6905C10.5335 33.2046 10.5667 32.718 10.6007 32.2315C10.6678 31.2717 11.055 30.4643 11.7708 29.8246C12.0096 29.611 12.3029 29.4699 12.6195 29.392C12.6355 29.388 12.6521 29.3847 12.6681 29.38C13.0067 29.2795 13.0054 29.2788 12.9794 29.6269C12.9508 30.003 12.9302 30.3791 12.8963 30.7545C12.859 31.1705 12.718 31.5579 12.5663 31.9453C12.2384 32.7826 11.5699 33.3051 10.8834 33.815C10.5621 34.0539 10.5002 34.0606 10.8135 34.3801C11.4674 35.0463 12.1213 35.7126 12.7772 36.3762C12.8258 36.4255 12.891 36.4594 12.9814 36.4834C12.9435 36.3556 12.9029 36.2285 12.867 36.1C12.7978 35.8497 12.704 35.6028 12.6681 35.3479C12.5657 34.617 12.4932 33.8795 12.6515 33.148C12.8045 32.4431 13.181 31.89 13.8475 31.5705C14.1176 31.4407 14.1874 31.4946 14.3132 31.8002C14.6291 32.5643 14.7316 33.3603 14.6484 34.1757C14.6019 34.6303 14.4894 35.0756 14.3072 35.5029C14.1402 35.8956 13.922 36.2471 13.5994 36.528C13.4963 36.6178 13.3799 36.6924 13.2422 36.7942C13.9806 37.4845 14.7761 38.0675 15.6502 38.624C15.6502 38.5321 15.6635 38.4736 15.6482 38.4236C15.5484 38.1028 15.4087 37.7906 15.3449 37.4638C15.2291 36.8721 15.1314 36.2711 15.2205 35.6647C15.2637 35.3705 15.3223 35.075 15.4154 34.7934C15.5757 34.3075 15.8784 33.9321 16.3653 33.7291C16.5476 33.6532 16.6533 33.6765 16.7172 33.8562C16.8469 34.225 16.9587 34.5997 17.0684 34.9751C17.1961 35.4118 17.2048 35.861 17.1848 36.3103C17.1516 37.0685 16.97 37.7853 16.5363 38.4203C16.4591 38.5335 16.3606 38.6333 16.2655 38.7331C16.1318 38.8743 16.1358 38.9248 16.3028 39.0134C16.8283 39.2923 17.3445 39.5911 17.882 39.8454C18.4993 40.1369 19.1332 40.3945 19.7638 40.6554C20.2022 40.8365 20.6479 40.9982 21.0902 41.1699C21.2964 41.2505 21.3191 41.2997 21.2466 41.5041C21.2007 41.6339 21.1454 41.761 21.1035 41.8921C21.0723 41.9893 21.0184 42.0119 20.9279 41.9767C20.4603 41.7943 19.992 41.6146 19.525 41.4302C19.0634 41.2478 18.5997 41.0708 18.1447 40.8737C17.7449 40.7013 17.3531 40.509 16.9627 40.3173C16.6906 40.1835 16.4238 40.0397 16.1584 39.8926C16.0147 39.8134 15.9263 39.8633 15.8418 39.9851C15.6076 40.32 15.3196 40.6062 14.9617 40.8018C14.6491 40.9729 14.3245 41.136 13.9872 41.2471C13.1278 41.5294 12.2364 41.5726 11.343 41.4894C10.8874 41.4475 10.4377 41.351 10.014 41.1586C9.89022 41.102 9.88357 41.0381 9.92548 40.925C10.1277 40.3819 10.5168 40.0091 11.0164 39.7509C11.949 39.2683 12.9448 39.1771 13.9706 39.3235C14.3424 39.3768 14.7129 39.4413 15.0841 39.5046C15.2118 39.5265 15.3376 39.5605 15.4646 39.5891L15.4852 39.5485C15.283 39.4154 15.0768 39.2869 14.8792 39.1478C14.3564 38.7791 13.8349 38.4077 13.3173 38.0316C13.157 37.9151 13.0094 37.7807 12.8564 37.6535C12.7659 37.5783 12.6954 37.5404 12.6056 37.6742C12.2896 38.1434 11.826 38.4303 11.3024 38.592C10.5601 38.8217 9.79177 38.8782 9.01814 38.7851C8.629 38.7385 8.23454 38.6999 7.85604 38.6033C7.50082 38.5128 7.16023 38.3577 6.82098 38.2133C6.77309 38.1927 6.72852 38.0522 6.75114 37.9943C6.91211 37.5843 7.22077 37.3067 7.60659 37.1097C8.40217 36.7037 9.25895 36.6624 10.1184 36.747C10.6093 36.7949 11.0922 36.94 11.5739 37.0625C11.818 37.1244 12.0508 37.2342 12.2896 37.3187C12.3215 37.33 12.3601 37.3201 12.4167 37.2834C12.2357 37.111 12.0528 36.9413 11.8745 36.7663C11.3776 36.2784 10.8807 35.7911 10.3891 35.2979C10.2787 35.1868 10.2069 35.1868 10.0851 35.2899C9.64676 35.6634 9.13655 35.879 8.56581 35.9769C8.07555 36.0607 7.58729 36.0501 7.11234 35.9462C6.63539 35.8417 6.17108 35.6713 5.70943 35.5076C5.26574 35.3505 4.85864 35.1142 4.48213 34.832C4.27924 34.6796 4.09232 34.5059 3.89609 34.3454C3.79298 34.2609 3.81227 34.1797 3.88478 34.0892C4.12691 33.789 4.44222 33.5946 4.79078 33.4409C5.56109 33.1021 6.35135 33.1607 7.13695 33.3464C7.70703 33.4808 8.24651 33.7138 8.74475 34.028C9.01016 34.195 9.26959 34.3714 9.53301 34.5411C9.55164 34.5531 9.58224 34.5458 9.6268 34.5485C8.88244 33.5454 8.15139 32.559 7.4343 31.5918C7.1915 31.719 6.96067 31.8587 6.71521 31.9626C6.50834 32.0498 6.28749 32.1303 6.06664 32.1529C5.50987 32.2102 4.9491 32.2321 4.39832 32.089C4.00319 31.9865 3.59808 31.91 3.21692 31.7689C2.68941 31.5739 2.1812 31.3249 1.73285 30.9768C1.48074 30.7804 1.24592 30.5615 1.00512 30.3518C0.914653 30.2733 0.902679 30.2054 1.00246 30.1069C1.28317 29.83 1.60979 29.6409 1.97565 29.4978C2.42932 29.3214 2.89429 29.2469 3.3739 29.2928C3.83156 29.3361 4.28257 29.4239 4.70564 29.6163C5.06618 29.78 5.44069 29.9238 5.77861 30.1262C6.1937 30.3744 6.57752 30.6746 6.97464 30.9522C7.00059 30.9701 7.02719 30.9875 7.0997 31.0354C7.08174 30.9295 7.0844 30.861 7.05846 30.8044C6.83229 30.3019 6.59747 29.8033 6.37463 29.2995C6.30545 29.1437 6.2509 28.9786 6.21365 28.8129C6.17773 28.6498 6.09259 28.5979 5.94092 28.6372C5.57971 28.7324 5.21186 28.7983 4.84001 28.753C4.47947 28.7091 4.11627 28.6498 3.76637 28.5533C3.40184 28.4528 3.04396 28.317 2.69606 28.1659C1.99095 27.8598 1.39692 27.3918 0.892701 26.8167C0.581387 26.462 0.302002 26.0799 0 25.6999C0.316636 25.4968 0.631942 25.427 0.944587 25.3804C1.46544 25.3032 1.98895 25.3551 2.48786 25.5148C3.11048 25.7145 3.67724 26.0327 4.20208 26.4287C4.80675 26.8846 5.33159 27.4178 5.80921 28.0022C5.82983 28.0275 5.85178 28.0528 5.87506 28.0754C5.88172 28.0821 5.89569 28.0801 5.93959 28.0894C5.94292 28.0142 5.95955 27.941 5.94757 27.8724C5.91165 27.6714 5.86176 27.4724 5.82318 27.2714C5.75001 26.8913 5.67816 26.5106 5.61098 26.1298C5.58637 25.9907 5.51053 25.9129 5.37683 25.8849C4.38568 25.6759 3.54952 25.168 2.76192 24.5523C2.09073 24.0278 1.62442 23.3589 1.26255 22.6014C0.981173 22.0137 0.815538 21.392 0.682497 20.7584C0.653228 20.6199 0.699127 20.5654 0.839485 20.5607C1.2712 20.5474 1.68097 20.6466 2.09006 20.7737C2.48519 20.8962 2.84706 21.0819 3.18432 21.3135C3.65063 21.6343 4.01582 22.0517 4.30918 22.5356C4.60054 23.0155 4.80342 23.532 4.96906 24.0665C5.08214 24.4299 5.21319 24.7873 5.34623 25.1441C5.38148 25.2379 5.452 25.3185 5.52517 25.4349C5.52517 25.3564 5.52982 25.3052 5.5245 25.2546C5.41607 24.2202 5.41874 23.1859 5.51719 22.1515C5.52783 22.043 5.49923 21.9764 5.40144 21.9232C5.13602 21.7788 4.86462 21.6403 4.61451 21.4719C4.14687 21.1571 3.77768 20.7391 3.44176 20.2898C3.16636 19.9217 2.90161 19.5456 2.75061 19.1077C2.62555 18.7429 2.51247 18.3735 2.41202 18.0014C2.23441 17.3398 2.25171 16.6622 2.27965 15.986C2.28963 15.753 2.33952 15.729 2.55637 15.8036C3.32734 16.0692 3.97259 16.5165 4.49211 17.1435C4.74755 17.4516 4.94046 17.7964 5.08281 18.1725C5.38548 18.9712 5.52783 19.8012 5.58637 20.6499C5.59169 20.7258 5.60898 20.801 5.64424 20.8782C5.69346 20.6845 5.74602 20.4915 5.79125 20.2964C5.89436 19.8498 5.98881 19.4012 6.09724 18.9559C6.15046 18.7363 6.22097 18.5206 6.29414 18.3063C6.34204 18.1652 6.3447 18.062 6.19503 17.9715C5.75267 17.7019 5.45665 17.2919 5.19855 16.8579C4.98236 16.4938 4.77615 16.1198 4.60652 15.7324C4.48147 15.4462 4.39699 15.136 4.34044 14.8285C4.2094 14.1176 4.13955 13.4014 4.27392 12.6799C4.32115 12.425 4.35907 12.168 4.40763 11.9131C4.43424 11.7733 4.4981 11.75 4.64245 11.8079C5.25377 12.0535 5.71209 12.4709 6.0866 13.004C6.59215 13.7242 6.73783 14.5416 6.75978 15.3922C6.76976 15.779 6.74182 16.167 6.73251 16.5544C6.72985 16.6502 6.73251 16.7454 6.73251 16.8413C6.74848 16.8426 6.76444 16.8439 6.7804 16.8453C6.88152 16.6043 6.97664 16.3614 7.0844 16.1231C7.31855 15.6059 7.5567 15.0907 7.7975 14.5769C7.88131 14.3972 7.9771 14.2228 8.06491 14.045C8.10549 13.9638 8.09019 13.9053 8.00704 13.8507C7.63386 13.6084 7.28064 13.3355 7.04582 12.9521C6.86289 12.6533 6.70324 12.3364 6.56687 12.0129C6.21432 11.1783 6.11919 10.2977 6.22563 9.40709C6.30279 8.76078 6.51965 8.15108 6.94271 7.63257C7.04848 7.50345 7.15757 7.50078 7.27265 7.58998C7.67577 7.90281 8.00637 8.28487 8.22788 8.74148C8.41414 9.12687 8.58909 9.52823 8.68954 9.94157C8.80528 10.4181 8.85318 10.916 8.79198 11.4106C8.7341 11.8772 8.65894 12.3418 8.58643 12.8064C8.56913 12.9175 8.53255 13.026 8.50461 13.1352C8.51259 13.1352 8.52124 13.1352 8.52922 13.1352L8.52523 13.1385Z" fill="black"/>
<path d="M79.022 37.3355C79.1677 37.2869 79.3134 37.2364 79.4597 37.1904C79.8123 37.0806 80.1615 36.9528 80.5207 36.8689C81.1001 36.7332 81.6908 36.6892 82.2862 36.7272C82.8895 36.7658 83.4669 36.8949 83.9871 37.2184C84.2798 37.4008 84.5079 37.6424 84.6483 37.9625C84.7055 38.093 84.6776 38.1762 84.5445 38.2434C83.8088 38.6142 83.0186 38.7453 82.2077 38.8045C81.7121 38.8411 81.2198 38.8252 80.7336 38.74C79.9593 38.6048 79.2515 38.3319 78.7839 37.645C78.7087 37.5345 78.6429 37.5831 78.5797 37.6337C78.3076 37.8507 78.0488 38.0857 77.7674 38.2893C77.3164 38.6162 76.8521 38.9257 76.3925 39.2398C76.2395 39.3443 76.0825 39.4422 75.9355 39.5753C75.9687 39.5766 76.004 39.5873 76.0346 39.5786C76.7045 39.3963 77.3876 39.2984 78.0801 39.2651C78.7007 39.2352 79.3107 39.323 79.8948 39.5241C80.5134 39.7364 81.0456 40.0872 81.3795 40.6776C81.4334 40.7727 81.4759 40.8792 81.4992 40.9857C81.5092 41.0303 81.4693 41.1195 81.4294 41.1362C81.2165 41.226 81.0023 41.3265 80.7775 41.3744C79.936 41.5548 79.0899 41.5675 78.2357 41.435C77.7495 41.3591 77.2885 41.2247 76.8441 41.0223C76.3426 40.7947 75.9202 40.4639 75.5922 40.0173C75.4426 39.8136 75.3993 39.8169 75.1725 39.9381C74.7933 40.1404 74.4088 40.3328 74.0204 40.5178C73.5973 40.7195 73.1709 40.9138 72.7412 41.0995C72.4019 41.246 72.056 41.3758 71.7114 41.5089C71.315 41.662 70.9152 41.8051 70.5214 41.9628C70.4043 42.0094 70.3425 42.0101 70.2999 41.8756C70.25 41.7186 70.1708 41.5701 70.1216 41.413C70.1076 41.3691 70.1382 41.2786 70.1748 41.258C70.3238 41.1761 70.4808 41.1069 70.6398 41.0456C71.1287 40.8573 71.6263 40.6902 72.1086 40.4865C72.6208 40.2702 73.1243 40.0312 73.6226 39.785C74.1315 39.534 74.6304 39.2625 75.1332 39.0002C75.2596 38.9343 75.2756 38.8564 75.1738 38.7579C74.6949 38.2933 74.4634 37.7116 74.3217 37.0713C74.2186 36.6034 74.2073 36.1368 74.2339 35.6668C74.2632 35.1563 74.3789 34.6611 74.5678 34.1845C74.6164 34.0621 74.6663 33.9389 74.7062 33.8131C74.7468 33.6847 74.8372 33.672 74.9423 33.7026C75.1971 33.7765 75.4193 33.909 75.5942 34.1087C75.8922 34.4501 76.0466 34.8528 76.1364 35.2968C76.2734 35.9697 76.2056 36.636 76.0958 37.2963C76.0353 37.6623 75.8856 38.0138 75.7792 38.3725C75.7605 38.4358 75.7579 38.503 75.7705 38.5816C76.6333 38.0697 77.4229 37.48 78.1539 36.805C77.9624 36.6386 77.7748 36.5015 77.6184 36.3345C77.3158 36.011 77.1315 35.6189 76.9905 35.1996C76.7856 34.5926 76.7184 33.9729 76.7464 33.3366C76.7696 32.8107 76.9027 32.3115 77.0863 31.823C77.0943 31.8023 77.1029 31.7817 77.1102 31.7611C77.2014 31.4928 77.3038 31.4449 77.5666 31.57C77.989 31.7704 78.3063 32.0839 78.5231 32.4992C78.861 33.1455 78.8684 33.8424 78.8218 34.5413C78.7958 34.926 78.728 35.3101 78.6555 35.6895C78.6123 35.9151 78.5205 36.1314 78.4526 36.3524C78.4393 36.395 78.4386 36.4416 78.4327 36.4869L78.4805 36.5168C78.736 36.2772 79.0021 36.0469 79.2455 35.7953C79.7458 35.2795 80.2347 34.753 80.7269 34.2291C80.8354 34.1133 80.8267 34.0388 80.701 33.9443C80.2327 33.5921 79.7537 33.252 79.3666 32.8061C79.0925 32.4899 78.9169 32.1185 78.7566 31.7331C78.4526 31.0016 78.5018 30.2228 78.4167 29.462C78.404 29.3516 78.43 29.263 78.569 29.3103C78.9076 29.4261 79.2495 29.5319 79.5442 29.7503C79.8515 29.9779 80.111 30.2501 80.2786 30.5909C80.4555 30.951 80.6072 31.3244 80.7469 31.7012C80.7994 31.8423 80.7921 32.006 80.8041 32.1604C80.842 32.6683 80.8753 33.1768 80.9132 33.6853C80.9185 33.7546 80.9398 33.8224 80.9538 33.8917L80.9997 33.9136C81.1347 33.7526 81.2777 33.5975 81.4034 33.4291C81.8006 32.8986 82.1924 32.3641 82.5835 31.8296C82.6746 31.7051 82.6514 31.6299 82.5117 31.566C82.221 31.4336 81.9243 31.3111 81.6389 31.168C81.1161 30.9051 80.715 30.5031 80.4236 30.0019C80.2167 29.6458 80.0325 29.2737 79.8675 28.8963C79.7351 28.5941 79.646 28.2733 79.5389 27.9598C79.4657 27.7454 79.4005 27.5291 79.3234 27.3161C79.2662 27.157 79.2921 27.1091 79.4571 27.1138C80.3571 27.1377 81.0416 27.5611 81.5411 28.2833C81.7686 28.6114 81.9469 28.9755 82.1285 29.3329C82.205 29.4833 82.2363 29.6571 82.2808 29.8221C82.3793 30.1902 82.4704 30.561 82.5709 30.9284C82.6068 31.0615 82.6567 31.1906 82.7059 31.3198C82.7432 31.4183 82.8503 31.4269 82.9075 31.3297C83.133 30.9444 83.3651 30.5616 83.5707 30.1656C83.7756 29.7696 83.9492 29.3575 84.1427 28.9555C84.1966 28.8437 84.1926 28.7838 84.0583 28.7552C83.6904 28.6773 83.3212 28.6047 82.958 28.5096C82.4039 28.3645 81.915 28.0942 81.4952 27.7008C80.8859 27.1304 80.415 26.4602 80.069 25.704C79.9227 25.3839 79.8096 25.0477 79.6872 24.7169C79.6227 24.5419 79.6726 24.4753 79.8582 24.4946C80.4249 24.5539 80.995 24.6118 81.5179 24.864C82.0527 25.1223 82.4837 25.5083 82.8044 26.0042C83.103 26.4668 83.3791 26.944 83.6552 27.4206C83.8481 27.7548 84.0237 28.0982 84.2079 28.437C84.2206 28.4596 84.2405 28.4783 84.2758 28.5215C84.3297 28.4204 84.3862 28.3398 84.4168 28.25C84.5126 27.9678 84.6117 27.6855 84.6842 27.3973C84.7953 26.958 84.8878 26.5147 84.9822 26.0714C85.0215 25.8884 84.9929 25.8824 84.802 25.8505C84.329 25.7712 83.8454 25.716 83.3911 25.5729C82.7731 25.3785 82.2596 24.9918 81.7946 24.5372C81.3669 24.1199 81.0269 23.636 80.7176 23.1348C80.4875 22.762 80.3232 22.3474 80.1409 21.9467C80.0644 21.7783 80.1003 21.739 80.2773 21.7283C80.7389 21.7011 81.1999 21.727 81.6469 21.8382C82.1817 21.972 82.6447 22.2528 83.0372 22.6402C83.6066 23.202 84.0782 23.8397 84.478 24.5319C84.6536 24.8361 84.8332 25.1376 85.0408 25.491C85.0754 25.3646 85.1119 25.2854 85.1166 25.2041C85.1618 24.4254 85.2044 23.646 85.241 22.8665C85.249 22.6955 85.2303 22.5231 85.2277 22.3514C85.2257 22.2222 85.1711 22.1623 85.0348 22.163C84.4447 22.163 83.862 22.0951 83.2966 21.928C82.6593 21.7397 82.0859 21.4228 81.5751 20.9975C80.9963 20.5156 80.5247 19.9425 80.1469 19.2915C80.0059 19.0486 79.8708 18.8017 79.7245 18.5614C79.6679 18.4689 79.6766 18.4149 79.7804 18.3916C80.3817 18.2572 80.9837 18.2159 81.5897 18.365C82.5503 18.602 83.2308 19.237 83.8168 19.9791C84.2339 20.507 84.5944 21.0787 84.9816 21.6298C85.0281 21.6957 85.0853 21.7543 85.1738 21.8581C85.1825 21.7403 85.2004 21.6671 85.1904 21.5979C85.1299 21.1766 85.0727 20.7539 84.9942 20.3359C84.9097 19.8853 84.8086 19.438 84.7022 18.992C84.649 18.767 84.5658 18.5494 84.5026 18.3264C84.462 18.1833 84.3736 18.162 84.2379 18.1767C83.8973 18.2146 83.554 18.2692 83.2135 18.2592C82.6427 18.2432 82.0866 18.1247 81.5391 17.9503C80.6983 17.6834 80.0345 17.1716 79.4757 16.5126C79.2269 16.2191 79.0134 15.8936 78.7972 15.5741C78.6741 15.3931 78.7347 15.3132 78.9442 15.252C79.3812 15.1235 79.8269 15.0723 80.2739 15.1275C80.6105 15.1688 80.9431 15.2586 81.2717 15.3485C81.7607 15.4816 82.199 15.7265 82.6241 15.9961C83.0605 16.273 83.4503 16.6065 83.8028 16.9832C83.9146 17.1024 84.0237 17.2235 84.1727 17.332C84.1261 17.1756 84.0855 17.0165 84.031 16.8627C83.9219 16.5559 83.8081 16.2517 83.6911 15.9482C83.558 15.6034 83.4237 15.2593 83.2806 14.9185C83.2327 14.8047 83.1476 14.7787 83.0099 14.8073C82.3753 14.9418 81.7367 15.0536 81.0848 14.9298C80.7589 14.8679 80.4229 14.84 80.1096 14.7401C79.7657 14.631 79.4278 14.4832 79.1118 14.3068C78.3575 13.8855 77.8114 13.2392 77.3045 12.5563C77.2246 12.4484 77.232 12.3792 77.3723 12.3186C77.8765 12.1003 78.4021 12.0311 78.9455 12.0531C79.5688 12.0783 80.1535 12.2641 80.7163 12.5097C81.4879 12.8465 82.1571 13.3403 82.7378 13.9507C82.7412 13.954 82.7485 13.9534 82.7924 13.964C82.7851 13.8901 82.7964 13.8189 82.7704 13.7663C82.6095 13.4402 82.4565 13.1087 82.2695 12.7979C81.917 12.2121 81.5411 11.6404 81.1799 11.06C81.1221 10.9674 81.0516 10.9595 80.9691 10.9947C80.0298 11.4014 79.0586 11.4021 78.0694 11.2437C77.2226 11.1086 76.4776 10.7658 75.839 10.1947C75.7366 10.1028 75.6455 9.99699 75.5583 9.89049C75.4885 9.8053 75.5058 9.74872 75.6135 9.68615C76.31 9.2808 77.0563 9.20824 77.842 9.29145C78.7859 9.39129 79.642 9.71211 80.4289 10.2333C80.4762 10.2646 80.5314 10.2845 80.5826 10.3092C80.5932 10.2972 80.6045 10.2859 80.6152 10.2739C80.4023 9.98368 80.1948 9.69014 79.9753 9.4046C79.6593 8.99259 79.332 8.58856 79.016 8.17655C78.9143 8.0441 78.7978 8.02413 78.6508 8.07738C77.7847 8.38955 76.8954 8.44413 75.9847 8.35493C75.4945 8.30701 75.0215 8.20051 74.5678 8.02546C74.0244 7.81513 73.5334 7.50562 73.1031 7.10692C73.0299 7.03903 72.9514 6.97712 72.8835 6.90524C72.7964 6.81205 72.8163 6.7222 72.9288 6.66961C73.4616 6.41868 74.0204 6.28822 74.6104 6.27557C75.1778 6.26293 75.7406 6.29088 76.2927 6.43133C76.8681 6.57842 77.4149 6.79408 77.9145 7.12223C77.965 7.15551 78.0302 7.16549 78.0881 7.18679C78.0987 7.17415 78.1094 7.16083 78.12 7.14819C78.0761 7.08628 78.0389 7.01706 77.987 6.96248C77.4927 6.44064 77.0011 5.91548 76.4949 5.40562C76.4071 5.3171 76.2581 5.26119 76.1304 5.24588C75.7785 5.20328 75.4239 5.18331 75.0701 5.168C74.5519 5.1447 74.049 5.03421 73.5607 4.8758C73.139 4.73935 72.7731 4.48708 72.4219 4.21418C71.7647 3.703 71.2305 3.08065 70.7449 2.41238C70.6391 2.26661 70.5626 2.09888 70.4602 1.9185C70.5653 1.86192 70.6498 1.7927 70.7462 1.76674C71.44 1.58037 72.1398 1.57172 72.8297 1.7734C73.4882 1.96642 74.041 2.34449 74.5445 2.80709C75.2004 3.41013 75.7605 4.08905 76.2481 4.83187C76.3113 4.92838 76.3852 5.02024 76.4663 5.10277C76.7683 5.41161 77.0743 5.7158 77.3796 6.02131C77.4056 6.04727 77.4362 6.06724 77.502 6.07656C77.4901 6.01798 77.4907 5.95342 77.4648 5.90217C77.2619 5.49681 77.0909 5.0828 76.9785 4.64017C76.8242 4.0338 76.7537 3.42277 76.7696 2.7991C76.7843 2.232 76.8674 1.67489 77.0231 1.12975C77.0477 1.04456 77.1162 0.97267 77.1721 0.882812C77.4741 1.09248 77.7222 1.3301 77.9051 1.61764C78.1233 1.96043 78.3468 2.31054 78.4932 2.68661C78.6868 3.18515 78.8131 3.71165 78.8018 4.25745C78.7905 4.79992 78.8052 5.34572 78.7519 5.8842C78.7147 6.2596 78.5976 6.63101 78.4839 6.99443C78.4386 7.1382 78.4699 7.22872 78.5497 7.32391C78.9375 7.78517 79.3293 8.24245 79.7165 8.70371C79.9114 8.93668 80.099 9.17563 80.2912 9.41126C80.3105 9.43455 80.3358 9.45319 80.3983 9.46384C80.3937 9.4046 80.403 9.3407 80.383 9.28745C80.3065 9.08644 80.2094 8.89341 80.1402 8.6904C80.0212 8.34096 79.8894 7.99218 79.8123 7.63275C79.6333 6.79674 79.6606 5.95941 79.8828 5.13272C79.9659 4.82455 80.0657 4.52036 80.1648 4.21685C80.2194 4.04978 80.2892 4.02648 80.4322 4.119C80.8088 4.36128 81.0848 4.69608 81.3003 5.08214C81.7201 5.83494 81.8345 6.65031 81.8165 7.50096C81.8032 8.13262 81.6935 8.74565 81.5252 9.34869C81.4367 9.66552 81.2944 9.96837 81.1693 10.2739C81.1074 10.425 81.1427 10.5435 81.2318 10.6746C81.6436 11.2816 82.0474 11.8946 82.4525 12.507C82.5942 12.7207 82.7312 12.9376 82.8962 13.1932C82.8962 13.1154 82.9061 13.0694 82.8948 13.0295C82.6993 12.3672 82.6061 11.687 82.6088 11.0007C82.6128 10.0522 82.8396 9.15832 83.415 8.38555C83.6212 8.10932 83.8693 7.86238 84.1121 7.61611C84.2472 7.47899 84.3549 7.49763 84.476 7.6414C84.774 7.99417 84.9417 8.41284 85.0767 8.84749C85.249 9.40327 85.2516 9.97436 85.2024 10.5441C85.1592 11.04 85.0368 11.5206 84.8665 11.9932C84.6696 12.5396 84.3869 13.0242 83.9645 13.4202C83.7922 13.582 83.586 13.7064 83.4064 13.8608C83.3631 13.8981 83.3319 14.004 83.3538 14.0512C83.5214 14.4106 83.713 14.7581 83.8787 15.1182C84.0835 15.5635 84.2698 16.0174 84.466 16.4674C84.5219 16.5965 84.5838 16.723 84.6849 16.8501C84.6849 16.7656 84.6942 16.6804 84.6836 16.5972C84.6017 15.9489 84.6243 15.3012 84.7102 14.6576C84.8612 13.53 85.39 12.6268 86.3585 12.0058C86.5102 11.9086 86.6852 11.8454 86.8541 11.7782C86.884 11.7662 86.9612 11.8035 86.9752 11.8354C87.0217 11.9472 87.0643 12.0644 87.0836 12.1835C87.2186 13.0368 87.2639 13.8921 87.0916 14.7461C86.9798 15.2999 86.7989 15.8277 86.5228 16.3283C86.2867 16.7556 86.0452 17.1756 85.7166 17.537C85.5696 17.6987 85.3993 17.8458 85.219 17.9697C85.0767 18.0675 85.0787 18.1687 85.1179 18.3091C85.2403 18.7444 85.3621 19.1804 85.4725 19.619C85.5776 20.0364 85.6694 20.457 85.7951 20.879C85.8071 20.8018 85.8184 20.7246 85.8304 20.6474C85.9242 20.0357 85.982 19.4153 86.1204 18.8136C86.3818 17.6735 87.0284 16.7862 88.0335 16.1812C88.3049 16.0174 88.6116 15.9083 88.9083 15.7904C89.0805 15.7219 89.1244 15.7612 89.1351 15.9482C89.1783 16.7037 89.1584 17.4571 88.9728 18.194C88.7765 18.9727 88.4499 19.6902 87.947 20.3272C87.5499 20.8298 87.1182 21.2904 86.5747 21.6338C86.4031 21.7423 86.2162 21.8288 86.0306 21.9114C85.9075 21.966 85.8729 22.0432 85.8896 22.1723C86.008 23.0722 85.9734 23.9754 85.9295 24.878C85.9208 25.0571 85.8922 25.2348 85.8729 25.4131C85.8922 25.4178 85.9115 25.4231 85.9308 25.4278C86.0259 25.1868 86.1244 24.9472 86.2155 24.7043C86.4404 24.1059 86.6266 23.4895 86.894 22.9105C87.2033 22.2409 87.6663 21.6718 88.2956 21.2644C88.7326 20.9815 89.197 20.7492 89.7198 20.6687C89.9972 20.6261 90.2759 20.5835 90.5553 20.5635C90.7342 20.5509 90.7642 20.6008 90.7196 20.7719C90.6085 21.2052 90.5154 21.6451 90.3717 22.0678C90.1868 22.6123 89.9087 23.1141 89.5761 23.5867C89.1138 24.2437 88.4898 24.7096 87.824 25.1323C87.2739 25.481 86.6911 25.7486 86.0499 25.8797C85.9102 25.9084 85.8217 25.9856 85.7958 26.1287C85.7738 26.2485 85.7505 26.3676 85.7273 26.4874C85.6534 26.8728 85.5776 27.2576 85.5077 27.6436C85.4825 27.784 85.4712 27.9272 85.4539 28.0696C85.4765 28.0769 85.4984 28.0842 85.521 28.0922C85.6195 27.9784 85.7193 27.8653 85.8164 27.7508C86.3845 27.0798 87.0271 26.4921 87.7827 26.0395C88.2271 25.7732 88.6994 25.5716 89.2123 25.4498C89.8196 25.3053 90.4083 25.3366 90.9983 25.499C91.1287 25.535 91.2484 25.6075 91.3868 25.6694C91.0209 26.2711 90.5925 26.7923 90.089 27.2542C89.6533 27.6536 89.1683 27.9791 88.6302 28.2147C87.8546 28.5548 87.051 28.7938 86.1916 28.7512C85.9501 28.7392 85.7106 28.6806 85.4725 28.6334C85.3188 28.6034 85.257 28.6507 85.2011 28.8064C85.0281 29.2883 84.8306 29.7622 84.6323 30.2348C84.5272 30.4864 84.4022 30.7294 84.2858 30.9763C84.3004 30.9903 84.3157 31.0043 84.3303 31.0182C84.4068 30.965 84.488 30.9177 84.5585 30.8572C85.1366 30.358 85.7904 29.9766 86.4902 29.685C87.1308 29.4181 87.8007 29.2291 88.5065 29.2857C89.2355 29.3436 89.8947 29.5819 90.4242 30.1157C90.5094 30.2015 90.4988 30.2574 90.4242 30.3347C90.0637 30.7047 89.6679 31.0316 89.2149 31.2798C88.9009 31.4516 88.579 31.6126 88.2484 31.7477C87.963 31.8642 87.6637 31.9514 87.3643 32.0266C86.7803 32.1724 86.1842 32.2223 85.5836 32.1764C85.0441 32.1345 84.5419 31.9721 84.1102 31.6406C83.9705 31.5334 83.9133 31.6 83.8487 31.6945C83.5926 32.0672 83.3538 32.4526 83.0851 32.8167C82.7345 33.292 82.3613 33.7506 81.9988 34.2165C81.9256 34.311 81.8571 34.4088 81.7859 34.5047C81.7946 34.5173 81.8032 34.5307 81.8119 34.5433C81.8465 34.5327 81.8864 34.5293 81.9143 34.5094C82.5063 34.0794 83.137 33.7126 83.8301 33.4777C84.4567 33.2653 85.108 33.1349 85.7732 33.2167C86.4457 33.2993 87.0577 33.5329 87.5186 34.0667C87.6104 34.1732 87.6271 34.2571 87.5087 34.3596C87.1328 34.6864 86.7537 35.0066 86.3 35.2222C85.982 35.3733 85.6707 35.5484 85.3394 35.6615C84.5771 35.9218 83.8022 36.1081 82.9806 35.9917C82.3447 35.9018 81.7753 35.6848 81.295 35.2508C81.2099 35.1743 81.13 35.1896 81.0489 35.2701C80.5447 35.774 80.0398 36.2759 79.5316 36.7758C79.3586 36.9455 79.1777 37.1066 79.0001 37.2716C79.0094 37.2916 79.018 37.3122 79.0273 37.3322L79.022 37.3355Z" fill="black"/>
</svg>
