<svg width="82" height="42" viewBox="0 0 82 42" fill="none" xmlns="http://www.w3.org/2000/svg">
<path d="M8.52523 12.6033C9.082 11.7727 9.63678 10.94 10.1989 10.112C10.3066 9.95355 10.276 9.80844 10.2062 9.65802C9.97204 9.15481 9.82104 8.62832 9.70929 8.08385C9.58822 7.49479 9.59288 6.90572 9.60884 6.31333C9.62281 5.81013 9.75718 5.33622 9.95342 4.87162C10.157 4.39105 10.4523 3.98969 10.8574 3.66621C10.896 3.63559 10.9386 3.60896 10.9805 3.58234C11.1042 3.50446 11.1927 3.5231 11.2353 3.65955C11.367 4.08687 11.522 4.5102 11.6051 4.9475C11.7322 5.61378 11.7681 6.29603 11.6171 6.9623C11.508 7.4442 11.3291 7.91079 11.1754 8.38204C11.1348 8.50718 11.0683 8.62432 11.0244 8.74879C11.0064 8.79938 11.0151 8.85928 11.0111 8.9152C11.0264 8.92185 11.0417 8.92917 11.0577 8.93583C11.1528 8.82867 11.2499 8.72283 11.3417 8.61301C11.8439 8.00997 12.3442 7.40493 12.847 6.80255C12.9395 6.69206 12.9681 6.59156 12.9156 6.44246C12.5949 5.53856 12.573 4.60006 12.6062 3.65356C12.6242 3.13771 12.7579 2.64982 12.9029 2.16193C13.0799 1.56555 13.6972 0.722219 14.2413 0.355469C14.2939 0.450651 14.3664 0.538511 14.395 0.639018C14.6058 1.38716 14.6803 2.15128 14.6258 2.92538C14.5759 3.64158 14.4183 4.33514 14.1322 4.99543C14.0797 5.11657 14.0085 5.22972 13.9533 5.34953C13.9273 5.40544 13.9187 5.46867 13.8927 5.56119C13.9539 5.53723 13.9832 5.53457 13.9992 5.51793C14.3697 5.13787 14.7548 4.77045 15.1027 4.37109C15.3595 4.07689 15.5597 3.73476 15.7992 3.42526C16.2782 2.80491 16.8243 2.24846 17.4622 1.79052C17.8687 1.49898 18.321 1.30596 18.8139 1.19014C19.4246 1.04637 20.0232 1.08364 20.6219 1.22608C20.7297 1.25204 20.8275 1.31994 20.9293 1.36786C20.7962 1.76656 20.5341 2.04811 20.3046 2.3503C19.8397 2.96332 19.2855 3.48183 18.6569 3.92313C18.2159 4.23264 17.7283 4.43632 17.1955 4.50421C16.5542 4.58541 15.9083 4.63467 15.2664 4.71321C15.144 4.72785 15.0003 4.7831 14.9165 4.8683C14.383 5.41343 13.8635 5.97187 13.3413 6.52766C13.3187 6.55162 13.3087 6.58823 13.2927 6.61951C13.304 6.63482 13.3153 6.64946 13.326 6.66477C13.4311 6.60953 13.5389 6.55961 13.6406 6.49904C14.6557 5.90199 15.756 5.68766 16.9221 5.74756C17.4649 5.77552 17.9811 5.90199 18.472 6.13295C18.5964 6.19152 18.6263 6.2887 18.5212 6.37523C18.2066 6.63482 17.8946 6.90106 17.558 7.1307C17.1063 7.43821 16.5908 7.62525 16.0606 7.72975C15.4367 7.85288 14.7988 7.92277 14.1602 7.84024C13.7777 7.79032 13.3985 7.71178 13.0193 7.63789C12.9069 7.61593 12.7998 7.56534 12.6894 7.52873C12.5743 7.49079 12.4832 7.5274 12.412 7.62125C11.8765 8.32347 11.3404 9.02502 10.8055 9.72724C10.8009 9.73323 10.8069 9.74721 10.8109 9.79713C10.9865 9.69129 11.1468 9.59278 11.3091 9.4976C11.7781 9.22271 12.273 9.0197 12.8058 8.89256C13.306 8.77342 13.8083 8.71818 14.3185 8.72949C14.8599 8.74147 15.3602 8.90588 15.8291 9.17345C15.9283 9.23003 15.895 9.29992 15.8458 9.34984C15.6522 9.54553 15.4653 9.75253 15.2484 9.92027C14.848 10.2298 14.393 10.4315 13.9054 10.5819C13.1484 10.8148 12.3794 10.8388 11.6045 10.7776C11.2093 10.7463 10.8215 10.6431 10.457 10.4727C10.3705 10.4328 10.294 10.4215 10.2301 10.5253C9.85297 11.141 9.46516 11.7507 9.09265 12.369C8.93366 12.6326 8.79996 12.9122 8.66093 13.1877C8.62967 13.2503 8.62368 13.3255 8.60638 13.3947C8.62235 13.4034 8.63765 13.412 8.65361 13.4207C8.79264 13.2936 8.93167 13.1658 9.0707 13.0393C9.51439 12.6346 9.99799 12.2865 10.5548 12.0582C10.9718 11.8871 11.3923 11.7028 11.8293 11.6069C12.4313 11.4751 13.0486 11.4538 13.6499 11.6595C13.7803 11.7041 13.91 11.7514 14.0418 11.7913C14.1788 11.8332 14.1934 11.9164 14.1096 12.0136C13.7637 12.415 13.4291 12.8276 13.0599 13.2064C12.6994 13.5771 12.2623 13.862 11.7794 14.0437C11.4049 14.1842 11.0078 14.2687 10.6153 14.3532C10.1696 14.4484 9.71528 14.4863 9.26094 14.4244C8.96027 14.3838 8.66093 14.3273 8.36359 14.2654C8.23055 14.2381 8.15937 14.294 8.11813 14.4025C7.88996 15.0002 7.66512 15.5986 7.43829 16.197C7.37975 16.3514 7.31855 16.5051 7.26268 16.6609C7.24937 16.6988 7.25403 16.7434 7.24671 16.828C7.54738 16.5258 7.80615 16.2409 8.09085 15.9853C8.5831 15.5433 9.1432 15.2079 9.75519 14.9496C10.3665 14.692 10.9918 14.5289 11.6563 14.5895C11.957 14.6168 12.255 14.6847 12.5524 14.7459C12.6861 14.7732 12.7047 14.9023 12.6042 15.0548C12.4912 15.2252 12.3734 15.3916 12.2563 15.5586C11.9304 16.0226 11.5519 16.4379 11.0976 16.7794C10.6286 17.1321 10.1071 17.3704 9.53767 17.5169C9.02014 17.6506 8.49862 17.7472 7.9638 17.7325C7.69373 17.7252 7.42366 17.6833 7.15558 17.6447C7.02121 17.6254 6.94271 17.6673 6.9028 17.7931C6.84626 17.9721 6.77641 18.1479 6.73318 18.3296C6.62807 18.7702 6.52696 19.2122 6.44049 19.6568C6.36 20.0695 6.2968 20.4855 6.2356 20.9008C6.21764 21.0239 6.23294 21.1524 6.23294 21.2782C6.24957 21.2822 6.2662 21.2862 6.28283 21.2895C6.46709 21.0173 6.64869 20.7431 6.83628 20.4728C7.30658 19.7959 7.7802 19.1276 8.41281 18.5805C9.33545 17.7824 10.3851 17.5941 11.5459 17.841C11.7368 17.8816 11.7428 17.8956 11.6503 18.072C11.2991 18.7442 10.904 19.3872 10.3805 19.943C9.88357 20.4708 9.31748 20.8955 8.64763 21.1917C7.93852 21.5052 7.19616 21.607 6.4345 21.633C6.207 21.641 6.18704 21.6503 6.17773 21.8766C6.14181 22.8078 6.14846 23.7383 6.28483 24.6628C6.2968 24.7454 6.33206 24.8246 6.37064 24.953C6.53428 24.6748 6.67397 24.4472 6.80435 24.2142C7.117 23.6531 7.48153 23.1293 7.88863 22.6321C8.21724 22.23 8.58111 21.8686 9.03078 21.6104C9.25828 21.4799 9.50906 21.3734 9.76251 21.3088C10.2148 21.193 10.6812 21.171 11.1488 21.1963C11.2865 21.2037 11.3344 21.2669 11.2805 21.3894C11.1381 21.7115 11.0071 22.041 10.8375 22.3492C10.5335 22.9016 10.1756 23.4188 9.74055 23.8801C9.33478 24.3107 8.87513 24.6748 8.33897 24.9204C7.80814 25.1634 7.24139 25.2958 6.65468 25.3224C6.39592 25.3338 6.37929 25.3418 6.43716 25.5907C6.56954 26.1664 6.70524 26.7415 6.8569 27.3126C6.91611 27.5363 7.01988 27.7486 7.10369 27.9662C7.12365 27.9656 7.14294 27.9649 7.1629 27.9643C7.26334 27.7972 7.37044 27.6334 7.4629 27.4617C7.71834 26.9858 7.9465 26.4946 8.22522 26.0327C8.53853 25.5128 8.88444 25.0096 9.38534 24.6415C9.80242 24.3347 10.2681 24.1417 10.7796 24.0651C11.0477 24.0245 11.3171 23.9899 11.5872 23.9619C11.7402 23.9466 11.7834 24.0006 11.7355 24.1476C11.3211 25.421 10.7004 26.5645 9.62813 27.4098C9.25163 27.7067 8.81925 27.901 8.34629 28.0002C8.01103 28.0707 7.67843 28.1533 7.34383 28.2265C7.23274 28.2511 7.21345 28.3037 7.25536 28.4049C7.59993 29.2316 8.02101 30.0183 8.4933 30.7778C8.51725 30.8157 8.57978 30.8497 8.62301 30.8483C8.65561 30.8477 8.70284 30.7918 8.71481 30.7518C8.85251 30.2806 8.99287 29.8093 9.11726 29.3341C9.3554 28.4275 9.78512 27.6408 10.5361 27.0597C10.9552 26.7355 11.4435 26.5864 11.9736 26.5818C12.1193 26.5805 12.1393 26.6264 12.09 26.7708C11.973 27.1096 11.8625 27.4504 11.7521 27.7919C11.5772 28.3337 11.365 28.8575 11.0676 29.3474C10.8122 29.7687 10.5215 30.1581 10.1077 30.4283C9.83701 30.6054 9.53767 30.7378 9.24831 30.8849C9.13056 30.9448 9.00218 30.9835 8.88444 31.0434C8.77269 31.1006 8.72213 31.1665 8.82457 31.3009C9.30684 31.9333 9.77714 32.5749 10.2548 33.2106C10.2993 33.2705 10.3658 33.3137 10.447 33.387C10.4683 33.2898 10.4916 33.2232 10.4969 33.1553C10.5335 32.6694 10.5667 32.1829 10.6007 31.6963C10.6678 30.7365 11.055 29.9291 11.7708 29.2895C12.0096 29.0758 12.3029 28.9347 12.6195 28.8568C12.6355 28.8528 12.6521 28.8495 12.6681 28.8449C13.0067 28.7443 13.0054 28.7437 12.9794 29.0918C12.9508 29.4679 12.9302 29.8439 12.8963 30.2193C12.859 30.6353 12.718 31.0227 12.5663 31.4101C12.2384 32.2474 11.5699 32.7699 10.8834 33.2798C10.5621 33.5188 10.5002 33.5254 10.8135 33.8449C11.4674 34.5112 12.1213 35.1775 12.7772 35.8411C12.8258 35.8903 12.891 35.9243 12.9814 35.9482C12.9435 35.8204 12.9029 35.6933 12.867 35.5648C12.7978 35.3146 12.704 35.0676 12.6681 34.8127C12.5657 34.0819 12.4932 33.3444 12.6515 32.6129C12.8045 31.908 13.181 31.3549 13.8475 31.0354C14.1176 30.9056 14.1874 30.9595 14.3132 31.265C14.6291 32.0291 14.7316 32.8252 14.6484 33.6406C14.6019 34.0952 14.4894 34.5405 14.3072 34.9678C14.1402 35.3605 13.922 35.7119 13.5994 35.9928C13.4963 36.0827 13.3799 36.1572 13.2422 36.2591C13.9806 36.9493 14.7761 37.5324 15.6502 38.0888C15.6502 37.997 15.6635 37.9384 15.6482 37.8885C15.5484 37.5677 15.4087 37.2555 15.3449 36.9287C15.2291 36.3369 15.1314 35.7359 15.2205 35.1295C15.2637 34.8353 15.3223 34.5398 15.4154 34.2582C15.5757 33.7724 15.8784 33.3969 16.3653 33.1939C16.5476 33.1181 16.6533 33.1414 16.7172 33.3211C16.8469 33.6898 16.9587 34.0646 17.0684 34.44C17.1961 34.8766 17.2048 35.3259 17.1848 35.7752C17.1516 36.5333 16.97 37.2502 16.5363 37.8851C16.4591 37.9983 16.3606 38.0981 16.2655 38.198C16.1318 38.3391 16.1358 38.3897 16.3028 38.4782C16.8283 38.7571 17.3445 39.056 17.882 39.3102C18.4993 39.6017 19.1332 39.8593 19.7638 40.1203C20.2022 40.3013 20.6479 40.4631 21.0902 40.6348C21.2964 40.7153 21.3191 40.7646 21.2466 40.9689C21.2007 41.0987 21.1454 41.2258 21.1035 41.357C21.0723 41.4541 21.0184 41.4768 20.9279 41.4415C20.4603 41.2591 19.992 41.0794 19.525 40.895C19.0634 40.7127 18.5997 40.5356 18.1447 40.3386C17.7449 40.1662 17.3531 39.9738 16.9627 39.7821C16.6906 39.6483 16.4238 39.5046 16.1584 39.3575C16.0147 39.2783 15.9263 39.3282 15.8418 39.45C15.6076 39.7848 15.3196 40.071 14.9617 40.2667C14.6491 40.4378 14.3245 40.6008 13.9872 40.712C13.1278 40.9942 12.2364 41.0375 11.343 40.9543C10.8874 40.9123 10.4377 40.8158 10.014 40.6235C9.89022 40.5669 9.88357 40.503 9.92548 40.3898C10.1277 39.8467 10.5168 39.474 11.0164 39.2157C11.949 38.7331 12.9448 38.6419 13.9706 38.7884C14.3424 38.8416 14.7129 38.9062 15.0841 38.9694C15.2118 38.9914 15.3376 39.0253 15.4646 39.054L15.4852 39.0134C15.283 38.8802 15.0768 38.7518 14.8792 38.6127C14.3564 38.2439 13.8349 37.8725 13.3173 37.4964C13.157 37.38 13.0094 37.2455 12.8564 37.1184C12.7659 37.0432 12.6954 37.0052 12.6056 37.139C12.2896 37.6083 11.826 37.8951 11.3024 38.0569C10.5601 38.2865 9.79177 38.3431 9.01814 38.2499C8.629 38.2033 8.23454 38.1647 7.85604 38.0682C7.50082 37.9777 7.16023 37.8226 6.82098 37.6781C6.77309 37.6575 6.72852 37.5171 6.75114 37.4592C6.91211 37.0491 7.22077 36.7716 7.60659 36.5746C8.40217 36.1685 9.25895 36.1273 10.1184 36.2118C10.6093 36.2597 11.0922 36.4048 11.5739 36.5273C11.818 36.5892 12.0508 36.699 12.2896 36.7836C12.3215 36.7949 12.3601 36.7849 12.4167 36.7483C12.2357 36.5759 12.0528 36.4062 11.8745 36.2311C11.3776 35.7432 10.8807 35.256 10.3891 34.7628C10.2787 34.6516 10.2069 34.6516 10.0851 34.7548C9.64676 35.1282 9.13655 35.3439 8.56581 35.4417C8.07555 35.5256 7.58729 35.5149 7.11234 35.4111C6.63539 35.3066 6.17108 35.1362 5.70943 34.9724C5.26574 34.8154 4.85864 34.5791 4.48213 34.2969C4.27924 34.1444 4.09232 33.9707 3.89609 33.8103C3.79298 33.7258 3.81227 33.6446 3.88478 33.554C4.12691 33.2538 4.44222 33.0595 4.79078 32.9057C5.56109 32.5669 6.35135 32.6255 7.13695 32.8112C7.70703 32.9457 8.24651 33.1786 8.74475 33.4928C9.01016 33.6599 9.26959 33.8363 9.53301 34.006C9.55164 34.018 9.58224 34.0106 9.6268 34.0133C8.88244 33.0102 8.15139 32.0238 7.4343 31.0567C7.1915 31.1838 6.96067 31.3236 6.71521 31.4274C6.50834 31.5146 6.28749 31.5951 6.06664 31.6178C5.50987 31.675 4.9491 31.697 4.39832 31.5539C4.00319 31.4514 3.59808 31.3748 3.21692 31.2337C2.68941 31.0387 2.1812 30.7898 1.73285 30.4416C1.48074 30.2453 1.24592 30.0263 1.00512 29.8166C0.914653 29.7381 0.902679 29.6702 1.00246 29.5717C1.28317 29.2948 1.60979 29.1058 1.97565 28.9627C2.42932 28.7863 2.89429 28.7117 3.3739 28.7577C3.83156 28.8009 4.28257 28.8888 4.70564 29.0811C5.06618 29.2449 5.44069 29.3887 5.77861 29.591C6.1937 29.8393 6.57752 30.1395 6.97464 30.417C7.00059 30.435 7.02719 30.4523 7.0997 30.5002C7.08174 30.3944 7.0844 30.3258 7.05846 30.2693C6.83229 29.7667 6.59747 29.2682 6.37463 28.7643C6.30545 28.6086 6.2509 28.4435 6.21365 28.2778C6.17773 28.1147 6.09259 28.0628 5.94092 28.102C5.57971 28.1972 5.21186 28.2631 4.84001 28.2178C4.47947 28.1739 4.11627 28.1147 3.76637 28.0182C3.40184 27.9177 3.04396 27.7819 2.69606 27.6308C1.99095 27.3246 1.39692 26.8567 0.892701 26.2816C0.581387 25.9268 0.302002 25.5448 0 25.1647C0.316636 24.9617 0.631942 24.8918 0.944587 24.8452C1.46544 24.768 1.98895 24.8199 2.48786 24.9797C3.11048 25.1793 3.67724 25.4975 4.20208 25.8935C4.80675 26.3495 5.33159 26.8826 5.80921 27.467C5.82983 27.4923 5.85178 27.5176 5.87506 27.5403C5.88172 27.5469 5.89569 27.5449 5.93959 27.5542C5.94292 27.479 5.95955 27.4058 5.94757 27.3372C5.91165 27.1362 5.86176 26.9372 5.82318 26.7362C5.75001 26.3561 5.67816 25.9754 5.61098 25.5947C5.58637 25.4556 5.51053 25.3777 5.37683 25.3497C4.38568 25.1407 3.54952 24.6329 2.76192 24.0172C2.09073 23.4927 1.62442 22.8238 1.26255 22.0663C0.981173 21.4786 0.815538 20.8569 0.682497 20.2232C0.653228 20.0848 0.699127 20.0302 0.839485 20.0255C1.2712 20.0122 1.68097 20.1114 2.09006 20.2385C2.48519 20.361 2.84706 20.5467 3.18432 20.7783C3.65063 21.0992 4.01582 21.5165 4.30918 22.0004C4.60054 22.4803 4.80342 22.9968 4.96906 23.5313C5.08214 23.8947 5.21319 24.2522 5.34623 24.6089C5.38148 24.7028 5.452 24.7833 5.52517 24.8998C5.52517 24.8212 5.52982 24.77 5.5245 24.7194C5.41607 23.6851 5.41874 22.6507 5.51719 21.6163C5.52783 21.5078 5.49923 21.4413 5.40144 21.388C5.13602 21.2436 4.86462 21.1052 4.61451 20.9368C4.14687 20.6219 3.77768 20.2039 3.44176 19.7546C3.16636 19.3866 2.90161 19.0105 2.75061 18.5725C2.62555 18.2078 2.51247 17.8383 2.41202 17.4663C2.23441 16.8047 2.25171 16.1271 2.27965 15.4508C2.28963 15.2178 2.33952 15.1939 2.55637 15.2684C3.32734 15.534 3.97259 15.9813 4.49211 16.6083C4.74755 16.9165 4.94046 17.2613 5.08281 17.6373C5.38548 18.4361 5.52783 19.2661 5.58637 20.1147C5.59169 20.1906 5.60898 20.2658 5.64424 20.343C5.69346 20.1493 5.74602 19.9563 5.79125 19.7613C5.89436 19.3147 5.98881 18.866 6.09724 18.4208C6.15046 18.2011 6.22097 17.9854 6.29414 17.7711C6.34204 17.63 6.3447 17.5268 6.19503 17.4363C5.75267 17.1667 5.45665 16.7567 5.19855 16.3228C4.98236 15.9587 4.77615 15.5846 4.60652 15.1972C4.48147 14.911 4.39699 14.6008 4.34044 14.2933C4.2094 13.5824 4.13955 12.8662 4.27392 12.1447C4.32115 11.8898 4.35907 11.6329 4.40763 11.3779C4.43424 11.2382 4.4981 11.2149 4.64245 11.2728C5.25377 11.5184 5.71209 11.9357 6.0866 12.4689C6.59215 13.1891 6.73783 14.0064 6.75978 14.8571C6.76976 15.2438 6.74182 15.6319 6.73251 16.0192C6.72985 16.1151 6.73251 16.2103 6.73251 16.3061C6.74848 16.3074 6.76444 16.3088 6.7804 16.3101C6.88152 16.0692 6.97664 15.8262 7.0844 15.5879C7.31855 15.0707 7.5567 14.5556 7.7975 14.0417C7.88131 13.862 7.9771 13.6876 8.06491 13.5099C8.10549 13.4287 8.09019 13.3701 8.00704 13.3155C7.63386 13.0733 7.28064 12.8004 7.04582 12.417C6.86289 12.1181 6.70324 11.8013 6.56687 11.4778C6.21432 10.6431 6.11919 9.76252 6.22563 8.87193C6.30279 8.22563 6.51965 7.61593 6.94271 7.09742C7.04848 6.96829 7.15757 6.96563 7.27265 7.05482C7.67577 7.36766 8.00637 7.74971 8.22788 8.20632C8.41414 8.59171 8.58909 8.99307 8.68954 9.40641C8.80528 9.88299 8.85318 10.3809 8.79198 10.8754C8.7341 11.342 8.65894 11.8066 8.58643 12.2712C8.56913 12.3824 8.53255 12.4908 8.50461 12.6C8.51259 12.6 8.52124 12.6 8.52922 12.6L8.52523 12.6033Z" fill="black"/>
<path d="M69.2447 36.7965C69.3904 36.7479 69.536 36.6973 69.6824 36.6514C70.0349 36.5415 70.3842 36.4137 70.7434 36.3299C71.3228 36.1941 71.9135 36.1502 72.5088 36.1881C73.1122 36.2267 73.6896 36.3558 74.2097 36.6793C74.5024 36.8617 74.7306 37.1033 74.871 37.4235C74.9282 37.5539 74.9002 37.6371 74.7672 37.7044C74.0315 38.0751 73.2412 38.2062 72.4303 38.2655C71.9348 38.3021 71.4425 38.2861 70.9562 38.2009C70.1819 38.0658 69.4742 37.7929 69.0065 37.106C68.9314 36.9955 68.8655 37.0441 68.8023 37.0947C68.5303 37.3116 68.2715 37.5466 67.9901 37.7503C67.5391 38.0771 67.0748 38.3866 66.6151 38.7008C66.4621 38.8053 66.3051 38.9031 66.1581 39.0362C66.1914 39.0376 66.2267 39.0482 66.2573 39.0396C66.9271 38.8572 67.6103 38.7593 68.3028 38.7261C68.9234 38.6961 69.5334 38.784 70.1174 38.985C70.7361 39.1973 71.2682 39.5481 71.6022 40.1385C71.656 40.2337 71.6986 40.3402 71.7219 40.4467C71.7319 40.4913 71.692 40.5805 71.652 40.5971C71.4392 40.687 71.225 40.7875 71.0001 40.8354C70.1587 41.0158 69.3125 41.0284 68.4584 40.896C67.9721 40.8201 67.5112 40.6856 67.0668 40.4833C66.5652 40.2556 66.1428 39.9248 65.8149 39.4782C65.6652 39.2745 65.622 39.2779 65.3952 39.399C65.016 39.6013 64.6315 39.7937 64.243 39.9787C63.82 40.1804 63.3936 40.3748 62.9638 40.5605C62.6246 40.7069 62.2787 40.8367 61.9341 40.9698C61.5376 41.1229 61.1379 41.266 60.7441 41.4238C60.627 41.4704 60.5651 41.471 60.5225 41.3366C60.4727 41.1795 60.3935 41.0311 60.3443 40.874C60.3303 40.8301 60.3609 40.7395 60.3975 40.7189C60.5465 40.637 60.7035 40.5678 60.8625 40.5066C61.3514 40.3182 61.849 40.1511 62.3312 39.9475C62.8434 39.7311 63.347 39.4922 63.8452 39.2459C64.3541 38.995 64.853 38.7234 65.3559 38.4612C65.4823 38.3953 65.4983 38.3174 65.3965 38.2189C64.9175 37.7543 64.686 37.1725 64.5444 36.5322C64.4413 36.0643 64.4299 35.5977 64.4566 35.1278C64.4858 34.6173 64.6016 34.1221 64.7905 33.6455C64.839 33.523 64.8889 33.3999 64.9288 33.2741C64.9694 33.1456 65.0599 33.133 65.165 33.1636C65.4198 33.2375 65.6419 33.3699 65.8169 33.5696C66.1149 33.9111 66.2692 34.3137 66.359 34.7577C66.4961 35.4306 66.4282 36.0969 66.3185 36.7572C66.2579 37.1233 66.1082 37.4747 66.0018 37.8335C65.9832 37.8967 65.9805 37.9639 65.9932 38.0425C66.8559 37.5306 67.6455 36.9409 68.3766 36.266C68.185 36.0996 67.9974 35.9625 67.8411 35.7954C67.5384 35.4719 67.3542 35.0799 67.2131 34.6605C67.0083 34.0535 66.9411 33.4338 66.969 32.7975C66.9923 32.2717 67.1253 31.7725 67.3089 31.2839C67.3169 31.2633 67.3256 31.2426 67.3329 31.222C67.424 30.9538 67.5265 30.9058 67.7892 31.031C68.2116 31.2313 68.5289 31.5448 68.7458 31.9602C69.0837 32.6065 69.091 33.3034 69.0444 34.0022C69.0185 34.387 68.9507 34.771 68.8781 35.1504C68.8349 35.3761 68.7431 35.5924 68.6753 35.8134C68.662 35.856 68.6613 35.9026 68.6553 35.9478L68.7032 35.9778C68.9586 35.7382 69.2247 35.5078 69.4682 35.2562C69.9684 34.7404 70.4573 34.2139 70.9496 33.6901C71.058 33.5743 71.0494 33.4997 70.9236 33.4052C70.4553 33.0531 69.9764 32.713 69.5892 32.267C69.3152 31.9508 69.1396 31.5794 68.9793 31.194C68.6753 30.4625 68.7245 29.6838 68.6393 28.923C68.6267 28.8125 68.6526 28.724 68.7917 28.7712C69.1303 28.887 69.4722 28.9929 69.7669 29.2112C70.0742 29.4388 70.3336 29.7111 70.5012 30.0519C70.6782 30.412 70.8299 30.7854 70.9695 31.1621C71.0221 31.3032 71.0148 31.4669 71.0268 31.6214C71.0647 32.1292 71.0979 32.6377 71.1358 33.1463C71.1412 33.2155 71.1625 33.2834 71.1764 33.3526L71.2223 33.3746C71.3574 33.2135 71.5004 33.0584 71.6261 32.89C72.0232 32.3595 72.415 31.825 72.8062 31.2906C72.8973 31.1661 72.874 31.0909 72.7343 31.027C72.4436 30.8945 72.147 30.772 71.8616 30.6289C71.3387 30.366 70.9376 29.964 70.6463 29.4628C70.4394 29.1067 70.2551 28.7346 70.0901 28.3572C69.9578 28.055 69.8686 27.7342 69.7615 27.4207C69.6884 27.2064 69.6232 26.9901 69.546 26.7771C69.4888 26.618 69.5147 26.5701 69.6797 26.5747C70.5797 26.5987 71.2642 27.022 71.7638 27.7442C71.9913 28.0723 72.1696 28.4364 72.3512 28.7939C72.4277 28.9443 72.4589 29.118 72.5035 29.2831C72.6019 29.6512 72.6931 30.0219 72.7935 30.3893C72.8295 30.5224 72.8793 30.6516 72.9286 30.7807C72.9658 30.8792 73.0729 30.8879 73.1301 30.7907C73.3556 30.4053 73.5878 30.0226 73.7933 29.6265C73.9982 29.2305 74.1718 28.8185 74.3654 28.4165C74.4193 28.3046 74.4153 28.2447 74.2809 28.2161C73.9131 28.1382 73.5439 28.0657 73.1807 27.9705C72.6266 27.8254 72.1376 27.5552 71.7179 27.1618C71.1086 26.5914 70.6376 25.9211 70.2917 25.165C70.1454 24.8448 70.0323 24.5087 69.9099 24.1779C69.8454 24.0028 69.8952 23.9362 70.0808 23.9555C70.6476 24.0148 71.2177 24.0727 71.7405 24.325C72.2753 24.5832 72.7064 24.9693 73.027 25.4651C73.3257 25.9277 73.6018 26.405 73.8778 26.8816C74.0707 27.2157 74.2463 27.5592 74.4306 27.8979C74.4432 27.9206 74.4632 27.9392 74.4984 27.9825C74.5523 27.8813 74.6089 27.8008 74.6395 27.7109C74.7353 27.4287 74.8344 27.1465 74.9069 26.8583C75.018 26.419 75.1104 25.9757 75.2049 25.5324C75.2441 25.3493 75.2155 25.3433 75.0246 25.3114C74.5517 25.2322 74.0681 25.1769 73.6137 25.0338C72.9958 24.8395 72.4822 24.4528 72.0172 23.9981C71.5895 23.5808 71.2496 23.0969 70.9403 22.5957C70.7101 22.223 70.5458 21.8083 70.3635 21.4076C70.287 21.2392 70.323 21.1999 70.4999 21.1893C70.9616 21.162 71.4225 21.1879 71.8696 21.2991C72.4044 21.4329 72.8674 21.7138 73.2598 22.1012C73.8292 22.6629 74.3009 23.3006 74.7007 23.9928C74.8763 24.297 75.0559 24.5985 75.2634 24.952C75.298 24.8255 75.3346 24.7463 75.3393 24.6651C75.3845 23.8863 75.4271 23.1069 75.4637 22.3275C75.4716 22.1564 75.453 21.984 75.4503 21.8123C75.4483 21.6832 75.3938 21.6233 75.2574 21.6239C74.6674 21.6239 74.0847 21.556 73.5193 21.389C72.882 21.2006 72.3086 20.8838 71.7977 20.4584C71.219 19.9765 70.7474 19.4035 70.3695 18.7525C70.2285 18.5095 70.0935 18.2626 69.9471 18.0223C69.8906 17.9298 69.8992 17.8759 70.003 17.8526C70.6044 17.7181 71.2064 17.6769 71.8124 17.826C72.7729 18.0629 73.4534 18.6979 74.0395 19.4401C74.4565 19.9679 74.8171 20.5396 75.2042 21.0908C75.2508 21.1567 75.308 21.2152 75.3965 21.3191C75.4051 21.2013 75.4231 21.128 75.4131 21.0588C75.3526 20.6375 75.2954 20.2148 75.2169 19.7968C75.1324 19.3462 75.0313 18.8989 74.9248 18.453C74.8716 18.228 74.7885 18.0103 74.7253 17.7874C74.6847 17.6442 74.5962 17.6229 74.4605 17.6376C74.1199 17.6755 73.7767 17.7301 73.4361 17.7201C72.8654 17.7042 72.3093 17.5857 71.7618 17.4113C70.921 17.1444 70.2571 16.6325 69.6983 15.9736C69.4496 15.68 69.236 15.3546 69.0198 15.0351C68.8968 14.854 68.9573 14.7741 69.1668 14.7129C69.6039 14.5844 70.0496 14.5332 70.4966 14.5884C70.8332 14.6297 71.1658 14.7196 71.4944 14.8094C71.9833 14.9425 72.4217 15.1875 72.8467 15.4571C73.2831 15.734 73.6729 16.0674 74.0255 16.4442C74.1372 16.5633 74.2463 16.6844 74.3953 16.7929C74.3488 16.6365 74.3082 16.4774 74.2536 16.3237C74.1446 16.0168 74.0308 15.7127 73.9137 15.4091C73.7807 15.0643 73.6463 14.7202 73.5033 14.3794C73.4554 14.2656 73.3703 14.2397 73.2326 14.2683C72.598 14.4027 71.9594 14.5146 71.3075 14.3908C70.9815 14.3289 70.6456 14.3009 70.3323 14.2011C69.9884 14.0919 69.6505 13.9441 69.3345 13.7677C68.5801 13.3464 68.034 12.7001 67.5271 12.0172C67.4473 11.9094 67.4546 11.8401 67.595 11.7796C68.0992 11.5613 68.6247 11.492 69.1682 11.514C69.7915 11.5393 70.3762 11.725 70.9389 11.9706C71.7106 12.3074 72.3798 12.8013 72.9605 13.4116C72.9638 13.415 72.9711 13.4143 73.015 13.425C73.0077 13.3511 73.019 13.2799 72.9931 13.2273C72.8321 12.9011 72.6791 12.5696 72.4922 12.2588C72.1396 11.6731 71.7638 11.1013 71.4026 10.5209C71.3447 10.4284 71.2742 10.4204 71.1917 10.4557C70.2525 10.8624 69.2813 10.863 68.2921 10.7046C67.4453 10.5695 66.7003 10.2267 66.0617 9.65561C65.9592 9.56376 65.8681 9.45793 65.781 9.35143C65.7111 9.26623 65.7284 9.20966 65.8362 9.14709C66.5326 8.74173 67.279 8.66918 68.0646 8.75238C69.0085 8.85222 69.8646 9.17305 70.6516 9.69422C70.6988 9.7255 70.754 9.74547 70.8052 9.7701C70.8159 9.75812 70.8272 9.7468 70.8378 9.73482C70.625 9.44462 70.4174 9.15108 70.1979 8.86554C69.8819 8.45352 69.5547 8.0495 69.2387 7.63749C69.1369 7.50503 69.0205 7.48506 68.8735 7.53831C68.0074 7.85048 67.118 7.90506 66.2074 7.81587C65.7171 7.76795 65.2441 7.66145 64.7905 7.4864C64.247 7.27606 63.7561 6.96656 63.3257 6.56786C63.2525 6.49996 63.174 6.43806 63.1062 6.36618C63.019 6.27299 63.039 6.18313 63.1514 6.13055C63.6843 5.87962 64.243 5.74916 64.8331 5.73651C65.4005 5.72386 65.9632 5.75182 66.5154 5.89226C67.0908 6.03936 67.6375 6.25502 68.1371 6.58317C68.1877 6.61645 68.2529 6.62643 68.3107 6.64773C68.3214 6.63508 68.332 6.62177 68.3427 6.60912C68.2988 6.54722 68.2615 6.478 68.2096 6.42342C67.7154 5.90158 67.2238 5.37642 66.7176 4.86656C66.6298 4.77803 66.4808 4.72212 66.353 4.70681C66.0012 4.66422 65.6466 4.64425 65.2927 4.62894C64.7745 4.60564 64.2716 4.49515 63.7834 4.33674C63.3616 4.20029 62.9958 3.94802 62.6445 3.67512C61.9873 3.16393 61.4532 2.54159 60.9676 1.87332C60.8618 1.72755 60.7853 1.55982 60.6829 1.37944C60.788 1.32286 60.8724 1.25364 60.9689 1.22768C61.6627 1.04131 62.3625 1.03265 63.0523 1.23433C63.7109 1.42736 64.2636 1.80543 64.7672 2.26802C65.4231 2.87107 65.9832 3.54999 66.4708 4.29281C66.534 4.38932 66.6078 4.48117 66.689 4.56371C66.991 4.87255 67.297 5.17673 67.6023 5.48225C67.6282 5.50821 67.6588 5.52818 67.7247 5.53749C67.7127 5.47892 67.7134 5.41436 67.6874 5.3631C67.4846 4.95775 67.3136 4.54374 67.2012 4.10111C67.0468 3.49474 66.9763 2.88371 66.9923 2.26004C67.0069 1.69294 67.0901 1.13582 67.2457 0.590691C67.2704 0.505493 67.3389 0.433607 67.3947 0.34375C67.6967 0.553417 67.9449 0.791039 68.1278 1.07858C68.346 1.42137 68.5695 1.77148 68.7158 2.14755C68.9094 2.64609 69.0358 3.17259 69.0245 3.71839C69.0132 4.26086 69.0278 4.80666 68.9746 5.34513C68.9374 5.72054 68.8203 6.09195 68.7065 6.45537C68.6613 6.59914 68.6926 6.68966 68.7724 6.78484C69.1602 7.24611 69.552 7.70338 69.9391 8.16465C70.1341 8.39761 70.3216 8.63657 70.5139 8.87219C70.5332 8.89549 70.5584 8.91413 70.621 8.92478C70.6163 8.86554 70.6256 8.80164 70.6057 8.74839C70.5292 8.54738 70.4321 8.35435 70.3629 8.15134C70.2438 7.80189 70.1121 7.45312 70.0349 7.09369C69.856 6.25768 69.8833 5.42035 70.1054 4.59366C70.1886 4.28548 70.2884 3.9813 70.3875 3.67778C70.442 3.51072 70.5119 3.48742 70.6549 3.57994C71.0314 3.82222 71.3075 4.15702 71.523 4.54307C71.9427 5.29588 72.0572 6.11125 72.0392 6.9619C72.0259 7.59356 71.9161 8.20658 71.7478 8.80963C71.6594 9.12646 71.517 9.42931 71.3919 9.73482C71.3301 9.88591 71.3653 10.0044 71.4545 10.1355C71.8662 10.7426 72.27 11.3556 72.6751 11.9679C72.8168 12.1816 72.9538 12.3986 73.1188 12.6542C73.1188 12.5763 73.1288 12.5304 73.1175 12.4904C72.9219 11.8282 72.8288 11.1479 72.8314 10.4617C72.8354 9.51317 73.0623 8.61926 73.6377 7.84649C73.8439 7.57026 74.092 7.32332 74.3348 7.07705C74.4698 6.93993 74.5776 6.95857 74.6987 7.10234C74.9967 7.45511 75.1643 7.87378 75.2993 8.30842C75.4716 8.86421 75.4743 9.4353 75.4251 10.0051C75.3818 10.5009 75.2594 10.9815 75.0891 11.4541C74.8922 12.0006 74.6095 12.4851 74.1871 12.8812C74.0148 13.0429 73.8086 13.1674 73.629 13.3218C73.5858 13.3591 73.5545 13.4649 73.5765 13.5121C73.7441 13.8716 73.9357 14.219 74.1013 14.5791C74.3062 15.0244 74.4925 15.4784 74.6887 15.9283C74.7446 16.0574 74.8064 16.1839 74.9075 16.311C74.9075 16.2265 74.9169 16.1413 74.9062 16.0581C74.8244 15.4098 74.847 14.7622 74.9328 14.1185C75.0838 12.991 75.6127 12.0877 76.5812 11.4667C76.7329 11.3696 76.9078 11.3063 77.0768 11.2391C77.1067 11.2271 77.1839 11.2644 77.1978 11.2963C77.2444 11.4082 77.287 11.5253 77.3063 11.6445C77.4413 12.4978 77.4865 13.3531 77.3142 14.207C77.2025 14.7608 77.0216 15.2887 76.7455 15.7892C76.5093 16.2165 76.2679 16.6365 75.9393 16.9979C75.7923 17.1597 75.622 17.3068 75.4417 17.4306C75.2993 17.5284 75.3013 17.6296 75.3406 17.77C75.463 18.2054 75.5847 18.6413 75.6951 19.08C75.8002 19.4973 75.892 19.918 76.0178 20.34C76.0297 20.2628 76.041 20.1855 76.053 20.1083C76.1468 19.4966 76.2047 18.8763 76.3431 18.2746C76.6045 17.1344 77.2511 16.2471 78.2562 15.6421C78.5276 15.4784 78.8342 15.3692 79.1309 15.2514C79.3032 15.1828 79.3471 15.2221 79.3577 15.4091C79.401 16.1646 79.381 16.9181 79.1954 17.6549C78.9992 18.4337 78.6726 19.1512 78.1697 19.7882C77.7726 20.2907 77.3409 20.7513 76.7974 21.0948C76.6258 21.2033 76.4388 21.2898 76.2532 21.3723C76.1302 21.4269 76.0956 21.5041 76.1122 21.6332C76.2306 22.5331 76.196 23.4364 76.1521 24.3389C76.1435 24.518 76.1149 24.6957 76.0956 24.8741C76.1149 24.8787 76.1342 24.8841 76.1535 24.8887C76.2486 24.6478 76.347 24.4082 76.4382 24.1652C76.663 23.5668 76.8493 22.9505 77.1167 22.3714C77.426 21.7018 77.889 21.1327 78.5183 20.7253C78.9553 20.4425 79.4196 20.2102 79.9425 20.1296C80.2198 20.087 80.4986 20.0444 80.778 20.0245C80.9569 20.0118 80.9868 20.0617 80.9423 20.2328C80.8312 20.6661 80.738 21.1061 80.5944 21.5287C80.4094 22.0732 80.1314 22.5751 79.7988 23.0477C79.3365 23.7046 78.7125 24.1705 78.0466 24.5932C77.4965 24.942 76.9138 25.2096 76.2725 25.3407C76.1328 25.3693 76.0444 25.4465 76.0184 25.5896C75.9965 25.7094 75.9732 25.8286 75.9499 25.9484C75.8761 26.3338 75.8002 26.7185 75.7304 27.1045C75.7051 27.245 75.6938 27.3881 75.6765 27.5305C75.6991 27.5379 75.7211 27.5452 75.7437 27.5532C75.8422 27.4393 75.9419 27.3262 76.039 27.2117C76.6071 26.5408 77.2497 25.953 78.0054 25.5004C78.4497 25.2342 78.922 25.0325 79.4349 24.9107C80.0422 24.7663 80.6309 24.7975 81.221 24.96C81.3514 24.9959 81.4711 25.0684 81.6095 25.1303C81.2436 25.7321 80.8152 26.2532 80.3116 26.7152C79.8759 27.1145 79.391 27.44 78.8529 27.6756C78.0772 28.0158 77.2737 28.2547 76.4142 28.2121C76.1728 28.2001 75.9333 28.1416 75.6951 28.0943C75.5415 28.0643 75.4796 28.1116 75.4237 28.2674C75.2508 28.7493 75.0532 29.2232 74.855 29.6958C74.7499 29.9474 74.6248 30.1903 74.5084 30.4372C74.5231 30.4512 74.5384 30.4652 74.553 30.4792C74.6295 30.4259 74.7106 30.3787 74.7812 30.3181C75.3592 29.8189 76.0131 29.4375 76.7129 29.146C77.3535 28.8791 78.0233 28.69 78.7291 28.7466C79.4582 28.8045 80.1174 29.0428 80.6469 29.5766C80.732 29.6625 80.7214 29.7184 80.6469 29.7956C80.2864 30.1657 79.8906 30.4925 79.4376 30.7408C79.1236 30.9125 78.8016 31.0736 78.471 31.2087C78.1857 31.3252 77.8863 31.4124 77.587 31.4876C77.0029 31.6333 76.4069 31.6833 75.8062 31.6373C75.2667 31.5954 74.7645 31.433 74.3328 31.1015C74.1931 30.9944 74.1359 31.0609 74.0714 31.1554C73.8153 31.5282 73.5765 31.9136 73.3077 32.2777C72.9572 32.7529 72.584 33.2115 72.2215 33.6774C72.1483 33.7719 72.0798 33.8698 72.0086 33.9656C72.0172 33.9783 72.0259 33.9916 72.0345 34.0042C72.0691 33.9936 72.109 33.9903 72.137 33.9703C72.729 33.5403 73.3596 33.1736 74.0528 32.9386C74.6794 32.7263 75.3306 32.5958 75.9958 32.6777C76.6683 32.7602 77.2803 32.9938 77.7413 33.5277C77.8331 33.6342 77.8497 33.718 77.7313 33.8205C77.3555 34.1473 76.9763 34.4675 76.5227 34.6832C76.2047 34.8343 75.8934 35.0093 75.5621 35.1225C74.7998 35.3827 74.0248 35.5691 73.2033 35.4526C72.5674 35.3627 71.9979 35.1458 71.5177 34.7118C71.4325 34.6352 71.3527 34.6505 71.2715 34.7311C70.7673 35.235 70.2624 35.7368 69.7542 36.2367C69.5813 36.4064 69.4003 36.5675 69.2227 36.7326C69.232 36.7525 69.2407 36.7732 69.25 36.7931L69.2447 36.7965Z" fill="black"/>
</svg>
