<?xml version="1.0" encoding="UTF-8"?>
<svg xmlns="http://www.w3.org/2000/svg" width="106" height="41" viewBox="0 0 106 41" fill="none">
  <g clip-path="url(#clip0_8912_147393)">
    <path d="M43.6826 17.7425H46.2581V25.832H43.6826V17.7425Z" fill="black"></path>
    <mask id="mask0_8912_147393" style="mask-type:luminance" maskUnits="userSpaceOnUse" x="11" y="10" width="83" height="21">
      <path d="M11.5576 10.5599H93.0964V30.4863H11.5576V10.5599Z" fill="white"></path>
    </mask>
    <g mask="url(#mask0_8912_147393)">
      <path d="M46.7935 17.7425H49.2741V18.8485H49.3214C49.9218 17.9794 50.696 17.5055 51.8179 17.5055C53.5874 17.5055 54.6302 18.7695 54.6302 20.5707V25.832H52.0548V21.0921C52.0548 20.2389 51.6282 19.6542 50.7908 19.6542C49.9377 19.6542 49.3688 20.3653 49.3688 21.3606V25.832H46.7935V17.7425Z" fill="black"></path>
      <path d="M46.5121 15.5783C46.5121 14.725 45.8204 14.0334 44.9672 14.0334C44.114 14.0334 43.4224 14.725 43.4224 15.5783C43.4224 16.4314 44.114 17.123 44.9672 17.123C45.8204 17.123 46.5121 16.4314 46.5121 15.5783Z" fill="black"></path>
      <path d="M72.7427 17.6257C72.6692 17.6191 72.5849 17.6161 72.4864 17.6161C71.5068 17.6161 70.8432 18.0427 70.2744 19.0065H70.227V17.7426H67.7622V25.832H70.3376V22.1981C70.3376 20.5143 71.27 19.7341 72.7427 19.8702V17.6257Z" fill="black"></path>
      <path d="M85.3817 20.7278C84.3547 20.5382 83.4383 20.4592 83.4383 19.8905C83.4383 19.3848 83.9282 19.1479 84.5601 19.1479C85.2711 19.1479 85.761 19.369 85.8557 20.0959H88.2258C88.0994 18.5001 86.867 17.5046 84.5761 17.5046C82.6642 17.5046 81.0842 18.3895 81.0842 20.0959C81.0842 21.9917 82.5852 22.371 83.9914 22.608C85.0658 22.7976 86.0453 22.8766 86.0453 23.6034C86.0453 24.1248 85.5556 24.4092 84.7814 24.4092C84.0046 24.4092 83.4909 24.0806 83.3334 23.4138H80.8794C81.06 25.0768 82.5197 26.084 84.7972 26.084C86.9144 26.084 88.4785 25.1676 88.4785 23.3981C88.4785 21.3282 86.8037 20.9648 85.3817 20.7278Z" fill="black"></path>
      <path d="M76.7375 19.3375C77.5748 19.3375 78.1752 19.9537 78.27 20.9176H75.0785C75.2522 19.9537 75.7579 19.3375 76.7375 19.3375ZM76.8797 24.2197C75.821 24.2197 75.2207 23.5403 75.0626 22.4501H80.877C80.8928 20.807 80.4189 19.4008 79.455 18.516C78.7598 17.884 77.8435 17.5048 76.69 17.5048C74.2252 17.5048 72.5347 19.3533 72.5347 21.7708C72.5347 24.2197 74.1779 26.0684 76.848 26.0684C77.8749 26.0684 78.6966 25.7998 79.376 25.3257C80.087 24.836 80.561 24.1408 80.7348 23.414H78.2226C78.0014 23.9196 77.5591 24.2197 76.8797 24.2197Z" fill="black"></path>
      <path d="M93.0138 23.9234C92.8945 23.9281 92.7343 23.9351 92.5871 23.9351C92.034 23.9351 91.6865 23.777 91.6865 23.145V19.353H93.0138V17.7415H91.6865V15.1819H89.1742V17.7415H88.3838V19.353H89.1742V23.698C89.1742 25.4361 90.2487 25.9258 91.7497 25.9258C92.3224 25.9258 92.7552 25.8829 93.0138 25.8324V23.9234Z" fill="black"></path>
      <path d="M59.2286 23.9271C59.1258 23.9311 59.0072 23.9351 58.8965 23.9351C58.3435 23.9351 57.9959 23.777 57.9959 23.145V19.353H59.2286V17.7415H57.9959V15.1819H55.4837V17.7415H54.646V19.353H55.4837V23.698C55.4837 25.4361 56.5581 25.9258 58.0591 25.9258C58.567 25.9258 58.9646 25.892 59.2286 25.8492V23.9271Z" fill="black"></path>
      <path d="M64.8399 20.9176C64.7451 19.9538 64.1446 19.3375 63.3072 19.3375C62.3276 19.3375 61.8221 19.9538 61.6482 20.9176H64.8399ZM59.1045 21.7708C59.1045 19.3534 60.795 17.5049 63.2599 17.5049C64.4132 17.5049 65.3297 17.884 66.0248 18.516C66.9886 19.4008 67.4626 20.807 67.4468 22.4502H61.6325C61.7904 23.5403 62.3908 24.2197 63.4495 24.2197C64.1288 24.2197 64.5713 23.9196 64.7924 23.414H67.3046C67.1308 24.1408 66.6568 24.836 65.9458 25.3258C65.2664 25.7998 64.4448 26.0684 63.4178 26.0684C60.7476 26.0684 59.1045 24.2197 59.1045 21.7708Z" fill="black"></path>
      <path d="M39.2074 19.8439C40.2187 19.8439 40.7874 19.2435 40.7874 18.3428C40.7874 17.4423 40.2028 16.8893 39.2074 16.8893H37.2323V19.8439H39.2074ZM34.625 14.5351H39.0973C40.4718 14.5351 41.483 14.9143 42.1782 15.5779C42.905 16.2572 43.3159 17.2211 43.3159 18.3587C43.3159 20.5232 41.8148 22.0559 39.4922 22.0559H37.2323V25.832H34.625V14.5351Z" fill="black"></path>
      <path d="M21.3689 10.7992C15.9989 10.7992 11.6455 15.1526 11.6455 20.5227C11.6455 24.642 14.2084 28.1635 17.8255 29.5802C17.7405 28.8109 17.6637 27.6278 17.8592 26.7879C18.0359 26.029 18.9994 21.9547 18.9994 21.9547C18.9994 21.9547 18.7085 21.3722 18.7085 20.5111C18.7085 19.1591 19.4922 18.1497 20.468 18.1497C21.2975 18.1497 21.6982 18.7725 21.6982 19.5193C21.6982 20.3536 21.1671 21.6009 20.8929 22.7568C20.6639 23.7246 21.3783 24.5138 22.3328 24.5138C24.061 24.5138 25.3895 22.6916 25.3895 20.0612C25.3895 17.7331 23.7166 16.1054 21.3279 16.1054C18.5612 16.1054 16.9373 18.1805 16.9373 20.3251C16.9373 21.1608 17.2592 22.0569 17.661 22.5441C17.7404 22.6404 17.7521 22.7247 17.7284 22.823C17.6546 23.1301 17.4906 23.7905 17.4584 23.9257C17.4159 24.1037 17.3174 24.1414 17.1332 24.0557C15.9188 23.4904 15.1595 21.7149 15.1595 20.2888C15.1595 17.2216 17.3881 14.4047 21.5841 14.4047C24.9572 14.4047 27.5785 16.8083 27.5785 20.0205C27.5785 23.3716 25.4656 26.0685 22.5329 26.0685C21.5476 26.0685 20.6213 25.5566 20.3042 24.952C20.3042 24.952 19.8167 26.8085 19.6985 27.2634C19.479 28.108 18.8864 29.1666 18.49 29.8125C19.3997 30.0942 20.3666 30.2461 21.3689 30.2461C26.7391 30.2461 31.0925 25.8927 31.0925 20.5227C31.0925 15.1526 26.7391 10.7992 21.3689 10.7992Z" fill="black"></path>
    </g>
  </g>
  <defs>
    <clipPath id="clip0_8912_147393">
      <rect width="81.5388" height="19.9264" fill="white" transform="translate(11.5649 10.5586)"></rect>
    </clipPath>
  </defs>
</svg>
