<?xml version="1.0" encoding="UTF-8"?>
<svg xmlns="http://www.w3.org/2000/svg" width="92" height="22" viewBox="0 0 92 22" fill="none">
  <g clip-path="url(#clip0_113_54)">
    <path fill-rule="evenodd" clip-rule="evenodd" d="M0.17693 14.716C0.100853 14.9144 0.204067 14.9558 0.228536 14.991C0.455877 15.1555 0.686779 15.2748 0.918124 15.4087C2.15493 16.0627 3.32055 16.254 4.53957 16.254C7.02208 16.254 8.56589 14.9327 8.56589 12.8061V12.7643C8.56589 10.7978 6.82187 10.0815 5.19356 9.56994L4.98045 9.50098C3.74809 9.10146 2.6848 8.75354 2.6848 7.94382V7.90244C2.6848 7.20841 3.30765 6.69678 4.26862 6.69678C5.33637 6.69678 6.60877 7.05225 7.42293 7.50204C7.42293 7.50204 7.66405 7.65775 7.7517 7.42507C7.7993 7.29917 8.21437 6.18827 8.25885 6.0637C8.30605 5.93334 8.22325 5.83502 8.13831 5.7843C7.20404 5.21483 5.91384 4.82778 4.57916 4.82778L4.33135 4.82867C2.05794 4.82867 0.469669 6.20339 0.469669 8.16983V8.21209C0.469669 10.2853 2.22256 10.9615 3.85977 11.4287L4.12314 11.5105C5.31546 11.8771 6.34761 12.1957 6.34761 13.0321V13.0739C6.34761 13.8435 5.67582 14.4175 4.59918 14.4175C4.18053 14.4175 2.84629 14.4103 1.40039 13.4966C1.22554 13.3947 1.12589 13.3213 0.991086 13.239C0.919902 13.1958 0.741944 13.1179 0.664532 13.3511L0.175149 14.7124M36.523 14.7124C36.4469 14.9109 36.5501 14.9523 36.5755 14.9874C36.802 15.152 37.0337 15.2712 37.2651 15.4051C38.5019 16.0591 39.6676 16.2504 40.8865 16.2504C43.3691 16.2504 44.9129 14.9291 44.9129 12.8025V12.7607C44.9129 10.7943 43.1733 10.0779 41.5405 9.56634L41.3274 9.49738C40.0951 9.09786 39.0318 8.74994 39.0318 7.94026V7.89888C39.0318 7.20485 39.6546 6.69322 40.6156 6.69322C41.6833 6.69322 42.9513 7.04869 43.7699 7.49848C43.7699 7.49848 44.011 7.65419 44.0991 7.42151C44.1463 7.29561 44.5618 6.18471 44.6019 6.06014C44.6495 5.92979 44.5663 5.83146 44.4817 5.78075C43.5475 5.21128 42.2573 4.82422 40.9226 4.82422L40.6743 4.82511C38.4009 4.82511 36.8126 6.19983 36.8126 8.16627V8.20853C36.8126 10.2817 38.5655 10.958 40.2028 11.4251L40.4657 11.507C41.6625 11.8735 42.6901 12.1921 42.6901 13.0285V13.0703C42.6901 13.84 42.0184 14.4139 40.9417 14.4139C40.5222 14.4139 39.1844 14.4068 37.7429 13.493C37.5681 13.3911 37.4657 13.3208 37.3332 13.2354C37.2882 13.2069 37.0787 13.1251 37.0071 13.3475L36.5177 14.7089M61.3428 10.5447C61.3428 11.7459 61.1185 12.6935 60.6799 13.3653C60.2421 14.0282 59.581 14.353 58.6601 14.353C57.7392 14.353 57.0807 14.0309 56.6492 13.3698C56.2145 12.7024 55.9952 11.7503 55.9952 10.5491C55.9952 9.34794 56.2158 8.40474 56.6492 7.74183C57.0798 7.08339 57.7347 6.76751 58.6601 6.76751C59.5855 6.76751 60.2439 7.08651 60.6799 7.74183C61.1213 8.40474 61.3428 9.34794 61.3428 10.5491M63.416 8.3202C63.2118 7.63062 62.8955 7.02555 62.4729 6.51838C62.0497 6.01119 61.5163 5.6019 60.8801 5.30827C60.2484 5.01241 59.5009 4.86337 58.6557 4.86337C57.8103 4.86337 57.0673 5.0133 56.4312 5.30827C55.7994 5.60367 55.2611 6.01119 54.8385 6.51838C54.4167 7.02555 54.0999 7.63062 53.8953 8.3202C53.6929 9.00538 53.5901 9.75274 53.5901 10.5491C53.5901 11.3455 53.6929 12.0929 53.8953 12.778C54.0985 13.4676 54.4158 14.0727 54.8385 14.5799C55.2615 15.0871 55.7994 15.4919 56.4312 15.7811C57.0673 16.0694 57.8148 16.2162 58.6557 16.2162C59.4965 16.2162 60.2439 16.0694 60.8757 15.7811C61.5074 15.4928 62.0457 15.0871 62.4684 14.5799C62.8906 14.0727 63.2069 13.4676 63.4116 12.778C63.6135 12.0929 63.7163 11.3455 63.7163 10.5491C63.7163 9.75722 63.6135 9.00538 63.4116 8.3202M80.451 14.0148C80.383 13.8133 80.1862 13.8894 80.1862 13.8894C79.8851 14.0046 79.5634 14.1114 79.2209 14.1647C78.8757 14.2191 78.4913 14.2462 78.0864 14.2462C77.0854 14.2462 76.2845 13.9477 75.7151 13.3564C75.1412 12.7647 74.8209 11.8127 74.8253 10.5224C74.8285 9.34794 75.1123 8.46698 75.6217 7.79078C76.1245 7.12343 76.8985 6.77642 77.9218 6.77642C78.776 6.77642 79.43 6.87563 80.1151 7.09007C80.1151 7.09007 80.2774 7.1608 80.355 6.94681C80.5374 6.44408 80.6718 6.08371 80.867 5.53204C80.9222 5.37411 80.787 5.30738 80.7374 5.28824C80.4686 5.18325 79.8344 5.01107 79.3539 4.93855C78.9045 4.87004 78.3841 4.83445 77.7968 4.83445C76.9248 4.83445 76.1507 4.98349 75.4877 5.2789C74.8249 5.57387 74.2643 5.98183 73.8194 6.48901C73.3745 6.99619 73.0364 7.60125 72.8095 8.29083C72.5849 8.97594 72.4714 9.72786 72.4714 10.5242C72.4714 12.2415 72.9341 13.634 73.8505 14.6528C74.767 15.6761 76.1462 16.1922 77.9436 16.1922C79.0069 16.1922 80.0969 15.9773 80.8798 15.6672C80.8798 15.6672 81.0294 15.5951 80.9646 15.4207L80.4526 14.0148M84.079 9.38794C84.1782 8.72058 84.3606 8.16448 84.6478 7.73294C85.0782 7.07449 85.7334 6.71413 86.655 6.71413C87.5758 6.71413 88.1854 7.07628 88.6214 7.73294C88.9102 8.16671 89.0366 8.74282 89.0838 9.38794L84.0566 9.38706L84.079 9.38794ZM91.0638 7.9198C90.887 7.25691 90.4494 6.58511 90.1646 6.27814C89.711 5.7932 89.2702 5.45063 88.8302 5.26378C88.1942 4.99339 87.5102 4.85461 86.819 4.85581C85.943 4.85581 85.1462 5.00396 84.5014 5.30515C83.8566 5.60857 83.3134 6.02143 82.8862 6.53751C82.4598 7.05359 82.139 7.66309 81.9342 8.36154C81.7294 9.05114 81.6262 9.80746 81.6262 10.5994C81.6262 11.4091 81.7334 12.161 81.9446 12.8417C82.1574 13.5268 82.5006 14.1274 82.963 14.6257C83.4262 15.1284 84.0174 15.5199 84.7294 15.7958C85.4366 16.0694 86.2958 16.2113 87.279 16.2082C89.3078 16.2015 90.375 15.7499 90.811 15.5052C90.8894 15.4616 90.9622 15.3864 90.871 15.1698L90.4126 13.884C90.3422 13.6923 90.1486 13.7617 90.1486 13.7617C89.6454 13.9495 88.9334 14.2867 87.2654 14.2823C86.1758 14.2804 85.3702 13.9588 84.863 13.4547C84.347 12.9387 84.0886 12.1867 84.0486 11.1191L91.0782 11.1243C91.0782 11.1243 91.263 11.1226 91.2822 10.9419C91.2902 10.8672 91.523 9.5005 91.0726 7.92113L91.0638 7.9198ZM27.8885 9.38794C27.9877 8.72058 28.171 8.16448 28.458 7.73294C28.8886 7.07449 29.5435 6.71413 30.4645 6.71413C31.3854 6.71413 31.9949 7.07628 32.4309 7.73294C32.7197 8.16671 32.846 8.74282 32.8936 9.38794L27.8663 9.38706L27.8885 9.38794ZM34.8733 7.9198C34.6972 7.25691 34.2594 6.58511 33.9747 6.27814C33.5209 5.7932 33.0805 5.45063 32.64 5.26378C32.0041 4.99339 31.3201 4.85461 30.6291 4.85581C29.7526 4.85581 28.9563 5.00396 28.3112 5.30515C27.6661 5.60857 27.1233 6.02143 26.6962 6.53751C26.2705 7.05359 25.9488 7.66309 25.7441 8.36154C25.5399 9.05114 25.4372 9.80746 25.4372 10.5994C25.4372 11.4091 25.5435 12.161 25.7557 12.8417C25.9684 13.5268 26.3118 14.1274 26.7701 14.6257C27.2328 15.1284 27.8245 15.5199 28.5363 15.7958C29.2437 16.0694 30.0979 16.2113 31.0855 16.2082C33.1142 16.2015 34.182 15.7499 34.618 15.5052C34.6954 15.4616 34.7693 15.3864 34.6772 15.1698L34.2189 13.884C34.1482 13.6923 33.9542 13.7617 33.9542 13.7617C33.4515 13.9495 32.7397 14.2867 31.0713 14.2823C29.9857 14.2804 29.1761 13.9588 28.6689 13.4547C28.1528 12.9387 27.8948 12.1867 27.8547 11.1191L34.8841 11.1243C34.8841 11.1243 35.0691 11.1226 35.0882 10.9419C35.0958 10.8672 35.3289 9.5005 34.8782 7.92113L34.8733 7.9198ZM12.7176 13.9703C12.4422 13.7506 12.404 13.6967 12.3128 13.5539C12.1735 13.3391 12.1023 13.0334 12.1023 12.6419C12.1023 12.0279 12.3069 11.5831 12.7297 11.285C12.7252 11.2859 13.3347 10.76 14.7673 10.7778C15.4049 10.7892 16.041 10.8435 16.6714 10.9402V14.1301H16.6723C16.6723 14.1301 15.7825 14.3219 14.777 14.3823C13.3489 14.4682 12.7172 13.9712 12.7217 13.9726L12.7176 13.9703ZM15.5116 9.03202C15.2269 9.01114 14.8576 9.0009 14.4171 9.0009C13.8165 9.0009 13.2337 9.07562 12.6909 9.22242C12.1437 9.37018 11.6499 9.59882 11.2273 9.90314C10.8034 10.2055 10.4549 10.6013 10.2084 11.0599C9.95973 11.5226 9.83293 12.0653 9.83293 12.6793C9.83293 13.3021 9.94101 13.8404 10.1546 14.2809C10.3638 14.7178 10.6789 15.0955 11.0711 15.3798C11.4613 15.6636 11.943 15.8736 12.4992 15.9982C13.0509 16.1241 13.6737 16.1877 14.3589 16.1877C15.0796 16.1877 15.7958 16.1272 16.4899 16.0102C17.081 15.9083 17.6699 15.7937 18.2561 15.6667C18.4901 15.6129 18.75 15.5422 18.75 15.5422C18.9234 15.4981 18.9101 15.3126 18.9101 15.3126L18.9061 8.9061C18.9061 7.50026 18.5306 6.45475 17.7894 5.80966C17.0509 5.16456 15.9698 4.83979 14.5684 4.83979C14.0434 4.83979 13.1937 4.91097 12.6865 5.01285C12.6865 5.01285 11.1561 5.31004 10.5243 5.80476C10.5243 5.80476 10.3855 5.89019 10.4611 6.08371L10.9594 7.4184C11.0213 7.59147 11.1898 7.53229 11.1898 7.53229C11.1898 7.53229 11.2428 7.51139 11.3051 7.47446C12.6531 6.74038 14.3615 6.76263 14.3615 6.76263C15.1178 6.76263 15.7051 6.91612 16.0966 7.21642C16.4797 7.51049 16.6749 7.95495 16.6749 8.88922V9.18594C16.0744 9.09874 15.5182 9.0485 15.5182 9.0485L15.5116 9.03202ZM72.0132 5.41503C72.0233 5.39158 72.0285 5.36632 72.0287 5.34077C72.0289 5.31523 72.0238 5.28991 72.014 5.26632C72.0042 5.24275 71.9897 5.22139 71.9714 5.20352C71.9532 5.18566 71.9315 5.17165 71.9077 5.16234C71.7881 5.11696 71.1914 4.99106 70.7332 4.96258C69.8523 4.90742 69.3629 5.05601 68.9225 5.25354C68.4873 5.44974 68.006 5.76517 67.739 6.12999L67.7381 5.27579C67.7381 5.15834 67.6549 5.06357 67.5366 5.06357H65.7393C65.6227 5.06357 65.5381 5.15834 65.5381 5.27579V15.7308C65.5383 15.7873 65.5608 15.8415 65.6007 15.8814C65.6406 15.9213 65.6948 15.9438 65.7513 15.9439H67.5931C67.6496 15.9438 67.7037 15.9213 67.7435 15.8813C67.7834 15.8414 67.8057 15.7872 67.8057 15.7308V10.4811C67.8057 9.7781 67.8832 9.07962 68.0376 8.63922C68.1897 8.20363 68.3966 7.85618 68.6515 7.60703C68.8947 7.3664 69.1923 7.18786 69.5191 7.08651C69.8257 6.9985 70.1432 6.95387 70.4622 6.95393C70.8293 6.95393 71.2319 7.04825 71.2319 7.04825C71.3672 7.06338 71.4424 6.98063 71.4881 6.85872C71.6088 6.53795 71.9509 5.57743 72.0176 5.38612" fill="#010202"></path>
    <path fill-rule="evenodd" clip-rule="evenodd" d="M54.8105 0.588391C54.5828 0.519587 54.3512 0.464619 54.1169 0.423782C53.8017 0.371175 53.4825 0.346462 53.163 0.349929C51.8938 0.349929 50.8932 0.708516 50.1906 1.41679C49.4931 2.11972 49.0184 3.19058 48.7804 4.59956L48.6945 5.07515H47.1014C47.1014 5.07515 46.9069 5.06715 46.866 5.27936L46.6044 6.73861C46.5862 6.87831 46.6462 6.96551 46.833 6.96462H48.3839L46.8104 15.7482C46.6871 16.4555 46.5461 17.0374 46.3899 17.4783C46.236 17.9134 46.0856 18.2396 45.9006 18.4762C45.7213 18.7054 45.5513 18.874 45.2582 18.9723C45.0161 19.0538 44.7376 19.0911 44.4324 19.0911C44.2625 19.0911 44.0365 19.0626 43.8696 19.0293C43.7028 18.9963 43.616 18.959 43.491 18.9065C43.491 18.9065 43.309 18.837 43.2374 19.0194C43.1791 19.1685 42.7658 20.3052 42.7169 20.4458C42.667 20.5846 42.7369 20.6941 42.825 20.7256C43.0314 20.7995 43.185 20.8467 43.4661 20.913C43.8567 21.0051 44.1859 21.0108 44.4942 21.0108C45.1402 21.0108 45.7288 20.9201 46.2169 20.7438C46.708 20.5664 47.1356 20.2572 47.5138 19.8386C47.9226 19.387 48.1798 18.914 48.4258 18.269C48.6691 17.6296 48.8765 16.8359 49.0424 15.911L50.6235 6.96462H52.9352C52.9352 6.96462 53.1301 6.97174 53.1706 6.76041L53.4322 5.30116C53.4504 5.16146 53.3908 5.07427 53.203 5.07515H50.9594C50.9706 5.02443 51.0725 4.23519 51.3301 3.49222C51.4399 3.17501 51.6468 2.91919 51.8221 2.74346C51.9858 2.57609 52.1874 2.45065 52.4098 2.37776C52.6537 2.30237 52.9078 2.26574 53.163 2.2692C53.3743 2.2692 53.5817 2.29456 53.7396 2.32748C53.9571 2.37375 54.0417 2.39823 54.0986 2.41513C54.3273 2.48498 54.358 2.41735 54.403 2.30658L54.9394 0.833084C54.9946 0.674701 54.8603 0.607966 54.8105 0.588391ZM23.457 15.7669C23.457 15.8843 23.3734 15.9799 23.2559 15.9799H21.3949C21.277 15.9799 21.1934 15.8843 21.1934 15.7669V0.788151C21.1934 0.671144 21.277 0.576382 21.3949 0.576382H23.2559C23.3734 0.576382 23.457 0.671144 23.457 0.788151V15.7669Z" fill="#010202"></path>
  </g>
  <defs>
    <clipPath id="clip0_113_54">
      <rect width="91.2" height="20.8" fill="white" transform="translate(0.150391 0.349609)"></rect>
    </clipPath>
  </defs>
</svg>
