<?xml version="1.0" encoding="UTF-8"?>
<svg xmlns="http://www.w3.org/2000/svg" width="92" height="42" viewBox="0 0 92 42" fill="none">
  <g clip-path="url(#clip0_113_66)">
    <mask id="mask0_113_66" style="mask-type:luminance" maskUnits="userSpaceOnUse" x="0" y="-8" width="92" height="57">
      <path d="M91.2 -7.00195H0V48.198H91.2V-7.00195Z" fill="white"></path>
    </mask>
    <g mask="url(#mask0_113_66)">
      <path fill-rule="evenodd" clip-rule="evenodd" d="M22.1885 16.541C21.2086 16.541 20.3687 16.8909 19.6688 17.4509V16.681H17.2891V25.71H19.7388V19.9706C20.0888 19.4807 20.9287 18.8508 21.9785 18.8508C22.3285 18.8508 22.6785 18.9207 22.9585 18.9908V16.681C22.6785 16.611 22.3985 16.541 22.1885 16.541Z" fill="black"></path>
      <path fill-rule="evenodd" clip-rule="evenodd" d="M1.11988 22.91C1.74982 23.4699 2.72971 23.8199 3.56963 23.8199C4.19956 23.8199 4.7595 23.4699 4.7595 23.05C4.7595 21.6501 0.349963 22.1401 0.349963 19.2704C0.349963 17.5206 2.02979 16.4707 3.7796 16.4707C4.96948 16.4707 6.22932 16.8906 6.85926 17.3806L5.7394 19.1304C5.24945 18.8504 4.68951 18.5005 3.98958 18.5005C3.28966 18.5005 2.79971 18.7805 2.79971 19.2704C2.79971 20.4603 7.20924 19.9703 7.20924 23.12C7.20924 24.8698 5.52942 25.9197 3.63962 25.9197C2.37975 25.9197 1.04989 25.4997 0 24.7298L1.11988 22.91Z" fill="black"></path>
      <path fill-rule="evenodd" clip-rule="evenodd" d="M16.2377 21.0902C16.2377 18.5705 14.4879 16.4707 11.9682 16.4707C9.30843 16.4707 7.55859 18.7104 7.55859 21.1602C7.55859 24.0299 9.58839 25.8497 12.2481 25.8497C13.648 25.8497 15.0479 25.2898 15.9578 24.2399L14.5579 22.84C14.138 23.33 13.298 23.8899 12.3181 23.8899C11.0583 23.8899 10.0083 22.98 9.86835 21.7202H16.0977C16.2377 21.5802 16.2377 21.3702 16.2377 21.0902ZM10.0784 20.0403C10.2183 19.2004 11.0583 18.4305 12.0381 18.4305C13.0181 18.4305 13.718 19.2004 13.8579 20.0403H10.0784Z" fill="black"></path>
      <path fill-rule="evenodd" clip-rule="evenodd" d="M33.5952 16.6816L29.4656 25.7107H27.7858L23.6562 16.6816H26.106L28.6258 22.2111L31.0755 16.6816H33.5952Z" fill="black"></path>
      <path fill-rule="evenodd" clip-rule="evenodd" d="M35.6258 12.4121C36.5357 12.4121 37.2356 13.1121 37.2356 13.9519C37.2356 14.8618 36.5357 15.4918 35.6258 15.4918C34.7159 15.4918 34.0859 14.7919 34.0859 13.9519C34.0859 13.042 34.7159 12.4121 35.6258 12.4121Z" fill="black"></path>
      <path d="M36.8863 16.6816H34.4365V25.7107H36.8863V16.6816Z" fill="black"></path>
      <path fill-rule="evenodd" clip-rule="evenodd" d="M46.8246 23.8199C45.7747 25.2198 44.4448 25.8497 42.765 25.8497C39.9653 25.8497 37.9355 23.75 37.9355 21.1602C37.9355 18.5005 40.0353 16.4707 42.765 16.4707C44.3749 16.4707 45.7047 17.2406 46.5446 18.2905L44.9348 19.7603C44.4448 19.1304 43.7449 18.7104 42.905 18.7104C41.5051 18.7104 40.4552 19.8303 40.4552 21.1602C40.4552 22.56 41.4352 23.6099 42.905 23.6099C43.8849 23.6099 44.6548 23.05 45.0748 22.4201L46.8246 23.8199Z" fill="black"></path>
      <path fill-rule="evenodd" clip-rule="evenodd" d="M55.5739 24.2399C54.664 25.2898 53.2641 25.8497 51.8643 25.8497C49.2046 25.8497 47.1748 24.0299 47.1748 21.1602C47.1748 18.6405 48.8546 16.4707 51.5843 16.4707C54.0341 16.4707 55.8539 18.5705 55.8539 21.0902C55.8539 21.3702 55.8539 21.5802 55.7839 21.7901H49.4846C49.6245 23.05 50.6744 23.9599 51.9343 23.9599C52.9142 23.9599 53.7541 23.4 54.174 22.91L55.5739 24.2399ZM53.3342 20.0403C53.2641 19.2704 52.5642 18.4305 51.5144 18.4305C50.5344 18.4305 49.6946 19.2004 49.5546 20.0403H53.3342Z" fill="black"></path>
      <path fill-rule="evenodd" clip-rule="evenodd" d="M56.7637 25.7081V16.679H59.0734V17.449C59.7734 16.889 60.613 16.5391 61.5934 16.5391C62.8528 16.5391 63.973 17.099 64.7428 18.0089C65.3026 18.7088 65.7226 19.6187 65.7226 21.1586V25.7781H63.2728V20.9486C63.2728 20.0387 63.0628 19.5488 62.713 19.2688C62.3632 18.9188 61.9432 18.7088 61.3132 18.7088C60.3334 18.7088 59.4934 19.3388 59.0734 19.8287V25.7081H56.7637Z" fill="black"></path>
      <path fill-rule="evenodd" clip-rule="evenodd" d="M71.9525 16.4707C69.0125 16.4707 66.7031 18.7805 66.7031 21.7202C66.7031 23.26 67.3331 24.6599 68.3129 25.6398C68.6627 25.9897 69.2927 25.9897 69.7127 25.7097C70.2725 25.2198 71.1125 24.9398 71.9525 24.9398C72.8621 24.9398 73.5623 25.2198 74.1923 25.7097C74.6123 26.0597 75.1721 25.9897 75.5921 25.5698C76.5719 24.5899 77.2019 23.26 77.2019 21.7202C77.1317 18.8505 74.8223 16.4707 71.9525 16.4707ZM71.8823 24.4499C70.2725 24.4499 69.2225 23.26 69.2225 21.7902C69.2225 20.3203 70.2725 19.1304 71.8823 19.1304C73.4921 19.1304 74.5421 20.3203 74.5421 21.7902C74.5421 23.26 73.4921 24.4499 71.8823 24.4499Z" fill="#777777"></path>
      <path fill-rule="evenodd" clip-rule="evenodd" d="M76.5723 16.6816H78.9519L80.9121 21.8611L82.8717 16.6816H84.9015L86.7915 21.8611L88.7511 16.6816H91.2009L87.6315 25.7107H85.8117L83.8515 20.6012L81.9621 25.7107H80.1423L76.5723 16.6816Z" fill="black"></path>
    </g>
  </g>
  <defs>
    <clipPath id="clip0_113_66">
      <rect width="91.2" height="55.2" fill="white" transform="translate(0 -7)"></rect>
    </clipPath>
  </defs>
</svg>
