<?xml version="1.0" encoding="UTF-8"?>
<svg xmlns="http://www.w3.org/2000/svg" width="32" height="32" viewBox="0 0 32 32" fill="none">
  <circle cx="16" cy="16" r="16" fill="#FFC979"></circle>
  <path d="M16 25L16 10" stroke="black"></path>
  <path d="M13.75 25L13.75 17.125L10.75 11.875" stroke="black"></path>
  <path d="M11.5 25L11.5 17.125L8.875 16" stroke="black"></path>
  <path d="M20.5 25L20.5 17.125L22.75 16" stroke="black"></path>
  <path d="M18.25 25L18.25 17.125L21.25 11.875" stroke="black"></path>
  <circle cx="16" cy="8.5" r="1.5" stroke="black"></circle>
  <circle cx="10" cy="10.75" r="1.5" stroke="black"></circle>
  <circle cx="7.75" cy="15.25" r="1.5" stroke="black"></circle>
  <circle cx="1.5" cy="1.5" r="1.5" transform="matrix(-1 0 0 1 25.75 13.75)" stroke="black"></circle>
  <circle cx="1.5" cy="1.5" r="1.5" transform="matrix(-1 0 0 1 23.5 9.25)" stroke="black"></circle>
</svg>
