<?xml version="1.0" encoding="UTF-8"?>
<svg xmlns="http://www.w3.org/2000/svg" width="92" height="42" viewBox="0 0 92 42" fill="none">
  <g clip-path="url(#clip0_111_11)">
    <mask id="mask0_111_11" style="mask-type:luminance" maskUnits="userSpaceOnUse" x="0" y="-7" width="92" height="56">
      <path d="M91.2 -7H0V48.2H91.2V-7Z" fill="white"></path>
    </mask>
    <g mask="url(#mask0_111_11)">
      <path fill-rule="evenodd" clip-rule="evenodd" d="M34.6609 24.7382V24.8552H30.3235V23.1665L30.3545 23.1616H30.3221C30.3235 23.1601 30.3221 18.7268 30.3221 18.7268C30.3129 18.4682 30.4081 17.313 29.0943 17.3256C29.095 17.3292 27.7453 17.3482 27.7763 18.9736V18.9749L27.7721 23.3631C27.8109 24.7135 28.6171 24.7417 28.62 24.7417V24.8545H24.2346L21.7368 24.8538C21.6402 24.8651 18.5912 24.9644 18.4686 22.1248V20.5896C18.4686 20.5896 17.2605 20.8582 16.8827 21.1479C16.8827 21.1479 15.9157 21.7611 16.5535 22.8134C16.5535 22.8134 17.0279 23.645 18.5609 23.3377L17.8131 24.858H16.3358C16.3358 24.858 12.8878 24.9285 12.484 22.3954C12.484 22.3778 12.1738 20.4079 14.5279 19.61C14.5279 19.61 15.3335 19.3266 16.8651 19.056C16.882 19.056 18.1739 18.8713 18.2944 18.1708C18.3246 18.029 18.3096 17.8813 18.2515 17.7485C18.2726 17.8035 17.6643 16.2064 13.945 17.8211C13.9606 17.8388 14.7105 15.4868 14.7105 15.4868C14.7105 15.4868 18.2134 14.4571 20.6577 15.9577C20.6415 15.9739 21.9348 16.661 21.9172 18.8171L21.9559 21.7984C21.951 21.8407 21.9531 23.3258 23.4149 23.4089C23.4149 23.423 23.9337 23.4188 24.2311 23.4174V16.9091C24.2311 16.8725 24.3108 15.5178 23.4064 15.4572V15.3325L27.7777 15.1626L27.7763 16.2692C28.0138 16.0345 28.9787 15.1753 30.4053 15.1485C30.4053 15.1485 33.8074 15.0294 33.8017 18.3625C33.8032 18.3625 33.8074 23.1594 33.8074 23.1594C33.7806 24.7157 34.6617 24.7382 34.6617 24.7382H34.6609ZM1.01172 11.0718V10.9288H5.75511L9.15939 20.8688L11.677 12.8938C11.677 12.8938 12.1915 11.5519 10.8142 11.0204V10.9062H14.6139L9.81273 24.9616L7.81461 24.1913C7.81461 24.1913 6.19635 23.7134 5.33504 21.286L2.21131 12.6612C2.21131 12.6612 1.81802 11.2678 1.01172 11.0718ZM85.5556 23.1616C85.5328 24.8284 86.4196 24.7403 86.4208 24.7403V24.858L81.958 24.8552V24.8538L81.9568 24.8552V18.8594L81.9556 18.7353C81.9556 18.7917 81.9556 17.2037 80.5636 17.1868C80.5462 17.2037 78.9298 17.0318 78.9298 20.0533C78.9136 20.0695 78.9136 23.5872 81.6466 23.1354C81.6466 23.1495 80.6884 24.8489 80.6884 24.8489C80.6884 24.8489 78.472 25.6129 76.6348 23.65C76.6348 23.65 75.2368 22.4349 75.2368 20.0533C75.2536 20.0695 75.1906 17.8106 76.6348 16.3784C76.6198 16.4249 78.8638 13.8897 81.9556 15.8456V12.6753C81.9556 12.6408 82.0336 11.2847 81.1294 11.2241V11.1014L85.552 10.9302L85.5556 23.1616ZM72.274 16.42C73.243 14.596 75.103 15.1612 75.103 15.1612V17.5463C72.1534 17.0571 72.277 19.278 72.274 19.2646H72.2728L72.271 23.1573C72.2524 24.808 73.0984 24.7432 73.1404 24.741V24.8552H68.728V24.8538H66.1756C66.0832 24.8651 63.0316 24.9644 62.9122 22.1248V20.5896C62.9122 20.5896 61.6996 20.8582 61.3228 21.1479C61.3228 21.1479 60.3586 21.7611 60.9964 22.8134C60.9964 22.8134 61.4686 23.645 63.0022 23.3377L62.2546 24.8594H60.7744C60.7744 24.8594 57.3292 24.9285 56.9253 22.3947C56.9253 22.377 56.6152 20.4064 58.9693 19.6114C58.9693 19.6114 59.7742 19.3266 61.3048 19.056C61.3228 19.056 62.614 18.8713 62.7346 18.1715C62.7658 18.0296 62.7508 17.8814 62.692 17.7485C62.7106 17.8049 62.1052 16.2064 58.3843 17.8211C58.4054 17.8388 59.1525 15.4868 59.1525 15.4868C59.1525 15.4868 62.6566 14.4571 65.101 15.9577C65.083 15.976 66.3748 16.6624 66.3592 18.815L66.3976 21.7984C66.391 21.8428 66.3922 23.3258 67.8562 23.4075C67.8562 23.4216 68.4412 23.4188 68.7262 23.4174V22.6492L68.7274 16.9091C68.7274 16.8725 68.8048 15.5157 67.9018 15.4558V15.3345L72.274 15.1633V16.42Z" fill="black"></path>
      <path fill-rule="evenodd" clip-rule="evenodd" d="M39.7127 20.4319C41.0498 20.4319 40.8947 18.5733 40.8947 18.5451C40.8665 16.9494 39.7156 16.9966 39.7156 16.9966C38.4476 16.9966 38.4983 18.5895 38.4835 18.5733C38.3447 20.3403 39.6176 20.4538 39.7127 20.4319ZM49.6985 15.1494V21.3616C49.6985 21.3616 49.6675 22.7077 50.8953 22.6958C50.8897 22.674 52.1936 22.8924 52.2415 21.0395C52.2436 21.0416 52.2436 21.0444 52.2457 21.0444L52.2472 19.9153V16.9093C52.2472 16.8726 52.3254 15.5179 51.4211 15.4573V15.3326L55.7924 15.1627V23.1595C55.7903 23.1934 55.712 24.6975 56.6593 24.7411V24.8539H52.2415L52.2429 23.7192C52.0632 23.9031 51.0779 24.8384 49.5907 24.8666C49.5907 24.8666 46.1273 24.9879 46.1343 21.6513C46.1216 21.6259 46.1287 18.0983 46.1322 16.8937H43.468C43.5688 16.9769 43.7006 17.1524 43.7006 17.1524C45.1962 19.0674 43.7429 20.6603 43.7295 20.6751C42.7702 22.0177 39.6733 22.3948 39.6733 22.3948L39.4808 22.4167C38.4321 22.4533 38.7655 22.9855 38.769 22.9883C38.9205 23.3428 39.6761 23.2871 39.6761 23.2871H41.4494C45.0397 23.2752 45.4225 25.6271 45.4372 25.6271C46.0271 28.9263 42.7061 29.9103 39.3899 29.8236C36.0998 29.8447 34.8805 28.4125 34.8932 28.4238C34.058 27.4561 34.4992 26.105 35.9786 25.6955C37.0725 25.3938 38.3651 25.6955 38.3651 25.6955C37.3826 25.8329 37.5567 26.833 37.5588 26.8401C37.888 28.0221 39.569 28.0341 39.6704 28.0354C41.8173 27.9248 41.8786 26.8795 41.8786 26.3686C41.8786 25.6941 41.3183 25.2888 41.3183 25.2888C40.5402 24.7172 39.0679 24.8976 38.0431 24.8532C36.6066 24.7714 36.2338 23.4217 36.1654 23.0087C36.0985 22.5915 36.176 22.4237 36.4156 22.2701C36.8491 22.0149 37.8344 21.9028 37.7224 21.905L37.7435 21.9007C37.7252 21.8965 37.7139 21.8965 37.7125 21.8965C36.4769 21.504 35.7432 20.4636 35.7298 20.4636C34.1595 18.2181 35.9906 16.4476 35.9906 16.4476C37.0415 15.4341 38.3764 15.2071 39.569 15.1494H49.6985ZM86.9896 12.6916C86.9896 13.5234 87.6724 14.2014 88.5124 14.2014C89.3512 14.2014 90.0328 13.5234 90.0328 12.6916C90.0328 11.86 89.3524 11.1813 88.5124 11.1813C87.6724 11.1813 86.9896 11.8593 86.9896 12.6916ZM86.746 12.6916C86.746 11.7268 87.5368 10.9395 88.5124 10.9395C89.4862 10.9395 90.2788 11.7268 90.2788 12.6916C90.2788 13.6572 89.4862 14.4438 88.5124 14.4438C88.0462 14.4455 87.598 14.2619 87.2668 13.9334C86.9356 13.6048 86.7478 13.1583 86.746 12.6916Z" fill="black"></path>
      <path fill-rule="evenodd" clip-rule="evenodd" d="M88.1269 12.8018V13.7336H87.8359V11.6699H88.5799C88.9303 11.6699 89.2891 11.7792 89.2891 12.1872C89.2927 12.3027 89.2561 12.4158 89.1847 12.5067C89.1139 12.5977 89.0131 12.6608 88.8997 12.6848V12.6912C89.1487 12.7497 89.1817 12.8829 89.2141 13.1134C89.2459 13.3192 89.2699 13.5391 89.3455 13.7336H89.0353C89.0101 13.6117 88.9759 13.4771 88.9615 13.353C88.9387 13.1684 88.9387 12.9999 88.8433 12.8949C88.7605 12.8018 88.6441 12.8103 88.5289 12.8018H88.1269ZM88.1197 12.5566H88.5961C88.9159 12.5418 88.9879 12.398 88.9879 12.2359C88.9879 12.0723 88.9159 11.9286 88.5961 11.9152H88.1191L88.1197 12.5566Z" fill="black"></path>
    </g>
  </g>
  <defs>
    <clipPath id="clip0_111_11">
      <rect width="91.2" height="55.2" fill="white" transform="translate(0 -7)"></rect>
    </clipPath>
  </defs>
</svg>
