<svg width="24" height="21" viewBox="0 0 24 21" fill="none" xmlns="http://www.w3.org/2000/svg">
<path d="M6 4.9572V1.4606C6 0.930077 6.43008 0.5 6.9606 0.5H22.0394C22.5699 0.5 23 0.930077 23 1.4606V19.0394C23 19.5699 22.5699 20 22.0394 20H6.9606C6.43008 20 6 19.5699 6 19.0394V14.8716" stroke="white"/>
<mask id="path-2-inside-1" fill="white">
<rect y="4.32251" width="11.5272" height="11.0469" rx="0.960603"/>
</mask>
<rect y="4.32251" width="11.5272" height="11.0469" rx="0.960603" stroke="white" stroke-width="2" mask="url(#path-2-inside-1)"/>
<path d="M7.81324 12.9972C7.46689 12.9972 7.12076 12.9972 6.77441 12.9972C6.77101 12.9944 6.76761 12.9916 6.76422 12.9888C6.70416 12.7928 6.64304 12.5971 6.58447 12.4008C6.23642 11.2359 5.88922 10.0708 5.54138 8.90563C5.53778 8.89375 5.53332 8.88208 5.52716 8.8648C5.44694 9.12055 5.368 9.37155 5.28926 9.62255C4.94312 10.7263 4.59677 11.8301 4.25212 12.9345C4.23663 12.984 4.21668 13.0004 4.1649 13C3.85569 12.9972 3.54648 12.9987 3.23727 12.9985C3.21795 12.9985 3.19843 12.997 3.17912 12.9961C3.17678 12.9935 3.17424 12.9911 3.1719 12.9885C3.09656 12.606 3.02165 12.2235 2.94546 11.8409C2.88285 11.5262 2.81749 11.2119 2.75573 10.897C2.59975 10.1021 2.44525 9.30675 2.28947 8.51185C2.19461 8.02757 2.09868 7.54372 2.0034 7.05965C2.00106 7.04734 2.00106 7.0346 2 7.02207C2.00064 7.01494 2.00127 7.00803 2.00212 7.0009C2.35017 7.0009 2.69822 7.0009 3.0539 7.0009C3.32746 8.39046 3.60102 9.78023 3.87458 11.1702C3.87797 11.1707 3.88158 11.1709 3.88497 11.1713C3.90089 11.1199 3.91702 11.0687 3.93273 11.0171C4.32194 9.73508 4.71116 8.4531 5.09911 7.17068C5.11163 7.12942 5.12967 7.11646 5.17254 7.11689C5.44461 7.1197 5.71668 7.11905 5.98896 7.11949C5.99236 7.12229 5.99576 7.1251 5.99915 7.12791C6.05539 7.31756 6.11269 7.507 6.16766 7.69708C6.49915 8.8445 6.83001 9.99213 7.16129 11.1395C7.16426 11.1497 7.16702 11.1601 7.17912 11.1722C7.19609 11.0918 7.21413 11.0117 7.23005 10.9311C7.34168 10.3639 7.45289 9.79686 7.56409 9.22963C7.70755 8.49673 7.85059 7.76383 7.99554 7.03136C7.99809 7.0184 8.02228 7.0009 8.0365 7.00068C8.35463 6.99939 8.67275 7.00025 8.99066 7.00068C8.99385 7.00349 8.99703 7.0063 9 7.00911C8.96795 7.17932 8.93654 7.34996 8.90344 7.51996C8.81239 7.98502 8.72071 8.45007 8.62924 8.91513C8.51868 9.47739 8.40811 10.0397 8.29733 10.6019C8.14325 11.3836 7.98896 12.1654 7.83468 12.9469C7.83192 12.9609 7.82767 12.9745 7.82407 12.9883C7.82025 12.9918 7.81685 12.9944 7.81324 12.9972Z" fill="white"/>
<path d="M23 6H11" stroke="white"/>
<path d="M23 10L11 10" stroke="white"/>
<path d="M23 14H11" stroke="white"/>
</svg>
