<?xml version="1.0" encoding="UTF-8"?>
<svg xmlns="http://www.w3.org/2000/svg" width="32" height="32" viewBox="0 0 32 32" fill="none">
  <g clip-path="url(#clip0_539_487)">
    <rect width="32" height="32" fill="#C5FF7B"></rect>
    <path d="M4.72344 7H10.2234V9.66H7.38344V13.66H10.2234V16.34H7.38344V20.34H10.2234V23H4.72344V7ZM16.4572 9.8C18.2972 9.8 18.7372 11.1 18.7372 13.92V23H16.0772V13.7C16.0772 12.64 15.7772 12.26 15.1172 12.26C14.4172 12.26 14.0772 12.7 14.0772 13.72V23H11.4172V10H14.0772V11.46C14.3972 10.74 15.0972 9.8 16.4572 9.8ZM24.6069 11.46V10H27.2669V22.64C27.2669 25.76 26.7269 27 23.8469 27H20.5069V24.54H23.2069C24.2069 24.54 24.6069 24.14 24.6069 22.64V21.54C24.2869 22.26 23.5869 23.2 22.2269 23.2C20.3869 23.2 19.9469 21.9 19.9469 19.08V13.92C19.9469 11.1 20.3869 9.8 22.2269 9.8C23.5869 9.8 24.2869 10.74 24.6069 11.46ZM23.5669 20.74C24.2669 20.74 24.6069 20.3 24.6069 19.28V13.72C24.6069 12.7 24.2669 12.26 23.5669 12.26C22.9069 12.26 22.6069 12.64 22.6069 13.7V19.3C22.6069 20.36 22.9069 20.74 23.5669 20.74Z" fill="black"></path>
  </g>
  <defs>
    <clipPath id="clip0_539_487">
      <rect width="32" height="32" fill="white"></rect>
    </clipPath>
  </defs>
</svg>
